<svg width="390" height="390" viewBox="0 0 390 390" fill="none" xmlns="http://www.w3.org/2000/svg">
<circle cx="195" cy="195" r="194.5" stroke="#E1D5C6"/>
<circle cx="173.275" cy="186.275" r="24.9687" fill="#B6AC9E"/>
<path d="M174.342 198.892C179.732 198.892 183.663 195.797 184.179 189.892H180.71C180.283 193.716 177.829 195.762 174.662 195.762C169.86 195.762 166.871 192.115 166.871 185.623C166.871 179.148 169.788 175.43 174.413 175.43C177.829 175.43 180.426 177.351 180.852 181.371H184.214C183.876 175.537 179.732 172.371 174.52 172.371C167.672 172.371 163.367 177.582 163.367 185.765C163.367 194.036 167.814 198.892 174.342 198.892ZM163.83 185.623C163.83 184.893 164.417 184.306 165.146 184.306C165.875 184.306 166.462 184.893 166.462 185.623C166.462 186.352 165.875 186.939 165.146 186.939C164.417 186.939 163.83 186.352 163.83 185.623Z" fill="#302112"/>
<circle cx="269.94" cy="186.275" r="24.9687" fill="#B6AC9E"/>
<path d="M271.006 199.249C276.395 199.249 280.327 196.154 280.842 190.249H277.374C276.947 194.073 274.492 196.119 271.326 196.119C266.523 196.119 263.535 192.472 263.535 185.98C263.535 179.505 266.452 175.787 271.077 175.787C274.492 175.787 277.089 177.708 277.516 181.728H280.878C280.54 175.894 276.395 172.728 271.184 172.728C264.335 172.728 260.031 177.94 260.031 186.122C260.031 194.393 264.478 199.249 271.006 199.249ZM260.493 185.98C260.493 185.25 261.08 184.663 261.809 184.663C262.539 184.663 263.126 185.25 263.126 185.98C263.126 186.709 262.539 187.296 261.809 187.296C261.08 187.296 260.493 186.709 260.493 185.98Z" fill="#302112"/>
<path d="M312.047 117.924C318.575 117.924 322.649 112.535 322.649 104.655C322.649 96.8282 318.504 91.4029 312.047 91.4029C305.608 91.4029 301.446 96.7926 301.446 104.655C301.446 112.535 305.573 117.924 312.047 117.924ZM301.908 104.655C301.908 103.926 302.495 103.339 303.225 103.339C303.954 103.339 304.541 103.926 304.541 104.655C304.541 105.384 303.954 105.971 303.225 105.971C302.495 105.971 301.908 105.384 301.908 104.655ZM304.95 104.655C304.95 98.2512 307.725 94.4624 312.047 94.4624C316.388 94.4624 319.162 98.2512 319.162 104.655C319.162 111.112 316.388 114.865 312.047 114.865C307.725 114.865 304.95 111.076 304.95 104.655ZM319.572 104.655C319.572 103.926 320.159 103.339 320.888 103.339C321.617 103.339 322.204 103.926 322.204 104.655C322.204 105.384 321.617 105.971 320.888 105.971C320.159 105.971 319.572 105.384 319.572 104.655Z" fill="#302112"/>
<circle cx="312.032" cy="104.951" r="24.9687" fill="#B6AC9E"/>
<path d="M312.048 117.926C318.576 117.926 322.649 112.536 322.649 104.656C322.649 96.8293 318.505 91.404 312.048 91.404C305.609 91.404 301.446 96.7937 301.446 104.656C301.446 112.536 305.573 117.926 312.048 117.926ZM301.909 104.656C301.909 103.927 302.496 103.34 303.225 103.34C303.954 103.34 304.541 103.927 304.541 104.656C304.541 105.385 303.954 105.972 303.225 105.972C302.496 105.972 301.909 105.385 301.909 104.656ZM304.951 104.656C304.951 98.2523 307.725 94.4635 312.048 94.4635C316.388 94.4635 319.163 98.2523 319.163 104.656C319.163 111.113 316.388 114.866 312.048 114.866C307.725 114.866 304.951 111.077 304.951 104.656ZM319.572 104.656C319.572 103.927 320.159 103.34 320.888 103.34C321.618 103.34 322.205 103.927 322.205 104.656C322.205 105.385 321.618 105.972 320.888 105.972C320.159 105.972 319.572 105.385 319.572 104.656Z" fill="#302112"/>
<circle cx="312.032" cy="268.675" r="24.9687" fill="#B6AC9E"/>
<path d="M318.078 269.803V281.133H321.44V255.626H318.078V266.085C318.078 266.298 318.309 266.53 318.558 266.53H319.145C319.945 266.53 320.568 267.188 320.568 267.988C320.568 268.753 319.945 269.358 319.145 269.358H318.558C318.309 269.358 318.078 269.589 318.078 269.803ZM303.367 281.133H306.711V269.803C306.711 269.589 306.498 269.358 306.249 269.358H305.662C304.861 269.358 304.239 268.753 304.239 267.988C304.239 267.188 304.861 266.53 305.662 266.53H306.249C306.498 266.53 306.711 266.298 306.711 266.085V255.626H303.367V281.133ZM306.836 267.988C306.836 268.789 307.529 269.447 308.365 269.447H316.441C317.277 269.447 317.971 268.789 317.971 267.988C317.971 267.152 317.277 266.459 316.441 266.459H308.365C307.529 266.459 306.836 267.152 306.836 267.988Z" fill="#302112"/>
<circle cx="173.275" cy="282.585" r="24.9687" fill="#B6AC9E"/>
<path d="M179.323 283.713V295.044H182.685V269.536H179.323V279.995C179.323 280.209 179.554 280.44 179.803 280.44H180.39C181.19 280.44 181.813 281.098 181.813 281.899C181.813 282.663 181.19 283.268 180.39 283.268H179.803C179.554 283.268 179.323 283.499 179.323 283.713ZM164.612 295.044H167.956V283.713C167.956 283.499 167.743 283.268 167.494 283.268H166.907C166.106 283.268 165.484 282.663 165.484 281.899C165.484 281.098 166.106 280.44 166.907 280.44H167.494C167.743 280.44 167.956 280.209 167.956 279.995V269.536H164.612V295.044ZM168.081 281.899C168.081 282.699 168.775 283.357 169.611 283.357H177.686C178.522 283.357 179.216 282.699 179.216 281.899C179.216 281.063 178.522 280.369 177.686 280.369H169.611C168.775 280.369 168.081 281.063 168.081 281.899Z" fill="#302112"/>
<circle cx="76.9687" cy="186.275" r="24.9687" fill="#B6AC9E"/>
<path d="M83.0161 187.403V198.733H86.378V173.226H83.0161V183.685C83.0161 183.898 83.2473 184.13 83.4964 184.13H84.0834C84.8838 184.13 85.5064 184.788 85.5064 185.588C85.5064 186.353 84.8838 186.958 84.0834 186.958H83.4964C83.2473 186.958 83.0161 187.189 83.0161 187.403ZM68.3056 198.733H71.6497V187.403C71.6497 187.189 71.4363 186.958 71.1872 186.958H70.6002C69.7998 186.958 69.1772 186.353 69.1772 185.588C69.1772 184.788 69.7998 184.13 70.6002 184.13H71.1872C71.4363 184.13 71.6497 183.898 71.6497 183.685V173.226H68.3056V198.733ZM71.7742 185.588C71.7742 186.389 72.4679 187.047 73.304 187.047H81.3796C82.2156 187.047 82.9094 186.389 82.9094 185.588C82.9094 184.752 82.2156 184.058 81.3796 184.058H73.304C72.4679 184.058 71.7742 184.752 71.7742 185.588Z" fill="#302112"/>
<circle cx="173.275" cy="89.9687" r="24.9687" fill="#B6AC9E"/>
<path d="M179.323 91.0962V102.427H182.685V76.9193H179.323V87.3786C179.323 87.592 179.554 87.8232 179.803 87.8232H180.39C181.19 87.8232 181.813 88.4814 181.813 89.2818C181.813 90.0467 181.19 90.6515 180.39 90.6515H179.803C179.554 90.6515 179.323 90.8827 179.323 91.0962ZM164.612 102.427H167.956V91.0962C167.956 90.8827 167.743 90.6515 167.494 90.6515H166.907C166.106 90.6515 165.484 90.0467 165.484 89.2818C165.484 88.4814 166.106 87.8232 166.907 87.8232H167.494C167.743 87.8232 167.956 87.592 167.956 87.3786V76.9193H164.612V102.427ZM168.081 89.2818C168.081 90.0823 168.775 90.7404 169.611 90.7404H177.686C178.522 90.7404 179.216 90.0823 179.216 89.2818C179.216 88.4458 178.522 87.7521 177.686 87.7521H169.611C168.775 87.7521 168.081 88.4458 168.081 89.2818Z" fill="#302112"/>
<line y1="-1.81615" x2="32.3358" y2="-1.81615" transform="matrix(1.19249e-08 -1 -1 -1.19249e-08 171.137 250.481)" stroke="#E1D5C6" stroke-width="3.6323"/>
<line y1="-1.81615" x2="32.3358" y2="-1.81615" transform="matrix(1.19249e-08 -1 -1 -1.19249e-08 171.128 154.174)" stroke="#E1D5C6" stroke-width="3.6323"/>
<line y1="-1.81615" x2="32.3358" y2="-1.81615" transform="matrix(1 5.56363e-08 5.56363e-08 -1 109.071 186.164)" stroke="#E1D5C6" stroke-width="3.6323"/>
<line y1="-1.81615" x2="32.3358" y2="-1.81615" transform="matrix(1 5.56363e-08 5.56363e-08 -1 205.38 186.155)" stroke="#E1D5C6" stroke-width="3.6323"/>
<line y1="-1.81615" x2="32.3358" y2="-1.81615" transform="matrix(0.5 0.866025 0.866025 -0.5 282.069 213.742)" stroke="#E1D5C6" stroke-width="3.6323"/>
<line x1="287.63" y1="162.721" x2="303.798" y2="134.718" stroke="#E1D5C6" stroke-width="3.6323"/>
<line x1="276.572" y1="156.301" x2="292.74" y2="128.297" stroke="#E1D5C6" stroke-width="3.6323"/>
</svg>
