<svg width="390" height="391" viewBox="0 0 390 391" fill="none" xmlns="http://www.w3.org/2000/svg">
<line y1="-1.45346" x2="26.5572" y2="-1.45346" transform="matrix(-0.87328 -0.487218 0.512892 -0.858453 300.125 254.91)" stroke="#E1D5C6" stroke-width="2.90693"/>
<line y1="-1.45346" x2="26.4558" y2="-1.45346" transform="matrix(-0.807711 0.589578 -0.615851 -0.787863 297.73 136.199)" stroke="#E1D5C6" stroke-width="2.90693"/>
<path d="M215.054 125.561C215.054 136.513 205.864 145.4 194.518 145.4C183.172 145.4 173.983 136.513 173.983 125.561C173.983 114.608 183.172 105.721 194.518 105.721C205.864 105.721 215.054 114.608 215.054 125.561Z" fill="#B6AC9E" stroke="#E1D5C6" stroke-width="0.285463"/>
<path d="M195.38 136.132C199.693 136.132 202.839 133.655 203.252 128.928H200.476C200.135 131.989 198.17 133.626 195.636 133.626C191.793 133.626 189.401 130.708 189.401 125.512C189.401 120.33 191.736 117.355 195.437 117.355C198.17 117.355 200.249 118.892 200.59 122.11H203.281C203.01 117.44 199.693 114.906 195.522 114.906C190.042 114.906 186.597 119.077 186.597 125.626C186.597 132.245 190.156 136.132 195.38 136.132ZM186.967 125.512C186.967 124.928 187.437 124.458 188.02 124.458C188.604 124.458 189.074 124.928 189.074 125.512C189.074 126.096 188.604 126.565 188.02 126.565C187.437 126.565 186.967 126.096 186.967 125.512Z" fill="#302112"/>
<path d="M203.252 128.928L203.451 128.946L203.47 128.729H203.252V128.928ZM200.476 128.928V128.729H200.298L200.278 128.906L200.476 128.928ZM200.59 122.11L200.392 122.131L200.411 122.309H200.59V122.11ZM203.281 122.11V122.309H203.493L203.48 122.098L203.281 122.11ZM195.38 136.331C197.575 136.331 199.49 135.701 200.911 134.452C202.333 133.203 203.241 131.351 203.451 128.946L203.053 128.911C202.851 131.232 201.979 132.982 200.647 134.152C199.313 135.324 197.499 135.932 195.38 135.932V136.331ZM203.252 128.729H200.476V129.128H203.252V128.729ZM200.278 128.906C200.111 130.398 199.552 131.525 198.742 132.279C197.933 133.032 196.859 133.426 195.636 133.426V133.826C196.947 133.826 198.123 133.402 199.015 132.571C199.906 131.741 200.5 130.519 200.675 128.951L200.278 128.906ZM195.636 133.426C193.77 133.426 192.272 132.721 191.235 131.394C190.193 130.062 189.601 128.082 189.601 125.512H189.201C189.201 128.137 189.805 130.215 190.92 131.641C192.04 133.072 193.659 133.826 195.636 133.826V133.426ZM189.601 125.512C189.601 122.948 190.179 120.956 191.191 119.61C192.198 118.271 193.646 117.555 195.437 117.555V117.155C193.527 117.155 191.957 117.926 190.871 119.37C189.791 120.808 189.201 122.894 189.201 125.512H189.601ZM195.437 117.555C196.766 117.555 197.919 117.928 198.779 118.677C199.638 119.424 200.225 120.562 200.392 122.131L200.789 122.088C200.614 120.44 199.991 119.201 199.042 118.375C198.094 117.55 196.841 117.155 195.437 117.155V117.555ZM200.59 122.309H203.281V121.91H200.59V122.309ZM203.48 122.098C203.342 119.716 202.425 117.863 200.996 116.607C199.569 115.353 197.648 114.707 195.522 114.707V115.106C197.568 115.106 199.39 115.727 200.732 116.907C202.072 118.085 202.949 119.834 203.081 122.121L203.48 122.098ZM195.522 114.707C192.727 114.707 190.438 115.772 188.851 117.683C187.267 119.589 186.397 122.318 186.397 125.626H186.797C186.797 122.385 187.649 119.754 189.158 117.938C190.664 116.126 192.837 115.106 195.522 115.106V114.707ZM186.397 125.626C186.397 128.97 187.296 131.647 188.878 133.491C190.462 135.338 192.715 136.331 195.38 136.331V135.932C192.821 135.932 190.682 134.982 189.181 133.231C187.677 131.477 186.797 128.901 186.797 125.626H186.397ZM187.167 125.512C187.167 125.039 187.547 124.658 188.02 124.658V124.259C187.326 124.259 186.767 124.818 186.767 125.512H187.167ZM188.02 124.658C188.494 124.658 188.874 125.039 188.874 125.512H189.274C189.274 124.818 188.714 124.259 188.02 124.259V124.658ZM188.874 125.512C188.874 125.985 188.494 126.365 188.02 126.365V126.765C188.714 126.765 189.274 126.206 189.274 125.512H188.874ZM188.02 126.365C187.547 126.365 187.167 125.985 187.167 125.512H186.767C186.767 126.206 187.326 126.765 188.02 126.765V126.365Z" fill="#E1D5C6"/>
<path d="M277.093 165.525C277.093 176.478 267.904 185.365 256.557 185.365C245.211 185.365 236.022 176.478 236.022 165.525C236.022 154.573 245.211 145.686 256.557 145.686C267.904 145.686 277.093 154.573 277.093 165.525Z" fill="#B6AC9E" stroke="#E1D5C6" stroke-width="0.285463"/>
<path d="M257.419 176.096C261.732 176.096 264.879 173.619 265.291 168.893H262.515C262.174 171.954 260.209 173.591 257.675 173.591C253.832 173.591 251.44 170.673 251.44 165.477C251.44 160.295 253.775 157.32 257.476 157.32C260.209 157.32 262.288 158.857 262.629 162.074H265.32C265.049 157.405 261.732 154.871 257.561 154.871C252.081 154.871 248.636 159.042 248.636 165.591C248.636 172.21 252.195 176.096 257.419 176.096ZM249.006 165.477C249.006 164.893 249.476 164.423 250.059 164.423C250.643 164.423 251.113 164.893 251.113 165.477C251.113 166.06 250.643 166.53 250.059 166.53C249.476 166.53 249.006 166.06 249.006 165.477Z" fill="#302112"/>
<path d="M265.291 168.893L265.49 168.911L265.509 168.693H265.291V168.893ZM262.515 168.893V168.693H262.337L262.317 168.871L262.515 168.893ZM262.629 162.074L262.431 162.096L262.45 162.274H262.629V162.074ZM265.32 162.074V162.274H265.532L265.519 162.063L265.32 162.074ZM257.419 176.296C259.614 176.296 261.529 175.666 262.95 174.417C264.372 173.168 265.28 171.316 265.49 168.911L265.092 168.876C264.89 171.197 264.018 172.946 262.686 174.117C261.352 175.289 259.538 175.897 257.419 175.897V176.296ZM265.291 168.693H262.515V169.093H265.291V168.693ZM262.317 168.871C262.15 170.363 261.591 171.49 260.781 172.244C259.972 172.997 258.898 173.391 257.675 173.391V173.791C258.987 173.791 260.162 173.366 261.054 172.536C261.945 171.706 262.539 170.484 262.714 168.915L262.317 168.871ZM257.675 173.391C255.809 173.391 254.311 172.685 253.274 171.359C252.232 170.027 251.64 168.047 251.64 165.477H251.24C251.24 168.102 251.844 170.18 252.959 171.605C254.079 173.037 255.698 173.791 257.675 173.791V173.391ZM251.64 165.477C251.64 162.913 252.218 160.921 253.23 159.575C254.237 158.236 255.685 157.52 257.476 157.52V157.12C255.566 157.12 253.996 157.891 252.91 159.335C251.83 160.772 251.24 162.859 251.24 165.477H251.64ZM257.476 157.52C258.805 157.52 259.958 157.893 260.818 158.641C261.677 159.389 262.264 160.527 262.431 162.096L262.828 162.053C262.653 160.405 262.03 159.166 261.081 158.34C260.133 157.515 258.88 157.12 257.476 157.12V157.52ZM262.629 162.274H265.32V161.875H262.629V162.274ZM265.519 162.063C265.381 159.681 264.464 157.828 263.035 156.572C261.608 155.317 259.687 154.671 257.561 154.671V155.071C259.607 155.071 261.429 155.692 262.771 156.872C264.111 158.05 264.988 159.799 265.12 162.086L265.519 162.063ZM257.561 154.671C254.766 154.671 252.477 155.737 250.89 157.648C249.306 159.554 248.436 162.283 248.436 165.591H248.836C248.836 162.35 249.688 159.719 251.197 157.903C252.703 156.091 254.876 155.071 257.561 155.071V154.671ZM248.436 165.591C248.436 168.935 249.335 171.612 250.917 173.456C252.501 175.303 254.754 176.296 257.419 176.296V175.897C254.86 175.897 252.721 174.947 251.22 173.196C249.716 171.442 248.836 168.866 248.836 165.591H248.436ZM249.206 165.477C249.206 165.003 249.586 164.623 250.059 164.623V164.223C249.365 164.223 248.806 164.783 248.806 165.477H249.206ZM250.059 164.623C250.533 164.623 250.913 165.003 250.913 165.477H251.313C251.313 164.783 250.753 164.223 250.059 164.223V164.623ZM250.913 165.477C250.913 165.95 250.533 166.33 250.059 166.33V166.73C250.753 166.73 251.313 166.171 251.313 165.477H250.913ZM250.059 166.33C249.586 166.33 249.206 165.95 249.206 165.477H248.806C248.806 166.171 249.365 166.73 250.059 166.73V166.33Z" fill="#E1D5C6"/>
<path d="M92.1673 122.135C92.1673 133.087 82.9778 141.974 71.6316 141.974C60.2854 141.974 51.0959 133.087 51.0959 122.135C51.0959 111.182 60.2854 102.295 71.6316 102.295C82.9778 102.295 92.1673 111.182 92.1673 122.135Z" fill="#B6AC9E" stroke="#E1D5C6" stroke-width="0.285463"/>
<path d="M76.4793 123.225V132.293H79.1698V111.879H76.4793V120.25C76.4793 120.421 76.6644 120.606 76.8636 120.606H77.3334C77.974 120.606 78.4723 121.132 78.4723 121.773C78.4723 122.385 77.974 122.869 77.3334 122.869H76.8636C76.6644 122.869 76.4793 123.054 76.4793 123.225ZM64.7065 132.293H67.3828V123.225C67.3828 123.054 67.212 122.869 67.0127 122.869H66.5429C65.9023 122.869 65.4041 122.385 65.4041 121.773C65.4041 121.132 65.9023 120.606 66.5429 120.606H67.0127C67.212 120.606 67.3828 120.421 67.3828 120.25V111.879H64.7065V132.293ZM67.4824 121.773C67.4824 122.414 68.0376 122.94 68.7067 122.94H75.1696C75.8387 122.94 76.3939 122.414 76.3939 121.773C76.3939 121.104 75.8387 120.549 75.1696 120.549H68.7067C68.0376 120.549 67.4824 121.104 67.4824 121.773Z" fill="#302112"/>
<path d="M76.4793 132.293H76.2795V132.493H76.4793V132.293ZM79.1698 132.293V132.493H79.3696V132.293H79.1698ZM79.1698 111.879H79.3696V111.679H79.1698V111.879ZM76.4793 111.879V111.679H76.2795V111.879H76.4793ZM64.7065 132.293H64.5067V132.493H64.7065V132.293ZM67.3828 132.293V132.493H67.5826V132.293H67.3828ZM67.3828 111.879H67.5826V111.679H67.3828V111.879ZM64.7065 111.879V111.679H64.5067V111.879H64.7065ZM76.2795 123.225V132.293H76.6791V123.225H76.2795ZM76.4793 132.493H79.1698V132.093H76.4793V132.493ZM79.3696 132.293V111.879H78.97V132.293H79.3696ZM79.1698 111.679H76.4793V112.079H79.1698V111.679ZM76.2795 111.879V120.25H76.6791V111.879H76.2795ZM76.2795 120.25C76.2795 120.405 76.3602 120.543 76.4591 120.637C76.5597 120.732 76.703 120.805 76.8636 120.805V120.406C76.825 120.406 76.7761 120.387 76.7344 120.347C76.6909 120.306 76.6791 120.266 76.6791 120.25H76.2795ZM76.8636 120.805H77.3334V120.406H76.8636V120.805ZM77.3334 120.805C77.8573 120.805 78.2724 121.236 78.2724 121.773H78.6721C78.6721 121.028 78.0908 120.406 77.3334 120.406V120.805ZM78.2724 121.773C78.2724 122.268 77.8704 122.669 77.3334 122.669V123.069C78.0777 123.069 78.6721 122.502 78.6721 121.773H78.2724ZM77.3334 122.669H76.8636V123.069H77.3334V122.669ZM76.8636 122.669C76.703 122.669 76.5597 122.743 76.4591 122.838C76.3602 122.932 76.2795 123.07 76.2795 123.225H76.6791C76.6791 123.209 76.6909 123.169 76.7344 123.128C76.7761 123.088 76.825 123.069 76.8636 123.069V122.669ZM64.7065 132.493H67.3828V132.093H64.7065V132.493ZM67.5826 132.293V123.225H67.183V132.293H67.5826ZM67.5826 123.225C67.5826 123.075 67.5102 122.938 67.4138 122.842C67.3159 122.744 67.1747 122.669 67.0127 122.669V123.069C67.0499 123.069 67.0938 123.087 67.1312 123.124C67.1699 123.163 67.183 123.204 67.183 123.225H67.5826ZM67.0127 122.669H66.5429V123.069H67.0127V122.669ZM66.5429 122.669C66.0059 122.669 65.6039 122.268 65.6039 121.773H65.2042C65.2042 122.502 65.7987 123.069 66.5429 123.069V122.669ZM65.6039 121.773C65.6039 121.236 66.019 120.805 66.5429 120.805V120.406C65.7856 120.406 65.2042 121.028 65.2042 121.773H65.6039ZM66.5429 120.805H67.0127V120.406H66.5429V120.805ZM67.0127 120.805C67.1747 120.805 67.3159 120.731 67.4138 120.633C67.5102 120.537 67.5826 120.399 67.5826 120.25H67.183C67.183 120.271 67.1699 120.312 67.1312 120.35C67.0938 120.388 67.0499 120.406 67.0127 120.406V120.805ZM67.5826 120.25V111.879H67.183V120.25H67.5826ZM67.3828 111.679H64.7065V112.079H67.3828V111.679ZM64.5067 111.879V132.293H64.9063V111.879H64.5067ZM67.2826 121.773C67.2826 122.533 67.9366 123.14 68.7067 123.14V122.74C68.1386 122.74 67.6823 122.294 67.6823 121.773H67.2826ZM68.7067 123.14H75.1696V122.74H68.7067V123.14ZM75.1696 123.14C75.9397 123.14 76.5937 122.533 76.5937 121.773H76.1941C76.1941 122.294 75.7377 122.74 75.1696 122.74V123.14ZM76.5937 121.773C76.5937 120.993 75.9491 120.349 75.1696 120.349V120.748C75.7283 120.748 76.1941 121.214 76.1941 121.773H76.5937ZM75.1696 120.349H68.7067V120.748H75.1696V120.349ZM68.7067 120.349C67.9273 120.349 67.2826 120.993 67.2826 121.773H67.6823C67.6823 121.214 68.148 120.748 68.7067 120.748V120.349Z" fill="#E1D5C6"/>
<path d="M341.784 266.861C341.784 277.814 332.595 286.701 321.249 286.701C309.903 286.701 300.713 277.814 300.713 266.861C300.713 255.909 309.903 247.022 321.249 247.022C332.595 247.022 341.784 255.909 341.784 266.861Z" fill="#B6AC9E" stroke="#E1D5C6" stroke-width="0.285463"/>
<path d="M326.096 267.952V277.02H328.787V256.606H326.096V264.976C326.096 265.147 326.282 265.332 326.481 265.332H326.951C327.591 265.332 328.089 265.859 328.089 266.499C328.089 267.112 327.591 267.596 326.951 267.596H326.481C326.282 267.596 326.096 267.781 326.096 267.952ZM314.324 277.02H317V267.952C317 267.781 316.829 267.596 316.63 267.596H316.16C315.519 267.596 315.021 267.112 315.021 266.499C315.021 265.859 315.519 265.332 316.16 265.332H316.63C316.829 265.332 317 265.147 317 264.976V256.606H314.324V277.02ZM317.1 266.499C317.1 267.14 317.655 267.667 318.324 267.667H324.787C325.456 267.667 326.011 267.14 326.011 266.499C326.011 265.83 325.456 265.275 324.787 265.275H318.324C317.655 265.275 317.1 265.83 317.1 266.499Z" fill="#302112"/>
<path d="M326.096 277.02H325.897V277.219H326.096V277.02ZM328.787 277.02V277.219H328.987V277.02H328.787ZM328.787 256.606H328.987V256.406H328.787V256.606ZM326.096 256.606V256.406H325.897V256.606H326.096ZM314.324 277.02H314.124V277.219H314.324V277.02ZM317 277.02V277.219H317.2V277.02H317ZM317 256.606H317.2V256.406H317V256.606ZM314.324 256.606V256.406H314.124V256.606H314.324ZM325.897 267.952V277.02H326.296V267.952H325.897ZM326.096 277.219H328.787V276.82H326.096V277.219ZM328.987 277.02V256.606H328.587V277.02H328.987ZM328.787 256.406H326.096V256.806H328.787V256.406ZM325.897 256.606V264.976H326.296V256.606H325.897ZM325.897 264.976C325.897 265.131 325.977 265.269 326.076 265.363C326.177 265.459 326.32 265.532 326.481 265.532V265.132C326.442 265.132 326.393 265.113 326.352 265.073C326.308 265.032 326.296 264.992 326.296 264.976H325.897ZM326.481 265.532H326.951V265.132H326.481V265.532ZM326.951 265.532C327.474 265.532 327.89 265.963 327.89 266.499H328.289C328.289 265.755 327.708 265.132 326.951 265.132V265.532ZM327.89 266.499C327.89 266.995 327.488 267.396 326.951 267.396V267.795C327.695 267.795 328.289 267.229 328.289 266.499H327.89ZM326.951 267.396H326.481V267.795H326.951V267.396ZM326.481 267.396C326.32 267.396 326.177 267.469 326.076 267.565C325.977 267.659 325.897 267.797 325.897 267.952H326.296C326.296 267.935 326.308 267.896 326.352 267.854C326.393 267.815 326.442 267.795 326.481 267.795V267.396ZM314.324 277.219H317V276.82H314.324V277.219ZM317.2 277.02V267.952H316.8V277.02H317.2ZM317.2 267.952C317.2 267.802 317.127 267.665 317.031 267.568C316.933 267.47 316.792 267.396 316.63 267.396V267.795C316.667 267.795 316.711 267.813 316.748 267.851C316.787 267.89 316.8 267.93 316.8 267.952H317.2ZM316.63 267.396H316.16V267.795H316.63V267.396ZM316.16 267.396C315.623 267.396 315.221 266.995 315.221 266.499H314.821C314.821 267.229 315.416 267.795 316.16 267.795V267.396ZM315.221 266.499C315.221 265.963 315.636 265.532 316.16 265.532V265.132C315.403 265.132 314.821 265.755 314.821 266.499H315.221ZM316.16 265.532H316.63V265.132H316.16V265.532ZM316.63 265.532C316.792 265.532 316.933 265.457 317.031 265.36C317.127 265.263 317.2 265.126 317.2 264.976H316.8C316.8 264.998 316.787 265.038 316.748 265.077C316.711 265.114 316.667 265.132 316.63 265.132V265.532ZM317.2 264.976V256.606H316.8V264.976H317.2ZM317 256.406H314.324V256.806H317V256.406ZM314.124 256.606V277.02H314.524V256.606H314.124ZM316.9 266.499C316.9 267.26 317.554 267.867 318.324 267.867V267.467C317.756 267.467 317.299 267.021 317.299 266.499H316.9ZM318.324 267.867H324.787V267.467H318.324V267.867ZM324.787 267.867C325.557 267.867 326.211 267.26 326.211 266.499H325.811C325.811 267.021 325.355 267.467 324.787 267.467V267.867ZM326.211 266.499C326.211 265.72 325.566 265.075 324.787 265.075V265.475C325.346 265.475 325.811 265.941 325.811 266.499H326.211ZM324.787 265.075H318.324V265.475H324.787V265.075ZM318.324 265.075C317.544 265.075 316.9 265.72 316.9 266.499H317.299C317.299 265.941 317.765 265.475 318.324 265.475V265.075Z" fill="#E1D5C6"/>
<path d="M337.886 122.061C337.886 133.013 328.697 141.9 317.35 141.9C306.004 141.9 296.815 133.013 296.815 122.061C296.815 111.108 306.004 102.221 317.35 102.221C328.697 102.221 337.886 111.108 337.886 122.061Z" fill="#B6AC9E" stroke="#E1D5C6" stroke-width="0.285463"/>
<path d="M322.198 123.151V132.219H324.889V111.805H322.198V120.175C322.198 120.346 322.383 120.531 322.582 120.531H323.052C323.693 120.531 324.191 121.058 324.191 121.699C324.191 122.311 323.693 122.795 323.052 122.795H322.582C322.383 122.795 322.198 122.98 322.198 123.151ZM310.425 132.219H313.102V123.151C313.102 122.98 312.931 122.795 312.731 122.795H312.262C311.621 122.795 311.123 122.311 311.123 121.699C311.123 121.058 311.621 120.531 312.262 120.531H312.731C312.931 120.531 313.102 120.346 313.102 120.175V111.805H310.425V132.219ZM313.201 121.699C313.201 122.339 313.756 122.866 314.425 122.866H320.888C321.557 122.866 322.113 122.339 322.113 121.699C322.113 121.03 321.557 120.474 320.888 120.474H314.425C313.756 120.474 313.201 121.03 313.201 121.699Z" fill="#302112"/>
<path d="M322.198 132.219H321.998V132.419H322.198V132.219ZM324.889 132.219V132.419H325.088V132.219H324.889ZM324.889 111.805H325.088V111.605H324.889V111.805ZM322.198 111.805V111.605H321.998V111.805H322.198ZM310.425 132.219H310.225V132.419H310.425V132.219ZM313.102 132.219V132.419H313.301V132.219H313.102ZM313.102 111.805H313.301V111.605H313.102V111.805ZM310.425 111.805V111.605H310.225V111.805H310.425ZM321.998 123.151V132.219H322.398V123.151H321.998ZM322.198 132.419H324.889V132.019H322.198V132.419ZM325.088 132.219V111.805H324.689V132.219H325.088ZM324.889 111.605H322.198V112.005H324.889V111.605ZM321.998 111.805V120.175H322.398V111.805H321.998ZM321.998 120.175C321.998 120.33 322.079 120.468 322.178 120.562C322.278 120.658 322.422 120.731 322.582 120.731V120.332C322.544 120.332 322.495 120.312 322.453 120.273C322.41 120.231 322.398 120.192 322.398 120.175H321.998ZM322.582 120.731H323.052V120.332H322.582V120.731ZM323.052 120.731C323.576 120.731 323.991 121.162 323.991 121.699H324.391C324.391 120.954 323.81 120.332 323.052 120.332V120.731ZM323.991 121.699C323.991 122.194 323.589 122.595 323.052 122.595V122.995C323.796 122.995 324.391 122.428 324.391 121.699H323.991ZM323.052 122.595H322.582V122.995H323.052V122.595ZM322.582 122.595C322.422 122.595 322.278 122.668 322.178 122.764C322.079 122.858 321.998 122.996 321.998 123.151H322.398C322.398 123.135 322.41 123.095 322.453 123.054C322.495 123.014 322.544 122.995 322.582 122.995V122.595ZM310.425 132.419H313.102V132.019H310.425V132.419ZM313.301 132.219V123.151H312.902V132.219H313.301ZM313.301 123.151C313.301 123.001 313.229 122.864 313.133 122.767C313.035 122.67 312.893 122.595 312.731 122.595V122.995C312.769 122.995 312.813 123.013 312.85 123.05C312.889 123.089 312.902 123.129 312.902 123.151H313.301ZM312.731 122.595H312.262V122.995H312.731V122.595ZM312.262 122.595C311.725 122.595 311.323 122.194 311.323 121.699H310.923C310.923 122.428 311.517 122.995 312.262 122.995V122.595ZM311.323 121.699C311.323 121.162 311.738 120.731 312.262 120.731V120.332C311.504 120.332 310.923 120.954 310.923 121.699H311.323ZM312.262 120.731H312.731V120.332H312.262V120.731ZM312.731 120.731C312.893 120.731 313.035 120.657 313.133 120.559C313.229 120.462 313.301 120.325 313.301 120.175H312.902C312.902 120.197 312.889 120.237 312.85 120.276C312.813 120.314 312.769 120.332 312.731 120.332V120.731ZM313.301 120.175V111.805H312.902V120.175H313.301ZM313.102 111.605H310.425V112.005H313.102V111.605ZM310.225 111.805V132.219H310.625V111.805H310.225ZM313.001 121.699C313.001 122.459 313.655 123.066 314.425 123.066V122.666C313.857 122.666 313.401 122.22 313.401 121.699H313.001ZM314.425 123.066H320.888V122.666H314.425V123.066ZM320.888 123.066C321.658 123.066 322.312 122.459 322.312 121.699H321.913C321.913 122.22 321.456 122.666 320.888 122.666V123.066ZM322.312 121.699C322.312 120.919 321.668 120.275 320.888 120.275V120.674C321.447 120.674 321.913 121.14 321.913 121.699H322.312ZM320.888 120.275H314.425V120.674H320.888V120.275ZM314.425 120.275C313.646 120.275 313.001 120.919 313.001 121.699H313.401C313.401 121.14 313.867 120.674 314.425 120.674V120.275Z" fill="#E1D5C6"/>
<path d="M215.054 338.518C215.054 349.47 205.864 358.357 194.518 358.357C183.172 358.357 173.983 349.47 173.983 338.518C173.983 327.565 183.172 318.678 194.518 318.678C205.864 318.678 215.054 327.565 215.054 338.518Z" fill="#B6AC9E" stroke="#E1D5C6" stroke-width="0.285463"/>
<path d="M199.366 339.608V348.676H202.057V328.262H199.366V336.633C199.366 336.803 199.551 336.988 199.75 336.988H200.22C200.861 336.988 201.359 337.515 201.359 338.156C201.359 338.768 200.861 339.252 200.22 339.252H199.75C199.551 339.252 199.366 339.437 199.366 339.608ZM187.593 348.676H190.27V339.608C190.27 339.437 190.099 339.252 189.899 339.252H189.43C188.789 339.252 188.291 338.768 188.291 338.156C188.291 337.515 188.789 336.988 189.43 336.988H189.899C190.099 336.988 190.27 336.803 190.27 336.633V328.262H187.593V348.676ZM190.369 338.156C190.369 338.796 190.924 339.323 191.593 339.323H198.056C198.725 339.323 199.281 338.796 199.281 338.156C199.281 337.487 198.725 336.931 198.056 336.931H191.593C190.924 336.931 190.369 337.487 190.369 338.156Z" fill="#302112"/>
<path d="M199.366 348.676H199.166V348.876H199.366V348.676ZM202.057 348.676V348.876H202.256V348.676H202.057ZM202.057 328.262H202.256V328.062H202.057V328.262ZM199.366 328.262V328.062H199.166V328.262H199.366ZM187.593 348.676H187.393V348.876H187.593V348.676ZM190.27 348.676V348.876H190.469V348.676H190.27ZM190.27 328.262H190.469V328.062H190.27V328.262ZM187.593 328.262V328.062H187.393V328.262H187.593ZM199.166 339.608V348.676H199.566V339.608H199.166ZM199.366 348.876H202.057V348.476H199.366V348.876ZM202.256 348.676V328.262H201.857V348.676H202.256ZM202.057 328.062H199.366V328.462H202.057V328.062ZM199.166 328.262V336.633H199.566V328.262H199.166ZM199.166 336.633C199.166 336.787 199.247 336.925 199.346 337.019C199.446 337.115 199.59 337.188 199.75 337.188V336.789C199.712 336.789 199.663 336.769 199.621 336.73C199.578 336.688 199.566 336.649 199.566 336.633H199.166ZM199.75 337.188H200.22V336.789H199.75V337.188ZM200.22 337.188C200.744 337.188 201.159 337.619 201.159 338.156H201.559C201.559 337.411 200.977 336.789 200.22 336.789V337.188ZM201.159 338.156C201.159 338.651 200.757 339.052 200.22 339.052V339.452C200.964 339.452 201.559 338.885 201.559 338.156H201.159ZM200.22 339.052H199.75V339.452H200.22V339.052ZM199.75 339.052C199.59 339.052 199.446 339.125 199.346 339.221C199.247 339.315 199.166 339.453 199.166 339.608H199.566C199.566 339.592 199.578 339.552 199.621 339.511C199.663 339.471 199.712 339.452 199.75 339.452V339.052ZM187.593 348.876H190.27V348.476H187.593V348.876ZM190.469 348.676V339.608H190.07V348.676H190.469ZM190.469 339.608C190.469 339.458 190.397 339.321 190.3 339.224C190.203 339.127 190.061 339.052 189.899 339.052V339.452C189.937 339.452 189.981 339.47 190.018 339.507C190.057 339.546 190.07 339.586 190.07 339.608H190.469ZM189.899 339.052H189.43V339.452H189.899V339.052ZM189.43 339.052C188.893 339.052 188.491 338.651 188.491 338.156H188.091C188.091 338.885 188.685 339.452 189.43 339.452V339.052ZM188.491 338.156C188.491 337.619 188.906 337.188 189.43 337.188V336.789C188.672 336.789 188.091 337.411 188.091 338.156H188.491ZM189.43 337.188H189.899V336.789H189.43V337.188ZM189.899 337.188C190.061 337.188 190.203 337.114 190.3 337.016C190.397 336.919 190.469 336.782 190.469 336.633H190.07C190.07 336.654 190.057 336.694 190.018 336.733C189.981 336.771 189.937 336.789 189.899 336.789V337.188ZM190.469 336.633V328.262H190.07V336.633H190.469ZM190.27 328.062H187.593V328.462H190.27V328.062ZM187.393 328.262V348.676H187.793V328.262H187.393ZM190.169 338.156C190.169 338.916 190.823 339.523 191.593 339.523V339.123C191.025 339.123 190.569 338.677 190.569 338.156H190.169ZM191.593 339.523H198.056V339.123H191.593V339.523ZM198.056 339.523C198.826 339.523 199.48 338.916 199.48 338.156H199.081C199.081 338.677 198.624 339.123 198.056 339.123V339.523ZM199.48 338.156C199.48 337.376 198.836 336.732 198.056 336.732V337.131C198.615 337.131 199.081 337.597 199.081 338.156H199.48ZM198.056 336.732H191.593V337.131H198.056V336.732ZM191.593 336.732C190.814 336.732 190.169 337.376 190.169 338.156H190.569C190.569 337.597 191.035 337.131 191.593 337.131V336.732Z" fill="#E1D5C6"/>
<path d="M215.054 52.4824C215.054 63.435 205.864 72.3221 194.518 72.3221C183.172 72.3221 173.983 63.435 173.983 52.4824C173.983 41.5298 183.172 32.6427 194.518 32.6427C205.864 32.6427 215.054 41.5298 215.054 52.4824Z" fill="#B6AC9E" stroke="#E1D5C6" stroke-width="0.285463"/>
<path d="M199.366 53.5726V62.6406H202.057V42.2269H199.366V50.5974C199.366 50.7682 199.551 50.9533 199.75 50.9533H200.22C200.861 50.9533 201.359 51.48 201.359 52.1206C201.359 52.7327 200.861 53.2167 200.22 53.2167H199.75C199.551 53.2167 199.366 53.4018 199.366 53.5726ZM187.593 62.6406H190.27V53.5726C190.27 53.4018 190.099 53.2167 189.899 53.2167H189.43C188.789 53.2167 188.291 52.7327 188.291 52.1206C188.291 51.48 188.789 50.9533 189.43 50.9533H189.899C190.099 50.9533 190.27 50.7682 190.27 50.5974V42.2269H187.593V62.6406ZM190.369 52.1206C190.369 52.7612 190.924 53.2879 191.593 53.2879H198.056C198.725 53.2879 199.281 52.7612 199.281 52.1206C199.281 51.4515 198.725 50.8963 198.056 50.8963H191.593C190.924 50.8963 190.369 51.4515 190.369 52.1206Z" fill="#302112"/>
<path d="M199.366 62.6406H199.166V62.8404H199.366V62.6406ZM202.057 62.6406V62.8404H202.256V62.6406H202.057ZM202.057 42.2269H202.256V42.0271H202.057V42.2269ZM199.366 42.2269V42.0271H199.166V42.2269H199.366ZM187.593 62.6406H187.393V62.8404H187.593V62.6406ZM190.27 62.6406V62.8404H190.469V62.6406H190.27ZM190.27 42.2269H190.469V42.0271H190.27V42.2269ZM187.593 42.2269V42.0271H187.393V42.2269H187.593ZM199.166 53.5726V62.6406H199.566V53.5726H199.166ZM199.366 62.8404H202.057V62.4408H199.366V62.8404ZM202.256 62.6406V42.2269H201.857V62.6406H202.256ZM202.057 42.0271H199.366V42.4267H202.057V42.0271ZM199.166 42.2269V50.5974H199.566V42.2269H199.166ZM199.166 50.5974C199.166 50.7522 199.247 50.8903 199.346 50.9842C199.446 51.0798 199.59 51.1531 199.75 51.1531V50.7534C199.712 50.7534 199.663 50.7342 199.621 50.6945C199.578 50.6532 199.566 50.6134 199.566 50.5974H199.166ZM199.75 51.1531H200.22V50.7534H199.75V51.1531ZM200.22 51.1531C200.744 51.1531 201.159 51.5838 201.159 52.1206H201.559C201.559 51.3761 200.977 50.7534 200.22 50.7534V51.1531ZM201.159 52.1206C201.159 52.6157 200.757 53.0169 200.22 53.0169V53.4165C200.964 53.4165 201.559 52.8497 201.559 52.1206H201.159ZM200.22 53.0169H199.75V53.4165H200.22V53.0169ZM199.75 53.0169C199.59 53.0169 199.446 53.0902 199.346 53.1857C199.247 53.2796 199.166 53.4178 199.166 53.5726H199.566C199.566 53.5566 199.578 53.5168 199.621 53.4755C199.663 53.4358 199.712 53.4165 199.75 53.4165V53.0169ZM187.593 62.8404H190.27V62.4408H187.593V62.8404ZM190.469 62.6406V53.5726H190.07V62.6406H190.469ZM190.469 53.5726C190.469 53.4231 190.397 53.2858 190.3 53.1893C190.203 53.0914 190.061 53.0169 189.899 53.0169V53.4165C189.937 53.4165 189.981 53.4345 190.018 53.4719C190.057 53.5107 190.07 53.5513 190.07 53.5726H190.469ZM189.899 53.0169H189.43V53.4165H189.899V53.0169ZM189.43 53.0169C188.893 53.0169 188.491 52.6157 188.491 52.1206H188.091C188.091 52.8497 188.685 53.4165 189.43 53.4165V53.0169ZM188.491 52.1206C188.491 51.5838 188.906 51.1531 189.43 51.1531V50.7534C188.672 50.7534 188.091 51.3761 188.091 52.1206H188.491ZM189.43 51.1531H189.899V50.7534H189.43V51.1531ZM189.899 51.1531C190.061 51.1531 190.203 51.0786 190.3 50.9807C190.397 50.8842 190.469 50.7469 190.469 50.5974H190.07C190.07 50.6187 190.057 50.6593 190.018 50.6981C189.981 50.7354 189.937 50.7534 189.899 50.7534V51.1531ZM190.469 50.5974V42.2269H190.07V50.5974H190.469ZM190.27 42.0271H187.593V42.4267H190.27V42.0271ZM187.393 42.2269V62.6406H187.793V42.2269H187.393ZM190.169 52.1206C190.169 52.8807 190.823 53.4877 191.593 53.4877V53.0881C191.025 53.0881 190.569 52.6417 190.569 52.1206H190.169ZM191.593 53.4877H198.056V53.0881H191.593V53.4877ZM198.056 53.4877C198.826 53.4877 199.48 52.8807 199.48 52.1206H199.081C199.081 52.6417 198.624 53.0881 198.056 53.0881V53.4877ZM199.48 52.1206C199.48 51.3411 198.836 50.6965 198.056 50.6965V51.0961C198.615 51.0961 199.081 51.5619 199.081 52.1206H199.48ZM198.056 50.6965H191.593V51.0961H198.056V50.6965ZM191.593 50.6965C190.814 50.6965 190.169 51.3411 190.169 52.1206H190.569C190.569 51.5619 191.035 51.0961 191.593 51.0961V50.6965Z" fill="#E1D5C6"/>
<path d="M153.023 165.525C153.023 176.478 143.833 185.365 132.487 185.365C121.141 185.365 111.951 176.478 111.951 165.525C111.951 154.573 121.141 145.686 132.487 145.686C143.833 145.686 153.023 154.573 153.023 165.525Z" fill="#B6AC9E" stroke="#E1D5C6" stroke-width="0.285463"/>
<path d="M133.349 176.096C137.662 176.096 140.808 173.619 141.221 168.893H138.445C138.103 171.954 136.139 173.591 133.605 173.591C129.761 173.591 127.37 170.673 127.37 165.477C127.37 160.295 129.705 157.32 133.406 157.32C136.139 157.32 138.217 158.857 138.559 162.074H141.25C140.979 157.405 137.662 154.871 133.491 154.871C128.01 154.871 124.565 159.042 124.565 165.591C124.565 172.21 128.124 176.096 133.349 176.096ZM124.936 165.477C124.936 164.893 125.405 164.423 125.989 164.423C126.573 164.423 127.042 164.893 127.042 165.477C127.042 166.06 126.573 166.53 125.989 166.53C125.405 166.53 124.936 166.06 124.936 165.477Z" fill="#302112"/>
<path d="M141.221 168.893L141.42 168.911L141.439 168.693H141.221V168.893ZM138.445 168.893V168.693H138.266L138.247 168.871L138.445 168.893ZM138.559 162.074L138.36 162.096L138.379 162.274H138.559V162.074ZM141.25 162.074V162.274H141.461L141.449 162.063L141.25 162.074ZM133.349 176.296C135.544 176.296 137.459 175.666 138.88 174.417C140.302 173.168 141.21 171.316 141.42 168.911L141.022 168.876C140.819 171.197 139.948 172.946 138.616 174.117C137.282 175.289 135.467 175.897 133.349 175.897V176.296ZM141.221 168.693H138.445V169.093H141.221V168.693ZM138.247 168.871C138.08 170.363 137.521 171.49 136.711 172.244C135.902 172.997 134.828 173.391 133.605 173.391V173.791C134.916 173.791 136.091 173.366 136.983 172.536C137.875 171.706 138.469 170.484 138.644 168.915L138.247 168.871ZM133.605 173.391C131.739 173.391 130.241 172.685 129.204 171.359C128.162 170.027 127.57 168.047 127.57 165.477H127.17C127.17 168.102 127.774 170.18 128.889 171.605C130.008 173.037 131.628 173.791 133.605 173.791V173.391ZM127.57 165.477C127.57 162.913 128.148 160.921 129.16 159.575C130.166 158.236 131.615 157.52 133.406 157.52V157.12C131.495 157.12 129.926 157.891 128.84 159.335C127.759 160.772 127.17 162.859 127.17 165.477H127.57ZM133.406 157.52C134.735 157.52 135.888 157.893 136.748 158.641C137.607 159.389 138.194 160.527 138.36 162.096L138.758 162.053C138.583 160.405 137.959 159.166 137.01 158.34C136.063 157.515 134.81 157.12 133.406 157.12V157.52ZM138.559 162.274H141.25V161.875H138.559V162.274ZM141.449 162.063C141.311 159.681 140.394 157.828 138.965 156.572C137.538 155.317 135.617 154.671 133.491 154.671V155.071C135.537 155.071 137.359 155.692 138.701 156.872C140.041 158.05 140.918 159.799 141.05 162.086L141.449 162.063ZM133.491 154.671C130.696 154.671 128.406 155.737 126.819 157.648C125.236 159.554 124.366 162.283 124.366 165.591H124.765C124.765 162.35 125.618 159.719 127.127 157.903C128.632 156.091 130.806 155.071 133.491 155.071V154.671ZM124.366 165.591C124.366 168.935 125.265 171.612 126.846 173.456C128.43 175.303 130.684 176.296 133.349 176.296V175.897C130.789 175.897 128.651 174.947 127.15 173.196C125.646 171.442 124.765 168.866 124.765 165.591H124.366ZM125.135 165.477C125.135 165.003 125.516 164.623 125.989 164.623V164.223C125.295 164.223 124.736 164.783 124.736 165.477H125.135ZM125.989 164.623C126.462 164.623 126.843 165.003 126.843 165.477H127.242C127.242 164.783 126.683 164.223 125.989 164.223V164.623ZM126.843 165.477C126.843 165.95 126.462 166.33 125.989 166.33V166.73C126.683 166.73 127.242 166.171 127.242 165.477H126.843ZM125.989 166.33C125.516 166.33 125.135 165.95 125.135 165.477H124.736C124.736 166.171 125.295 166.73 125.989 166.73V166.33Z" fill="#E1D5C6"/>
<path d="M277.093 229.756C277.093 240.708 267.904 249.596 256.557 249.596C245.211 249.596 236.022 240.708 236.022 229.756C236.022 218.803 245.211 209.916 256.557 209.916C267.904 209.916 277.093 218.803 277.093 229.756Z" fill="#B6AC9E" stroke="#E1D5C6" stroke-width="0.285463"/>
<path d="M257.419 240.327C261.732 240.327 264.879 237.85 265.291 233.124H262.515C262.174 236.184 260.209 237.821 257.675 237.821C253.832 237.821 251.44 234.903 251.44 229.707C251.44 224.525 253.775 221.55 257.476 221.55C260.209 221.55 262.288 223.088 262.629 226.305H265.32C265.049 221.636 261.732 219.102 257.561 219.102C252.081 219.102 248.636 223.273 248.636 229.821C248.636 236.441 252.195 240.327 257.419 240.327ZM249.006 229.707C249.006 229.124 249.476 228.654 250.059 228.654C250.643 228.654 251.113 229.124 251.113 229.707C251.113 230.291 250.643 230.761 250.059 230.761C249.476 230.761 249.006 230.291 249.006 229.707Z" fill="#302112"/>
<path d="M265.291 233.124L265.49 233.141L265.509 232.924H265.291V233.124ZM262.515 233.124V232.924H262.337L262.317 233.102L262.515 233.124ZM262.629 226.305L262.431 226.326L262.45 226.505H262.629V226.305ZM265.32 226.305V226.505H265.532L265.519 226.293L265.32 226.305ZM257.419 240.527C259.614 240.527 261.529 239.896 262.95 238.648C264.372 237.398 265.28 235.546 265.49 233.141L265.092 233.106C264.89 235.427 264.018 237.177 262.686 238.348C261.352 239.519 259.538 240.127 257.419 240.127V240.527ZM265.291 232.924H262.515V233.324H265.291V232.924ZM262.317 233.102C262.15 234.593 261.591 235.72 260.781 236.474C259.972 237.227 258.898 237.622 257.675 237.622V238.021C258.987 238.021 260.162 237.597 261.054 236.767C261.945 235.937 262.539 234.715 262.714 233.146L262.317 233.102ZM257.675 237.622C255.809 237.622 254.311 236.916 253.274 235.59C252.232 234.257 251.64 232.278 251.64 229.707H251.24C251.24 232.333 251.844 234.41 252.959 235.836C254.079 237.268 255.698 238.021 257.675 238.021V237.622ZM251.64 229.707C251.64 227.143 252.218 225.151 253.23 223.806C254.237 222.467 255.685 221.75 257.476 221.75V221.35C255.566 221.35 253.996 222.121 252.91 223.565C251.83 225.003 251.24 227.09 251.24 229.707H251.64ZM257.476 221.75C258.805 221.75 259.958 222.124 260.818 222.872C261.677 223.619 262.264 224.758 262.431 226.326L262.828 226.284C262.653 224.635 262.03 223.396 261.081 222.57C260.133 221.746 258.88 221.35 257.476 221.35V221.75ZM262.629 226.505H265.32V226.105H262.629V226.505ZM265.519 226.293C265.381 223.911 264.464 222.058 263.035 220.802C261.608 219.548 259.687 218.902 257.561 218.902V219.302C259.607 219.302 261.429 219.923 262.771 221.102C264.111 222.281 264.988 224.029 265.12 226.316L265.519 226.293ZM257.561 218.902C254.766 218.902 252.477 219.968 250.89 221.878C249.306 223.784 248.436 226.514 248.436 229.821H248.836C248.836 226.58 249.688 223.95 251.197 222.133C252.703 220.321 254.876 219.302 257.561 219.302V218.902ZM248.436 229.821C248.436 233.165 249.335 235.842 250.917 237.686C252.501 239.534 254.754 240.527 257.419 240.527V240.127C254.86 240.127 252.721 239.177 251.22 237.426C249.716 235.672 248.836 233.096 248.836 229.821H248.436ZM249.206 229.707C249.206 229.234 249.586 228.854 250.059 228.854V228.454C249.365 228.454 248.806 229.013 248.806 229.707H249.206ZM250.059 228.854C250.533 228.854 250.913 229.234 250.913 229.707H251.313C251.313 229.013 250.753 228.454 250.059 228.454V228.854ZM250.913 229.707C250.913 230.18 250.533 230.561 250.059 230.561V230.96C250.753 230.96 251.313 230.401 251.313 229.707H250.913ZM250.059 230.561C249.586 230.561 249.206 230.18 249.206 229.707H248.806C248.806 230.401 249.365 230.96 250.059 230.96V230.561Z" fill="#E1D5C6"/>
<path d="M215.054 265.436C215.054 276.388 205.864 285.275 194.518 285.275C183.172 285.275 173.983 276.388 173.983 265.436C173.983 254.483 183.172 245.596 194.518 245.596C205.864 245.596 215.054 254.483 215.054 265.436Z" fill="#B6AC9E" stroke="#E1D5C6" stroke-width="0.285463"/>
<path d="M195.38 276.007C199.693 276.007 202.839 273.53 203.252 268.803H200.476C200.135 271.864 198.17 273.501 195.636 273.501C191.793 273.501 189.401 270.583 189.401 265.387C189.401 260.205 191.736 257.23 195.437 257.23C198.17 257.23 200.249 258.767 200.59 261.985H203.281C203.01 257.315 199.693 254.781 195.522 254.781C190.042 254.781 186.597 258.952 186.597 265.501C186.597 272.12 190.156 276.007 195.38 276.007ZM186.967 265.387C186.967 264.803 187.437 264.333 188.02 264.333C188.604 264.333 189.074 264.803 189.074 265.387C189.074 265.971 188.604 266.44 188.02 266.44C187.437 266.44 186.967 265.971 186.967 265.387Z" fill="#302112"/>
<path d="M203.252 268.803L203.451 268.821L203.47 268.604H203.252V268.803ZM200.476 268.803V268.604H200.298L200.278 268.781L200.476 268.803ZM200.59 261.985L200.392 262.006L200.411 262.184H200.59V261.985ZM203.281 261.985V262.184H203.493L203.48 261.973L203.281 261.985ZM195.38 276.206C197.575 276.206 199.49 275.576 200.911 274.327C202.333 273.078 203.241 271.226 203.451 268.821L203.053 268.786C202.851 271.107 201.979 272.857 200.647 274.027C199.313 275.199 197.499 275.807 195.38 275.807V276.206ZM203.252 268.604H200.476V269.003H203.252V268.604ZM200.278 268.781C200.111 270.273 199.552 271.4 198.742 272.154C197.933 272.907 196.859 273.301 195.636 273.301V273.701C196.947 273.701 198.123 273.277 199.015 272.446C199.906 271.616 200.5 270.394 200.675 268.826L200.278 268.781ZM195.636 273.301C193.77 273.301 192.272 272.596 191.235 271.269C190.193 269.937 189.601 267.957 189.601 265.387H189.201C189.201 268.012 189.805 270.09 190.92 271.516C192.04 272.947 193.659 273.701 195.636 273.701V273.301ZM189.601 265.387C189.601 262.823 190.179 260.831 191.191 259.485C192.198 258.146 193.646 257.43 195.437 257.43V257.03C193.527 257.03 191.957 257.801 190.871 259.245C189.791 260.683 189.201 262.769 189.201 265.387H189.601ZM195.437 257.43C196.766 257.43 197.919 257.803 198.779 258.552C199.638 259.299 200.225 260.437 200.392 262.006L200.789 261.963C200.614 260.315 199.991 259.076 199.042 258.25C198.094 257.425 196.841 257.03 195.437 257.03V257.43ZM200.59 262.184H203.281V261.785H200.59V262.184ZM203.48 261.973C203.342 259.591 202.425 257.738 200.996 256.482C199.569 255.228 197.648 254.582 195.522 254.582V254.981C197.568 254.981 199.39 255.602 200.732 256.782C202.072 257.96 202.949 259.709 203.081 261.996L203.48 261.973ZM195.522 254.582C192.727 254.582 190.438 255.647 188.851 257.558C187.267 259.464 186.397 262.193 186.397 265.501H186.797C186.797 262.26 187.649 259.629 189.158 257.813C190.664 256.001 192.837 254.981 195.522 254.981V254.582ZM186.397 265.501C186.397 268.845 187.296 271.522 188.878 273.366C190.462 275.213 192.715 276.206 195.38 276.206V275.807C192.821 275.807 190.682 274.857 189.181 273.106C187.677 271.352 186.797 268.776 186.797 265.501H186.397ZM187.167 265.387C187.167 264.914 187.547 264.533 188.02 264.533V264.134C187.326 264.134 186.767 264.693 186.767 265.387H187.167ZM188.02 264.533C188.494 264.533 188.874 264.914 188.874 265.387H189.274C189.274 264.693 188.714 264.134 188.02 264.134V264.533ZM188.874 265.387C188.874 265.86 188.494 266.24 188.02 266.24V266.64C188.714 266.64 189.274 266.081 189.274 265.387H188.874ZM188.02 266.24C187.547 266.24 187.167 265.86 187.167 265.387H186.767C186.767 266.081 187.326 266.64 188.02 266.64V266.24Z" fill="#E1D5C6"/>
<path d="M153.023 229.756C153.023 240.708 143.833 249.596 132.487 249.596C121.141 249.596 111.951 240.708 111.951 229.756C111.951 218.803 121.141 209.916 132.487 209.916C143.833 209.916 153.023 218.803 153.023 229.756Z" fill="#B6AC9E" stroke="#E1D5C6" stroke-width="0.285463"/>
<path d="M133.349 240.327C137.662 240.327 140.808 237.85 141.221 233.124H138.445C138.103 236.184 136.139 237.821 133.605 237.821C129.761 237.821 127.37 234.903 127.37 229.707C127.37 224.525 129.705 221.55 133.406 221.55C136.139 221.55 138.217 223.088 138.559 226.305H141.25C140.979 221.636 137.662 219.102 133.491 219.102C128.01 219.102 124.565 223.273 124.565 229.821C124.565 236.441 128.124 240.327 133.349 240.327ZM124.936 229.707C124.936 229.124 125.405 228.654 125.989 228.654C126.573 228.654 127.042 229.124 127.042 229.707C127.042 230.291 126.573 230.761 125.989 230.761C125.405 230.761 124.936 230.291 124.936 229.707Z" fill="#302112"/>
<path d="M141.221 233.124L141.42 233.141L141.439 232.924H141.221V233.124ZM138.445 233.124V232.924H138.266L138.247 233.102L138.445 233.124ZM138.559 226.305L138.36 226.326L138.379 226.505H138.559V226.305ZM141.25 226.305V226.505H141.461L141.449 226.293L141.25 226.305ZM133.349 240.527C135.544 240.527 137.459 239.896 138.88 238.648C140.302 237.398 141.21 235.546 141.42 233.141L141.022 233.106C140.819 235.427 139.948 237.177 138.616 238.348C137.282 239.519 135.467 240.127 133.349 240.127V240.527ZM141.221 232.924H138.445V233.324H141.221V232.924ZM138.247 233.102C138.08 234.593 137.521 235.72 136.711 236.474C135.902 237.227 134.828 237.622 133.605 237.622V238.021C134.916 238.021 136.091 237.597 136.983 236.767C137.875 235.937 138.469 234.715 138.644 233.146L138.247 233.102ZM133.605 237.622C131.739 237.622 130.241 236.916 129.204 235.59C128.162 234.257 127.57 232.278 127.57 229.707H127.17C127.17 232.333 127.774 234.41 128.889 235.836C130.008 237.268 131.628 238.021 133.605 238.021V237.622ZM127.57 229.707C127.57 227.143 128.148 225.151 129.16 223.806C130.166 222.467 131.615 221.75 133.406 221.75V221.35C131.495 221.35 129.926 222.121 128.84 223.565C127.759 225.003 127.17 227.09 127.17 229.707H127.57ZM133.406 221.75C134.735 221.75 135.888 222.124 136.748 222.872C137.607 223.619 138.194 224.758 138.36 226.326L138.758 226.284C138.583 224.635 137.959 223.396 137.01 222.57C136.063 221.746 134.81 221.35 133.406 221.35V221.75ZM138.559 226.505H141.25V226.105H138.559V226.505ZM141.449 226.293C141.311 223.911 140.394 222.058 138.965 220.802C137.538 219.548 135.617 218.902 133.491 218.902V219.302C135.537 219.302 137.359 219.923 138.701 221.102C140.041 222.281 140.918 224.029 141.05 226.316L141.449 226.293ZM133.491 218.902C130.696 218.902 128.406 219.968 126.819 221.878C125.236 223.784 124.366 226.514 124.366 229.821H124.765C124.765 226.58 125.618 223.95 127.127 222.133C128.632 220.321 130.806 219.302 133.491 219.302V218.902ZM124.366 229.821C124.366 233.165 125.265 235.842 126.846 237.686C128.43 239.534 130.684 240.527 133.349 240.527V240.127C130.789 240.127 128.651 239.177 127.15 237.426C125.646 235.672 124.765 233.096 124.765 229.821H124.366ZM125.135 229.707C125.135 229.234 125.516 228.854 125.989 228.854V228.454C125.295 228.454 124.736 229.013 124.736 229.707H125.135ZM125.989 228.854C126.462 228.854 126.843 229.234 126.843 229.707H127.242C127.242 229.013 126.683 228.454 125.989 228.454V228.854ZM126.843 229.707C126.843 230.18 126.462 230.561 125.989 230.561V230.96C126.683 230.96 127.242 230.401 127.242 229.707H126.843ZM125.989 230.561C125.516 230.561 125.135 230.18 125.135 229.707H124.736C124.736 230.401 125.295 230.96 125.989 230.96V230.561Z" fill="#E1D5C6"/>
<line y1="-1.45346" x2="25.8783" y2="-1.45346" transform="matrix(1.23402e-08 -1 -1 -1.15235e-08 194.52 101.867)" stroke="#E1D5C6" stroke-width="2.90693"/>
<line y1="-1.45346" x2="25.8783" y2="-1.45346" transform="matrix(1.23402e-08 -1 -1 -1.15235e-08 194.52 314.824)" stroke="#E1D5C6" stroke-width="2.90693"/>
<path d="M88.2141 266.756C88.2141 277.708 79.0246 286.596 67.6784 286.596C56.3322 286.596 47.1427 277.708 47.1427 266.756C47.1427 255.803 56.3322 246.916 67.6784 246.916C79.0246 246.916 88.2141 255.803 88.2141 266.756Z" fill="#B6AC9E" stroke="#E1D5C6" stroke-width="0.285463"/>
<path d="M72.5262 267.846V276.914H75.2167V256.5H72.5262V264.871C72.5262 265.042 72.7112 265.227 72.9105 265.227H73.3803C74.0209 265.227 74.5191 265.753 74.5191 266.394C74.5191 267.006 74.0209 267.49 73.3803 267.49H72.9105C72.7112 267.49 72.5262 267.675 72.5262 267.846ZM60.7534 276.914H63.4297V267.846C63.4297 267.675 63.2588 267.49 63.0595 267.49H62.5898C61.9492 267.49 61.4509 267.006 61.4509 266.394C61.4509 265.753 61.9492 265.227 62.5898 265.227H63.0595C63.2588 265.227 63.4297 265.042 63.4297 264.871V256.5H60.7534V276.914ZM63.5293 266.394C63.5293 267.035 64.0845 267.561 64.7536 267.561H71.2165C71.8856 267.561 72.4408 267.035 72.4408 266.394C72.4408 265.725 71.8856 265.17 71.2165 265.17H64.7536C64.0845 265.17 63.5293 265.725 63.5293 266.394Z" fill="#302112"/>
<path d="M72.5262 276.914H72.3263V277.114H72.5262V276.914ZM75.2167 276.914V277.114H75.4165V276.914H75.2167ZM75.2167 256.5H75.4165V256.3H75.2167V256.5ZM72.5262 256.5V256.3H72.3263V256.5H72.5262ZM60.7534 276.914H60.5536V277.114H60.7534V276.914ZM63.4297 276.914V277.114H63.6295V276.914H63.4297ZM63.4297 256.5H63.6295V256.3H63.4297V256.5ZM60.7534 256.5V256.3H60.5536V256.5H60.7534ZM72.3263 267.846V276.914H72.726V267.846H72.3263ZM72.5262 277.114H75.2167V276.714H72.5262V277.114ZM75.4165 276.914V256.5H75.0169V276.914H75.4165ZM75.2167 256.3H72.5262V256.7H75.2167V256.3ZM72.3263 256.5V264.871H72.726V256.5H72.3263ZM72.3263 264.871C72.3263 265.026 72.4071 265.164 72.506 265.258C72.6066 265.353 72.7499 265.427 72.9105 265.427V265.027C72.8719 265.027 72.823 265.008 72.7812 264.968C72.7378 264.927 72.726 264.887 72.726 264.871H72.3263ZM72.9105 265.427H73.3803V265.027H72.9105V265.427ZM73.3803 265.427C73.9041 265.427 74.3193 265.857 74.3193 266.394H74.719C74.719 265.65 74.1376 265.027 73.3803 265.027V265.427ZM74.3193 266.394C74.3193 266.889 73.9173 267.29 73.3803 267.29V267.69C74.1245 267.69 74.719 267.123 74.719 266.394H74.3193ZM73.3803 267.29H72.9105V267.69H73.3803V267.29ZM72.9105 267.29C72.7499 267.29 72.6066 267.364 72.506 267.459C72.4071 267.553 72.3263 267.691 72.3263 267.846H72.726C72.726 267.83 72.7378 267.79 72.7812 267.749C72.823 267.709 72.8719 267.69 72.9105 267.69V267.29ZM60.7534 277.114H63.4297V276.714H60.7534V277.114ZM63.6295 276.914V267.846H63.2298V276.914H63.6295ZM63.6295 267.846C63.6295 267.697 63.5571 267.559 63.4606 267.463C63.3627 267.365 63.2216 267.29 63.0595 267.29V267.69C63.0968 267.69 63.1407 267.708 63.178 267.745C63.2168 267.784 63.2298 267.825 63.2298 267.846H63.6295ZM63.0595 267.29H62.5898V267.69H63.0595V267.29ZM62.5898 267.29C62.0528 267.29 61.6508 266.889 61.6508 266.394H61.2511C61.2511 267.123 61.8455 267.69 62.5898 267.69V267.29ZM61.6508 266.394C61.6508 265.857 62.0659 265.427 62.5898 265.427V265.027C61.8324 265.027 61.2511 265.65 61.2511 266.394H61.6508ZM62.5898 265.427H63.0595V265.027H62.5898V265.427ZM63.0595 265.427C63.2216 265.427 63.3627 265.352 63.4606 265.254C63.5571 265.158 63.6295 265.02 63.6295 264.871H63.2298C63.2298 264.892 63.2168 264.933 63.178 264.972C63.1407 265.009 63.0968 265.027 63.0595 265.027V265.427ZM63.6295 264.871V256.5H63.2298V264.871H63.6295ZM63.4297 256.3H60.7534V256.7H63.4297V256.3ZM60.5536 256.5V276.914H60.9532V256.5H60.5536ZM63.3295 266.394C63.3295 267.154 63.9835 267.761 64.7536 267.761V267.361C64.1855 267.361 63.7291 266.915 63.7291 266.394H63.3295ZM64.7536 267.761H71.2165V267.361H64.7536V267.761ZM71.2165 267.761C71.9865 267.761 72.6406 267.154 72.6406 266.394H72.2409C72.2409 266.915 71.7846 267.361 71.2165 267.361V267.761ZM72.6406 266.394C72.6406 265.615 71.9959 264.97 71.2165 264.97V265.37C71.7752 265.37 72.2409 265.835 72.2409 266.394H72.6406ZM71.2165 264.97H64.7536V265.37H71.2165V264.97ZM64.7536 264.97C63.9741 264.97 63.3295 265.615 63.3295 266.394H63.7291C63.7291 265.835 64.1949 265.37 64.7536 265.37V264.97Z" fill="#E1D5C6"/>
<line y1="-1.45346" x2="26.5572" y2="-1.45346" transform="matrix(0.87328 -0.487218 -0.512892 -0.858453 88.9102 254.91)" stroke="#E1D5C6" stroke-width="2.90693"/>
<line y1="-1.45346" x2="17.9842" y2="-1.45346" transform="matrix(1.78551e-08 -1 -1 -7.96426e-09 252.125 207.484)" stroke="#E1D5C6" stroke-width="2.90693"/>
<line y1="-1.45346" x2="17.9842" y2="-1.45346" transform="matrix(1.78551e-08 -1 -1 -7.96426e-09 260.984 207.484)" stroke="#E1D5C6" stroke-width="2.90693"/>
<line y1="-1.45346" x2="18.456" y2="-1.45346" transform="matrix(0.87328 -0.487218 -0.512892 -0.858453 153.059 142.441)" stroke="#E1D5C6" stroke-width="2.90693"/>
<line y1="-1.45346" x2="18.456" y2="-1.45346" transform="matrix(0.87328 -0.487218 -0.512892 -0.858453 157.492 149.855)" stroke="#E1D5C6" stroke-width="2.90693"/>
<line y1="-1.45346" x2="18.456" y2="-1.45346" transform="matrix(-0.87328 -0.487218 0.512892 -0.858453 173.715 249.594)" stroke="#E1D5C6" stroke-width="2.90693"/>
<line y1="-1.45346" x2="18.456" y2="-1.45346" transform="matrix(-0.87328 -0.487218 0.512892 -0.858453 169.281 257.008)" stroke="#E1D5C6" stroke-width="2.90693"/>
<line y1="-1.45346" x2="17.9842" y2="-1.45346" transform="matrix(1.78551e-08 -1 -1 -7.96426e-09 132.484 207.488)" stroke="#E1D5C6" stroke-width="2.90693"/>
<line y1="-1.45346" x2="18.456" y2="-1.45346" transform="matrix(-0.87328 -0.487218 -0.512892 0.858453 233.68 148.539)" stroke="#E1D5C6" stroke-width="2.90693"/>
<line y1="-1.45346" x2="18.456" y2="-1.45346" transform="matrix(-0.87328 0.487218 -0.512892 -0.858453 233.68 243.742)" stroke="#E1D5C6" stroke-width="2.90693"/>
<line y1="-1.45346" x2="26.4558" y2="-1.45346" transform="matrix(0.807711 0.589578 0.615851 -0.787863 91.2539 136.199)" stroke="#E1D5C6" stroke-width="2.90693"/>
<circle cx="195" cy="195.5" r="194.5" stroke="#E1D5C6"/>
</svg>
