<svg width="1290" height="238" viewBox="0 0 1290 238" fill="none" xmlns="http://www.w3.org/2000/svg">
<g clip-path="url(#clip0_309_906)">
<path d="M1068.28 247.19C1073.3 247.19 1077.36 243.124 1077.36 238.108C1077.36 233.093 1073.3 229.027 1068.28 229.027C1063.27 229.027 1059.2 233.093 1059.2 238.108C1059.2 243.124 1063.27 247.19 1068.28 247.19Z" fill="#EAE4DF"/>
<path d="M1072.29 192.382C1077.31 192.382 1081.37 188.316 1081.37 183.3C1081.37 178.285 1077.31 174.219 1072.29 174.219C1067.28 174.219 1063.21 178.285 1063.21 183.3C1063.21 188.316 1067.28 192.382 1072.29 192.382Z" fill="#EAE4DF"/>
<path d="M852.742 80.8314C857.757 80.8314 861.823 76.7654 861.823 71.7498C861.823 66.7342 857.757 62.6682 852.742 62.6682C847.726 62.6682 843.66 66.7342 843.66 71.7498C843.66 76.7654 847.726 80.8314 852.742 80.8314Z" fill="#EAE4DF"/>
<path d="M723.045 130.41C728.061 130.41 732.127 126.344 732.127 121.329C732.127 116.313 728.061 112.247 723.045 112.247C718.029 112.247 713.963 116.313 713.963 121.329C713.963 126.344 718.029 130.41 723.045 130.41Z" fill="#EAE4DF"/>
<path d="M643.744 120.176C648.76 120.176 652.826 116.11 652.826 111.095C652.826 106.079 648.76 102.013 643.744 102.013C638.729 102.013 634.663 106.079 634.663 111.095C634.663 116.11 638.729 120.176 643.744 120.176Z" fill="#EAE4DF"/>
<path d="M505.19 115.489C510.205 115.489 514.271 111.423 514.271 106.408C514.271 101.392 510.205 97.3262 505.19 97.3262C500.174 97.3262 496.108 101.392 496.108 106.408C496.108 111.423 500.174 115.489 505.19 115.489Z" fill="#EAE4DF"/>
<path d="M450.674 64.3882C455.69 64.3882 459.756 60.3222 459.756 55.3066C459.756 50.291 455.69 46.225 450.674 46.225C445.659 46.225 441.593 50.291 441.593 55.3066C441.593 60.3222 445.659 64.3882 450.674 64.3882Z" fill="#EAE4DF"/>
<path d="M418.459 108.73C423.474 108.73 427.54 104.664 427.54 99.6482C427.54 94.6326 423.474 90.5666 418.459 90.5666C413.443 90.5666 409.377 94.6326 409.377 99.6482C409.377 104.664 413.443 108.73 418.459 108.73Z" fill="#EAE4DF"/>
<path d="M582.117 23.2716C587.132 23.2716 591.198 19.2056 591.198 14.19C591.198 9.17437 587.132 5.1084 582.117 5.1084C577.101 5.1084 573.035 9.17437 573.035 14.19C573.035 19.2056 577.101 23.2716 582.117 23.2716Z" fill="#EAE4DF"/>
<path d="M261.517 215C266.533 215 270.599 210.934 270.599 205.918C270.599 200.903 266.533 196.837 261.517 196.837C256.502 196.837 252.436 200.903 252.436 205.918C252.436 210.934 256.502 215 261.517 215Z" fill="#EAE4DF"/>
<path d="M793.728 40.5404C798.744 40.5404 802.81 36.4744 802.81 31.4588C802.81 26.4432 798.744 22.3772 793.728 22.3772C788.713 22.3772 784.647 26.4432 784.647 31.4588C784.647 36.4744 788.713 40.5404 793.728 40.5404Z" fill="#EAE4DF"/>
<path d="M1027.44 158.988C1032.46 158.988 1036.52 154.922 1036.52 149.907C1036.52 144.891 1032.46 140.825 1027.44 140.825C1022.43 140.825 1018.36 144.891 1018.36 149.907C1018.36 154.922 1022.43 158.988 1027.44 158.988Z" fill="#EAE4DF"/>
<path d="M410.177 55.5904C415.193 55.5904 419.259 51.5244 419.259 46.5088C419.259 41.4932 415.193 37.4272 410.177 37.4272C405.161 37.4272 401.095 41.4932 401.095 46.5088C401.095 51.5244 405.161 55.5904 410.177 55.5904Z" fill="#EAE4DF"/>
<path d="M379.432 145.77C384.448 145.77 388.514 141.704 388.514 136.688C388.514 131.673 384.448 127.607 379.432 127.607C374.416 127.607 370.35 131.673 370.35 136.688C370.35 141.704 374.416 145.77 379.432 145.77Z" fill="#EAE4DF"/>
<path d="M431.247 153.097C436.263 153.097 440.329 149.031 440.329 144.016C440.329 139 436.263 134.934 431.247 134.934C426.231 134.934 422.166 139 422.166 144.016C422.166 149.031 426.231 153.097 431.247 153.097Z" fill="#EAE4DF"/>
<path d="M413.402 219.988C418.418 219.988 422.484 215.922 422.484 210.906C422.484 205.891 418.418 201.825 413.402 201.825C408.386 201.825 404.32 205.891 404.32 210.906C404.32 215.922 408.386 219.988 413.402 219.988Z" fill="#EAE4DF"/>
<path d="M198.772 197.912C203.787 197.912 207.853 193.846 207.853 188.83C207.853 183.815 203.787 179.749 198.772 179.749C193.756 179.749 189.69 183.815 189.69 188.83C189.69 193.846 193.756 197.912 198.772 197.912Z" fill="#EAE4DF"/>
<path d="M177.22 220.263C182.236 220.263 186.302 216.197 186.302 211.182C186.302 206.166 182.236 202.1 177.22 202.1C172.205 202.1 168.139 206.166 168.139 211.182C168.139 216.197 172.205 220.263 177.22 220.263Z" fill="#EAE4DF"/>
<path d="M462.456 107.818C467.472 107.818 471.538 103.752 471.538 98.7366C471.538 93.721 467.472 89.655 462.456 89.655C457.441 89.655 453.375 93.721 453.375 98.7366C453.375 103.752 457.441 107.818 462.456 107.818Z" fill="#EAE4DF"/>
<path d="M273.041 188.426C278.057 188.426 282.123 184.36 282.123 179.344C282.123 174.329 278.057 170.263 273.041 170.263C268.026 170.263 263.96 174.329 263.96 179.344C263.96 184.36 268.026 188.426 273.041 188.426Z" fill="#EAE4DF"/>
<path d="M696.462 31.8802C701.478 31.8802 705.544 27.8142 705.544 22.7986C705.544 17.783 701.478 13.717 696.462 13.717C691.447 13.717 687.381 17.783 687.381 22.7986C687.381 27.8142 691.447 31.8802 696.462 31.8802Z" fill="#EAE4DF"/>
<path d="M934.983 120.512C939.999 120.512 944.065 116.446 944.065 111.43C944.065 106.415 939.999 102.349 934.983 102.349C929.968 102.349 925.902 106.415 925.902 111.43C925.902 116.446 929.968 120.512 934.983 120.512Z" fill="#EAE4DF"/>
<path d="M340.491 182.182C345.507 182.182 349.573 178.116 349.573 173.101C349.573 168.085 345.507 164.019 340.491 164.019C335.476 164.019 331.41 168.085 331.41 173.101C331.41 178.116 335.476 182.182 340.491 182.182Z" fill="#EAE4DF"/>
<path d="M302.918 235.984C307.933 235.984 311.999 231.918 311.999 226.902C311.999 221.887 307.933 217.821 302.918 217.821C297.902 217.821 293.836 221.887 293.836 226.902C293.836 231.918 297.902 235.984 302.918 235.984Z" fill="#EAE4DF"/>
<path d="M592.497 195.289C597.513 195.289 601.579 191.223 601.579 186.207C601.579 181.192 597.513 177.126 592.497 177.126C587.481 177.126 583.415 181.192 583.415 186.207C583.415 191.223 587.481 195.289 592.497 195.289Z" fill="#EAE4DF"/>
<path d="M350.424 150.552C355.44 150.552 359.506 146.486 359.506 141.47C359.506 136.454 355.44 132.388 350.424 132.388C345.409 132.388 341.343 136.454 341.343 141.47C341.343 146.486 345.409 150.552 350.424 150.552Z" fill="#EAE4DF"/>
<path d="M1025.89 186.035C1030.91 186.035 1034.98 181.969 1034.98 176.954C1034.98 171.938 1030.91 167.872 1025.89 167.872C1020.88 167.872 1016.81 171.938 1016.81 176.954C1016.81 181.969 1020.88 186.035 1025.89 186.035Z" fill="#EAE4DF"/>
<path d="M615.597 85.4668C620.612 85.4668 624.678 81.4008 624.678 76.3852C624.678 71.3696 620.612 67.3036 615.597 67.3036C610.581 67.3036 606.515 71.3696 606.515 76.3852C606.515 81.4008 610.581 85.4668 615.597 85.4668Z" fill="#EAE4DF"/>
<path d="M482.95 148.703C487.966 148.703 492.032 144.637 492.032 139.621C492.032 134.605 487.966 130.539 482.95 130.539C477.935 130.539 473.869 134.605 473.869 139.621C473.869 144.637 477.935 148.703 482.95 148.703Z" fill="#EAE4DF"/>
<path d="M525.692 29.197C530.708 29.197 534.774 25.131 534.774 20.1154C534.774 15.0998 530.708 11.0338 525.692 11.0338C520.677 11.0338 516.611 15.0998 516.611 20.1154C516.611 25.131 520.677 29.197 525.692 29.197Z" fill="#EAE4DF"/>
<path d="M1012.93 140.395C1017.95 140.395 1022.02 136.329 1022.02 131.313C1022.02 126.298 1017.95 122.232 1012.93 122.232C1007.92 122.232 1003.85 126.298 1003.85 131.313C1003.85 136.329 1007.92 140.395 1012.93 140.395Z" fill="#EAE4DF"/>
<path d="M703.772 55.6592C708.788 55.6592 712.854 51.5932 712.854 46.5776C712.854 41.562 708.788 37.496 703.772 37.496C698.757 37.496 694.691 41.562 694.691 46.5776C694.691 51.5932 698.757 55.6592 703.772 55.6592Z" fill="#EAE4DF"/>
<path d="M459.369 145.736C464.385 145.736 468.451 141.67 468.451 136.654C468.451 131.638 464.385 127.572 459.369 127.572C454.353 127.572 450.287 131.638 450.287 136.654C450.287 141.67 454.353 145.736 459.369 145.736Z" fill="#EAE4DF"/>
<path d="M456.299 207.862C461.315 207.862 465.38 203.796 465.38 198.78C465.38 193.765 461.315 189.699 456.299 189.699C451.283 189.699 447.217 193.765 447.217 198.78C447.217 203.796 451.283 207.862 456.299 207.862Z" fill="#EAE4DF"/>
<path d="M311.26 147.954C316.275 147.954 320.341 143.888 320.341 138.873C320.341 133.857 316.275 129.791 311.26 129.791C306.244 129.791 302.178 133.857 302.178 138.873C302.178 143.888 306.244 147.954 311.26 147.954Z" fill="#EAE4DF"/>
<path d="M916.089 83.9188C921.105 83.9188 925.171 79.8528 925.171 74.8372C925.171 69.8216 921.105 65.7556 916.089 65.7556C911.074 65.7556 907.008 69.8216 907.008 74.8372C907.008 79.8528 911.074 83.9188 916.089 83.9188Z" fill="#EAE4DF"/>
<path d="M862.52 108.936C867.535 108.936 871.601 104.87 871.601 99.8546C871.601 94.839 867.535 90.773 862.52 90.773C857.504 90.773 853.438 94.839 853.438 99.8546C853.438 104.87 857.504 108.936 862.52 108.936Z" fill="#EAE4DF"/>
<path d="M305.997 199.649C311.012 199.649 315.078 195.583 315.078 190.567C315.078 185.552 311.012 181.486 305.997 181.486C300.981 181.486 296.915 185.552 296.915 190.567C296.915 195.583 300.981 199.649 305.997 199.649Z" fill="#EAE4DF"/>
<path d="M723.965 20.9754C728.981 20.9754 733.047 16.9094 733.047 11.8938C733.047 6.87816 728.981 2.81219 723.965 2.81219C718.95 2.81219 714.884 6.87816 714.884 11.8938C714.884 16.9094 718.95 20.9754 723.965 20.9754Z" fill="#EAE4DF"/>
<path d="M976.607 165.928C981.623 165.928 985.689 161.862 985.689 156.847C985.689 151.831 981.623 147.765 976.607 147.765C971.592 147.765 967.526 151.831 967.526 156.847C967.526 161.862 971.592 165.928 976.607 165.928Z" fill="#EAE4DF"/>
<path d="M849.121 199.666C854.137 199.666 858.203 195.6 858.203 190.585C858.203 185.569 854.137 181.503 849.121 181.503C844.105 181.503 840.039 185.569 840.039 190.585C840.039 195.6 844.105 199.666 849.121 199.666Z" fill="#EAE4DF"/>
<path d="M906.216 120.744C911.232 120.744 915.298 116.678 915.298 111.662C915.298 106.647 911.232 102.581 906.216 102.581C901.201 102.581 897.135 106.647 897.135 111.662C897.135 116.678 901.201 120.744 906.216 120.744Z" fill="#EAE4DF"/>
<path d="M813.225 38.2356C818.24 38.2356 822.306 34.1696 822.306 29.154C822.306 24.1384 818.24 20.0724 813.225 20.0724C808.209 20.0724 804.143 24.1384 804.143 29.154C804.143 34.1696 808.209 38.2356 813.225 38.2356Z" fill="#EAE4DF"/>
<path d="M892.439 107.56C897.455 107.56 901.521 103.494 901.521 98.4786C901.521 93.463 897.455 89.397 892.439 89.397C887.424 89.397 883.358 93.463 883.358 98.4786C883.358 103.494 887.424 107.56 892.439 107.56Z" fill="#EAE4DF"/>
<path d="M490.295 60.888C495.31 60.888 499.376 56.822 499.376 51.8064C499.376 46.7908 495.31 42.7248 490.295 42.7248C485.279 42.7248 481.213 46.7908 481.213 51.8064C481.213 56.822 485.279 60.888 490.295 60.888Z" fill="#EAE4DF"/>
<path d="M969.848 127.495C974.863 127.495 978.929 123.429 978.929 118.413C978.929 113.398 974.863 109.332 969.848 109.332C964.832 109.332 960.766 113.398 960.766 118.413C960.766 123.429 964.832 127.495 969.848 127.495Z" fill="#EAE4DF"/>
<path d="M766.286 27.4598C771.301 27.4598 775.367 23.3938 775.367 18.3782C775.367 13.3626 771.301 9.2966 766.286 9.2966C761.27 9.2966 757.204 13.3626 757.204 18.3782C757.204 23.3938 761.27 27.4598 766.286 27.4598Z" fill="#EAE4DF"/>
<path d="M437.473 85.4324C442.489 85.4324 446.555 81.3664 446.555 76.3508C446.555 71.3352 442.489 67.2692 437.473 67.2692C432.458 67.2692 428.392 71.3352 428.392 76.3508C428.392 81.3664 432.458 85.4324 437.473 85.4324Z" fill="#EAE4DF"/>
<path d="M825.875 159.564C830.891 159.564 834.957 155.498 834.957 150.483C834.957 145.467 830.891 141.401 825.875 141.401C820.86 141.401 816.794 145.467 816.794 150.483C816.794 155.498 820.86 159.564 825.875 159.564Z" fill="#EAE4DF"/>
<path d="M220.177 178.57C225.193 178.57 229.259 174.504 229.259 169.489C229.259 164.473 225.193 160.407 220.177 160.407C215.162 160.407 211.096 164.473 211.096 169.489C211.096 174.504 215.162 178.57 220.177 178.57Z" fill="#EAE4DF"/>
<path d="M430.396 133.541C435.411 133.541 439.477 129.475 439.477 124.459C439.477 119.444 435.411 115.378 430.396 115.378C425.38 115.378 421.314 119.444 421.314 124.459C421.314 129.475 425.38 133.541 430.396 133.541Z" fill="#EAE4DF"/>
<path d="M361.363 84.2112C366.379 84.2112 370.445 80.1452 370.445 75.1296C370.445 70.114 366.379 66.048 361.363 66.048C356.348 66.048 352.282 70.114 352.282 75.1296C352.282 80.1452 356.348 84.2112 361.363 84.2112Z" fill="#EAE4DF"/>
<path d="M643.83 56.2698C648.846 56.2698 652.912 52.2038 652.912 47.1882C652.912 42.1726 648.846 38.1066 643.83 38.1066C638.815 38.1066 634.749 42.1726 634.749 47.1882C634.749 52.2038 638.815 56.2698 643.83 56.2698Z" fill="#EAE4DF"/>
<path d="M830.347 104.714C835.363 104.714 839.429 100.648 839.429 95.632C839.429 90.6164 835.363 86.5504 830.347 86.5504C825.332 86.5504 821.266 90.6164 821.266 95.632C821.266 100.648 825.332 104.714 830.347 104.714Z" fill="#EAE4DF"/>
<path d="M1130.32 237.093C1135.33 237.093 1139.4 233.027 1139.4 228.012C1139.4 222.996 1135.33 218.93 1130.32 218.93C1125.3 218.93 1121.23 222.996 1121.23 228.012C1121.23 233.027 1125.3 237.093 1130.32 237.093Z" fill="#EAE4DF"/>
<path d="M630.586 19.35C635.602 19.35 639.668 15.284 639.668 10.2684C639.668 5.25277 635.602 1.1868 630.586 1.1868C625.571 1.1868 621.505 5.25277 621.505 10.2684C621.505 15.284 625.571 19.35 630.586 19.35Z" fill="#EAE4DF"/>
<path d="M286.862 160.39C291.877 160.39 295.943 156.324 295.943 151.308C295.943 146.293 291.877 142.227 286.862 142.227C281.846 142.227 277.78 146.293 277.78 151.308C277.78 156.324 281.846 160.39 286.862 160.39Z" fill="#EAE4DF"/>
<path d="M951.538 211.44C956.554 211.44 960.62 207.374 960.62 202.358C960.62 197.342 956.554 193.276 951.538 193.276C946.523 193.276 942.457 197.342 942.457 202.358C942.457 207.374 946.523 211.44 951.538 211.44Z" fill="#EAE4DF"/>
<path d="M510.075 82.4224C515.09 82.4224 519.156 78.3564 519.156 73.3408C519.156 68.3252 515.09 64.2592 510.075 64.2592C505.059 64.2592 500.993 68.3252 500.993 73.3408C500.993 78.3564 505.059 82.4224 510.075 82.4224Z" fill="#EAE4DF"/>
<path d="M397.69 125.981C402.705 125.981 406.771 121.915 406.771 116.9C406.771 111.884 402.705 107.818 397.69 107.818C392.674 107.818 388.608 111.884 388.608 116.9C388.608 121.915 392.674 125.981 397.69 125.981Z" fill="#EAE4DF"/>
<path d="M705.983 101.153C710.998 101.153 715.064 97.0872 715.064 92.0716C715.064 87.056 710.998 82.99 705.983 82.99C700.967 82.99 696.901 87.056 696.901 92.0716C696.901 97.0872 700.967 101.153 705.983 101.153Z" fill="#EAE4DF"/>
<path d="M1046.53 189.604C1051.55 189.604 1055.62 185.538 1055.62 180.523C1055.62 175.507 1051.55 171.441 1046.53 171.441C1041.52 171.441 1037.45 175.507 1037.45 180.523C1037.45 185.538 1041.52 189.604 1046.53 189.604Z" fill="#EAE4DF"/>
<path d="M339.614 214.785C344.63 214.785 348.696 210.719 348.696 205.703C348.696 200.688 344.63 196.622 339.614 196.622C334.598 196.622 330.532 200.688 330.532 205.703C330.532 210.719 334.598 214.785 339.614 214.785Z" fill="#EAE4DF"/>
<path d="M779.332 168.508C784.348 168.508 788.414 164.442 788.414 159.427C788.414 154.411 784.348 150.345 779.332 150.345C774.316 150.345 770.25 154.411 770.25 159.427C770.25 164.442 774.316 168.508 779.332 168.508Z" fill="#EAE4DF"/>
<path d="M350.338 120.813C355.354 120.813 359.42 116.747 359.42 111.731C359.42 106.716 355.354 102.65 350.338 102.65C345.323 102.65 341.257 106.716 341.257 111.731C341.257 116.747 345.323 120.813 350.338 120.813Z" fill="#EAE4DF"/>
<path d="M546.349 21.199C551.365 21.199 555.431 17.133 555.431 12.1174C555.431 7.10177 551.365 3.0358 546.349 3.0358C541.334 3.0358 537.268 7.10177 537.268 12.1174C537.268 17.133 541.334 21.199 546.349 21.199Z" fill="#EAE4DF"/>
<path d="M1064.5 226.309C1069.52 226.309 1073.58 222.243 1073.58 217.227C1073.58 212.212 1069.52 208.146 1064.5 208.146C1059.48 208.146 1055.42 212.212 1055.42 217.227C1055.42 222.243 1059.48 226.309 1064.5 226.309Z" fill="#EAE4DF"/>
<path d="M903.869 190.438C908.884 190.438 912.95 186.372 912.95 181.357C912.95 176.341 908.884 172.275 903.869 172.275C898.853 172.275 894.787 176.341 894.787 181.357C894.787 186.372 898.853 190.438 903.869 190.438Z" fill="#EAE4DF"/>
<path d="M340.104 100.448C345.12 100.448 349.186 96.382 349.186 91.3664C349.186 86.3508 345.12 82.2848 340.104 82.2848C335.089 82.2848 331.023 86.3508 331.023 91.3664C331.023 96.382 335.089 100.448 340.104 100.448Z" fill="#EAE4DF"/>
<path d="M546.986 122.154C552.001 122.154 556.067 118.088 556.067 113.073C556.067 108.057 552.001 103.991 546.986 103.991C541.97 103.991 537.904 108.057 537.904 113.073C537.904 118.088 541.97 122.154 546.986 122.154Z" fill="#EAE4DF"/>
<path d="M519.887 162.695C524.903 162.695 528.969 158.629 528.969 153.613C528.969 148.598 524.903 144.532 519.887 144.532C514.872 144.532 510.806 148.598 510.806 153.613C510.806 158.629 514.872 162.695 519.887 162.695Z" fill="#EAE4DF"/>
<path d="M1035.67 215.843C1040.69 215.843 1044.75 211.777 1044.75 206.761C1044.75 201.746 1040.69 197.68 1035.67 197.68C1030.66 197.68 1026.59 201.746 1026.59 206.761C1026.59 211.777 1030.66 215.843 1035.67 215.843Z" fill="#EAE4DF"/>
<path d="M1007.64 163.847C1012.66 163.847 1016.73 159.781 1016.73 154.766C1016.73 149.75 1012.66 145.684 1007.64 145.684C1002.63 145.684 998.563 149.75 998.563 154.766C998.563 159.781 1002.63 163.847 1007.64 163.847Z" fill="#EAE4DF"/>
<path d="M1046.12 160.459C1051.14 160.459 1055.2 156.393 1055.2 151.377C1055.2 146.362 1051.14 142.296 1046.12 142.296C1041.11 142.296 1037.04 146.362 1037.04 151.377C1037.04 156.393 1041.11 160.459 1046.12 160.459Z" fill="#EAE4DF"/>
<path d="M276.413 132.32C281.428 132.32 285.494 128.254 285.494 123.238C285.494 118.222 281.428 114.156 276.413 114.156C271.397 114.156 267.331 118.222 267.331 123.238C267.331 128.254 271.397 132.32 276.413 132.32Z" fill="#EAE4DF"/>
<path d="M597.666 136.817C602.681 136.817 606.747 132.751 606.747 127.736C606.747 122.72 602.681 118.654 597.666 118.654C592.65 118.654 588.584 122.72 588.584 127.736C588.584 132.751 592.65 136.817 597.666 136.817Z" fill="#EAE4DF"/>
<path d="M319.086 128.467C324.101 128.467 328.167 124.401 328.167 119.385C328.167 114.37 324.101 110.304 319.086 110.304C314.07 110.304 310.004 114.37 310.004 119.385C310.004 124.401 314.07 128.467 319.086 128.467Z" fill="#EAE4DF"/>
<path d="M315.861 167.82C320.876 167.82 324.942 163.754 324.942 158.739C324.942 153.723 320.876 149.657 315.861 149.657C310.845 149.657 306.779 153.723 306.779 158.739C306.779 163.754 310.845 167.82 315.861 167.82Z" fill="#EAE4DF"/>
<path d="M737.304 162.772C742.32 162.772 746.385 158.706 746.385 153.691C746.385 148.675 742.32 144.609 737.304 144.609C732.288 144.609 728.222 148.675 728.222 153.691C728.222 158.706 732.288 162.772 737.304 162.772Z" fill="#EAE4DF"/>
<path d="M200.647 227.341C205.662 227.341 209.728 223.275 209.728 218.259C209.728 213.244 205.662 209.178 200.647 209.178C195.631 209.178 191.565 213.244 191.565 218.259C191.565 223.275 195.631 227.341 200.647 227.341Z" fill="#EAE4DF"/>
<path d="M880.846 64.7064C885.862 64.7064 889.928 60.6404 889.928 55.6248C889.928 50.6092 885.862 46.5432 880.846 46.5432C875.831 46.5432 871.765 50.6092 871.765 55.6248C871.765 60.6404 875.831 64.7064 880.846 64.7064Z" fill="#EAE4DF"/>
<path d="M937.667 93.5938C942.682 93.5938 946.748 89.5278 946.748 84.5122C946.748 79.4966 942.682 75.4306 937.667 75.4306C932.651 75.4306 928.585 79.4966 928.585 84.5122C928.585 89.5278 932.651 93.5938 937.667 93.5938Z" fill="#EAE4DF"/>
<path d="M223.196 243.75C228.211 243.75 232.277 239.684 232.277 234.668C232.277 229.653 228.211 225.587 223.196 225.587C218.18 225.587 214.114 229.653 214.114 234.668C214.114 239.684 218.18 243.75 223.196 243.75Z" fill="#EAE4DF"/>
<path d="M622.287 48.2718C627.303 48.2718 631.369 44.2058 631.369 39.1902C631.369 34.1746 627.303 30.1086 622.287 30.1086C617.272 30.1086 613.206 34.1746 613.206 39.1902C613.206 44.2058 617.272 48.2718 622.287 48.2718Z" fill="#EAE4DF"/>
<path d="M938.888 185.906C943.903 185.906 947.969 181.84 947.969 176.825C947.969 171.809 943.903 167.743 938.888 167.743C933.872 167.743 929.806 171.809 929.806 176.825C929.806 181.84 933.872 185.906 938.888 185.906Z" fill="#EAE4DF"/>
<path d="M528.1 58.0328C533.116 58.0328 537.182 53.9668 537.182 48.9512C537.182 43.9356 533.116 39.8696 528.1 39.8696C523.085 39.8696 519.019 43.9356 519.019 48.9512C519.019 53.9668 523.085 58.0328 528.1 58.0328Z" fill="#EAE4DF"/>
<path d="M989.404 202.616C994.42 202.616 998.486 198.55 998.486 193.534C998.486 188.519 994.42 184.453 989.404 184.453C984.388 184.453 980.323 188.519 980.323 193.534C980.323 198.55 984.388 202.616 989.404 202.616Z" fill="#EAE4DF"/>
<path d="M374.126 120.632C379.141 120.632 383.207 116.566 383.207 111.551C383.207 106.535 379.141 102.469 374.126 102.469C369.11 102.469 365.044 106.535 365.044 111.551C365.044 116.566 369.11 120.632 374.126 120.632Z" fill="#EAE4DF"/>
<path d="M878.748 215.327C883.764 215.327 887.83 211.261 887.83 206.245C887.83 201.23 883.764 197.164 878.748 197.164C873.732 197.164 869.666 201.23 869.666 206.245C869.666 211.261 873.732 215.327 878.748 215.327Z" fill="#EAE4DF"/>
<path d="M838.827 65.8846C843.842 65.8846 847.908 61.8186 847.908 56.803C847.908 51.7874 843.842 47.7214 838.827 47.7214C833.811 47.7214 829.745 51.7874 829.745 56.803C829.745 61.8186 833.811 65.8846 838.827 65.8846Z" fill="#EAE4DF"/>
<path d="M415.062 182.767C420.077 182.767 424.143 178.701 424.143 173.686C424.143 168.67 420.077 164.604 415.062 164.604C410.046 164.604 405.98 168.67 405.98 173.686C405.98 178.701 410.046 182.767 415.062 182.767Z" fill="#EAE4DF"/>
<path d="M792.628 72.4722C797.643 72.4722 801.709 68.4062 801.709 63.3906C801.709 58.375 797.643 54.309 792.628 54.309C787.612 54.309 783.546 58.375 783.546 63.3906C783.546 68.4062 787.612 72.4722 792.628 72.4722Z" fill="#EAE4DF"/>
<path d="M504.768 193.827C509.784 193.827 513.85 189.761 513.85 184.745C513.85 179.73 509.784 175.664 504.768 175.664C499.753 175.664 495.687 179.73 495.687 184.745C495.687 189.761 499.753 193.827 504.768 193.827Z" fill="#EAE4DF"/>
<path d="M552.593 76.626C557.609 76.626 561.675 72.56 561.675 67.5444C561.675 62.5288 557.609 58.4628 552.593 58.4628C547.577 58.4628 543.511 62.5288 543.511 67.5444C543.511 72.56 547.577 76.626 552.593 76.626Z" fill="#EAE4DF"/>
<path d="M223.686 207.26C228.702 207.26 232.768 203.194 232.768 198.178C232.768 193.163 228.702 189.097 223.686 189.097C218.67 189.097 214.604 193.163 214.604 198.178C214.604 203.194 218.67 207.26 223.686 207.26Z" fill="#EAE4DF"/>
<path d="M870.105 142.657C875.121 142.657 879.187 138.591 879.187 133.575C879.187 128.56 875.121 124.494 870.105 124.494C865.089 124.494 861.023 128.56 861.023 133.575C861.023 138.591 865.089 142.657 870.105 142.657Z" fill="#EAE4DF"/>
<path d="M605.569 58.652C610.585 58.652 614.651 54.586 614.651 49.5704C614.651 44.5548 610.585 40.4888 605.569 40.4888C600.553 40.4888 596.487 44.5548 596.487 49.5704C596.487 54.586 600.553 58.652 605.569 58.652Z" fill="#EAE4DF"/>
<path d="M744.863 35.2256C749.879 35.2256 753.945 31.1596 753.945 26.144C753.945 21.1284 749.879 17.0624 744.863 17.0624C739.848 17.0624 735.782 21.1284 735.782 26.144C735.782 31.1596 739.848 35.2256 744.863 35.2256Z" fill="#EAE4DF"/>
<path d="M170.246 238.96C175.261 238.96 179.327 234.894 179.327 229.878C179.327 224.862 175.261 220.796 170.246 220.796C165.23 220.796 161.164 224.862 161.164 229.878C161.164 234.894 165.23 238.96 170.246 238.96Z" fill="#EAE4DF"/>
<path d="M242.744 227.986C247.759 227.986 251.825 223.92 251.825 218.904C251.825 213.889 247.759 209.823 242.744 209.823C237.728 209.823 233.662 213.889 233.662 218.904C233.662 223.92 237.728 227.986 242.744 227.986Z" fill="#EAE4DF"/>
<path d="M1013.91 224.271C1018.92 224.271 1022.99 220.205 1022.99 215.189C1022.99 210.174 1018.92 206.108 1013.91 206.108C1008.89 206.108 1004.82 210.174 1004.82 215.189C1004.82 220.205 1008.89 224.271 1013.91 224.271Z" fill="#EAE4DF"/>
<path d="M902.389 69.3676C907.405 69.3676 911.471 65.3016 911.471 60.286C911.471 55.2704 907.405 51.2044 902.389 51.2044C897.374 51.2044 893.308 55.2704 893.308 60.286C893.308 65.3016 897.374 69.3676 902.389 69.3676Z" fill="#EAE4DF"/>
<path d="M755.863 102.202C760.878 102.202 764.944 98.1364 764.944 93.1208C764.944 88.1052 760.878 84.0392 755.863 84.0392C750.847 84.0392 746.781 88.1052 746.781 93.1208C746.781 98.1364 750.847 102.202 755.863 102.202Z" fill="#EAE4DF"/>
<path d="M823.742 54.4208C828.758 54.4208 832.824 50.3548 832.824 45.3392C832.824 40.3236 828.758 36.2576 823.742 36.2576C818.727 36.2576 814.661 40.3236 814.661 45.3392C814.661 50.3548 818.727 54.4208 823.742 54.4208Z" fill="#EAE4DF"/>
<path d="M249.589 161.147C254.605 161.147 258.671 157.081 258.671 152.065C258.671 147.05 254.605 142.984 249.589 142.984C244.574 142.984 240.508 147.05 240.508 152.065C240.508 157.081 244.574 161.147 249.589 161.147Z" fill="#EAE4DF"/>
<path d="M660.067 18.1632C665.083 18.1632 669.149 14.0972 669.149 9.0816C669.149 4.06597 665.083 0 660.067 0C655.052 0 650.986 4.06597 650.986 9.0816C650.986 14.0972 655.052 18.1632 660.067 18.1632Z" fill="#EAE4DF"/>
<path d="M320.204 103.028C325.219 103.028 329.285 98.962 329.285 93.9464C329.285 88.9308 325.219 84.8648 320.204 84.8648C315.188 84.8648 311.122 88.9308 311.122 93.9464C311.122 98.962 315.188 103.028 320.204 103.028Z" fill="#EAE4DF"/>
<path d="M763.456 137.058C768.472 137.058 772.538 132.992 772.538 127.977C772.538 122.961 768.472 118.895 763.456 118.895C758.441 118.895 754.375 122.961 754.375 127.977C754.375 132.992 758.441 137.058 763.456 137.058Z" fill="#EAE4DF"/>
<path d="M844.322 128.768C849.338 128.768 853.404 124.702 853.404 119.686C853.404 114.671 849.338 110.605 844.322 110.605C839.307 110.605 835.241 114.671 835.241 119.686C835.241 124.702 839.307 128.768 844.322 128.768Z" fill="#EAE4DF"/>
<path d="M658.846 89.8614C663.862 89.8614 667.928 85.7954 667.928 80.7798C667.928 75.7642 663.862 71.6982 658.846 71.6982C653.83 71.6982 649.764 75.7642 649.764 80.7798C649.764 85.7954 653.83 89.8614 658.846 89.8614Z" fill="#EAE4DF"/>
<path d="M300.157 121.75C305.173 121.75 309.239 117.684 309.239 112.669C309.239 107.653 305.173 103.587 300.157 103.587C295.142 103.587 291.076 107.653 291.076 112.669C291.076 117.684 295.142 121.75 300.157 121.75Z" fill="#EAE4DF"/>
<path d="M430.8 50.4476C435.815 50.4476 439.881 46.3816 439.881 41.366C439.881 36.3504 435.815 32.2844 430.8 32.2844C425.784 32.2844 421.718 36.3504 421.718 41.366C421.718 46.3816 425.784 50.4476 430.8 50.4476Z" fill="#EAE4DF"/>
<path d="M580.715 116.031C585.731 116.031 589.797 111.965 589.797 106.95C589.797 101.934 585.731 97.868 580.715 97.868C575.699 97.868 571.633 101.934 571.633 106.95C571.633 111.965 575.699 116.031 580.715 116.031Z" fill="#EAE4DF"/>
<path d="M387.714 75.9466C392.729 75.9466 396.795 71.8806 396.795 66.865C396.795 61.8494 392.729 57.7834 387.714 57.7834C382.698 57.7834 378.632 61.8494 378.632 66.865C378.632 71.8806 382.698 75.9466 387.714 75.9466Z" fill="#EAE4DF"/>
<path d="M786.616 111.748C791.632 111.748 795.698 107.682 795.698 102.667C795.698 97.6512 791.632 93.5852 786.616 93.5852C781.601 93.5852 777.535 97.6512 777.535 102.667C777.535 107.682 781.601 111.748 786.616 111.748Z" fill="#EAE4DF"/>
<path d="M813.68 124.803C818.696 124.803 822.762 120.737 822.762 115.722C822.762 110.706 818.696 106.64 813.68 106.64C808.665 106.64 804.599 110.706 804.599 115.722C804.599 120.737 808.665 124.803 813.68 124.803Z" fill="#EAE4DF"/>
<path d="M735.283 53.664C740.299 53.664 744.364 49.598 744.364 44.5824C744.364 39.5668 740.299 35.5008 735.283 35.5008C730.267 35.5008 726.201 39.5668 726.201 44.5824C726.201 49.598 730.267 53.664 735.283 53.664Z" fill="#EAE4DF"/>
<path d="M809.716 200.217C814.731 200.217 818.797 196.151 818.797 191.135C818.797 186.119 814.731 182.053 809.716 182.053C804.7 182.053 800.634 186.119 800.634 191.135C800.634 196.151 804.7 200.217 809.716 200.217Z" fill="#EAE4DF"/>
<path d="M581.076 76.9442C586.092 76.9442 590.158 72.8782 590.158 67.8626C590.158 62.847 586.092 58.781 581.076 58.781C576.061 58.781 571.995 62.847 571.995 67.8626C571.995 72.8782 576.061 76.9442 581.076 76.9442Z" fill="#EAE4DF"/>
<path d="M951.676 132.99C956.692 132.99 960.758 128.924 960.758 123.909C960.758 118.893 956.692 114.827 951.676 114.827C946.66 114.827 942.594 118.893 942.594 123.909C942.594 128.924 946.66 132.99 951.676 132.99Z" fill="#EAE4DF"/>
<path d="M832.833 37.9088C837.848 37.9088 841.914 33.8428 841.914 28.8272C841.914 23.8116 837.848 19.7456 832.833 19.7456C827.817 19.7456 823.751 23.8116 823.751 28.8272C823.751 33.8428 827.817 37.9088 832.833 37.9088Z" fill="#EAE4DF"/>
<path d="M533.209 250.785C538.224 250.785 542.29 246.719 542.29 241.703C542.29 236.687 538.224 232.621 533.209 232.621C528.193 232.621 524.127 236.687 524.127 241.703C524.127 246.719 528.193 250.785 533.209 250.785Z" fill="#EAE4DF"/>
<path d="M683.021 137.127C688.036 137.127 692.102 133.061 692.102 128.045C692.102 123.03 688.036 118.964 683.021 118.964C678.005 118.964 673.939 123.03 673.939 128.045C673.939 133.061 678.005 137.127 683.021 137.127Z" fill="#EAE4DF"/>
<path d="M975.352 106.855C980.367 106.855 984.433 102.789 984.433 97.7734C984.433 92.7578 980.367 88.6918 975.352 88.6918C970.336 88.6918 966.27 92.7578 966.27 97.7734C966.27 102.789 970.336 106.855 975.352 106.855Z" fill="#EAE4DF"/>
<path d="M925.541 224.374C930.556 224.374 934.622 220.308 934.622 215.292C934.622 210.277 930.556 206.211 925.541 206.211C920.525 206.211 916.459 210.277 916.459 215.292C916.459 220.308 920.525 224.374 925.541 224.374Z" fill="#EAE4DF"/>
<path d="M811.892 77.4172C816.907 77.4172 820.973 73.3512 820.973 68.3356C820.973 63.32 816.907 59.254 811.892 59.254C806.876 59.254 802.81 63.32 802.81 68.3356C802.81 73.3512 806.876 77.4172 811.892 77.4172Z" fill="#EAE4DF"/>
<path d="M751.434 71.8272C756.449 71.8272 760.515 67.7612 760.515 62.7456C760.515 57.73 756.449 53.664 751.434 53.664C746.418 53.664 742.352 57.73 742.352 62.7456C742.352 67.7612 746.418 71.8272 751.434 71.8272Z" fill="#EAE4DF"/>
<path d="M608.115 23.349C613.13 23.349 617.196 19.283 617.196 14.2674C617.196 9.25178 613.13 5.18581 608.115 5.18581C603.099 5.18581 599.033 9.25178 599.033 14.2674C599.033 19.283 603.099 23.349 608.115 23.349Z" fill="#EAE4DF"/>
<path d="M274.718 251.524C279.734 251.524 283.8 247.458 283.8 242.443C283.8 237.427 279.734 233.361 274.718 233.361C269.703 233.361 265.637 237.427 265.637 242.443C265.637 247.458 269.703 251.524 274.718 251.524Z" fill="#EAE4DF"/>
<path d="M992.956 132.99C997.972 132.99 1002.04 128.924 1002.04 123.909C1002.04 118.893 997.972 114.827 992.956 114.827C987.94 114.827 983.875 118.893 983.875 123.909C983.875 128.924 987.94 132.99 992.956 132.99Z" fill="#EAE4DF"/>
<path d="M1014.23 254.715C1019.25 254.715 1023.31 250.649 1023.31 245.633C1023.31 240.618 1019.25 236.552 1014.23 236.552C1009.22 236.552 1005.15 240.618 1005.15 245.633C1005.15 250.649 1009.22 254.715 1014.23 254.715Z" fill="#EAE4DF"/>
<path d="M768.814 65.1622C773.83 65.1622 777.896 61.0962 777.896 56.0806C777.896 51.065 773.83 46.999 768.814 46.999C763.799 46.999 759.733 51.065 759.733 56.0806C759.733 61.0962 763.799 65.1622 768.814 65.1622Z" fill="#EAE4DF"/>
<path d="M373.558 188.426C378.574 188.426 382.64 184.36 382.64 179.344C382.64 174.329 378.574 170.263 373.558 170.263C368.543 170.263 364.477 174.329 364.477 179.344C364.477 184.36 368.543 188.426 373.558 188.426Z" fill="#EAE4DF"/>
<path d="M725.642 82.388C730.658 82.388 734.724 78.322 734.724 73.3064C734.724 68.2908 730.658 64.2248 725.642 64.2248C720.627 64.2248 716.561 68.2908 716.561 73.3064C716.561 78.322 720.627 82.388 725.642 82.388Z" fill="#EAE4DF"/>
<path d="M672.64 63.5024C677.656 63.5024 681.722 59.4364 681.722 54.4208C681.722 49.4052 677.656 45.3392 672.64 45.3392C667.625 45.3392 663.559 49.4052 663.559 54.4208C663.559 59.4364 667.625 63.5024 672.64 63.5024Z" fill="#EAE4DF"/>
<path d="M473.232 40.42C478.248 40.42 482.314 36.354 482.314 31.3384C482.314 26.3228 478.248 22.2568 473.232 22.2568C468.217 22.2568 464.151 26.3228 464.151 31.3384C464.151 36.354 468.217 40.42 473.232 40.42Z" fill="#EAE4DF"/>
<path d="M406.419 74.4932C411.434 74.4932 415.5 70.4272 415.5 65.4116C415.5 60.396 411.434 56.33 406.419 56.33C401.403 56.33 397.337 60.396 397.337 65.4116C397.337 70.4272 401.403 74.4932 406.419 74.4932Z" fill="#EAE4DF"/>
<path d="M625.186 102.349C630.201 102.349 634.267 98.2826 634.267 93.267C634.267 88.2514 630.201 84.1854 625.186 84.1854C620.17 84.1854 616.104 88.2514 616.104 93.267C616.104 98.2826 620.17 102.349 625.186 102.349Z" fill="#EAE4DF"/>
<path d="M718.272 44.1868C723.288 44.1868 727.354 40.1208 727.354 35.1052C727.354 30.0896 723.288 26.0236 718.272 26.0236C713.256 26.0236 709.19 30.0896 709.19 35.1052C709.19 40.1208 713.256 44.1868 718.272 44.1868Z" fill="#EAE4DF"/>
<path d="M507.237 40.4716C512.252 40.4716 516.318 36.4056 516.318 31.39C516.318 26.3744 512.252 22.3084 507.237 22.3084C502.221 22.3084 498.155 26.3744 498.155 31.39C498.155 36.4056 502.221 40.4716 507.237 40.4716Z" fill="#EAE4DF"/>
<path d="M372.681 100.448C377.697 100.448 381.763 96.382 381.763 91.3664C381.763 86.3508 377.697 82.2848 372.681 82.2848C367.665 82.2848 363.599 86.3508 363.599 91.3664C363.599 96.382 367.665 100.448 372.681 100.448Z" fill="#EAE4DF"/>
<path d="M559.834 46.956C564.85 46.956 568.916 42.89 568.916 37.8744C568.916 32.8588 564.85 28.7928 559.834 28.7928C554.819 28.7928 550.753 32.8588 550.753 37.8744C550.753 42.89 554.819 46.956 559.834 46.956Z" fill="#EAE4DF"/>
<path d="M669.02 170.254C674.035 170.254 678.101 166.188 678.101 161.173C678.101 156.157 674.035 152.091 669.02 152.091C664.004 152.091 659.938 156.157 659.938 161.173C659.938 166.188 664.004 170.254 669.02 170.254Z" fill="#EAE4DF"/>
<path d="M1109.51 242.52C1114.53 242.52 1118.59 238.454 1118.59 233.438C1118.59 228.423 1114.53 224.357 1109.51 224.357C1104.5 224.357 1100.43 228.423 1100.43 233.438C1100.43 238.454 1104.5 242.52 1109.51 242.52Z" fill="#EAE4DF"/>
<path d="M682.599 44.4878C687.615 44.4878 691.681 40.4218 691.681 35.4062C691.681 30.3906 687.615 26.3246 682.599 26.3246C677.584 26.3246 673.518 30.3906 673.518 35.4062C673.518 40.4218 677.584 44.4878 682.599 44.4878Z" fill="#EAE4DF"/>
<path d="M620.284 152.392C625.299 152.392 629.365 148.326 629.365 143.31C629.365 138.295 625.299 134.229 620.284 134.229C615.268 134.229 611.202 138.295 611.202 143.31C611.202 148.326 615.268 152.392 620.284 152.392Z" fill="#EAE4DF"/>
<path d="M546.547 190.12C551.563 190.12 555.629 186.054 555.629 181.039C555.629 176.023 551.563 171.957 546.547 171.957C541.532 171.957 537.466 176.023 537.466 181.039C537.466 186.054 541.532 190.12 546.547 190.12Z" fill="#EAE4DF"/>
<path d="M707.866 192.502C712.882 192.502 716.948 188.436 716.948 183.421C716.948 178.405 712.882 174.339 707.866 174.339C702.85 174.339 698.784 178.405 698.784 183.421C698.784 188.436 702.85 192.502 707.866 192.502Z" fill="#EAE4DF"/>
</g>
<defs>
<clipPath id="clip0_309_906">
<rect width="1290" height="239" fill="white"/>
</clipPath>
</defs>
</svg>
