<svg width="94" height="94" viewBox="0 0 94 94" fill="none" xmlns="http://www.w3.org/2000/svg">
<circle cx="47" cy="47" r="47" fill="#B6AC9E"/>
<path d="M26.9804 53.272C25.8604 53.272 24.9217 53.0107 24.1644 52.488C23.407 51.9547 22.8417 51.24 22.4684 50.344C22.1057 49.4373 21.9244 48.4187 21.9244 47.288C21.9244 46.1147 22.1217 45.0853 22.5164 44.2C22.911 43.304 23.487 42.6107 24.2444 42.12C25.0124 41.6187 25.9404 41.368 27.0284 41.368C28.351 41.368 29.3857 41.7307 30.1324 42.456C30.8897 43.1707 31.343 44.1413 31.4924 45.368L30.2284 45.496C30.1004 44.5573 29.7537 43.816 29.1884 43.272C28.6337 42.7173 27.8924 42.44 26.9644 42.44C26.1857 42.44 25.5137 42.6427 24.9484 43.048C24.383 43.4427 23.951 44.0027 23.6524 44.728C23.3644 45.4533 23.2204 46.3013 23.2204 47.272C23.2204 48.2213 23.359 49.0693 23.6364 49.816C23.9244 50.552 24.351 51.1333 24.9164 51.56C25.4924 51.976 26.1857 52.184 26.9964 52.184C27.871 52.184 28.591 51.9227 29.1564 51.4C29.7324 50.8773 30.111 50.152 30.2924 49.224L31.4924 49.416C31.2684 50.5787 30.783 51.512 30.0364 52.216C29.2897 52.92 28.271 53.272 26.9804 53.272ZM32.6624 52.024C34.0277 51.032 35.361 49.9013 36.6624 48.632C37.3344 47.96 37.809 47.3467 38.0864 46.792C38.3744 46.2267 38.5184 45.6187 38.5184 44.968C38.5184 44.2427 38.321 43.6773 37.9264 43.272C37.5424 42.8667 36.9984 42.664 36.2944 42.664C35.5797 42.664 35.0144 42.8613 34.5984 43.256C34.193 43.64 33.9904 44.168 33.9904 44.84C33.9904 45.096 34.033 45.4373 34.1184 45.864L32.9344 45.752C32.8597 45.464 32.8224 45.1547 32.8224 44.824C32.8224 43.8427 33.137 43.0693 33.7664 42.504C34.3957 41.928 35.2597 41.64 36.3584 41.64C37.425 41.64 38.257 41.928 38.8544 42.504C39.4517 43.08 39.7504 43.896 39.7504 44.952C39.7504 45.7093 39.5637 46.4347 39.1904 47.128C38.817 47.8213 38.225 48.5573 37.4144 49.336C36.433 50.296 35.377 51.1653 34.2464 51.944H39.9264V53H32.6624V52.024ZM49.4783 41.64H50.7263V53H49.4783V47.72H43.3183V53H42.0863V41.64H43.3183V46.664H49.4783V41.64ZM60.7266 49.16V50.088H58.8706V53H57.7666V50.088H52.4546V49.272L57.5746 41.88H58.8706V49.16H60.7266ZM57.7666 44.536C57.7666 43.896 57.7773 43.4053 57.7986 43.064H57.7666C57.6706 43.288 57.5746 43.4853 57.4786 43.656C57.3826 43.8267 57.244 44.0453 57.0626 44.312L54.5346 47.944C54.1933 48.4773 53.8946 48.8827 53.6386 49.16H57.7666V44.536ZM66.9519 53.272C65.9279 53.272 65.0265 53.0267 64.2479 52.536C63.4799 52.0453 62.8825 51.352 62.4559 50.456C62.0399 49.56 61.8319 48.5147 61.8319 47.32C61.8319 46.104 62.0399 45.048 62.4559 44.152C62.8825 43.256 63.4799 42.568 64.2479 42.088C65.0159 41.608 65.9172 41.368 66.9519 41.368C67.9865 41.368 68.8879 41.608 69.6559 42.088C70.4239 42.568 71.0159 43.256 71.4319 44.152C71.8585 45.048 72.0719 46.104 72.0719 47.32C72.0719 48.5253 71.8585 49.576 71.4319 50.472C71.0159 51.368 70.4185 52.0613 69.6399 52.552C68.8719 53.032 67.9759 53.272 66.9519 53.272ZM66.9519 52.216C67.7412 52.216 68.4239 52.0187 68.9999 51.624C69.5759 51.2293 70.0132 50.664 70.3119 49.928C70.6212 49.192 70.7759 48.3227 70.7759 47.32C70.7759 46.3173 70.6212 45.448 70.3119 44.712C70.0132 43.976 69.5759 43.4107 68.9999 43.016C68.4239 42.6213 67.7412 42.424 66.9519 42.424C66.1625 42.424 65.4799 42.6213 64.9039 43.016C64.3279 43.4107 63.8852 43.976 63.5759 44.712C63.2772 45.448 63.1279 46.3173 63.1279 47.32C63.1279 48.3013 63.2825 49.16 63.5919 49.896C63.9012 50.632 64.3439 51.2027 64.9199 51.608C65.4959 52.0133 66.1732 52.216 66.9519 52.216Z" fill="#302112"/>
</svg>
