<svg width="90" height="90" viewBox="0 0 90 90" fill="none" xmlns="http://www.w3.org/2000/svg">
<circle cx="45" cy="45" r="45" fill="#B6AC9E"/>
<path d="M29.5767 49.2722C28.4567 49.2722 27.5181 49.0108 26.7607 48.4882C26.0034 47.9548 25.4381 47.2402 25.0647 46.3442C24.7021 45.4375 24.5207 44.4188 24.5207 43.2882C24.5207 42.1148 24.7181 41.0855 25.1127 40.2002C25.5074 39.3042 26.0834 38.6108 26.8407 38.1202C27.6087 37.6188 28.5367 37.3682 29.6247 37.3682C30.9474 37.3682 31.9821 37.7308 32.7287 38.4562C33.4861 39.1708 33.9394 40.1415 34.0887 41.3682L32.8247 41.4962C32.6967 40.5575 32.3501 39.8162 31.7847 39.2722C31.2301 38.7175 30.4887 38.4402 29.5607 38.4402C28.7821 38.4402 28.1101 38.6428 27.5447 39.0482C26.9794 39.4428 26.5474 40.0028 26.2487 40.7282C25.9607 41.4535 25.8167 42.3015 25.8167 43.2722C25.8167 44.2215 25.9554 45.0695 26.2327 45.8162C26.5207 46.5522 26.9474 47.1335 27.5127 47.5602C28.0887 47.9762 28.7821 48.1842 29.5927 48.1842C30.4674 48.1842 31.1874 47.9228 31.7527 47.4002C32.3287 46.8775 32.7074 46.1522 32.8887 45.2242L34.0887 45.4162C33.8647 46.5788 33.3794 47.5122 32.6327 48.2162C31.8861 48.9202 30.8674 49.2722 29.5767 49.2722ZM43.5977 37.6402H44.8457V49.0002H43.5977V43.7202H37.4377V49.0002H36.2057V37.6402H37.4377V42.6642H43.5977V37.6402ZM46.7981 48.0242C48.1634 47.0322 49.4968 45.9015 50.7981 44.6322C51.4701 43.9602 51.9448 43.3468 52.2221 42.7922C52.5101 42.2268 52.6541 41.6188 52.6541 40.9682C52.6541 40.2428 52.4568 39.6775 52.0621 39.2722C51.6781 38.8668 51.1341 38.6642 50.4301 38.6642C49.7154 38.6642 49.1501 38.8615 48.7341 39.2562C48.3288 39.6402 48.1261 40.1682 48.1261 40.8402C48.1261 41.0962 48.1688 41.4375 48.2541 41.8642L47.0701 41.7522C46.9954 41.4642 46.9581 41.1548 46.9581 40.8242C46.9581 39.8428 47.2728 39.0695 47.9021 38.5042C48.5314 37.9282 49.3954 37.6402 50.4941 37.6402C51.5608 37.6402 52.3928 37.9282 52.9901 38.5042C53.5874 39.0802 53.8861 39.8962 53.8861 40.9522C53.8861 41.7095 53.6994 42.4348 53.3261 43.1282C52.9528 43.8215 52.3608 44.5575 51.5501 45.3362C50.5688 46.2962 49.5128 47.1655 48.3821 47.9442H54.0621V49.0002H46.7981V48.0242ZM60.2276 49.2722C59.2036 49.2722 58.3023 49.0268 57.5236 48.5362C56.7556 48.0455 56.1583 47.3522 55.7316 46.4562C55.3156 45.5602 55.1076 44.5148 55.1076 43.3202C55.1076 42.1042 55.3156 41.0482 55.7316 40.1522C56.1583 39.2562 56.7556 38.5682 57.5236 38.0882C58.2916 37.6082 59.1929 37.3682 60.2276 37.3682C61.2623 37.3682 62.1636 37.6082 62.9316 38.0882C63.6996 38.5682 64.2916 39.2562 64.7076 40.1522C65.1343 41.0482 65.3476 42.1042 65.3476 43.3202C65.3476 44.5255 65.1343 45.5762 64.7076 46.4722C64.2916 47.3682 63.6943 48.0615 62.9156 48.5522C62.1476 49.0322 61.2516 49.2722 60.2276 49.2722ZM60.2276 48.2162C61.0169 48.2162 61.6996 48.0188 62.2756 47.6242C62.8516 47.2295 63.2889 46.6642 63.5876 45.9282C63.8969 45.1922 64.0516 44.3228 64.0516 43.3202C64.0516 42.3175 63.8969 41.4482 63.5876 40.7122C63.2889 39.9762 62.8516 39.4108 62.2756 39.0162C61.6996 38.6215 61.0169 38.4242 60.2276 38.4242C59.4383 38.4242 58.7556 38.6215 58.1796 39.0162C57.6036 39.4108 57.1609 39.9762 56.8516 40.7122C56.5529 41.4482 56.4036 42.3175 56.4036 43.3202C56.4036 44.3015 56.5583 45.1602 56.8676 45.8962C57.1769 46.6322 57.6196 47.2028 58.1956 47.6082C58.7716 48.0135 59.4489 48.2162 60.2276 48.2162Z" fill="#302112"/>
</svg>
