<svg width="94" height="94" viewBox="0 0 94 94" fill="none" xmlns="http://www.w3.org/2000/svg">
<circle cx="47" cy="47" r="47" fill="#B6AC9E"/>
<path d="M33.1876 53.272C32.0676 53.272 31.1289 53.0107 30.3716 52.488C29.6142 51.9547 29.0489 51.24 28.6756 50.344C28.3129 49.4373 28.1316 48.4187 28.1316 47.288C28.1316 46.1147 28.3289 45.0853 28.7236 44.2C29.1182 43.304 29.6942 42.6107 30.4516 42.12C31.2196 41.6187 32.1476 41.368 33.2356 41.368C34.5582 41.368 35.5929 41.7307 36.3396 42.456C37.0969 43.1707 37.5502 44.1413 37.6996 45.368L36.4356 45.496C36.3076 44.5573 35.9609 43.816 35.3956 43.272C34.8409 42.7173 34.0996 42.44 33.1716 42.44C32.3929 42.44 31.7209 42.6427 31.1556 43.048C30.5902 43.4427 30.1582 44.0027 29.8596 44.728C29.5716 45.4533 29.4276 46.3013 29.4276 47.272C29.4276 48.2213 29.5662 49.0693 29.8436 49.816C30.1316 50.552 30.5582 51.1333 31.1236 51.56C31.6996 51.976 32.3929 52.184 33.2036 52.184C34.0782 52.184 34.7982 51.9227 35.3636 51.4C35.9396 50.8773 36.3182 50.152 36.4996 49.224L37.6996 49.416C37.4756 50.5787 36.9902 51.512 36.2436 52.216C35.4969 52.92 34.4782 53.272 33.1876 53.272ZM40.4406 52.824C40.4406 49.464 41.7792 46.1787 44.4566 42.968H38.6326V41.88H45.7846V42.824C44.4726 44.2533 43.4699 45.816 42.7766 47.512C42.0832 49.1973 41.7366 50.9307 41.7366 52.712V53H40.4406V52.824ZM54.8573 41.64H56.1053V53H54.8573V47.72H48.6973V53H47.4653V41.64H48.6973V46.664H54.8573V41.64ZM63.4337 47.048C64.3297 47.3467 64.975 47.736 65.3697 48.216C65.7644 48.696 65.9617 49.32 65.9617 50.088C65.9617 51.048 65.6097 51.816 64.9057 52.392C64.2124 52.9573 63.2737 53.24 62.0897 53.24C60.8844 53.24 59.9244 52.9627 59.2097 52.408C58.495 51.8533 58.1377 51.1013 58.1377 50.152C58.1377 48.616 58.9484 47.6187 60.5697 47.16C59.8657 46.8827 59.3484 46.5307 59.0177 46.104C58.6977 45.6667 58.5377 45.1173 58.5377 44.456C58.5377 43.9013 58.6817 43.4107 58.9697 42.984C59.2684 42.5573 59.6844 42.2267 60.2177 41.992C60.751 41.7573 61.3644 41.64 62.0577 41.64C63.1244 41.64 63.9724 41.896 64.6017 42.408C65.2417 42.9093 65.5617 43.5867 65.5617 44.44C65.5617 45.1013 65.3804 45.656 65.0177 46.104C64.655 46.5413 64.127 46.856 63.4337 47.048ZM59.7217 44.456C59.7217 44.9787 59.8764 45.4053 60.1857 45.736C60.5057 46.056 61.023 46.3227 61.7377 46.536L62.3137 46.712C63.0817 46.4453 63.615 46.152 63.9137 45.832C64.223 45.5013 64.3777 45.0533 64.3777 44.488C64.3777 43.88 64.1697 43.4053 63.7537 43.064C63.3377 42.712 62.7617 42.536 62.0257 42.536C61.311 42.536 60.7457 42.7067 60.3297 43.048C59.9244 43.3893 59.7217 43.8587 59.7217 44.456ZM62.0897 52.296C62.943 52.296 63.6044 52.104 64.0737 51.72C64.5537 51.3253 64.7937 50.7813 64.7937 50.088C64.7937 49.512 64.623 49.048 64.2817 48.696C63.9404 48.3333 63.391 48.04 62.6337 47.816L61.6417 47.512C60.8417 47.768 60.255 48.0933 59.8817 48.488C59.519 48.8827 59.3377 49.3787 59.3377 49.976C59.3377 50.6907 59.583 51.256 60.0737 51.672C60.575 52.088 61.247 52.296 62.0897 52.296Z" fill="#302112"/>
</svg>
