<svg width="94" height="94" viewBox="0 0 94 94" fill="none" xmlns="http://www.w3.org/2000/svg">
<circle cx="47" cy="47" r="47" fill="#B6AC9E"/>
<path d="M29.121 53.272C28.001 53.272 27.0623 53.0107 26.305 52.488C25.5477 51.9547 24.9823 51.24 24.609 50.344C24.2463 49.4373 24.065 48.4187 24.065 47.288C24.065 46.1147 24.2623 45.0853 24.657 44.2C25.0517 43.304 25.6277 42.6107 26.385 42.12C27.153 41.6187 28.081 41.368 29.169 41.368C30.4917 41.368 31.5263 41.7307 32.273 42.456C33.0303 43.1707 33.4837 44.1413 33.633 45.368L32.369 45.496C32.241 44.5573 31.8943 43.816 31.329 43.272C30.7743 42.7173 30.033 42.44 29.105 42.44C28.3263 42.44 27.6543 42.6427 27.089 43.048C26.5237 43.4427 26.0917 44.0027 25.793 44.728C25.505 45.4533 25.361 46.3013 25.361 47.272C25.361 48.2213 25.4997 49.0693 25.777 49.816C26.065 50.552 26.4917 51.1333 27.057 51.56C27.633 51.976 28.3263 52.184 29.137 52.184C30.0117 52.184 30.7317 51.9227 31.297 51.4C31.873 50.8773 32.2517 50.152 32.433 49.224L33.633 49.416C33.409 50.5787 32.9237 51.512 32.177 52.216C31.4303 52.92 30.4117 53.272 29.121 53.272ZM40.054 47.048C40.95 47.3467 41.5953 47.736 41.99 48.216C42.3847 48.696 42.582 49.32 42.582 50.088C42.582 51.048 42.23 51.816 41.526 52.392C40.8327 52.9573 39.894 53.24 38.71 53.24C37.5047 53.24 36.5447 52.9627 35.83 52.408C35.1153 51.8533 34.758 51.1013 34.758 50.152C34.758 48.616 35.5687 47.6187 37.19 47.16C36.486 46.8827 35.9687 46.5307 35.638 46.104C35.318 45.6667 35.158 45.1173 35.158 44.456C35.158 43.9013 35.302 43.4107 35.59 42.984C35.8887 42.5573 36.3047 42.2267 36.838 41.992C37.3713 41.7573 37.9847 41.64 38.678 41.64C39.7447 41.64 40.5927 41.896 41.222 42.408C41.862 42.9093 42.182 43.5867 42.182 44.44C42.182 45.1013 42.0007 45.656 41.638 46.104C41.2753 46.5413 40.7473 46.856 40.054 47.048ZM36.342 44.456C36.342 44.9787 36.4967 45.4053 36.806 45.736C37.126 46.056 37.6433 46.3227 38.358 46.536L38.934 46.712C39.702 46.4453 40.2353 46.152 40.534 45.832C40.8433 45.5013 40.998 45.0533 40.998 44.488C40.998 43.88 40.79 43.4053 40.374 43.064C39.958 42.712 39.382 42.536 38.646 42.536C37.9313 42.536 37.366 42.7067 36.95 43.048C36.5447 43.3893 36.342 43.8587 36.342 44.456ZM38.71 52.296C39.5633 52.296 40.2247 52.104 40.694 51.72C41.174 51.3253 41.414 50.7813 41.414 50.088C41.414 49.512 41.2433 49.048 40.902 48.696C40.5607 48.3333 40.0113 48.04 39.254 47.816L38.262 47.512C37.462 47.768 36.8753 48.0933 36.502 48.488C36.1393 48.8827 35.958 49.3787 35.958 49.976C35.958 50.6907 36.2033 51.256 36.694 51.672C37.1953 52.088 37.8673 52.296 38.71 52.296ZM52.0408 41.64H53.2888V53H52.0408V47.72H45.8808V53H44.6488V41.64H45.8808V46.664H52.0408V41.64ZM57.7371 43.944C57.5665 44.2213 57.2891 44.44 56.9051 44.6C56.5318 44.7493 56.1585 44.824 55.7851 44.824H55.2731V43.768H55.5771C56.1531 43.768 56.6545 43.6027 57.0811 43.272C57.5078 42.9307 57.7851 42.4667 57.9131 41.88H58.9051V53H57.7371V43.944ZM65.6664 53.24C64.301 53.24 63.2557 52.728 62.5304 51.704C61.805 50.6693 61.4424 49.2453 61.4424 47.432C61.4424 45.6293 61.805 44.216 62.5304 43.192C63.2664 42.1573 64.3117 41.64 65.6664 41.64C67.021 41.64 68.061 42.1573 68.7864 43.192C69.5117 44.216 69.8744 45.6347 69.8744 47.448C69.8744 49.2507 69.5117 50.6693 68.7864 51.704C68.061 52.728 67.021 53.24 65.6664 53.24ZM65.6664 52.248C66.6584 52.248 67.4104 51.8267 67.9224 50.984C68.445 50.1307 68.7064 48.952 68.7064 47.448C68.7064 45.944 68.445 44.7653 67.9224 43.912C67.4104 43.0587 66.6584 42.632 65.6664 42.632C64.6744 42.632 63.917 43.0587 63.3944 43.912C62.8824 44.7547 62.6264 45.928 62.6264 47.432C62.6264 48.9467 62.8824 50.1307 63.3944 50.984C63.917 51.8267 64.6744 52.248 65.6664 52.248Z" fill="#302112"/>
</svg>
