<svg width="94" height="94" viewBox="0 0 94 94" fill="none" xmlns="http://www.w3.org/2000/svg">
<circle cx="47" cy="47" r="47" fill="#B6AC9E"/>
<path d="M33.0469 53.272C31.9269 53.272 30.9883 53.0107 30.2309 52.488C29.4736 51.9547 28.9083 51.24 28.5349 50.344C28.1723 49.4373 27.9909 48.4187 27.9909 47.288C27.9909 46.1147 28.1883 45.0853 28.5829 44.2C28.9776 43.304 29.5536 42.6107 30.3109 42.12C31.0789 41.6187 32.0069 41.368 33.0949 41.368C34.4176 41.368 35.4523 41.7307 36.1989 42.456C36.9563 43.1707 37.4096 44.1413 37.5589 45.368L36.2949 45.496C36.1669 44.5573 35.8203 43.816 35.2549 43.272C34.7003 42.7173 33.9589 42.44 33.0309 42.44C32.2523 42.44 31.5803 42.6427 31.0149 43.048C30.4496 43.4427 30.0176 44.0027 29.7189 44.728C29.4309 45.4533 29.2869 46.3013 29.2869 47.272C29.2869 48.2213 29.4256 49.0693 29.7029 49.816C29.9909 50.552 30.4176 51.1333 30.9829 51.56C31.5589 51.976 32.2523 52.184 33.0629 52.184C33.9376 52.184 34.6576 51.9227 35.2229 51.4C35.7989 50.8773 36.1776 50.152 36.3589 49.224L37.5589 49.416C37.3349 50.5787 36.8496 51.512 36.1029 52.216C35.3563 52.92 34.3376 53.272 33.0469 53.272ZM38.7289 52.024C40.0943 51.032 41.4276 49.9013 42.7289 48.632C43.4009 47.96 43.8756 47.3467 44.1529 46.792C44.4409 46.2267 44.5849 45.6187 44.5849 44.968C44.5849 44.2427 44.3876 43.6773 43.9929 43.272C43.6089 42.8667 43.0649 42.664 42.3609 42.664C41.6463 42.664 41.0809 42.8613 40.6649 43.256C40.2596 43.64 40.0569 44.168 40.0569 44.84C40.0569 45.096 40.0996 45.4373 40.1849 45.864L39.0009 45.752C38.9263 45.464 38.8889 45.1547 38.8889 44.824C38.8889 43.8427 39.2036 43.0693 39.8329 42.504C40.4623 41.928 41.3263 41.64 42.4249 41.64C43.4916 41.64 44.3236 41.928 44.9209 42.504C45.5183 43.08 45.8169 43.896 45.8169 44.952C45.8169 45.7093 45.6303 46.4347 45.2569 47.128C44.8836 47.8213 44.2916 48.5573 43.4809 49.336C42.4996 50.296 41.4436 51.1653 40.3129 51.944H45.9929V53H38.7289V52.024ZM55.5448 41.64H56.7928V53H55.5448V47.72H49.3848V53H48.1528V41.64H49.3848V46.664H55.5448V41.64ZM58.7452 52.024C60.1105 51.032 61.4439 49.9013 62.7452 48.632C63.4172 47.96 63.8919 47.3467 64.1692 46.792C64.4572 46.2267 64.6012 45.6187 64.6012 44.968C64.6012 44.2427 64.4039 43.6773 64.0092 43.272C63.6252 42.8667 63.0812 42.664 62.3772 42.664C61.6625 42.664 61.0972 42.8613 60.6812 43.256C60.2759 43.64 60.0732 44.168 60.0732 44.84C60.0732 45.096 60.1159 45.4373 60.2012 45.864L59.0172 45.752C58.9425 45.464 58.9052 45.1547 58.9052 44.824C58.9052 43.8427 59.2199 43.0693 59.8492 42.504C60.4785 41.928 61.3425 41.64 62.4412 41.64C63.5079 41.64 64.3399 41.928 64.9372 42.504C65.5345 43.08 65.8332 43.896 65.8332 44.952C65.8332 45.7093 65.6465 46.4347 65.2732 47.128C64.8999 47.8213 64.3079 48.5573 63.4972 49.336C62.5159 50.296 61.4599 51.1653 60.3292 51.944H66.0092V53H58.7452V52.024Z" fill="#302112"/>
</svg>
