<svg width="350" height="350" viewBox="0 0 350 350" fill="none" xmlns="http://www.w3.org/2000/svg">
<rect width="350" height="350" rx="175" fill="#1C1A18"/>
<path d="M175.328 209.359C189.25 209.359 198.25 199.562 198.25 186.203C198.25 172.844 189.25 164.688 178 164.688C170.922 164.688 166.094 167.969 163.797 172.844C162.859 174.859 161.875 175.938 160.047 175.938C158.219 175.938 156.812 174.578 156.812 172.656C156.812 170.734 158.219 169.422 160.141 169.422H160.75C161.688 169.422 162.016 168.906 162.156 167.875L164.359 148.844H195.578V140.781H156.906L152.875 179.781L163.562 180.156C165.719 176.078 170.031 172.844 175.984 172.844C183.297 172.844 189.062 177.203 189.062 186.203C189.062 194.828 183.859 201.297 175.422 201.297C166.797 201.297 161.875 195.719 161.219 188.219H152.078C152.312 201.391 161.875 209.359 175.328 209.359Z" fill="white"/>
</svg>
