<svg width="350" height="350" viewBox="0 0 350 350" fill="none" xmlns="http://www.w3.org/2000/svg">
<rect width="350" height="350" rx="175" fill="#E0E7EC"/>
<path d="M136.373 208H145.232C146.17 180.344 158.967 161.734 169.607 151.656V140.781H126.389V148.844H157.42C157.982 148.844 158.545 148.281 158.545 147.625V147.531C158.545 145.422 160.279 143.781 162.389 143.781C164.498 143.781 166.139 145.422 166.139 147.531C166.139 149.641 164.498 151.375 162.389 151.375H161.451C160.373 151.375 159.342 151.938 158.545 152.875C150.436 162.531 137.639 180.156 136.373 208ZM197.361 209.359C210.908 209.359 220.564 200.219 220.564 186.203C220.564 173.641 212.314 164.219 199.471 164.219C192.346 164.219 184.939 166.891 183.439 173.734C182.924 176.031 181.471 177.391 179.408 177.391C177.346 177.391 175.705 175.844 175.705 173.688C175.705 171.531 177.346 169.984 179.455 169.984H180.392C181.424 169.984 181.846 169.516 181.892 168.531C182.408 155.219 189.486 147.531 198.486 147.531C206.174 147.531 210.299 152.219 210.908 158.359H220.189C219.158 146.547 210.627 139.469 198.814 139.469C181.33 139.469 172.377 153.297 172.377 176.406C172.377 195.625 181.049 209.359 197.361 209.359ZM183.627 186.859C183.627 178.328 189.205 172.281 197.549 172.281C205.799 172.281 211.377 178.328 211.377 186.859C211.377 195.25 205.799 201.391 197.549 201.391C189.205 201.391 183.627 195.25 183.627 186.859Z" fill="white"/>
</svg>
