<svg width="350" height="350" viewBox="0 0 350 350" fill="none" xmlns="http://www.w3.org/2000/svg">
<rect width="350" height="350" rx="175" fill="#9BA9AD"/>
<path d="M149.639 209.359C162.576 209.359 172.279 201.297 172.279 189.672C172.279 181.891 168.436 177.203 163.467 174.672C162.295 174.109 161.217 174.156 160.326 175.188C159.436 176.219 158.592 176.688 157.279 176.688C155.357 176.688 153.717 175.188 153.717 173.172C153.717 171.156 155.357 169.703 157.279 169.703C158.592 169.703 159.482 170.406 160.232 171.062C161.17 171.906 162.295 172 163.279 171.344C167.029 168.625 170.264 164.781 170.264 157.516C170.264 147.156 162.295 139.375 149.264 139.375C136.279 139.375 127.186 147.531 126.764 160H135.904C136.279 152.5 141.482 147.344 149.357 147.344C156.717 147.344 161.357 151.938 161.357 158.266C161.357 164.688 156.342 169.422 148.467 169.422H142.514V177.672H149.357C157.045 177.672 163.186 181.516 163.186 189.109C163.186 196.469 157.982 201.391 149.639 201.391C140.686 201.391 135.154 195.719 134.732 186.953H125.639C125.732 199.844 133.982 209.359 149.639 209.359ZM201.439 209.359C215.361 209.359 224.361 199.562 224.361 186.203C224.361 172.844 215.361 164.688 204.111 164.688C197.033 164.688 192.205 167.969 189.908 172.844C188.971 174.859 187.986 175.938 186.158 175.938C184.33 175.938 182.924 174.578 182.924 172.656C182.924 170.734 184.33 169.422 186.252 169.422H186.861C187.799 169.422 188.127 168.906 188.267 167.875L190.471 148.844H221.689V140.781H183.017L178.986 179.781L189.674 180.156C191.83 176.078 196.142 172.844 202.096 172.844C209.408 172.844 215.174 177.203 215.174 186.203C215.174 194.828 209.971 201.297 201.533 201.297C192.908 201.297 187.986 195.719 187.33 188.219H178.189C178.424 201.391 187.986 209.359 201.439 209.359Z" fill="white"/>
</svg>
