<svg width="390" height="390" viewBox="0 0 390 390" fill="none" xmlns="http://www.w3.org/2000/svg">
<circle cx="195" cy="195" r="194.5" stroke="#E1D5C6"/>
<line y1="-2.27936" x2="40.5831" y2="-2.27936" transform="matrix(-0.84006 0.542493 0.542493 0.84006 163.739 229.481)" stroke="#E1D5C6" stroke-width="4.55873"/>
<line x1="227.43" y1="227.567" x2="261.522" y2="249.583" stroke="#E1D5C6" stroke-width="4.55873"/>
<circle cx="194.981" cy="206.904" r="31.2449" fill="#B6AC9E"/>
<path d="M195.619 223.603C202.363 223.603 207.283 219.73 207.928 212.34H203.588C203.053 217.126 199.982 219.685 196.019 219.685C190.009 219.685 186.27 215.122 186.27 206.998C186.27 198.895 189.92 194.243 195.708 194.243C199.982 194.243 203.231 196.647 203.766 201.678H207.973C207.55 194.376 202.363 190.414 195.841 190.414C187.271 190.414 181.885 196.936 181.885 207.176C181.885 217.526 187.45 223.603 195.619 223.603ZM182.463 206.998C182.463 206.085 183.198 205.35 184.111 205.35C185.023 205.35 185.758 206.085 185.758 206.998C185.758 207.91 185.023 208.645 184.111 208.645C183.198 208.645 182.463 207.91 182.463 206.998Z" fill="#302112"/>
<circle cx="291.627" cy="270.757" r="31.2449" fill="#B6AC9E"/>
<path d="M298.497 272.632V286.811H302.704V254.891H298.497V267.98C298.497 268.247 298.787 268.536 299.098 268.536H299.833C300.835 268.536 301.614 269.36 301.614 270.361C301.614 271.318 300.835 272.075 299.833 272.075H299.098C298.787 272.075 298.497 272.365 298.497 272.632ZM280.089 286.811H284.274V272.632C284.274 272.365 284.006 272.075 283.695 272.075H282.96C281.959 272.075 281.18 271.318 281.18 270.361C281.18 269.36 281.959 268.536 282.96 268.536H283.695C284.006 268.536 284.274 268.247 284.274 267.98V254.891H280.089V286.811ZM284.429 270.361C284.429 271.363 285.298 272.187 286.344 272.187H296.449C297.496 272.187 298.364 271.363 298.364 270.361C298.364 269.315 297.496 268.447 296.449 268.447H286.344C285.298 268.447 284.429 269.315 284.429 270.361Z" fill="#302112"/>
<circle cx="98.2449" cy="270.718" r="31.2449" fill="#B6AC9E"/>
<path d="M105.116 272.592V286.772H109.323V254.852H105.116V267.94C105.116 268.207 105.405 268.497 105.717 268.497H106.451C107.453 268.497 108.232 269.32 108.232 270.322C108.232 271.279 107.453 272.036 106.451 272.036H105.717C105.405 272.036 105.116 272.325 105.116 272.592ZM86.707 286.772H90.8918V272.592C90.8918 272.325 90.6246 272.036 90.313 272.036H89.5784C88.5768 272.036 87.7977 271.279 87.7977 270.322C87.7977 269.32 88.5768 268.497 89.5784 268.497H90.313C90.6246 268.497 90.8918 268.207 90.8918 267.94V254.852H86.707V286.772ZM91.0476 270.322C91.0476 271.324 91.9157 272.147 92.9619 272.147H103.068C104.114 272.147 104.982 271.324 104.982 270.322C104.982 269.276 104.114 268.408 103.068 268.408H92.9619C91.9157 268.408 91.0476 269.276 91.0476 270.322Z" fill="#302112"/>
<circle cx="194.736" cy="95.2449" r="31.2449" fill="#B6AC9E"/>
<path d="M194.506 110.565C202.675 110.565 207.772 103.82 207.772 93.9596C207.772 84.1654 202.586 77.3763 194.506 77.3763C186.448 77.3763 181.239 84.1209 181.239 93.9596C181.239 103.82 186.403 110.565 194.506 110.565ZM181.818 93.9596C181.818 93.0469 182.552 92.3124 183.465 92.3124C184.378 92.3124 185.112 93.0469 185.112 93.9596C185.112 94.8722 184.378 95.6068 183.465 95.6068C182.552 95.6068 181.818 94.8722 181.818 93.9596ZM185.624 93.9596C185.624 85.9462 189.097 81.2049 194.506 81.2049C199.937 81.2049 203.409 85.9462 203.409 93.9596C203.409 102.04 199.937 106.736 194.506 106.736C189.097 106.736 185.624 101.995 185.624 93.9596ZM203.921 93.9596C203.921 93.0469 204.656 92.3124 205.569 92.3124C206.481 92.3124 207.216 93.0469 207.216 93.9596C207.216 94.8722 206.481 95.6068 205.569 95.6068C204.656 95.6068 203.921 94.8722 203.921 93.9596Z" fill="#302112"/>
<line y1="-2.27936" x2="40.5831" y2="-2.27936" transform="matrix(1.19249e-08 -1 -1 -1.19249e-08 185.089 171.203)" stroke="#E1D5C6" stroke-width="4.55873"/>
<line y1="-2.27936" x2="40.5831" y2="-2.27936" transform="matrix(1.19249e-08 -1 -1 -1.19249e-08 202.091 171.203)" stroke="#E1D5C6" stroke-width="4.55873"/>
</svg>
