<svg width="620" height="500" viewBox="0 0 620 500" fill="none" xmlns="http://www.w3.org/2000/svg">
<circle cx="325" cy="250" r="214.421" stroke="#796E62" stroke-width="1.15711"/>
<circle cx="281.362" cy="115.448" r="29.3771" fill="#00FF00"/>
<circle cx="232.398" cy="164.402" r="29.3771" fill="#00FF00"/>
<circle cx="189.309" cy="211.415" r="29.3771" fill="#E1D5C6"/>
<circle cx="232.398" cy="258.417" r="29.3771" fill="#00FF00"/>
<circle cx="281.362" cy="299.548" r="29.3771" fill="#00FF00"/>
<circle cx="392.982" cy="293.665" r="29.3771" fill="#00FF00"/>
<circle cx="340.111" cy="325.011" r="29.3771" fill="#00FF00"/>
<circle cx="363.616" cy="383.764" r="29.3771" fill="#00FF00"/>
<circle cx="414.539" cy="352.422" r="29.3771" fill="#00FF00"/>
<circle cx="459.579" cy="305.42" r="29.3771" fill="#00FF00"/>
<circle cx="293.106" cy="176.163" r="29.3771" fill="#00FF00"/>
<circle cx="297.026" cy="240.795" r="29.3771" fill="#00FF00"/>
<circle cx="355.778" cy="182.042" r="29.3771" fill="#00FF00"/>
<circle cx="359.695" cy="240.795" r="29.3771" fill="#00FF00"/>
<circle cx="422.365" cy="240.795" r="29.3771" fill="#00FF00"/>
<path d="M372.932 134.195H386.022V130.368H372.932V134.195ZM401.2 146.749C409.857 146.749 414.174 139.912 414.174 128.338C414.174 118.795 409.857 111.958 401.737 111.958C394.993 111.958 390.186 116.508 390.186 123.508C390.186 129.715 394.34 134.382 400.803 134.382C404.21 134.382 407.757 132.818 408.713 129.645C409.017 128.642 409.717 127.825 410.744 127.825C411.77 127.825 412.587 128.595 412.587 129.668C412.587 130.742 411.77 131.512 410.674 131.512H410.3C409.81 131.512 409.554 131.768 409.507 132.258C408.83 139.982 405.33 142.736 401.41 142.736C397.49 142.736 395.273 140.495 394.993 137.345H390.373C390.769 143.389 395.25 146.749 401.2 146.749ZM394.76 123.135C394.76 118.981 397.536 115.924 401.643 115.924C405.797 115.924 408.573 118.981 408.573 123.135C408.573 127.358 405.797 130.368 401.643 130.368C397.536 130.368 394.76 127.358 394.76 123.135ZM429.725 146.749C438.382 146.749 442.699 139.912 442.699 128.338C442.699 118.795 438.382 111.958 430.261 111.958C423.518 111.958 418.711 116.508 418.711 123.508C418.711 129.715 422.864 134.382 429.328 134.382C432.735 134.382 436.282 132.818 437.238 129.645C437.542 128.642 438.242 127.825 439.268 127.825C440.295 127.825 441.112 128.595 441.112 129.668C441.112 130.742 440.295 131.512 439.198 131.512H438.825C438.335 131.512 438.078 131.768 438.032 132.258C437.355 139.982 433.855 142.736 429.935 142.736C426.015 142.736 423.798 140.495 423.518 137.345H418.898C419.294 143.389 423.775 146.749 429.725 146.749ZM423.284 123.135C423.284 118.981 426.061 115.924 430.168 115.924C434.322 115.924 437.098 118.981 437.098 123.135C437.098 127.358 434.322 130.368 430.168 130.368C426.061 130.368 423.284 127.358 423.284 123.135ZM449.896 146.189H454.259L475.984 112.728H471.643L449.896 146.189ZM446.302 121.105C446.302 126.495 449.126 129.878 453.513 129.878C457.923 129.878 460.746 126.495 460.746 121.105C460.746 115.691 457.876 112.354 453.513 112.354C449.173 112.354 446.302 115.691 446.302 121.105ZM450.316 121.105C450.316 117.558 451.366 115.691 453.513 115.691C455.636 115.691 456.733 117.558 456.733 121.105C456.733 124.628 455.636 126.542 453.513 126.542C451.413 126.542 450.316 124.628 450.316 121.105ZM465.997 137.882C465.997 143.272 468.82 146.656 473.207 146.656C477.617 146.656 480.44 143.272 480.44 137.882C480.44 132.468 477.57 129.132 473.207 129.132C468.867 129.132 465.997 132.468 465.997 137.882ZM470.01 137.882C470.01 134.335 471.06 132.468 473.207 132.468C475.33 132.468 476.427 134.335 476.427 137.882C476.427 141.405 475.33 143.319 473.207 143.319C471.107 143.319 470.01 141.405 470.01 137.882Z" fill="#00FF00"/>
</svg>
