<svg width="390" height="320" viewBox="0 0 390 320" fill="none" xmlns="http://www.w3.org/2000/svg">
<rect x="0.5" y="0.5" width="389" height="319" rx="4.5" fill="white"/>
<path d="M200.572 65.6162C199.439 66.0993 198.129 65.5721 197.646 64.4388C197.164 63.3054 197.69 61.9951 198.823 61.512C199.956 61.0289 201.266 61.5561 201.748 62.6894C202.231 63.8228 201.704 65.1331 200.572 65.6162Z" fill="#00FF00"/>
<path d="M178.839 74.8677C177.706 75.3508 176.396 74.8236 175.913 73.6903C175.431 72.5569 175.957 71.2466 177.09 70.7635C178.223 70.2805 179.533 70.8076 180.015 71.941C180.498 73.0743 179.971 74.3846 178.839 74.8677Z" fill="#00FF00"/>
<path d="M192.903 68.8702C191.77 69.3532 190.46 68.8261 189.977 67.6927C189.495 66.5594 190.021 65.249 191.154 64.766C192.287 64.2829 193.597 64.8101 194.079 65.9434C194.562 67.0767 194.035 68.3871 192.903 68.8702Z" fill="#00FF00"/>
<path d="M171.806 77.8665C170.674 78.3495 169.364 77.8224 168.881 76.689C168.398 75.5557 168.925 74.2454 170.058 73.7623C171.191 73.2792 172.5 73.8064 172.983 74.9397C173.466 76.0731 172.939 77.3834 171.806 77.8665Z" fill="#00FF00"/>
<path d="M185.871 71.8689C184.738 72.352 183.428 71.8248 182.945 70.6915C182.463 69.5582 182.989 68.2478 184.122 67.7647C185.255 67.2817 186.565 67.8088 187.047 68.9422C187.53 70.0755 187.003 71.3859 185.871 71.8689Z" fill="#00FF00"/>
<path d="M164.774 80.8653C163.642 81.3483 162.332 80.8212 161.849 79.6878C161.366 78.5545 161.893 77.2441 163.026 76.7611C164.159 76.278 165.468 76.8052 165.951 77.9385C166.434 79.0718 165.907 80.3822 164.774 80.8653Z" fill="#00FF00"/>
<path d="M164.774 89.3256C163.642 89.8086 162.332 89.2815 161.849 88.1481C161.366 87.0148 161.893 85.7044 163.026 85.2214C164.159 84.7383 165.468 85.2655 165.951 86.3988C166.434 87.5322 165.907 88.8425 164.774 89.3256Z" fill="#00FF00"/>
<path d="M164.774 97.7386C163.642 98.2216 162.332 97.6945 161.849 96.5611C161.366 95.4278 161.893 94.1174 163.026 93.6344C164.159 93.1513 165.468 93.6785 165.951 94.8118C166.434 95.9452 165.907 97.2555 164.774 97.7386Z" fill="#00FF00"/>
<path d="M199.935 254.501C198.802 254.018 197.492 254.545 197.009 255.679C196.527 256.812 197.053 258.122 198.186 258.605C199.319 259.088 200.629 258.561 201.111 257.428C201.594 256.295 201.067 254.984 199.935 254.501Z" fill="#00FF00"/>
<path d="M178.839 245.505C177.706 245.022 176.396 245.549 175.913 246.682C175.431 247.815 175.957 249.126 177.09 249.609C178.223 250.092 179.533 249.565 180.015 248.431C180.498 247.298 179.971 245.988 178.839 245.505Z" fill="#00FF00"/>
<path d="M192.903 251.502C191.77 251.019 190.46 251.546 189.977 252.68C189.495 253.813 190.021 255.123 191.154 255.606C192.287 256.089 193.597 255.562 194.079 254.429C194.562 253.296 194.035 251.985 192.903 251.502Z" fill="#00FF00"/>
<path d="M171.806 242.506C170.674 242.023 169.364 242.55 168.881 243.683C168.398 244.817 168.925 246.127 170.058 246.61C171.191 247.093 172.5 246.566 172.983 245.433C173.466 244.299 172.939 242.989 171.806 242.506Z" fill="#00FF00"/>
<path d="M185.871 248.503C184.738 248.02 183.428 248.547 182.945 249.681C182.463 250.814 182.989 252.125 184.122 252.608C185.255 253.091 186.565 252.563 187.047 251.43C187.53 250.297 187.003 248.986 185.871 248.503Z" fill="#00FF00"/>
<path d="M164.774 239.507C163.642 239.024 162.332 239.551 161.849 240.684C161.366 241.818 161.893 243.128 163.026 243.611C164.159 244.094 165.468 243.567 165.951 242.434C166.434 241.3 165.907 239.99 164.774 239.507Z" fill="#00FF00"/>
<path d="M164.774 231.047C163.642 230.564 162.332 231.091 161.849 232.224C161.366 233.358 161.893 234.668 163.026 235.151C164.159 235.634 165.468 235.107 165.951 233.973C166.434 232.84 165.907 231.53 164.774 231.047Z" fill="#00FF00"/>
<path d="M164.774 222.634C163.642 222.151 162.332 222.678 161.849 223.811C161.366 224.945 161.893 226.255 163.026 226.738C164.159 227.221 165.468 226.694 165.951 225.56C166.434 224.427 165.907 223.117 164.774 222.634Z" fill="#00FF00"/>
<path d="M226.842 62.2307C226.842 63.4627 225.844 64.4614 224.613 64.4614C223.381 64.4614 222.383 63.4627 222.383 62.2307C222.383 60.9987 223.381 60 224.613 60C225.844 60 226.842 60.9987 226.842 62.2307Z" fill="#00FF00"/>
<path d="M226.842 84.7929C226.842 86.0249 225.844 87.0236 224.613 87.0236C223.381 87.0236 222.383 86.0249 222.383 84.7929C222.383 83.5609 223.381 82.5621 224.613 82.5621C225.844 82.5621 226.842 83.5609 226.842 84.7929Z" fill="#00FF00"/>
<path d="M226.842 107.355C226.842 108.587 225.844 109.586 224.613 109.586C223.381 109.586 222.383 108.587 222.383 107.355C222.383 106.123 223.381 105.124 224.613 105.124C225.844 105.124 226.842 106.123 226.842 107.355Z" fill="#00FF00"/>
<path d="M226.842 129.917C226.842 131.149 225.844 132.148 224.613 132.148C223.381 132.148 222.383 131.149 222.383 129.917C222.383 128.685 223.381 127.686 224.613 127.686C225.844 127.686 226.842 128.685 226.842 129.917Z" fill="#00FF00"/>
<path d="M226.842 152.479C226.842 153.711 225.844 154.71 224.613 154.71C223.381 154.71 222.383 153.711 222.383 152.479C222.383 151.247 223.381 150.249 224.613 150.249C225.844 150.249 226.842 151.247 226.842 152.479Z" fill="#00FF00"/>
<path d="M226.842 175.041C226.842 176.273 225.844 177.272 224.613 177.272C223.381 177.272 222.383 176.273 222.383 175.041C222.383 173.809 223.381 172.811 224.613 172.811C225.844 172.811 226.842 173.809 226.842 175.041Z" fill="#00FF00"/>
<path d="M226.842 197.604C226.842 198.836 225.844 199.834 224.613 199.834C223.381 199.834 222.383 198.836 222.383 197.604C222.383 196.372 223.381 195.373 224.613 195.373C225.844 195.373 226.842 196.372 226.842 197.604Z" fill="#00FF00"/>
<path d="M226.842 220.166C226.842 221.398 225.844 222.396 224.613 222.396C223.381 222.396 222.383 221.398 222.383 220.166C222.383 218.934 223.381 217.935 224.613 217.935C225.844 217.935 226.842 218.934 226.842 220.166Z" fill="#00FF00"/>
<path d="M226.842 242.728C226.842 243.96 225.844 244.959 224.613 244.959C223.381 244.959 222.383 243.96 222.383 242.728C222.383 241.496 223.381 240.497 224.613 240.497C225.844 240.497 226.842 241.496 226.842 242.728Z" fill="#00FF00"/>
<path d="M226.842 69.7514C226.842 70.9834 225.844 71.9822 224.613 71.9822C223.381 71.9822 222.383 70.9834 222.383 69.7514C222.383 68.5194 223.381 67.5207 224.613 67.5207C225.844 67.5207 226.842 68.5194 226.842 69.7514Z" fill="#00FF00"/>
<path d="M226.842 92.3136C226.842 93.5456 225.844 94.5443 224.613 94.5443C223.381 94.5443 222.383 93.5456 222.383 92.3136C222.383 91.0816 223.381 90.0829 224.613 90.0829C225.844 90.0829 226.842 91.0816 226.842 92.3136Z" fill="#00FF00"/>
<path d="M226.842 114.876C226.842 116.108 225.844 117.106 224.613 117.106C223.381 117.106 222.383 116.108 222.383 114.876C222.383 113.644 223.381 112.645 224.613 112.645C225.844 112.645 226.842 113.644 226.842 114.876Z" fill="#00FF00"/>
<path d="M226.842 137.438C226.842 138.67 225.844 139.669 224.613 139.669C223.381 139.669 222.383 138.67 222.383 137.438C222.383 136.206 223.381 135.207 224.613 135.207C225.844 135.207 226.842 136.206 226.842 137.438Z" fill="#00FF00"/>
<path d="M226.842 160C226.842 161.232 225.844 162.231 224.613 162.231C223.381 162.231 222.383 161.232 222.383 160C222.383 158.768 223.381 157.769 224.613 157.769C225.844 157.769 226.842 158.768 226.842 160Z" fill="#00FF00"/>
<path d="M226.842 182.562C226.842 183.794 225.844 184.793 224.613 184.793C223.381 184.793 222.383 183.794 222.383 182.562C222.383 181.33 223.381 180.331 224.613 180.331C225.844 180.331 226.842 181.33 226.842 182.562Z" fill="#00FF00"/>
<path d="M226.842 205.124C226.842 206.356 225.844 207.355 224.613 207.355C223.381 207.355 222.383 206.356 222.383 205.124C222.383 203.892 223.381 202.894 224.613 202.894C225.844 202.894 226.842 203.892 226.842 205.124Z" fill="#00FF00"/>
<path d="M226.842 227.686C226.842 228.918 225.844 229.917 224.613 229.917C223.381 229.917 222.383 228.918 222.383 227.686C222.383 226.454 223.381 225.456 224.613 225.456C225.844 225.456 226.842 226.454 226.842 227.686Z" fill="#00FF00"/>
<path d="M226.842 250.249C226.842 251.481 225.844 252.479 224.613 252.479C223.381 252.479 222.383 251.481 222.383 250.249C222.383 249.017 223.381 248.018 224.613 248.018C225.844 248.018 226.842 249.017 226.842 250.249Z" fill="#00FF00"/>
<path d="M218.561 62.2307C218.561 63.4627 217.563 64.4614 216.331 64.4614C215.1 64.4614 214.102 63.4627 214.102 62.2307C214.102 60.9987 215.1 60 216.331 60C217.563 60 218.561 60.9987 218.561 62.2307Z" fill="#00FF00"/>
<path d="M218.561 84.7929C218.561 86.0249 217.563 87.0236 216.331 87.0236C215.1 87.0236 214.102 86.0249 214.102 84.7929C214.102 83.5609 215.1 82.5621 216.331 82.5621C217.563 82.5621 218.561 83.5609 218.561 84.7929Z" fill="#00FF00"/>
<path d="M218.561 107.355C218.561 108.587 217.563 109.586 216.331 109.586C215.1 109.586 214.102 108.587 214.102 107.355C214.102 106.123 215.1 105.124 216.331 105.124C217.563 105.124 218.561 106.123 218.561 107.355Z" fill="#00FF00"/>
<path d="M218.561 129.917C218.561 131.149 217.563 132.148 216.331 132.148C215.1 132.148 214.102 131.149 214.102 129.917C214.102 128.685 215.1 127.686 216.331 127.686C217.563 127.686 218.561 128.685 218.561 129.917Z" fill="#00FF00"/>
<path d="M218.561 152.479C218.561 153.711 217.563 154.71 216.331 154.71C215.1 154.71 214.102 153.711 214.102 152.479C214.102 151.247 215.1 150.249 216.331 150.249C217.563 150.249 218.561 151.247 218.561 152.479Z" fill="#00FF00"/>
<path d="M218.561 175.041C218.561 176.273 217.563 177.272 216.331 177.272C215.1 177.272 214.102 176.273 214.102 175.041C214.102 173.809 215.1 172.811 216.331 172.811C217.563 172.811 218.561 173.809 218.561 175.041Z" fill="#00FF00"/>
<path d="M218.561 197.604C218.561 198.836 217.563 199.834 216.331 199.834C215.1 199.834 214.102 198.836 214.102 197.604C214.102 196.372 215.1 195.373 216.331 195.373C217.563 195.373 218.561 196.372 218.561 197.604Z" fill="#00FF00"/>
<path d="M218.561 220.166C218.561 221.398 217.563 222.396 216.331 222.396C215.1 222.396 214.102 221.398 214.102 220.166C214.102 218.934 215.1 217.935 216.331 217.935C217.563 217.935 218.561 218.934 218.561 220.166Z" fill="#00FF00"/>
<path d="M218.561 242.728C218.561 243.96 217.563 244.959 216.331 244.959C215.1 244.959 214.102 243.96 214.102 242.728C214.102 241.496 215.1 240.497 216.331 240.497C217.563 240.497 218.561 241.496 218.561 242.728Z" fill="#00FF00"/>
<path d="M218.561 69.7514C218.561 70.9834 217.563 71.9822 216.331 71.9822C215.1 71.9822 214.102 70.9834 214.102 69.7514C214.102 68.5194 215.1 67.5207 216.331 67.5207C217.563 67.5207 218.561 68.5194 218.561 69.7514Z" fill="#00FF00"/>
<path d="M218.561 92.3136C218.561 93.5456 217.563 94.5443 216.331 94.5443C215.1 94.5443 214.102 93.5456 214.102 92.3136C214.102 91.0816 215.1 90.0829 216.331 90.0829C217.563 90.0829 218.561 91.0816 218.561 92.3136Z" fill="#00FF00"/>
<path d="M218.561 114.876C218.561 116.108 217.563 117.106 216.331 117.106C215.1 117.106 214.102 116.108 214.102 114.876C214.102 113.644 215.1 112.645 216.331 112.645C217.563 112.645 218.561 113.644 218.561 114.876Z" fill="#00FF00"/>
<path d="M218.561 137.438C218.561 138.67 217.563 139.669 216.331 139.669C215.1 139.669 214.102 138.67 214.102 137.438C214.102 136.206 215.1 135.207 216.331 135.207C217.563 135.207 218.561 136.206 218.561 137.438Z" fill="#00FF00"/>
<path d="M218.561 160C218.561 161.232 217.563 162.231 216.331 162.231C215.1 162.231 214.102 161.232 214.102 160C214.102 158.768 215.1 157.769 216.331 157.769C217.563 157.769 218.561 158.768 218.561 160Z" fill="#00FF00"/>
<path d="M218.561 182.562C218.561 183.794 217.563 184.793 216.331 184.793C215.1 184.793 214.102 183.794 214.102 182.562C214.102 181.33 215.1 180.331 216.331 180.331C217.563 180.331 218.561 181.33 218.561 182.562Z" fill="#00FF00"/>
<path d="M218.561 205.124C218.561 206.356 217.563 207.355 216.331 207.355C215.1 207.355 214.102 206.356 214.102 205.124C214.102 203.892 215.1 202.894 216.331 202.894C217.563 202.894 218.561 203.892 218.561 205.124Z" fill="#00FF00"/>
<path d="M218.561 227.686C218.561 228.918 217.563 229.917 216.331 229.917C215.1 229.917 214.102 228.918 214.102 227.686C214.102 226.454 215.1 225.456 216.331 225.456C217.563 225.456 218.561 226.454 218.561 227.686Z" fill="#00FF00"/>
<path d="M218.561 250.249C218.561 251.481 217.563 252.479 216.331 252.479C215.1 252.479 214.102 251.481 214.102 250.249C214.102 249.017 215.1 248.018 216.331 248.018C217.563 248.018 218.561 249.017 218.561 250.249Z" fill="#00FF00"/>
<path d="M210.28 62.2307C210.28 63.4627 209.282 64.4614 208.05 64.4614C206.819 64.4614 205.821 63.4627 205.821 62.2307C205.821 60.9987 206.819 60 208.05 60C209.282 60 210.28 60.9987 210.28 62.2307Z" fill="#00FF00"/>
<path d="M210.28 84.7929C210.28 86.0249 209.282 87.0236 208.05 87.0236C206.819 87.0236 205.821 86.0249 205.821 84.7929C205.821 83.5609 206.819 82.5621 208.05 82.5621C209.282 82.5621 210.28 83.5609 210.28 84.7929Z" fill="#00FF00"/>
<path d="M210.28 107.355C210.28 108.587 209.282 109.586 208.05 109.586C206.819 109.586 205.821 108.587 205.821 107.355C205.821 106.123 206.819 105.124 208.05 105.124C209.282 105.124 210.28 106.123 210.28 107.355Z" fill="#00FF00"/>
<path d="M210.28 129.917C210.28 131.149 209.282 132.148 208.05 132.148C206.819 132.148 205.821 131.149 205.821 129.917C205.821 128.685 206.819 127.686 208.05 127.686C209.282 127.686 210.28 128.685 210.28 129.917Z" fill="#00FF00"/>
<path d="M210.28 152.479C210.28 153.711 209.282 154.71 208.05 154.71C206.819 154.71 205.821 153.711 205.821 152.479C205.821 151.247 206.819 150.249 208.05 150.249C209.282 150.249 210.28 151.247 210.28 152.479Z" fill="#00FF00"/>
<path d="M210.28 175.041C210.28 176.273 209.282 177.272 208.05 177.272C206.819 177.272 205.821 176.273 205.821 175.041C205.821 173.809 206.819 172.811 208.05 172.811C209.282 172.811 210.28 173.809 210.28 175.041Z" fill="#00FF00"/>
<path d="M210.28 197.604C210.28 198.836 209.282 199.834 208.05 199.834C206.819 199.834 205.821 198.836 205.821 197.604C205.821 196.372 206.819 195.373 208.05 195.373C209.282 195.373 210.28 196.372 210.28 197.604Z" fill="#00FF00"/>
<path d="M210.28 220.166C210.28 221.398 209.282 222.396 208.05 222.396C206.819 222.396 205.821 221.398 205.821 220.166C205.821 218.934 206.819 217.935 208.05 217.935C209.282 217.935 210.28 218.934 210.28 220.166Z" fill="#00FF00"/>
<path d="M210.28 242.728C210.28 243.96 209.282 244.959 208.05 244.959C206.819 244.959 205.821 243.96 205.821 242.728C205.821 241.496 206.819 240.497 208.05 240.497C209.282 240.497 210.28 241.496 210.28 242.728Z" fill="#00FF00"/>
<path d="M210.28 69.7514C210.28 70.9834 209.282 71.9822 208.05 71.9822C206.819 71.9822 205.821 70.9834 205.821 69.7514C205.821 68.5194 206.819 67.5207 208.05 67.5207C209.282 67.5207 210.28 68.5194 210.28 69.7514Z" fill="#00FF00"/>
<path d="M210.28 92.3136C210.28 93.5456 209.282 94.5443 208.05 94.5443C206.819 94.5443 205.821 93.5456 205.821 92.3136C205.821 91.0816 206.819 90.0829 208.05 90.0829C209.282 90.0829 210.28 91.0816 210.28 92.3136Z" fill="#00FF00"/>
<path d="M210.28 114.876C210.28 116.108 209.282 117.106 208.05 117.106C206.819 117.106 205.821 116.108 205.821 114.876C205.821 113.644 206.819 112.645 208.05 112.645C209.282 112.645 210.28 113.644 210.28 114.876Z" fill="#00FF00"/>
<path d="M210.28 137.438C210.28 138.67 209.282 139.669 208.05 139.669C206.819 139.669 205.821 138.67 205.821 137.438C205.821 136.206 206.819 135.207 208.05 135.207C209.282 135.207 210.28 136.206 210.28 137.438Z" fill="#00FF00"/>
<path d="M210.28 160C210.28 161.232 209.282 162.231 208.05 162.231C206.819 162.231 205.821 161.232 205.821 160C205.821 158.768 206.819 157.769 208.05 157.769C209.282 157.769 210.28 158.768 210.28 160Z" fill="#00FF00"/>
<path d="M210.28 182.562C210.28 183.794 209.282 184.793 208.05 184.793C206.819 184.793 205.821 183.794 205.821 182.562C205.821 181.33 206.819 180.331 208.05 180.331C209.282 180.331 210.28 181.33 210.28 182.562Z" fill="#00FF00"/>
<path d="M210.28 205.124C210.28 206.356 209.282 207.355 208.05 207.355C206.819 207.355 205.821 206.356 205.821 205.124C205.821 203.892 206.819 202.894 208.05 202.894C209.282 202.894 210.28 203.892 210.28 205.124Z" fill="#00FF00"/>
<path d="M210.28 227.686C210.28 228.918 209.282 229.917 208.05 229.917C206.819 229.917 205.821 228.918 205.821 227.686C205.821 226.454 206.819 225.456 208.05 225.456C209.282 225.456 210.28 226.454 210.28 227.686Z" fill="#00FF00"/>
<path d="M210.28 250.249C210.28 251.481 209.282 252.479 208.05 252.479C206.819 252.479 205.821 251.481 205.821 250.249C205.821 249.017 206.819 248.018 208.05 248.018C209.282 248.018 210.28 249.017 210.28 250.249Z" fill="#00FF00"/>
<path d="M210.28 77.2721C210.28 78.5041 209.282 79.5029 208.05 79.5029C206.819 79.5029 205.821 78.5041 205.821 77.2721C205.821 76.0402 206.819 75.0414 208.05 75.0414C209.282 75.0414 210.28 76.0402 210.28 77.2721Z" fill="#00FF00"/>
<path d="M210.28 99.8343C210.28 101.066 209.282 102.065 208.05 102.065C206.819 102.065 205.821 101.066 205.821 99.8343C205.821 98.6023 206.819 97.6036 208.05 97.6036C209.282 97.6036 210.28 98.6023 210.28 99.8343Z" fill="#00FF00"/>
<path d="M210.28 122.396C210.28 123.628 209.282 124.627 208.05 124.627C206.819 124.627 205.821 123.628 205.821 122.396C205.821 121.164 206.819 120.166 208.05 120.166C209.282 120.166 210.28 121.164 210.28 122.396Z" fill="#00FF00"/>
<path d="M210.28 144.959C210.28 146.191 209.282 147.189 208.05 147.189C206.819 147.189 205.821 146.191 205.821 144.959C205.821 143.727 206.819 142.728 208.05 142.728C209.282 142.728 210.28 143.727 210.28 144.959Z" fill="#00FF00"/>
<path d="M210.28 167.521C210.28 168.753 209.282 169.751 208.05 169.751C206.819 169.751 205.821 168.753 205.821 167.521C205.821 166.289 206.819 165.29 208.05 165.29C209.282 165.29 210.28 166.289 210.28 167.521Z" fill="#00FF00"/>
<path d="M210.28 190.083C210.28 191.315 209.282 192.314 208.05 192.314C206.819 192.314 205.821 191.315 205.821 190.083C205.821 188.851 206.819 187.852 208.05 187.852C209.282 187.852 210.28 188.851 210.28 190.083Z" fill="#00FF00"/>
<path d="M210.28 212.645C210.28 213.877 209.282 214.876 208.05 214.876C206.819 214.876 205.821 213.877 205.821 212.645C205.821 211.413 206.819 210.414 208.05 210.414C209.282 210.414 210.28 211.413 210.28 212.645Z" fill="#00FF00"/>
<path d="M210.28 235.207C210.28 236.439 209.282 237.438 208.05 237.438C206.819 237.438 205.821 236.439 205.821 235.207C205.821 233.975 206.819 232.976 208.05 232.976C209.282 232.976 210.28 233.975 210.28 235.207Z" fill="#00FF00"/>
<path d="M210.28 257.769C210.28 259.001 209.282 260 208.05 260C206.819 260 205.821 259.001 205.821 257.769C205.821 256.537 206.819 255.539 208.05 255.539C209.282 255.539 210.28 256.537 210.28 257.769Z" fill="#00FF00"/>
<path d="M218.561 77.2721C218.561 78.5041 217.563 79.5029 216.331 79.5029C215.1 79.5029 214.102 78.5041 214.102 77.2721C214.102 76.0402 215.1 75.0414 216.331 75.0414C217.563 75.0414 218.561 76.0402 218.561 77.2721Z" fill="#00FF00"/>
<path d="M218.561 99.8343C218.561 101.066 217.563 102.065 216.331 102.065C215.1 102.065 214.102 101.066 214.102 99.8343C214.102 98.6023 215.1 97.6036 216.331 97.6036C217.563 97.6036 218.561 98.6023 218.561 99.8343Z" fill="#00FF00"/>
<path d="M218.561 122.396C218.561 123.628 217.563 124.627 216.331 124.627C215.1 124.627 214.102 123.628 214.102 122.396C214.102 121.164 215.1 120.166 216.331 120.166C217.563 120.166 218.561 121.164 218.561 122.396Z" fill="#00FF00"/>
<path d="M218.561 144.959C218.561 146.191 217.563 147.189 216.331 147.189C215.1 147.189 214.102 146.191 214.102 144.959C214.102 143.727 215.1 142.728 216.331 142.728C217.563 142.728 218.561 143.727 218.561 144.959Z" fill="#00FF00"/>
<path d="M218.561 167.521C218.561 168.753 217.563 169.751 216.331 169.751C215.1 169.751 214.102 168.753 214.102 167.521C214.102 166.289 215.1 165.29 216.331 165.29C217.563 165.29 218.561 166.289 218.561 167.521Z" fill="#00FF00"/>
<path d="M218.561 190.083C218.561 191.315 217.563 192.314 216.331 192.314C215.1 192.314 214.102 191.315 214.102 190.083C214.102 188.851 215.1 187.852 216.331 187.852C217.563 187.852 218.561 188.851 218.561 190.083Z" fill="#00FF00"/>
<path d="M218.561 212.645C218.561 213.877 217.563 214.876 216.331 214.876C215.1 214.876 214.102 213.877 214.102 212.645C214.102 211.413 215.1 210.414 216.331 210.414C217.563 210.414 218.561 211.413 218.561 212.645Z" fill="#00FF00"/>
<path d="M218.561 235.207C218.561 236.439 217.563 237.438 216.331 237.438C215.1 237.438 214.102 236.439 214.102 235.207C214.102 233.975 215.1 232.976 216.331 232.976C217.563 232.976 218.561 233.975 218.561 235.207Z" fill="#00FF00"/>
<path d="M218.561 257.769C218.561 259.001 217.563 260 216.331 260C215.1 260 214.102 259.001 214.102 257.769C214.102 256.537 215.1 255.539 216.331 255.539C217.563 255.539 218.561 256.537 218.561 257.769Z" fill="#00FF00"/>
<path d="M226.842 77.2721C226.842 78.5041 225.844 79.5029 224.613 79.5029C223.381 79.5029 222.383 78.5041 222.383 77.2721C222.383 76.0402 223.381 75.0414 224.613 75.0414C225.844 75.0414 226.842 76.0402 226.842 77.2721Z" fill="#00FF00"/>
<path d="M226.842 99.8343C226.842 101.066 225.844 102.065 224.613 102.065C223.381 102.065 222.383 101.066 222.383 99.8343C222.383 98.6023 223.381 97.6036 224.613 97.6036C225.844 97.6036 226.842 98.6023 226.842 99.8343Z" fill="#00FF00"/>
<path d="M226.842 122.396C226.842 123.628 225.844 124.627 224.613 124.627C223.381 124.627 222.383 123.628 222.383 122.396C222.383 121.164 223.381 120.166 224.613 120.166C225.844 120.166 226.842 121.164 226.842 122.396Z" fill="#00FF00"/>
<path d="M226.842 144.959C226.842 146.191 225.844 147.189 224.613 147.189C223.381 147.189 222.383 146.191 222.383 144.959C222.383 143.727 223.381 142.728 224.613 142.728C225.844 142.728 226.842 143.727 226.842 144.959Z" fill="#00FF00"/>
<path d="M226.842 167.521C226.842 168.753 225.844 169.751 224.613 169.751C223.381 169.751 222.383 168.753 222.383 167.521C222.383 166.289 223.381 165.29 224.613 165.29C225.844 165.29 226.842 166.289 226.842 167.521Z" fill="#00FF00"/>
<path d="M226.842 190.083C226.842 191.315 225.844 192.314 224.613 192.314C223.381 192.314 222.383 191.315 222.383 190.083C222.383 188.851 223.381 187.852 224.613 187.852C225.844 187.852 226.842 188.851 226.842 190.083Z" fill="#00FF00"/>
<path d="M226.842 212.645C226.842 213.877 225.844 214.876 224.613 214.876C223.381 214.876 222.383 213.877 222.383 212.645C222.383 211.413 223.381 210.414 224.613 210.414C225.844 210.414 226.842 211.413 226.842 212.645Z" fill="#00FF00"/>
<path d="M226.842 235.207C226.842 236.439 225.844 237.438 224.613 237.438C223.381 237.438 222.383 236.439 222.383 235.207C222.383 233.975 223.381 232.976 224.613 232.976C225.844 232.976 226.842 233.975 226.842 235.207Z" fill="#00FF00"/>
<path d="M226.842 257.769C226.842 259.001 225.844 260 224.613 260C223.381 260 222.383 259.001 222.383 257.769C222.383 256.537 223.381 255.539 224.613 255.539C225.844 255.539 226.842 256.537 226.842 257.769Z" fill="#00FF00"/>
<path d="M240.601 194.417C240.601 195.649 239.603 196.648 238.372 196.648C237.141 196.648 236.142 195.649 236.142 194.417C236.142 193.185 237.141 192.186 238.372 192.186C239.603 192.186 240.601 193.185 240.601 194.417Z" fill="#00FF00"/>
<path d="M255.89 194.417C255.89 195.649 254.891 196.648 253.66 196.648C252.429 196.648 251.431 195.649 251.431 194.417C251.431 193.185 252.429 192.186 253.66 192.186C254.891 192.186 255.89 193.185 255.89 194.417Z" fill="#00FF00"/>
<path d="M271.178 194.417C271.178 195.649 270.18 196.648 268.948 196.648C267.717 196.648 266.719 195.649 266.719 194.417C266.719 193.185 267.717 192.186 268.948 192.186C270.18 192.186 271.178 193.185 271.178 194.417Z" fill="#00FF00"/>
<path d="M286.466 194.417C286.466 195.649 285.468 196.648 284.237 196.648C283.005 196.648 282.007 195.649 282.007 194.417C282.007 193.185 283.005 192.186 284.237 192.186C285.468 192.186 286.466 193.185 286.466 194.417Z" fill="#00FF00"/>
<path d="M248.246 194.417C248.246 195.649 247.247 196.648 246.016 196.648C244.785 196.648 243.786 195.649 243.786 194.417C243.786 193.185 244.785 192.186 246.016 192.186C247.247 192.186 248.246 193.185 248.246 194.417Z" fill="#00FF00"/>
<path d="M263.534 194.417C263.534 195.649 262.536 196.648 261.304 196.648C260.073 196.648 259.075 195.649 259.075 194.417C259.075 193.185 260.073 192.186 261.304 192.186C262.536 192.186 263.534 193.185 263.534 194.417Z" fill="#00FF00"/>
<path d="M278.822 194.417C278.822 195.649 277.824 196.648 276.593 196.648C275.361 196.648 274.363 195.649 274.363 194.417C274.363 193.185 275.361 192.186 276.593 192.186C277.824 192.186 278.822 193.185 278.822 194.417Z" fill="#00FF00"/>
<path d="M294.11 194.417C294.11 195.649 293.112 196.648 291.881 196.648C290.649 196.648 289.651 195.649 289.651 194.417C289.651 193.185 290.649 192.186 291.881 192.186C293.112 192.186 294.11 193.185 294.11 194.417Z" fill="#00FF00"/>
<path d="M240.856 161.275C240.856 162.507 239.858 163.505 238.627 163.505C237.395 163.505 236.397 162.507 236.397 161.275C236.397 160.043 237.395 159.044 238.627 159.044C239.858 159.044 240.856 160.043 240.856 161.275Z" fill="#00FF00"/>
<path d="M256.144 161.275C256.144 162.507 255.146 163.505 253.915 163.505C252.684 163.505 251.685 162.507 251.685 161.275C251.685 160.043 252.684 159.044 253.915 159.044C255.146 159.044 256.144 160.043 256.144 161.275Z" fill="#00FF00"/>
<path d="M271.433 161.275C271.433 162.507 270.435 163.505 269.203 163.505C267.972 163.505 266.974 162.507 266.974 161.275C266.974 160.043 267.972 159.044 269.203 159.044C270.435 159.044 271.433 160.043 271.433 161.275Z" fill="#00FF00"/>
<path d="M286.721 161.275C286.721 162.507 285.723 163.505 284.491 163.505C283.26 163.505 282.262 162.507 282.262 161.275C282.262 160.043 283.26 159.044 284.491 159.044C285.723 159.044 286.721 160.043 286.721 161.275Z" fill="#00FF00"/>
<path d="M248.5 161.275C248.5 162.507 247.502 163.505 246.271 163.505C245.039 163.505 244.041 162.507 244.041 161.275C244.041 160.043 245.039 159.044 246.271 159.044C247.502 159.044 248.5 160.043 248.5 161.275Z" fill="#00FF00"/>
<path d="M263.789 161.275C263.789 162.507 262.79 163.505 261.559 163.505C260.328 163.505 259.33 162.507 259.33 161.275C259.33 160.043 260.328 159.044 261.559 159.044C262.79 159.044 263.789 160.043 263.789 161.275Z" fill="#00FF00"/>
<path d="M279.077 161.275C279.077 162.507 278.079 163.505 276.847 163.505C275.616 163.505 274.618 162.507 274.618 161.275C274.618 160.043 275.616 159.044 276.847 159.044C278.079 159.044 279.077 160.043 279.077 161.275Z" fill="#00FF00"/>
<path d="M294.365 161.275C294.365 162.507 293.367 163.505 292.136 163.505C290.904 163.505 289.906 162.507 289.906 161.275C289.906 160.043 290.904 159.044 292.136 159.044C293.367 159.044 294.365 160.043 294.365 161.275Z" fill="#00FF00"/>
<path d="M240.856 128.133C240.856 129.365 239.858 130.363 238.627 130.363C237.395 130.363 236.397 129.365 236.397 128.133C236.397 126.901 237.395 125.902 238.627 125.902C239.858 125.902 240.856 126.901 240.856 128.133Z" fill="#00FF00"/>
<path d="M256.144 128.133C256.144 129.365 255.146 130.363 253.915 130.363C252.684 130.363 251.685 129.365 251.685 128.133C251.685 126.901 252.684 125.902 253.915 125.902C255.146 125.902 256.144 126.901 256.144 128.133Z" fill="#00FF00"/>
<path d="M271.433 128.133C271.433 129.365 270.435 130.363 269.203 130.363C267.972 130.363 266.974 129.365 266.974 128.133C266.974 126.901 267.972 125.902 269.203 125.902C270.435 125.902 271.433 126.901 271.433 128.133Z" fill="#00FF00"/>
<path d="M286.721 128.133C286.721 129.365 285.723 130.363 284.491 130.363C283.26 130.363 282.262 129.365 282.262 128.133C282.262 126.901 283.26 125.902 284.491 125.902C285.723 125.902 286.721 126.901 286.721 128.133Z" fill="#00FF00"/>
<path d="M248.5 128.133C248.5 129.365 247.502 130.363 246.271 130.363C245.039 130.363 244.041 129.365 244.041 128.133C244.041 126.901 245.039 125.902 246.271 125.902C247.502 125.902 248.5 126.901 248.5 128.133Z" fill="#00FF00"/>
<path d="M263.789 128.133C263.789 129.365 262.79 130.363 261.559 130.363C260.328 130.363 259.33 129.365 259.33 128.133C259.33 126.901 260.328 125.902 261.559 125.902C262.79 125.902 263.789 126.901 263.789 128.133Z" fill="#00FF00"/>
<path d="M279.077 128.133C279.077 129.365 278.079 130.363 276.847 130.363C275.616 130.363 274.618 129.365 274.618 128.133C274.618 126.901 275.616 125.902 276.847 125.902C278.079 125.902 279.077 126.901 279.077 128.133Z" fill="#00FF00"/>
<path d="M294.365 128.133C294.365 129.365 293.367 130.363 292.136 130.363C290.904 130.363 289.906 129.365 289.906 128.133C289.906 126.901 290.904 125.902 292.136 125.902C293.367 125.902 294.365 126.901 294.365 128.133Z" fill="#00FF00"/>
<path d="M100.459 126.201C100.459 127.433 99.4609 128.432 98.2295 128.432C96.9982 128.432 96 127.433 96 126.201C96 124.969 96.9982 123.971 98.2295 123.971C99.4609 123.971 100.459 124.969 100.459 126.201Z" fill="#00FF00"/>
<path d="M106.574 121.713C107.116 122.819 106.659 124.156 105.554 124.698C104.448 125.24 103.112 124.783 102.57 123.677C102.028 122.571 102.485 121.234 103.591 120.692C104.697 120.15 106.032 120.607 106.574 121.713Z" fill="#00FF00"/>
<path d="M113.519 119.096C113.917 120.262 113.295 121.53 112.13 121.928C110.964 122.326 109.697 121.703 109.299 120.537C108.902 119.371 109.524 118.103 110.689 117.706C111.855 117.308 113.122 117.93 113.519 119.096Z" fill="#00FF00"/>
<path d="M120.788 118.057C120.875 119.286 119.95 120.353 118.722 120.44C117.494 120.528 116.427 119.603 116.34 118.374C116.252 117.145 117.177 116.078 118.405 115.99C119.634 115.903 120.7 116.828 120.788 118.057Z" fill="#00FF00"/>
<path d="M128.091 119.32C127.812 120.52 126.615 121.268 125.415 120.99C124.216 120.711 123.469 119.513 123.747 118.313C124.025 117.113 125.223 116.365 126.422 116.643C127.622 116.922 128.369 118.12 128.091 119.32Z" fill="#00FF00"/>
<path d="M134.623 122.792C133.985 123.846 132.614 124.183 131.561 123.545C130.508 122.907 130.171 121.535 130.808 120.481C131.446 119.427 132.817 119.09 133.87 119.728C134.924 120.366 135.26 121.738 134.623 122.792Z" fill="#00FF00"/>
<path d="M140.544 127.119C139.827 128.121 138.435 128.352 137.433 127.635C136.432 126.918 136.201 125.525 136.918 124.523C137.634 123.521 139.027 123.29 140.028 124.007C141.03 124.724 141.261 126.117 140.544 127.119Z" fill="#00FF00"/>
<path d="M146.25 131.919C145.425 132.834 144.015 132.906 143.101 132.08C142.187 131.255 142.115 129.844 142.94 128.93C143.765 128.015 145.175 127.943 146.089 128.769C147.003 129.594 147.075 131.005 146.25 131.919Z" fill="#00FF00"/>
<path d="M152.133 136.28C151.465 137.315 150.085 137.613 149.05 136.945C148.016 136.277 147.718 134.896 148.386 133.861C149.054 132.826 150.434 132.528 151.468 133.196C152.503 133.864 152.8 135.245 152.133 136.28Z" fill="#00FF00"/>
<path d="M159.273 138.126C159.065 139.341 157.913 140.156 156.699 139.948C155.486 139.74 154.67 138.587 154.878 137.373C155.086 136.159 156.238 135.343 157.452 135.551C158.666 135.759 159.481 136.912 159.273 138.126Z" fill="#00FF00"/>
<path d="M166.581 137.106C166.864 138.305 166.121 139.506 164.923 139.789C163.724 140.071 162.523 139.328 162.241 138.129C161.958 136.93 162.701 135.729 163.899 135.446C165.098 135.164 166.298 135.906 166.581 137.106Z" fill="#00FF00"/>
<path d="M173.221 133.806C173.81 134.887 173.412 136.242 172.331 136.832C171.25 137.422 169.896 137.024 169.306 135.942C168.716 134.861 169.115 133.506 170.196 132.916C171.277 132.326 172.631 132.724 173.221 133.806Z" fill="#00FF00"/>
<path d="M179.154 129.545C179.896 130.529 179.7 131.928 178.717 132.669C177.734 133.411 176.336 133.215 175.594 132.232C174.853 131.248 175.049 129.849 176.032 129.107C177.015 128.366 178.413 128.562 179.154 129.545Z" fill="#00FF00"/>
<path d="M184.47 124.629C185.338 125.503 185.333 126.915 184.46 127.784C183.586 128.652 182.174 128.648 181.307 127.774C180.439 126.9 180.443 125.487 181.317 124.619C182.19 123.751 183.602 123.755 184.47 124.629Z" fill="#00FF00"/>
<path d="M100.969 157.068C100.969 158.3 99.9705 159.299 98.7391 159.299C97.5078 159.299 96.5096 158.3 96.5096 157.068C96.5096 155.836 97.5078 154.837 98.7391 154.837C99.9705 154.837 100.969 155.836 100.969 157.068Z" fill="#00FF00"/>
<path d="M107.084 152.58C107.626 153.686 107.169 155.022 106.063 155.565C104.958 156.107 103.622 155.65 103.08 154.544C102.538 153.437 102.995 152.101 104.101 151.559C105.206 151.016 106.542 151.474 107.084 152.58Z" fill="#00FF00"/>
<path d="M114.029 149.963C114.427 151.129 113.805 152.397 112.639 152.794C111.474 153.192 110.207 152.57 109.809 151.404C109.411 150.238 110.034 148.97 111.199 148.572C112.364 148.174 113.631 148.797 114.029 149.963Z" fill="#00FF00"/>
<path d="M121.297 148.923C121.385 150.152 120.46 151.219 119.232 151.307C118.003 151.394 116.937 150.469 116.849 149.24C116.762 148.011 117.687 146.944 118.915 146.857C120.143 146.769 121.21 147.695 121.297 148.923Z" fill="#00FF00"/>
<path d="M128.6 150.187C128.322 151.387 127.124 152.134 125.925 151.856C124.725 151.578 123.978 150.379 124.256 149.179C124.534 147.979 125.732 147.232 126.932 147.51C128.131 147.788 128.878 148.987 128.6 150.187Z" fill="#00FF00"/>
<path d="M135.132 153.658C134.495 154.712 133.124 155.049 132.07 154.411C131.017 153.773 130.68 152.402 131.318 151.348C131.956 150.294 133.326 149.957 134.38 150.595C135.433 151.233 135.77 152.605 135.132 153.658Z" fill="#00FF00"/>
<path d="M141.054 157.986C140.337 158.988 138.944 159.219 137.943 158.502C136.942 157.785 136.711 156.391 137.427 155.389C138.144 154.388 139.537 154.157 140.538 154.874C141.539 155.591 141.77 156.984 141.054 157.986Z" fill="#00FF00"/>
<path d="M146.759 162.786C145.934 163.7 144.524 163.772 143.61 162.947C142.696 162.121 142.624 160.711 143.449 159.796C144.275 158.882 145.684 158.81 146.598 159.635C147.512 160.461 147.584 161.871 146.759 162.786Z" fill="#00FF00"/>
<path d="M152.642 167.147C151.974 168.182 150.595 168.48 149.56 167.811C148.525 167.143 148.228 165.763 148.896 164.728C149.563 163.692 150.943 163.395 151.978 164.063C153.012 164.731 153.31 166.112 152.642 167.147Z" fill="#00FF00"/>
<path d="M159.783 168.993C159.575 170.207 158.422 171.023 157.209 170.815C155.995 170.607 155.18 169.454 155.388 168.24C155.596 167.025 156.748 166.21 157.962 166.418C159.175 166.626 159.991 167.779 159.783 168.993Z" fill="#00FF00"/>
<path d="M167.091 167.972C167.373 169.171 166.631 170.373 165.432 170.655C164.234 170.938 163.033 170.195 162.751 168.996C162.468 167.797 163.21 166.596 164.409 166.313C165.607 166.03 166.808 166.773 167.091 167.972Z" fill="#00FF00"/>
<path d="M173.73 164.672C174.32 165.754 173.922 167.109 172.841 167.699C171.76 168.289 170.405 167.89 169.816 166.809C169.226 165.727 169.624 164.372 170.705 163.782C171.786 163.192 173.141 163.591 173.73 164.672Z" fill="#00FF00"/>
<path d="M179.664 160.412C180.406 161.395 180.21 162.794 179.227 163.536C178.243 164.278 176.845 164.082 176.104 163.098C175.363 162.115 175.558 160.716 176.542 159.974C177.525 159.232 178.923 159.428 179.664 160.412Z" fill="#00FF00"/>
<path d="M184.979 155.496C185.847 156.37 185.843 157.782 184.969 158.65C184.096 159.519 182.684 159.514 181.816 158.64C180.948 157.766 180.953 156.354 181.826 155.486C182.7 154.617 184.111 154.622 184.979 155.496Z" fill="#00FF00"/>
<path d="M101.478 187.934C101.478 189.166 100.48 190.165 99.2488 190.165C98.0174 190.165 97.0192 189.166 97.0192 187.934C97.0192 186.702 98.0174 185.704 99.2488 185.704C100.48 185.704 101.478 186.702 101.478 187.934Z" fill="#00FF00"/>
<path d="M107.593 183.446C108.136 184.553 107.679 185.889 106.573 186.431C105.467 186.974 104.132 186.516 103.59 185.41C103.048 184.304 103.505 182.968 104.61 182.425C105.716 181.883 107.051 182.34 107.593 183.446Z" fill="#00FF00"/>
<path d="M114.539 180.829C114.936 181.995 114.314 183.263 113.149 183.661C111.983 184.059 110.716 183.436 110.319 182.27C109.921 181.104 110.543 179.837 111.708 179.439C112.874 179.041 114.141 179.663 114.539 180.829Z" fill="#00FF00"/>
<path d="M121.807 179.79C121.894 181.019 120.969 182.086 119.741 182.174C118.513 182.261 117.446 181.336 117.359 180.107C117.272 178.878 118.196 177.811 119.425 177.723C120.653 177.636 121.719 178.561 121.807 179.79Z" fill="#00FF00"/>
<path d="M129.11 181.053C128.832 182.254 127.634 183.001 126.434 182.723C125.235 182.445 124.488 181.246 124.766 180.046C125.044 178.846 126.242 178.098 127.441 178.377C128.641 178.655 129.388 179.853 129.11 181.053Z" fill="#00FF00"/>
<path d="M135.642 184.525C135.004 185.579 133.633 185.916 132.58 185.278C131.527 184.64 131.19 183.268 131.828 182.214C132.465 181.161 133.836 180.823 134.889 181.461C135.943 182.1 136.28 183.471 135.642 184.525Z" fill="#00FF00"/>
<path d="M141.563 188.852C140.847 189.854 139.454 190.085 138.453 189.368C137.451 188.651 137.22 187.258 137.937 186.256C138.654 185.254 140.046 185.023 141.048 185.74C142.049 186.457 142.28 187.851 141.563 188.852Z" fill="#00FF00"/>
<path d="M147.269 193.652C146.444 194.567 145.034 194.639 144.12 193.813C143.206 192.988 143.134 191.577 143.959 190.663C144.784 189.748 146.194 189.676 147.108 190.502C148.022 191.327 148.094 192.738 147.269 193.652Z" fill="#00FF00"/>
<path d="M153.152 198.013C152.484 199.049 151.104 199.346 150.07 198.678C149.035 198.01 148.738 196.629 149.405 195.594C150.073 194.559 151.453 194.261 152.487 194.93C153.522 195.598 153.82 196.978 153.152 198.013Z" fill="#00FF00"/>
<path d="M160.292 199.86C160.084 201.074 158.932 201.89 157.718 201.682C156.505 201.474 155.689 200.321 155.897 199.106C156.105 197.892 157.258 197.076 158.471 197.284C159.685 197.492 160.5 198.645 160.292 199.86Z" fill="#00FF00"/>
<path d="M167.6 198.839C167.883 200.038 167.14 201.239 165.942 201.522C164.743 201.805 163.543 201.062 163.26 199.863C162.978 198.663 163.72 197.462 164.919 197.179C166.117 196.897 167.318 197.64 167.6 198.839Z" fill="#00FF00"/>
<path d="M174.24 195.539C174.83 196.621 174.431 197.976 173.35 198.566C172.269 199.155 170.915 198.757 170.325 197.675C169.736 196.594 170.134 195.239 171.215 194.649C172.296 194.059 173.65 194.457 174.24 195.539Z" fill="#00FF00"/>
<path d="M180.174 191.278C180.915 192.262 180.719 193.661 179.736 194.403C178.753 195.144 177.355 194.948 176.614 193.965C175.872 192.981 176.068 191.582 177.051 190.841C178.034 190.099 179.432 190.295 180.174 191.278Z" fill="#00FF00"/>
<path d="M185.489 186.362C186.357 187.236 186.352 188.649 185.479 189.517C184.605 190.385 183.194 190.381 182.326 189.507C181.458 188.633 181.462 187.221 182.336 186.352C183.209 185.484 184.621 185.488 185.489 186.362Z" fill="#00FF00"/>
<rect x="0.5" y="0.5" width="389" height="319" rx="4.5" stroke="#E1D5C6"/>
</svg>
