<svg width="390" height="320" viewBox="0 0 390 320" fill="none" xmlns="http://www.w3.org/2000/svg">
<rect x="0.5" y="0.5" width="389" height="319" rx="4.5" fill="white"/>
<path d="M259.374 137.393C260.596 137.588 261.428 138.736 261.233 139.958C261.039 141.18 259.89 142.012 258.668 141.817C257.447 141.623 256.614 140.474 256.809 139.252C257.004 138.031 258.152 137.198 259.374 137.393Z" fill="#00FF00"/>
<path d="M260.837 129.7C262.059 129.895 262.892 131.044 262.697 132.265C262.502 133.487 261.354 134.32 260.132 134.125C258.91 133.93 258.078 132.782 258.272 131.56C258.467 130.338 259.615 129.506 260.837 129.7Z" fill="#00FF00"/>
<path d="M262.429 121.752C263.651 121.947 264.483 123.095 264.288 124.317C264.094 125.539 262.945 126.371 261.723 126.176C260.502 125.982 259.669 124.833 259.864 123.611C260.059 122.39 261.207 121.557 262.429 121.752Z" fill="#00FF00"/>
<path d="M269.724 142.095C269.49 143.31 268.316 144.105 267.101 143.871C265.886 143.638 265.091 142.463 265.325 141.248C265.559 140.033 266.733 139.238 267.948 139.472C269.163 139.706 269.958 140.88 269.724 142.095Z" fill="#00FF00"/>
<path d="M277.242 143.673C277.008 144.888 275.834 145.683 274.619 145.449C273.404 145.215 272.609 144.041 272.843 142.826C273.076 141.611 274.251 140.816 275.466 141.05C276.681 141.283 277.476 142.458 277.242 143.673Z" fill="#00FF00"/>
<path d="M292.891 101.936C291.653 101.936 290.651 100.933 290.651 99.6959C290.651 98.4587 291.653 97.4558 292.891 97.4558C294.128 97.4558 295.131 98.4587 295.131 99.6959C295.131 100.933 294.128 101.936 292.891 101.936Z" fill="#00FF00"/>
<path d="M291.619 109.689C290.409 109.434 289.634 108.246 289.889 107.036C290.144 105.825 291.332 105.05 292.543 105.305C293.753 105.56 294.528 106.748 294.273 107.959C294.018 109.17 292.83 109.944 291.619 109.689Z" fill="#00FF00"/>
<path d="M288.74 117.04C287.61 116.537 287.102 115.213 287.605 114.083C288.108 112.953 289.432 112.444 290.562 112.947C291.693 113.45 292.201 114.775 291.698 115.905C291.195 117.035 289.871 117.544 288.74 117.04Z" fill="#00FF00"/>
<path d="M284.39 123.627C283.389 122.899 283.168 121.498 283.896 120.497C284.624 119.497 286.025 119.276 287.025 120.004C288.026 120.731 288.247 122.132 287.519 123.133C286.791 124.133 285.39 124.354 284.39 123.627Z" fill="#00FF00"/>
<path d="M278.784 129.158C277.955 128.24 278.027 126.823 278.946 125.994C279.864 125.165 281.28 125.237 282.11 126.155C282.939 127.073 282.867 128.49 281.948 129.319C281.03 130.148 279.614 130.076 278.784 129.158Z" fill="#00FF00"/>
<path d="M272.146 133.415C271.525 132.345 271.888 130.974 272.958 130.353C274.028 129.731 275.399 130.095 276.021 131.165C276.642 132.234 276.278 133.605 275.209 134.227C274.139 134.848 272.768 134.485 272.146 133.415Z" fill="#00FF00"/>
<path d="M264.767 136.195C264.381 135.02 265.021 133.754 266.196 133.368C267.371 132.981 268.637 133.621 269.024 134.796C269.41 135.972 268.77 137.238 267.595 137.624C266.42 138.01 265.154 137.371 264.767 136.195Z" fill="#00FF00"/>
<path d="M241.355 134.753C241.741 133.577 243.007 132.938 244.182 133.324C245.358 133.71 245.997 134.976 245.611 136.152C245.225 137.327 243.959 137.967 242.783 137.58C241.608 137.194 240.968 135.928 241.355 134.753Z" fill="#00FF00"/>
<path d="M234.381 131.1C235.002 130.03 236.373 129.667 237.443 130.288C238.513 130.909 238.877 132.28 238.255 133.35C237.634 134.42 236.263 134.783 235.193 134.162C234.123 133.541 233.76 132.17 234.381 131.1Z" fill="#00FF00"/>
<path d="M228.321 126.081C229.15 125.163 230.567 125.091 231.485 125.92C232.403 126.749 232.475 128.166 231.646 129.084C230.817 130.002 229.4 130.074 228.482 129.245C227.564 128.416 227.492 126.999 228.321 126.081Z" fill="#00FF00"/>
<path d="M223.409 119.882C224.412 119.158 225.812 119.384 226.536 120.387C227.261 121.391 227.034 122.791 226.031 123.515C225.028 124.239 223.628 124.013 222.904 123.01C222.18 122.007 222.406 120.606 223.409 119.882Z" fill="#00FF00"/>
<path d="M219.926 112.892C221.056 112.389 222.38 112.897 222.883 114.028C223.386 115.158 222.878 116.482 221.748 116.985C220.617 117.488 219.293 116.98 218.79 115.85C218.287 114.719 218.795 113.395 219.926 112.892Z" fill="#00FF00"/>
<path d="M217.963 105.275C219.174 105.02 220.362 105.795 220.617 107.005C220.872 108.216 220.097 109.404 218.887 109.659C217.676 109.914 216.488 109.139 216.233 107.929C215.978 106.718 216.753 105.53 217.963 105.275Z" fill="#00FF00"/>
<path d="M217.64 97.1592C218.877 97.1687 219.873 98.1794 219.863 99.4166C219.853 100.654 218.843 101.649 217.606 101.639C216.368 101.63 215.373 100.619 215.383 99.382C215.392 98.1448 216.403 97.1496 217.64 97.1592Z" fill="#00FF00"/>
<path d="M218.966 89.4434C220.175 89.7076 220.94 90.9016 220.676 92.1103C220.412 93.3189 219.218 94.0846 218.009 93.8204C216.801 93.5562 216.035 92.3622 216.299 91.1535C216.564 89.9449 217.758 89.1792 218.966 89.4434Z" fill="#00FF00"/>
<path d="M221.891 82.1283C223.017 82.6398 223.516 83.9677 223.004 85.0942C222.493 86.2207 221.165 86.7192 220.038 86.2077C218.912 85.6962 218.413 84.3683 218.925 83.2418C219.436 82.1153 220.764 81.6168 221.891 82.1283Z" fill="#00FF00"/>
<path d="M226.285 75.5707C227.28 76.3058 227.491 77.7084 226.756 78.7036C226.021 79.6987 224.619 79.9096 223.623 79.1745C222.628 78.4394 222.417 77.0368 223.152 76.0416C223.888 75.0465 225.29 74.8357 226.285 75.5707Z" fill="#00FF00"/>
<path d="M231.882 70.1169C232.705 71.0411 232.623 72.4571 231.698 73.2796C230.774 74.1021 229.358 74.0197 228.536 73.0955C227.713 72.1713 227.796 70.7553 228.72 69.9328C229.644 69.1103 231.06 69.1927 231.882 70.1169Z" fill="#00FF00"/>
<path d="M238.503 65.9169C239.116 66.9913 238.743 68.3596 237.669 68.9731C236.594 69.5866 235.226 69.213 234.612 68.1386C233.999 67.0642 234.372 65.6959 235.447 65.0824C236.521 64.4689 237.889 64.8425 238.503 65.9169Z" fill="#00FF00"/>
<path d="M246.024 63.1336C246.397 64.3132 245.743 65.5719 244.563 65.9449C243.383 66.3179 242.125 65.6641 241.752 64.4844C241.379 63.3048 242.033 62.0461 243.212 61.6731C244.392 61.3001 245.651 61.954 246.024 63.1336Z" fill="#00FF00"/>
<path d="M253.791 62.0247C253.91 63.2561 253.008 64.351 251.777 64.47C250.546 64.5891 249.451 63.6874 249.332 62.4559C249.213 61.2245 250.114 60.1296 251.346 60.0106C252.577 59.8915 253.672 60.7932 253.791 62.0247Z" fill="#00FF00"/>
<path d="M261.596 62.5334C261.458 63.7629 260.349 64.6477 259.12 64.5097C257.89 64.3717 257.005 63.2631 257.143 62.0336C257.281 60.8041 258.39 59.9193 259.619 60.0573C260.849 60.1954 261.734 61.3039 261.596 62.5334Z" fill="#00FF00"/>
<path d="M269.382 64.7319C268.987 65.9043 267.716 66.5344 266.544 66.1392C265.372 65.744 264.742 64.4732 265.137 63.3008C265.532 62.1284 266.803 61.4984 267.975 61.8936C269.148 62.2888 269.778 63.5596 269.382 64.7319Z" fill="#00FF00"/>
<path d="M276.222 68.3637C275.593 69.429 274.219 69.7824 273.154 69.1531C272.089 68.5238 271.735 67.1502 272.364 66.085C272.994 65.0198 274.367 64.6663 275.433 65.2956C276.498 65.9249 276.851 67.2985 276.222 68.3637Z" fill="#00FF00"/>
<path d="M282.258 73.3935C281.423 74.3056 280.006 74.3675 279.093 73.5316C278.181 72.6957 278.119 71.2787 278.955 70.3666C279.791 69.4544 281.208 69.3926 282.12 70.2285C283.032 71.0643 283.094 72.4814 282.258 73.3935Z" fill="#00FF00"/>
<path d="M287.242 79.732C286.234 80.4488 284.835 80.2124 284.119 79.204C283.402 78.1955 283.638 76.797 284.647 76.0802C285.655 75.3635 287.054 75.5999 287.77 76.6083C288.487 77.6167 288.251 79.0153 287.242 79.732Z" fill="#00FF00"/>
<path d="M290.711 86.8456C289.575 87.3361 288.257 86.8129 287.766 85.677C287.276 84.5412 287.799 83.2228 288.935 82.7324C290.071 82.2419 291.389 82.7651 291.879 83.901C292.37 85.0368 291.847 86.3552 290.711 86.8456Z" fill="#00FF00"/>
<path d="M292.58 94.3523C291.368 94.598 290.186 93.8142 289.94 92.6017C289.694 91.3891 290.478 90.207 291.69 89.9613C292.903 89.7155 294.085 90.4993 294.331 91.7119C294.577 92.9244 293.793 94.1066 292.58 94.3523Z" fill="#00FF00"/>
<circle cx="96.6845" cy="257.711" r="2.28897" fill="#00FF00"/>
<circle cx="159.468" cy="257.711" r="2.28897" fill="#00FF00"/>
<circle cx="222.252" cy="257.711" r="2.28897" fill="#00FF00"/>
<circle cx="112.381" cy="257.711" r="2.28897" fill="#00FF00"/>
<circle cx="175.164" cy="257.711" r="2.28897" fill="#00FF00"/>
<circle cx="237.946" cy="257.711" r="2.28897" fill="#00FF00"/>
<circle cx="128.076" cy="257.711" r="2.28897" fill="#00FF00"/>
<circle cx="190.859" cy="257.711" r="2.28897" fill="#00FF00"/>
<circle cx="253.642" cy="257.711" r="2.28897" fill="#00FF00"/>
<circle cx="143.771" cy="257.711" r="2.28897" fill="#00FF00"/>
<circle cx="206.556" cy="257.711" r="2.28897" fill="#00FF00"/>
<circle cx="269.339" cy="257.711" r="2.28897" fill="#00FF00"/>
<circle cx="104.532" cy="257.711" r="2.28897" fill="#00FF00"/>
<circle cx="167.315" cy="257.711" r="2.28897" fill="#00FF00"/>
<circle cx="230.099" cy="257.711" r="2.28897" fill="#00FF00"/>
<circle cx="120.228" cy="257.711" r="2.28897" fill="#00FF00"/>
<circle cx="183.012" cy="257.711" r="2.28897" fill="#00FF00"/>
<circle cx="245.795" cy="257.711" r="2.28897" fill="#00FF00"/>
<circle cx="135.925" cy="257.711" r="2.28897" fill="#00FF00"/>
<circle cx="198.708" cy="257.711" r="2.28897" fill="#00FF00"/>
<circle cx="261.49" cy="257.711" r="2.28897" fill="#00FF00"/>
<circle cx="151.62" cy="257.711" r="2.28897" fill="#00FF00"/>
<circle cx="214.403" cy="257.711" r="2.28897" fill="#00FF00"/>
<circle cx="277.186" cy="257.711" r="2.28897" fill="#00FF00"/>
<circle cx="285.034" cy="257.711" r="2.28897" fill="#00FF00"/>
<circle cx="292.883" cy="257.711" r="2.28897" fill="#00FF00"/>
<circle cx="202.877" cy="98.2638" r="2.28983" transform="rotate(171.66 202.877 98.2638)" fill="#00FF00"/>
<circle cx="193.47" cy="98.1408" r="2.28983" transform="rotate(-170.405 193.47 98.1408)" fill="#00FF00"/>
<circle cx="184.57" cy="95.1197" r="2.28983" transform="rotate(-152.331 184.57 95.1197)" fill="#00FF00"/>
<circle cx="176.954" cy="89.3916" r="2.28983" transform="rotate(-135 176.954 89.3916)" fill="#00FF00"/>
<circle cx="170.275" cy="82.7133" r="2.28983" transform="rotate(-135 170.275 82.7133)" fill="#00FF00"/>
<circle cx="163.003" cy="76.6968" r="2.28983" transform="rotate(-148.857 163.003 76.6968)" fill="#00FF00"/>
<circle cx="154.266" cy="73.1809" r="2.28983" transform="rotate(-167.047 154.266 73.1809)" fill="#00FF00"/>
<circle cx="144.88" cy="72.5458" r="2.28983" transform="rotate(175.001 144.88 72.5458)" fill="#00FF00"/>
<circle cx="135.756" cy="74.8389" r="2.28983" transform="rotate(156.856 135.756 74.8389)" fill="#00FF00"/>
<circle cx="127.8" cy="79.8537" r="2.28983" transform="rotate(138.758 127.8 79.8537)" fill="#00FF00"/>
<circle cx="120.993" cy="86.5688" r="2.28983" transform="rotate(135 120.993 86.5688)" fill="#00FF00"/>
<circle cx="114.03" cy="92.9699" r="2.28983" transform="rotate(144.264 114.03 92.9699)" fill="#00FF00"/>
<circle cx="105.613" cy="97.1821" r="2.28983" transform="rotate(162.4 105.613 97.1821)" fill="#00FF00"/>
<circle cx="96.3069" cy="98.5725" r="2.28983" transform="rotate(-179.584 96.3069 98.5725)" fill="#00FF00"/>
<circle cx="211.863" cy="140.408" r="2.29" transform="rotate(153.628 211.863 140.408)" fill="#00FF00"/>
<circle cx="202.877" cy="143.198" r="2.29" transform="rotate(171.66 202.877 143.198)" fill="#00FF00"/>
<circle cx="193.47" cy="143.075" r="2.29" transform="rotate(-170.405 193.47 143.075)" fill="#00FF00"/>
<circle cx="184.57" cy="140.054" r="2.29" transform="rotate(-152.331 184.57 140.054)" fill="#00FF00"/>
<circle cx="176.954" cy="134.326" r="2.29" transform="rotate(-135 176.954 134.326)" fill="#00FF00"/>
<circle cx="170.275" cy="127.648" r="2.29" transform="rotate(-135 170.275 127.648)" fill="#00FF00"/>
<circle cx="163.003" cy="121.631" r="2.29" transform="rotate(-148.857 163.003 121.631)" fill="#00FF00"/>
<circle cx="154.267" cy="118.116" r="2.29" transform="rotate(-167.047 154.267 118.116)" fill="#00FF00"/>
<circle cx="144.88" cy="117.481" r="2.29" transform="rotate(175.001 144.88 117.481)" fill="#00FF00"/>
<circle cx="135.756" cy="119.773" r="2.29" transform="rotate(156.856 135.756 119.773)" fill="#00FF00"/>
<circle cx="127.801" cy="124.788" r="2.29" transform="rotate(138.758 127.801 124.788)" fill="#00FF00"/>
<circle cx="120.994" cy="131.503" r="2.29" transform="rotate(135 120.994 131.503)" fill="#00FF00"/>
<circle cx="114.029" cy="137.904" r="2.29" transform="rotate(144.264 114.029 137.904)" fill="#00FF00"/>
<circle cx="105.613" cy="142.117" r="2.29" transform="rotate(162.4 105.613 142.117)" fill="#00FF00"/>
<circle cx="96.3068" cy="143.507" r="2.29" transform="rotate(-179.584 96.3068 143.507)" fill="#00FF00"/>
<circle cx="290.768" cy="231.886" r="2.29" transform="rotate(-161.126 290.768 231.886)" fill="#00FF00"/>
<circle cx="282.475" cy="227.461" r="2.29" transform="rotate(-142.946 282.475 227.461)" fill="#00FF00"/>
<circle cx="275.519" cy="220.905" r="2.29" transform="rotate(-135 275.519 220.905)" fill="#00FF00"/>
<circle cx="268.74" cy="214.303" r="2.29" transform="rotate(-140.082 268.74 214.303)" fill="#00FF00"/>
<circle cx="260.64" cy="209.487" r="2.29" transform="rotate(-158.354 260.64 209.487)" fill="#00FF00"/>
<circle cx="251.458" cy="207.435" r="2.29" transform="rotate(-176.252 251.458 207.435)" fill="#00FF00"/>
<circle cx="242.095" cy="208.315" r="2.29" transform="rotate(165.783 242.095 208.315)" fill="#00FF00"/>
<circle cx="233.465" cy="212.052" r="2.29" transform="rotate(147.548 233.465 212.052)" fill="#00FF00"/>
<circle cx="226.236" cy="218.275" r="2.29" transform="rotate(135 226.236 218.275)" fill="#00FF00"/>
<circle cx="219.553" cy="224.956" r="2.29" transform="rotate(135.442 219.553 224.956)" fill="#00FF00"/>
<circle cx="211.863" cy="230.422" r="2.29" transform="rotate(153.628 211.863 230.422)" fill="#00FF00"/>
<circle cx="202.877" cy="233.212" r="2.29" transform="rotate(171.66 202.877 233.212)" fill="#00FF00"/>
<circle cx="193.47" cy="233.089" r="2.29" transform="rotate(-170.405 193.47 233.089)" fill="#00FF00"/>
<circle cx="184.57" cy="230.069" r="2.29" transform="rotate(-152.331 184.57 230.069)" fill="#00FF00"/>
<circle cx="176.954" cy="224.34" r="2.29" transform="rotate(-135 176.954 224.34)" fill="#00FF00"/>
<circle cx="170.275" cy="217.662" r="2.29" transform="rotate(-135 170.275 217.662)" fill="#00FF00"/>
<circle cx="163.003" cy="211.645" r="2.29" transform="rotate(-148.857 163.003 211.645)" fill="#00FF00"/>
<circle cx="154.267" cy="208.13" r="2.29" transform="rotate(-167.047 154.267 208.13)" fill="#00FF00"/>
<circle cx="144.88" cy="207.495" r="2.29" transform="rotate(175.001 144.88 207.495)" fill="#00FF00"/>
<circle cx="135.756" cy="209.788" r="2.29" transform="rotate(156.856 135.756 209.788)" fill="#00FF00"/>
<circle cx="127.801" cy="214.802" r="2.29" transform="rotate(138.758 127.801 214.802)" fill="#00FF00"/>
<circle cx="120.994" cy="221.518" r="2.29" transform="rotate(135 120.994 221.518)" fill="#00FF00"/>
<circle cx="114.029" cy="227.919" r="2.29" transform="rotate(144.264 114.029 227.919)" fill="#00FF00"/>
<circle cx="105.613" cy="232.131" r="2.29" transform="rotate(162.4 105.613 232.131)" fill="#00FF00"/>
<circle cx="96.3068" cy="233.521" r="2.29" transform="rotate(-179.584 96.3068 233.521)" fill="#00FF00"/>
<circle cx="290.768" cy="186.886" r="2.29" transform="rotate(-161.126 290.768 186.886)" fill="#00FF00"/>
<circle cx="282.475" cy="182.461" r="2.29" transform="rotate(-142.946 282.475 182.461)" fill="#00FF00"/>
<circle cx="275.519" cy="175.905" r="2.29" transform="rotate(-135 275.519 175.905)" fill="#00FF00"/>
<circle cx="268.74" cy="169.303" r="2.29" transform="rotate(-140.082 268.74 169.303)" fill="#00FF00"/>
<circle cx="260.64" cy="164.487" r="2.29" transform="rotate(-158.354 260.64 164.487)" fill="#00FF00"/>
<circle cx="251.458" cy="162.435" r="2.29" transform="rotate(-176.252 251.458 162.435)" fill="#00FF00"/>
<circle cx="242.095" cy="163.315" r="2.29" transform="rotate(165.783 242.095 163.315)" fill="#00FF00"/>
<circle cx="233.465" cy="167.052" r="2.29" transform="rotate(147.548 233.465 167.052)" fill="#00FF00"/>
<circle cx="226.236" cy="173.275" r="2.29" transform="rotate(135 226.236 173.275)" fill="#00FF00"/>
<circle cx="219.553" cy="179.956" r="2.29" transform="rotate(135.442 219.553 179.956)" fill="#00FF00"/>
<circle cx="211.863" cy="185.422" r="2.29" transform="rotate(153.628 211.863 185.422)" fill="#00FF00"/>
<circle cx="202.877" cy="188.212" r="2.29" transform="rotate(171.66 202.877 188.212)" fill="#00FF00"/>
<circle cx="193.47" cy="188.089" r="2.29" transform="rotate(-170.405 193.47 188.089)" fill="#00FF00"/>
<circle cx="184.57" cy="185.069" r="2.29" transform="rotate(-152.331 184.57 185.069)" fill="#00FF00"/>
<circle cx="176.954" cy="179.34" r="2.29" transform="rotate(-135 176.954 179.34)" fill="#00FF00"/>
<circle cx="170.275" cy="172.662" r="2.29" transform="rotate(-135 170.275 172.662)" fill="#00FF00"/>
<circle cx="163.003" cy="166.645" r="2.29" transform="rotate(-148.857 163.003 166.645)" fill="#00FF00"/>
<circle cx="154.267" cy="163.13" r="2.29" transform="rotate(-167.047 154.267 163.13)" fill="#00FF00"/>
<circle cx="144.88" cy="162.495" r="2.29" transform="rotate(175.001 144.88 162.495)" fill="#00FF00"/>
<circle cx="135.756" cy="164.788" r="2.29" transform="rotate(156.856 135.756 164.788)" fill="#00FF00"/>
<circle cx="127.801" cy="169.802" r="2.29" transform="rotate(138.758 127.801 169.802)" fill="#00FF00"/>
<circle cx="120.994" cy="176.518" r="2.29" transform="rotate(135 120.994 176.518)" fill="#00FF00"/>
<circle cx="114.029" cy="182.919" r="2.29" transform="rotate(144.264 114.029 182.919)" fill="#00FF00"/>
<circle cx="105.613" cy="187.131" r="2.29" transform="rotate(162.4 105.613 187.131)" fill="#00FF00"/>
<circle cx="96.3068" cy="188.521" r="2.29" transform="rotate(-179.584 96.3068 188.521)" fill="#00FF00"/>
<rect x="0.5" y="0.5" width="389" height="319" rx="4.5" stroke="#E1D5C6"/>
</svg>
