<svg width="390" height="320" viewBox="0 0 390 320" fill="none" xmlns="http://www.w3.org/2000/svg">
<rect x="0.5" y="0.5" width="389" height="319" rx="4.5" fill="white"/>
<circle cx="195.231" cy="86.2586" r="2.19956" transform="rotate(90 195.231 86.2586)" fill="#00FF00"/>
<circle cx="195.231" cy="93.5907" r="2.19956" transform="rotate(90 195.231 93.5907)" fill="#00FF00"/>
<circle cx="273.026" cy="177.959" r="2.19956" transform="rotate(89.3068 273.026 177.959)" fill="#00FF00"/>
<circle cx="272.725" cy="185.881" r="2.19956" transform="rotate(95.0505 272.725 185.881)" fill="#00FF00"/>
<circle cx="271.546" cy="194.131" r="2.19956" transform="rotate(101.2 271.546 194.131)" fill="#00FF00"/>
<circle cx="269.527" cy="202.083" r="2.19956" transform="rotate(107.287 269.527 202.083)" fill="#00FF00"/>
<circle cx="266.704" cy="209.714" r="2.19956" transform="rotate(113.302 266.704 209.714)" fill="#00FF00"/>
<circle cx="263.108" cy="216.984" r="2.19956" transform="rotate(119.246 263.108 216.984)" fill="#00FF00"/>
<circle cx="258.709" cy="223.936" r="2.19956" transform="rotate(125.34 258.709 223.936)" fill="#00FF00"/>
<circle cx="253.686" cy="230.292" r="2.19956" transform="rotate(131.184 253.686 230.292)" fill="#00FF00"/>
<circle cx="247.963" cy="236.163" r="2.19956" transform="rotate(137.222 247.963 236.163)" fill="#00FF00"/>
<circle cx="241.713" cy="241.361" r="2.19956" transform="rotate(143.065 241.713 241.361)" fill="#00FF00"/>
<circle cx="234.903" cy="245.915" r="2.19956" transform="rotate(149.157 234.903 245.915)" fill="#00FF00"/>
<circle cx="227.686" cy="249.712" r="2.19956" transform="rotate(155.098 227.686 249.712)" fill="#00FF00"/>
<circle cx="220.101" cy="252.733" r="2.19956" transform="rotate(161.11 220.101 252.733)" fill="#00FF00"/>
<circle cx="212.238" cy="254.939" r="2.19956" transform="rotate(167.195 212.238 254.939)" fill="#00FF00"/>
<circle cx="204.189" cy="256.304" r="2.19956" transform="rotate(173.343 204.189 256.304)" fill="#00FF00"/>
<circle cx="195.74" cy="256.826" r="2.19956" transform="rotate(179.528 195.74 256.826)" fill="#00FF00"/>
<circle cx="187.592" cy="256.472" r="2.19956" transform="rotate(-174.729 187.592 256.472)" fill="#00FF00"/>
<circle cx="179.524" cy="255.271" r="2.19956" transform="rotate(-168.582 179.524 255.271)" fill="#00FF00"/>
<circle cx="171.624" cy="253.229" r="2.19956" transform="rotate(-162.497 171.624 253.229)" fill="#00FF00"/>
<circle cx="163.99" cy="250.368" r="2.19956" transform="rotate(-156.484 163.99 250.368)" fill="#00FF00"/>
<circle cx="156.709" cy="246.727" r="2.19956" transform="rotate(-150.543 156.709 246.727)" fill="#00FF00"/>
<circle cx="149.821" cy="242.327" r="2.19956" transform="rotate(-144.451 149.821 242.327)" fill="#00FF00"/>
<circle cx="143.477" cy="237.273" r="2.19956" transform="rotate(-138.608 143.477 237.273)" fill="#00FF00"/>
<circle cx="137.647" cy="231.544" r="2.19956" transform="rotate(-132.57 137.647 231.544)" fill="#00FF00"/>
<circle cx="132.432" cy="225.222" r="2.19956" transform="rotate(-126.517 132.432 225.222)" fill="#00FF00"/>
<circle cx="127.965" cy="218.486" r="2.19956" transform="rotate(-120.632 127.965 218.486)" fill="#00FF00"/>
<circle cx="124.221" cy="211.324" r="2.19956" transform="rotate(-114.688 124.221 211.324)" fill="#00FF00"/>
<circle cx="121.172" cy="203.596" r="2.19956" transform="rotate(-108.457 121.172 203.596)" fill="#00FF00"/>
<circle cx="119.042" cy="195.914" r="2.19956" transform="rotate(-102.586 119.042 195.914)" fill="#00FF00"/>
<circle cx="117.673" cy="187.726" r="2.19956" transform="rotate(-96.4369 117.673 187.726)" fill="#00FF00"/>
<circle cx="117.178" cy="179.23" r="2.19956" transform="rotate(-90.2508 117.178 179.23)" fill="#00FF00"/>
<circle cx="117.536" cy="171.377" r="2.19956" transform="rotate(-84.5087 117.536 171.377)" fill="#00FF00"/>
<circle cx="118.775" cy="163.126" r="2.19956" transform="rotate(-78.3633 118.775 163.126)" fill="#00FF00"/>
<circle cx="120.854" cy="155.18" r="2.19956" transform="rotate(-72.2807 120.854 155.18)" fill="#00FF00"/>
<circle cx="123.715" cy="147.61" r="2.19956" transform="rotate(-66.271 123.715 147.61)" fill="#00FF00"/>
<circle cx="127.298" cy="140.473" r="2.19956" transform="rotate(-60.332 127.298 140.473)" fill="#00FF00"/>
<circle cx="131.807" cy="133.44" r="2.19956" transform="rotate(-54.2419 131.807 133.44)" fill="#00FF00"/>
<circle cx="136.71" cy="127.3" r="2.19956" transform="rotate(-48.3998 136.71 127.3)" fill="#00FF00"/>
<circle cx="142.542" cy="121.37" r="2.19956" transform="rotate(-42.3617 142.542 121.37)" fill="#00FF00"/>
<circle cx="148.996" cy="116.073" r="2.19956" transform="rotate(-36.3074 148.996 116.073)" fill="#00FF00"/>
<circle cx="155.572" cy="111.731" r="2.19956" transform="rotate(-30.4211 155.572 111.731)" fill="#00FF00"/>
<circle cx="162.619" cy="108.046" r="2.19956" transform="rotate(-24.4749 162.619 108.046)" fill="#00FF00"/>
<circle cx="170.668" cy="104.883" r="2.19956" transform="rotate(-18.241 170.668 104.883)" fill="#00FF00"/>
<circle cx="178.093" cy="102.837" r="2.19956" transform="rotate(-12.3673 178.093 102.837)" fill="#00FF00"/>
<circle cx="186.518" cy="101.443" r="2.19956" transform="rotate(-6.21641 186.518 101.443)" fill="#00FF00"/>
<circle cx="195.083" cy="100.974" r="2.19956" transform="rotate(-0.0296747 195.083 100.974)" fill="#00FF00"/>
<circle cx="202.685" cy="101.336" r="2.19956" transform="rotate(5.71167 202.685 101.336)" fill="#00FF00"/>
<circle cx="211.09" cy="102.614" r="2.19956" transform="rotate(11.8551 211.09 102.614)" fill="#00FF00"/>
<circle cx="219.065" cy="104.727" r="2.19956" transform="rotate(17.9352 219.065 104.727)" fill="#00FF00"/>
<circle cx="226.606" cy="107.604" r="2.19955" transform="rotate(23.9422 226.606 107.604)" fill="#00FF00"/>
<circle cx="233.708" cy="111.193" r="2.19956" transform="rotate(29.8789 233.708 111.193)" fill="#00FF00"/>
<circle cx="240.774" cy="115.752" r="2.19956" transform="rotate(35.9673 240.774 115.752)" fill="#00FF00"/>
<circle cx="246.896" cy="120.674" r="2.19956" transform="rotate(41.8085 246.896 120.674)" fill="#00FF00"/>
<circle cx="252.826" cy="126.547" r="2.19956" transform="rotate(47.8467 252.826 126.547)" fill="#00FF00"/>
<circle cx="258.1" cy="133.017" r="2.19956" transform="rotate(53.902 258.1 133.017)" fill="#00FF00"/>
<circle cx="262.448" cy="139.663" r="2.19956" transform="rotate(59.7901 262.448 139.663)" fill="#00FF00"/>
<circle cx="266.302" cy="147.171" r="2.19956" transform="rotate(65.9524 266.302 147.171)" fill="#00FF00"/>
<circle cx="269.218" cy="154.75" r="2.19956" transform="rotate(71.9753 269.218 154.75)" fill="#00FF00"/>
<circle cx="271.274" cy="162.368" r="2.19956" transform="rotate(77.8514 271.274 162.368)" fill="#00FF00"/>
<circle cx="272.601" cy="170.664" r="2.19956" transform="rotate(84.0041 272.601 170.664)" fill="#00FF00"/>
<circle cx="191.697" cy="109.273" r="2.19956" transform="rotate(114.048 191.697 109.273)" fill="#00FF00"/>
<circle cx="188.566" cy="117.614" r="2.19956" transform="rotate(107.871 188.566 117.614)" fill="#00FF00"/>
<circle cx="186.165" cy="126.192" r="2.19956" transform="rotate(103.422 186.165 126.192)" fill="#00FF00"/>
<circle cx="184.458" cy="134.845" r="2.19956" transform="rotate(98.8216 184.458 134.845)" fill="#00FF00"/>
<circle cx="183.5" cy="143.764" r="2.19956" transform="rotate(93.2713 183.5 143.764)" fill="#00FF00"/>
<circle cx="183.505" cy="152.582" r="2.19956" transform="rotate(86.3653 183.505 152.582)" fill="#00FF00"/>
<circle cx="184.841" cy="161.537" r="2.19956" transform="rotate(73.4309 184.841 161.537)" fill="#00FF00"/>
<circle cx="189.903" cy="168.543" r="2.19956" transform="rotate(29.9665 189.903 168.543)" fill="#00FF00"/>
<circle cx="198.547" cy="170.433" r="2.19956" transform="rotate(0.435407 198.547 170.433)" fill="#00FF00"/>
<circle cx="207.578" cy="169.981" r="2.19956" transform="rotate(-3.44149 207.578 169.981)" fill="#00FF00"/>
<circle cx="216.486" cy="170.243" r="2.19956" transform="rotate(10.686 216.486 170.243)" fill="#00FF00"/>
<circle cx="224.001" cy="174.577" r="2.19956" transform="rotate(52.7051 224.001 174.577)" fill="#00FF00"/>
<circle cx="227.682" cy="182.808" r="2.19956" transform="rotate(60.7154 227.682 182.808)" fill="#00FF00"/>
<circle cx="234.948" cy="187.312" r="2.19956" transform="rotate(2.79473 234.948 187.312)" fill="#00FF00"/>
<circle cx="243.459" cy="185.431" r="2.19956" transform="rotate(-23.0232 243.459 185.431)" fill="#00FF00"/>
<circle cx="251.237" cy="181.182" r="2.19956" transform="rotate(-33.3008 251.237 181.182)" fill="#00FF00"/>
<circle cx="258.455" cy="175.819" r="2.19956" transform="rotate(-39.7297 258.455 175.819)" fill="#00FF00"/>
<circle cx="264.791" cy="169.996" r="2.19956" transform="rotate(-45.7479 264.791 169.996)" fill="#00FF00"/>
<circle cx="124.262" cy="183.506" r="2.19956" transform="rotate(-46.7875 124.262 183.506)" fill="#00FF00"/>
<circle cx="131.786" cy="177.312" r="2.19956" transform="rotate(-32.6314 131.786 177.312)" fill="#00FF00"/>
<circle cx="140.766" cy="173.282" r="2.19956" transform="rotate(-13.6366 140.766 173.282)" fill="#00FF00"/>
<circle cx="150.424" cy="173.647" r="2.19956" transform="rotate(21.0052 150.424 173.647)" fill="#00FF00"/>
<circle cx="157.779" cy="180.024" r="2.19956" transform="rotate(58.3901 157.779 180.024)" fill="#00FF00"/>
<circle cx="161.762" cy="189.194" r="2.19956" transform="rotate(71.9197 161.762 189.194)" fill="#00FF00"/>
<circle cx="164.49" cy="198.555" r="2.19956" transform="rotate(74.391 164.49 198.555)" fill="#00FF00"/>
<circle cx="167.419" cy="207.938" r="2.19956" transform="rotate(69.4286 167.419 207.938)" fill="#00FF00"/>
<circle cx="172.12" cy="216.528" r="2.19956" transform="rotate(48.4562 172.12 216.528)" fill="#00FF00"/>
<circle cx="181.03" cy="220.766" r="2.19956" transform="rotate(11.8584 181.03 220.766)" fill="#00FF00"/>
<circle cx="190.195" cy="224.251" r="2.19956" transform="rotate(31.2411 190.195 224.251)" fill="#00FF00"/>
<circle cx="197.303" cy="230.936" r="2.19956" transform="rotate(55.0758 197.303 230.936)" fill="#00FF00"/>
<circle cx="201.601" cy="239.753" r="2.19956" transform="rotate(70.953 201.601 239.753)" fill="#00FF00"/>
<circle cx="204.519" cy="248.999" r="2.19956" transform="rotate(69.7208 204.519 248.999)" fill="#00FF00"/>
<circle cx="195.281" cy="78.9606" r="2.19956" transform="rotate(-52.475 195.281 78.9606)" fill="#00FF00"/>
<circle cx="202.074" cy="72.3622" r="2.19955" transform="rotate(-36.7623 202.074 72.3622)" fill="#00FF00"/>
<circle cx="210.366" cy="67.8086" r="2.19956" transform="rotate(-19.8239 210.366 67.8086)" fill="#00FF00"/>
<circle cx="219.567" cy="66.3648" r="2.19956" transform="rotate(3.28011 219.567 66.3648)" fill="#00FF00"/>
<circle cx="228.238" cy="69.3066" r="2.19956" transform="rotate(112.188 228.238 69.3066)" fill="#00FF00"/>
<circle cx="222.461" cy="76.7441" r="2.19956" transform="rotate(141.78 222.461 76.7441)" fill="#00FF00"/>
<circle cx="213.889" cy="80.7411" r="2.19956" transform="rotate(167.259 213.889 80.7411)" fill="#00FF00"/>
<circle cx="204.414" cy="81.1254" r="2.19956" transform="rotate(-173.449 204.414 81.1254)" fill="#00FF00"/>
<circle r="2.19956" transform="matrix(-0.609108 -0.793087 -0.793087 0.609108 195.347 78.9606)" fill="#00FF00"/>
<circle r="2.19956" transform="matrix(-0.801126 -0.598496 -0.598496 0.801126 188.555 72.3622)" fill="#00FF00"/>
<circle r="2.19956" transform="matrix(-0.94074 -0.33913 -0.33913 0.94074 180.262 67.8086)" fill="#00FF00"/>
<circle r="2.19956" transform="matrix(-0.998362 0.0572175 0.0572175 0.998362 171.061 66.3648)" fill="#00FF00"/>
<circle r="2.19956" transform="matrix(0.377639 0.925953 0.925953 -0.377639 162.39 69.3066)" fill="#00FF00"/>
<circle r="2.19956" transform="matrix(0.785642 0.618681 0.618681 -0.785642 168.168 76.7441)" fill="#00FF00"/>
<circle r="2.19956" transform="matrix(0.975379 0.220537 0.220537 -0.975379 176.739 80.7411)" fill="#00FF00"/>
<circle r="2.19956" transform="matrix(0.99347 -0.114094 -0.114094 -0.99347 186.214 81.1254)" fill="#00FF00"/>
<rect x="0.5" y="0.5" width="389" height="319" rx="4.5" stroke="#E1D5C6"/>
</svg>
