<svg width="2000" height="2000" viewBox="0 0 2000 2000" fill="none" xmlns="http://www.w3.org/2000/svg">
<circle cx="1000" cy="1000" r="999.726" stroke="#302112" stroke-width="0.54768"/>
<ellipse cx="1019.05" cy="1672.94" rx="263.529" ry="261.176" fill="#E1D5C6"/>
<circle cx="515.283" cy="1432.94" r="242.353" fill="#F9F4F0"/>
<path d="M446 1406H452.219L456.781 1392.94C457.031 1392.25 456.844 1391.72 456.312 1391.53L455.5 1391.22C454.156 1390.72 453.438 1389.38 453.875 1388.03C454.406 1386.59 455.75 1386.09 457.281 1386.59L457.844 1386.81C458.5 1387 458.938 1386.59 459.125 1386.03L465.562 1367.41L471.938 1386.03C472.125 1386.69 472.625 1387 473.219 1386.81L474.062 1386.53C475.406 1386.09 476.531 1386.47 477.125 1387.94C477.688 1389.44 476.938 1390.84 475.594 1391.28L474.875 1391.53C474.25 1391.72 474.062 1392.25 474.312 1392.94L478.781 1406H485.125L469.062 1361.19H462.219L446 1406ZM457.094 1389.88C457.094 1391.28 458.312 1392.44 459.781 1392.44H471.438C472.906 1392.44 474.125 1391.28 474.125 1389.88C474.125 1388.41 472.906 1387.19 471.438 1387.19H459.781C458.312 1387.19 457.094 1388.41 457.094 1389.88ZM490.625 1406H496.375V1389.28C496.375 1381.44 499.5 1377.31 504.625 1377.31C508.719 1377.31 510.969 1379.69 510.969 1383.97V1406H516.719V1383.34C516.719 1376.81 512.875 1372.47 506.562 1372.47C501.438 1372.47 498.5 1375.03 496.938 1379.56C496.438 1381.03 495.781 1381.81 494.531 1381.81C493.25 1381.81 492.344 1380.84 492.344 1379.56C492.344 1378.28 493.375 1377.31 494.656 1377.31H495.656C496.125 1377.31 496.375 1377.06 496.375 1376.56V1373.38H490.625V1406ZM536.812 1406.62C538.094 1406.62 539.094 1406.5 540.375 1406.19V1401.47C539.562 1401.66 538.656 1401.72 538 1401.72C535.531 1401.72 533.781 1400.75 533.781 1397.62V1378.09H540.969V1373.38H534.75C534.25 1373.38 533.906 1373.69 533.906 1374.25V1374.5C533.906 1375.91 532.844 1377 531.5 1377C530.094 1377 529 1375.91 529 1374.5C529 1373.16 530.094 1372.09 531.5 1372.09H532.969C533.469 1372.09 533.781 1371.75 533.781 1371.25V1363.81H529.188L529 1367.03C528.75 1371.5 527.062 1373.38 522.844 1373.38H522.281V1378.09H528.031V1398C528.031 1404.41 531.562 1406.62 536.812 1406.62ZM547.562 1406H553.312V1373.38H547.562V1406ZM547.156 1367.84H553.688V1361.19H547.156V1367.84ZM562.094 1389.94H579.625V1384.81H562.094V1389.94ZM388.469 1464H394.219V1447.28C394.219 1439.44 397.219 1435.31 402.094 1435.31C405.938 1435.31 408.031 1437.69 408.031 1441.97V1464H413.812V1446.03C413.812 1438.97 417.125 1435.31 421.812 1435.31C425.625 1435.31 427.625 1437.69 427.625 1441.97V1464H433.375V1441.34C433.375 1434.81 429.688 1430.47 423.281 1430.47C418.062 1430.47 414.5 1432.91 412.656 1436.97C411.438 1432.94 408.219 1430.47 404.188 1430.47C399.344 1430.47 396.25 1432.97 394.781 1437.56C394.344 1439.03 393.625 1439.81 392.375 1439.81C391.094 1439.81 390.188 1438.84 390.188 1437.56C390.188 1436.28 391.219 1435.31 392.5 1435.31H393.5C393.969 1435.31 394.219 1435.06 394.219 1434.56V1431.38H388.469V1464ZM455.156 1464.91C464 1464.91 469.75 1458.16 469.75 1447.66C469.75 1437.16 464 1430.47 455.156 1430.47C446.312 1430.47 440.562 1437.16 440.562 1447.66C440.562 1458.16 446.312 1464.91 455.156 1464.91ZM441.469 1447.69C441.469 1446.53 442.375 1445.56 443.562 1445.56C444.719 1445.56 445.688 1446.53 445.688 1447.69C445.688 1448.91 444.719 1449.78 443.562 1449.78C442.375 1449.78 441.469 1448.91 441.469 1447.69ZM446.594 1447.66C446.594 1439.78 449.781 1435.34 455.156 1435.34C460.531 1435.34 463.719 1439.78 463.719 1447.66C463.719 1455.53 460.531 1460.03 455.156 1460.03C449.781 1460.03 446.594 1455.53 446.594 1447.66ZM464.625 1447.69C464.625 1446.53 465.531 1445.56 466.75 1445.56C467.906 1445.56 468.844 1446.53 468.844 1447.69C468.844 1448.91 467.906 1449.78 466.75 1449.78C465.531 1449.78 464.625 1448.91 464.625 1447.69ZM487.406 1464.91C492.406 1464.91 495.094 1462.16 496.688 1457.78C497.219 1456.31 497.844 1455.56 499.125 1455.56C500.406 1455.56 501.312 1456.5 501.312 1457.78C501.312 1459.06 500.281 1460.03 499 1460.03H497.969C497.531 1460.03 497.281 1460.28 497.281 1460.81V1464H503.031V1431.38H497.281V1448.38C497.281 1455.88 494.156 1460.03 489.156 1460.03C484.875 1460.03 482.688 1457.53 482.688 1453.38V1431.38H476.938V1454.03C476.938 1460.94 480.906 1464.91 487.406 1464.91ZM512.344 1464H518.094V1419.19H512.344V1464ZM548.438 1419.19V1434.19C548.438 1434.81 548.781 1435.19 549.406 1435.19H550.219C551.5 1435.19 552.5 1436.16 552.5 1437.44C552.5 1438.72 551.5 1439.69 550.219 1439.69C548.938 1439.69 548.281 1438.72 547.781 1437.31C547.062 1435.38 546.156 1433.88 544.969 1432.75C543.406 1431.22 541.375 1430.47 538.875 1430.47C530.562 1430.47 525.562 1437.34 525.562 1447.75C525.562 1458.16 530.406 1464.91 538.875 1464.91C543.125 1464.91 546.688 1462.81 548.625 1459.06V1464H554.188V1419.19H548.438ZM531.594 1447.62C531.594 1440.41 534.406 1435.31 539.906 1435.31C545.406 1435.31 548.406 1440.41 548.406 1447.62C548.406 1454.84 545.406 1460.03 539.906 1460.03C534.406 1460.03 531.594 1454.84 531.594 1447.62ZM563.531 1464H569.281V1431.38H563.531V1464ZM563.125 1425.84H569.656V1419.19H563.125V1425.84ZM578.594 1464H584.344V1447.28C584.344 1439.44 587.469 1435.31 592.594 1435.31C596.688 1435.31 598.938 1437.69 598.938 1441.97V1464H604.688V1441.34C604.688 1434.81 600.844 1430.47 594.531 1430.47C589.406 1430.47 586.469 1433.03 584.906 1437.56C584.406 1439.03 583.75 1439.81 582.5 1439.81C581.219 1439.81 580.312 1438.84 580.312 1437.56C580.312 1436.28 581.344 1435.31 582.625 1435.31H583.625C584.094 1435.31 584.344 1435.06 584.344 1434.56V1431.38H578.594V1464ZM625.906 1476.41C634.781 1476.41 640.562 1471.28 640.562 1461.88V1431.38H634.844V1435.94C632.875 1432.38 629.469 1430.47 625.188 1430.47C616.875 1430.47 611.938 1437.25 611.938 1446.72C611.938 1456.19 616.812 1462.84 625.125 1462.84C629.125 1462.84 631.562 1461.47 632.906 1459.22C633.406 1458.47 633.781 1457.56 634.156 1456.5C634.656 1455.09 635.25 1454.16 636.656 1454.16C637.938 1454.16 638.875 1455.03 638.875 1456.38C638.875 1457.72 637.812 1458.62 636.531 1458.62H635.75C635.188 1458.62 634.781 1459 634.781 1459.66V1462.16C634.781 1468.09 631.781 1471.56 626.156 1471.56C621.875 1471.56 618.781 1469.69 618.469 1465.78H612.656C612.781 1472.06 617.625 1476.41 625.906 1476.41ZM617.969 1446.72C617.969 1440.06 620.781 1435.41 626.281 1435.41C631.781 1435.41 634.781 1440.06 634.781 1446.72C634.781 1453.38 631.781 1458.06 626.281 1458.06C620.781 1458.06 617.969 1453.38 617.969 1446.72Z" fill="#302112"/>
<circle cx="1566.01" cy="1330.69" r="314.219" fill="#B6AC9E"/>
<path d="M1432.36 1355H1440.61L1448.21 1320.31C1448.3 1319.91 1448.36 1319.56 1447.99 1319.19L1447.33 1318.53C1446.83 1318.03 1446.58 1317.41 1446.58 1316.75C1446.58 1315.31 1447.71 1314.25 1449.08 1314.25C1450.46 1314.25 1451.58 1315.31 1451.58 1316.75C1451.58 1317.41 1451.36 1318 1450.83 1318.53L1450.08 1319.25C1449.74 1319.59 1449.74 1319.88 1449.83 1320.38L1456.42 1355H1465.14L1475.42 1310.19H1469.49L1461.86 1344.34C1461.74 1344.91 1461.77 1345.22 1462.14 1345.59L1462.67 1346.12C1463.17 1346.62 1463.49 1347.22 1463.49 1347.97C1463.49 1349.38 1462.36 1350.47 1460.99 1350.47C1459.61 1350.47 1458.49 1349.38 1458.49 1347.97C1458.49 1347.22 1458.77 1346.66 1459.3 1346.12L1459.83 1345.59C1460.14 1345.28 1460.21 1344.91 1460.08 1344.44L1453.3 1310.19H1445.11L1437.42 1344.44C1437.33 1344.81 1437.3 1345.22 1437.67 1345.59L1438.21 1346.12C1438.74 1346.66 1439.02 1347.22 1439.02 1347.97C1439.02 1349.38 1437.89 1350.47 1436.52 1350.47C1435.14 1350.47 1434.02 1349.38 1434.02 1347.97C1434.02 1347.22 1434.33 1346.62 1434.83 1346.12L1435.36 1345.59C1435.74 1345.22 1435.77 1344.91 1435.64 1344.34L1428.52 1310.19H1422.52L1432.36 1355ZM1488.42 1355.91C1493.05 1355.91 1496.86 1353.47 1498.77 1350.34C1498.92 1352.03 1499.21 1353.72 1499.55 1355H1505.64V1354.09C1504.74 1353.34 1504.36 1350.19 1504.36 1347.44V1333.25C1504.36 1325.81 1499.74 1321.47 1491.86 1321.47C1484.05 1321.47 1478.83 1326.12 1478.61 1332.41H1484.64C1484.89 1328.56 1487.71 1326.25 1491.86 1326.25C1496.55 1326.25 1498.52 1328.94 1498.52 1331.44C1498.52 1333.81 1496.99 1334.59 1493.21 1335.22L1488.02 1336.06C1481.89 1337.06 1477.74 1340.03 1477.74 1346.28C1477.74 1352.25 1482.39 1355.91 1488.42 1355.91ZM1483.74 1346.09C1483.74 1342.91 1485.67 1341.22 1489.83 1340.41L1493.96 1339.59L1495.46 1339.31C1496.92 1339.03 1497.58 1338.5 1497.58 1337.34V1337.31C1497.58 1335.88 1498.74 1334.91 1500.05 1334.91C1501.39 1334.91 1502.42 1335.94 1502.42 1337.28C1502.42 1338.62 1501.33 1339.62 1500.05 1339.62H1499.61C1499.05 1339.62 1498.64 1339.97 1498.64 1340.66V1341.44C1498.64 1346.81 1495.58 1351.09 1489.83 1351.09C1486.36 1351.09 1483.74 1349.19 1483.74 1346.09ZM1525.24 1355.91C1532.39 1355.91 1538.02 1352.25 1538.02 1345.28C1538.02 1340.41 1534.64 1337.47 1528.74 1336.31L1522.74 1335.16C1519.52 1334.53 1518.05 1333.31 1518.05 1331.12C1518.05 1328.25 1520.61 1326.25 1524.58 1326.25C1528.74 1326.25 1531.42 1328.56 1531.61 1332.41H1537.52C1537.27 1326.19 1532.96 1321.47 1524.71 1321.47C1516.71 1321.47 1511.99 1326 1511.99 1331.84C1511.99 1336.38 1514.74 1339.31 1521.14 1340.59L1526.52 1341.69C1530.33 1342.47 1532.02 1343.69 1532.02 1346.16C1532.02 1349.19 1529.33 1351.03 1525.36 1351.03C1520.74 1351.03 1517.42 1348.78 1517.24 1344.5H1511.21C1511.33 1351.53 1516.64 1355.91 1525.24 1355.91ZM1523.11 1338.5C1523.11 1337.34 1524.14 1336.38 1525.24 1336.38C1526.3 1336.38 1527.33 1337.34 1527.33 1338.5C1527.33 1339.62 1526.36 1340.59 1525.3 1340.59C1524.21 1340.59 1523.11 1339.62 1523.11 1338.5ZM1545.33 1355H1551.08V1338.28C1551.08 1330.44 1554.21 1326.31 1559.33 1326.31C1563.42 1326.31 1565.67 1328.69 1565.67 1332.97V1355H1571.42V1332.34C1571.42 1325.81 1567.58 1321.47 1561.27 1321.47C1556.14 1321.47 1553.21 1324.03 1551.64 1328.56C1551.14 1330.03 1550.49 1330.81 1549.24 1330.81C1547.96 1330.81 1547.05 1329.84 1547.05 1328.56C1547.05 1327.28 1548.08 1326.31 1549.36 1326.31H1550.36C1550.83 1326.31 1551.08 1326.06 1551.08 1325.56V1310.19H1545.33V1355ZM1589.17 1355.91C1593.8 1355.91 1597.61 1353.47 1599.52 1350.34C1599.67 1352.03 1599.96 1353.72 1600.3 1355H1606.39V1354.09C1605.49 1353.34 1605.11 1350.19 1605.11 1347.44V1333.25C1605.11 1325.81 1600.49 1321.47 1592.61 1321.47C1584.8 1321.47 1579.58 1326.12 1579.36 1332.41H1585.39C1585.64 1328.56 1588.46 1326.25 1592.61 1326.25C1597.3 1326.25 1599.27 1328.94 1599.27 1331.44C1599.27 1333.81 1597.74 1334.59 1593.96 1335.22L1588.77 1336.06C1582.64 1337.06 1578.49 1340.03 1578.49 1346.28C1578.49 1352.25 1583.14 1355.91 1589.17 1355.91ZM1584.49 1346.09C1584.49 1342.91 1586.42 1341.22 1590.58 1340.41L1594.71 1339.59L1596.21 1339.31C1597.67 1339.03 1598.33 1338.5 1598.33 1337.34V1337.31C1598.33 1335.88 1599.49 1334.91 1600.8 1334.91C1602.14 1334.91 1603.17 1335.94 1603.17 1337.28C1603.17 1338.62 1602.08 1339.62 1600.8 1339.62H1600.36C1599.8 1339.62 1599.39 1339.97 1599.39 1340.66V1341.44C1599.39 1346.81 1596.33 1351.09 1590.58 1351.09C1587.11 1351.09 1584.49 1349.19 1584.49 1346.09ZM1629.27 1355.91C1637.64 1355.91 1642.77 1349.09 1642.77 1338.69C1642.77 1328.25 1638.02 1321.47 1629.83 1321.47C1626.49 1321.47 1623.92 1322.84 1622.21 1325.19C1621.52 1326.09 1620.99 1327.12 1620.55 1328.31C1620.05 1329.72 1619.39 1330.69 1618.11 1330.69C1616.83 1330.69 1615.83 1329.72 1615.83 1328.44C1615.83 1327.16 1616.83 1326.19 1618.11 1326.19H1618.92C1619.55 1326.19 1619.89 1325.81 1619.89 1325.19V1310.19H1614.14V1355H1619.71V1350.16C1621.71 1354.06 1625.14 1355.91 1629.27 1355.91ZM1619.92 1338.75C1619.92 1331.53 1622.92 1326.34 1628.42 1326.34C1633.92 1326.34 1636.74 1331.53 1636.74 1338.75C1636.74 1345.97 1633.92 1351.03 1628.42 1351.03C1622.92 1351.03 1619.92 1345.97 1619.92 1338.75ZM1650.27 1355H1656.02V1310.19H1650.27V1355ZM1678.33 1355.91C1686.33 1355.91 1691.39 1351.09 1692.11 1344.12H1686.27C1685.64 1348.59 1682.71 1351.03 1678.74 1351.03C1673.74 1351.03 1669.96 1347.78 1669.52 1340.66C1669.46 1339.91 1669.11 1339.72 1668.49 1339.72H1667.99C1666.77 1339.72 1665.86 1338.81 1665.86 1337.59C1665.86 1336.38 1666.77 1335.47 1667.99 1335.47H1668.49C1669.24 1335.47 1669.64 1335.22 1669.77 1334.53C1670.74 1329.16 1673.92 1326.31 1678.27 1326.31C1682.96 1326.31 1685.77 1329.25 1686.17 1335.41H1671.92C1670.58 1335.41 1669.58 1336.44 1669.58 1337.72C1669.58 1339 1670.58 1340.03 1671.92 1340.03H1692.3V1338.09C1692.3 1327.34 1686.67 1321.47 1678.33 1321.47C1669.83 1321.47 1663.49 1328.12 1663.49 1338.62C1663.49 1350.47 1669.83 1355.91 1678.33 1355.91ZM1701.05 1315.94V1333.19H1706.83V1304.62H1702.3C1701.89 1307.91 1699.02 1309.69 1694.99 1309.81V1314.09H1699.64C1700.3 1314.09 1700.64 1313.75 1700.64 1313.25V1312.78C1700.64 1311.5 1701.58 1310.59 1702.8 1310.59C1703.92 1310.59 1704.92 1311.5 1704.92 1312.78C1704.92 1313.97 1703.99 1314.97 1702.8 1314.97H1702.11C1701.33 1314.97 1701.05 1315.25 1701.05 1315.94Z" fill="#302112"/>
<path d="M922.059 1650.91C931.528 1650.91 938.434 1645.47 939.34 1635.09H933.246C932.496 1641.81 928.184 1645.41 922.621 1645.41C914.184 1645.41 908.934 1639 908.934 1627.59C908.934 1616.22 914.059 1609.69 922.184 1609.69C928.184 1609.69 932.746 1613.06 933.496 1620.12H939.403C938.809 1609.88 931.528 1604.31 922.371 1604.31C910.34 1604.31 902.778 1613.47 902.778 1627.84C902.778 1642.38 910.59 1650.91 922.059 1650.91ZM903.59 1627.59C903.59 1626.31 904.621 1625.28 905.903 1625.28C907.184 1625.28 908.215 1626.31 908.215 1627.59C908.215 1628.88 907.184 1629.91 905.903 1629.91C904.621 1629.91 903.59 1628.88 903.59 1627.59ZM959.496 1650.91C968.34 1650.91 974.09 1644.16 974.09 1633.66C974.09 1623.16 968.34 1616.47 959.496 1616.47C950.653 1616.47 944.903 1623.16 944.903 1633.66C944.903 1644.16 950.653 1650.91 959.496 1650.91ZM945.809 1633.69C945.809 1632.53 946.715 1631.56 947.903 1631.56C949.059 1631.56 950.028 1632.53 950.028 1633.69C950.028 1634.91 949.059 1635.78 947.903 1635.78C946.715 1635.78 945.809 1634.91 945.809 1633.69ZM950.934 1633.66C950.934 1625.78 954.121 1621.34 959.496 1621.34C964.871 1621.34 968.059 1625.78 968.059 1633.66C968.059 1641.53 964.871 1646.03 959.496 1646.03C954.121 1646.03 950.934 1641.53 950.934 1633.66ZM968.965 1633.69C968.965 1632.53 969.871 1631.56 971.09 1631.56C972.246 1631.56 973.184 1632.53 973.184 1633.69C973.184 1634.91 972.246 1635.78 971.09 1635.78C969.871 1635.78 968.965 1634.91 968.965 1633.69ZM981.559 1650H987.309V1633.28C987.309 1625.44 990.434 1621.31 995.559 1621.31C999.653 1621.31 1001.9 1623.69 1001.9 1627.97V1650H1007.65V1627.34C1007.65 1620.81 1003.81 1616.47 997.496 1616.47C992.371 1616.47 989.434 1619.03 987.871 1623.56C987.371 1625.03 986.715 1625.81 985.465 1625.81C984.184 1625.81 983.278 1624.84 983.278 1623.56C983.278 1622.28 984.309 1621.31 985.59 1621.31H986.59C987.059 1621.31 987.309 1621.06 987.309 1620.56V1617.38H981.559V1650ZM1027.75 1650.62C1029.03 1650.62 1030.03 1650.5 1031.31 1650.19V1645.47C1030.5 1645.66 1029.59 1645.72 1028.93 1645.72C1026.47 1645.72 1024.72 1644.75 1024.72 1641.62V1622.09H1031.9V1617.38H1025.68C1025.18 1617.38 1024.84 1617.69 1024.84 1618.25V1618.5C1024.84 1619.91 1023.78 1621 1022.43 1621C1021.03 1621 1019.93 1619.91 1019.93 1618.5C1019.93 1617.16 1021.03 1616.09 1022.43 1616.09H1023.9C1024.4 1616.09 1024.72 1615.75 1024.72 1615.25V1607.81H1020.12L1019.93 1611.03C1019.68 1615.5 1018 1617.38 1013.78 1617.38H1013.22V1622.09H1018.97V1642C1018.97 1648.41 1022.5 1650.62 1027.75 1650.62ZM1038.5 1650H1044.25V1633.16C1044.25 1625.75 1047.84 1622.34 1053.22 1622.34C1054.03 1622.34 1054.75 1622.41 1055.56 1622.59V1616.84C1055.18 1616.78 1054.62 1616.72 1054.03 1616.72C1050.62 1616.72 1048.12 1617.94 1046.5 1620.12C1045.78 1621.09 1045.22 1622.25 1044.81 1623.56C1044.43 1624.84 1043.81 1625.81 1042.59 1625.81C1041.31 1625.81 1040.4 1624.84 1040.4 1623.56C1040.4 1622.22 1041.5 1621.31 1042.72 1621.31H1043.53C1043.93 1621.31 1044.25 1620.94 1044.25 1620.62V1617.38H1038.5V1650ZM1073.06 1650.91C1081.9 1650.91 1087.65 1644.16 1087.65 1633.66C1087.65 1623.16 1081.9 1616.47 1073.06 1616.47C1064.22 1616.47 1058.47 1623.16 1058.47 1633.66C1058.47 1644.16 1064.22 1650.91 1073.06 1650.91ZM1059.37 1633.69C1059.37 1632.53 1060.28 1631.56 1061.47 1631.56C1062.62 1631.56 1063.59 1632.53 1063.59 1633.69C1063.59 1634.91 1062.62 1635.78 1061.47 1635.78C1060.28 1635.78 1059.37 1634.91 1059.37 1633.69ZM1064.5 1633.66C1064.5 1625.78 1067.68 1621.34 1073.06 1621.34C1078.43 1621.34 1081.62 1625.78 1081.62 1633.66C1081.62 1641.53 1078.43 1646.03 1073.06 1646.03C1067.68 1646.03 1064.5 1641.53 1064.5 1633.66ZM1082.53 1633.69C1082.53 1632.53 1083.43 1631.56 1084.65 1631.56C1085.81 1631.56 1086.75 1632.53 1086.75 1633.69C1086.75 1634.91 1085.81 1635.78 1084.65 1635.78C1083.43 1635.78 1082.53 1634.91 1082.53 1633.69ZM1095.12 1650H1100.87V1605.19H1095.12V1650ZM1122.03 1650.91C1129.18 1650.91 1134.81 1647.25 1134.81 1640.28C1134.81 1635.41 1131.43 1632.47 1125.53 1631.31L1119.53 1630.16C1116.31 1629.53 1114.84 1628.31 1114.84 1626.12C1114.84 1623.25 1117.4 1621.25 1121.37 1621.25C1125.53 1621.25 1128.22 1623.56 1128.4 1627.41H1134.31C1134.06 1621.19 1129.75 1616.47 1121.5 1616.47C1113.5 1616.47 1108.78 1621 1108.78 1626.84C1108.78 1631.38 1111.53 1634.31 1117.93 1635.59L1123.31 1636.69C1127.12 1637.47 1128.81 1638.69 1128.81 1641.16C1128.81 1644.19 1126.12 1646.03 1122.15 1646.03C1117.53 1646.03 1114.22 1643.78 1114.03 1639.5H1108C1108.12 1646.53 1113.43 1650.91 1122.03 1650.91ZM1119.9 1633.5C1119.9 1632.34 1120.93 1631.38 1122.03 1631.38C1123.09 1631.38 1124.12 1632.34 1124.12 1633.5C1124.12 1634.62 1123.15 1635.59 1122.09 1635.59C1121 1635.59 1119.9 1634.62 1119.9 1633.5ZM888.246 1720H893.996V1703.28C893.996 1695.44 897.121 1691.31 902.246 1691.31C906.34 1691.31 908.59 1693.69 908.59 1697.97V1720H914.34V1697.34C914.34 1690.81 910.496 1686.47 904.184 1686.47C899.059 1686.47 896.121 1689.03 894.559 1693.56C894.059 1695.03 893.403 1695.81 892.153 1695.81C890.871 1695.81 889.965 1694.84 889.965 1693.56C889.965 1692.28 890.996 1691.31 892.278 1691.31H893.278C893.746 1691.31 893.996 1691.06 893.996 1690.56V1675.19H888.246V1720ZM933.559 1720.91C938.559 1720.91 941.246 1718.16 942.84 1713.78C943.371 1712.31 943.996 1711.56 945.278 1711.56C946.559 1711.56 947.465 1712.5 947.465 1713.78C947.465 1715.06 946.434 1716.03 945.153 1716.03H944.121C943.684 1716.03 943.434 1716.28 943.434 1716.81V1720H949.184V1687.38H943.434V1704.38C943.434 1711.88 940.309 1716.03 935.309 1716.03C931.028 1716.03 928.84 1713.53 928.84 1709.38V1687.38H923.09V1710.03C923.09 1716.94 927.059 1720.91 933.559 1720.91ZM958.496 1720H964.246V1703.28C964.246 1695.44 967.246 1691.31 972.121 1691.31C975.965 1691.31 978.059 1693.69 978.059 1697.97V1720H983.84V1702.03C983.84 1694.97 987.153 1691.31 991.84 1691.31C995.653 1691.31 997.653 1693.69 997.653 1697.97V1720H1003.4V1697.34C1003.4 1690.81 999.715 1686.47 993.309 1686.47C988.09 1686.47 984.528 1688.91 982.684 1692.97C981.465 1688.94 978.246 1686.47 974.215 1686.47C969.371 1686.47 966.278 1688.97 964.809 1693.56C964.371 1695.03 963.653 1695.81 962.403 1695.81C961.121 1695.81 960.215 1694.84 960.215 1693.56C960.215 1692.28 961.246 1691.31 962.528 1691.31H963.528C963.996 1691.31 964.246 1691.06 964.246 1690.56V1687.38H958.496V1720ZM1012.43 1720H1018.18V1687.38H1012.43V1720ZM1012.03 1681.84H1018.56V1675.19H1012.03V1681.84ZM1048.53 1675.19V1690.19C1048.53 1690.81 1048.87 1691.19 1049.5 1691.19H1050.31C1051.59 1691.19 1052.59 1692.16 1052.59 1693.44C1052.59 1694.72 1051.59 1695.69 1050.31 1695.69C1049.03 1695.69 1048.37 1694.72 1047.87 1693.31C1047.15 1691.38 1046.25 1689.88 1045.06 1688.75C1043.5 1687.22 1041.47 1686.47 1038.97 1686.47C1030.65 1686.47 1025.65 1693.34 1025.65 1703.75C1025.65 1714.16 1030.5 1720.91 1038.97 1720.91C1043.22 1720.91 1046.78 1718.81 1048.72 1715.06V1720H1054.28V1675.19H1048.53ZM1031.68 1703.62C1031.68 1696.41 1034.5 1691.31 1040 1691.31C1045.5 1691.31 1048.5 1696.41 1048.5 1703.62C1048.5 1710.84 1045.5 1716.03 1040 1716.03C1034.5 1716.03 1031.68 1710.84 1031.68 1703.62ZM1063.62 1720H1069.37V1687.38H1063.62V1720ZM1063.22 1681.84H1069.75V1675.19H1063.22V1681.84ZM1089.75 1720.62C1091.03 1720.62 1092.03 1720.5 1093.31 1720.19V1715.47C1092.5 1715.66 1091.59 1715.72 1090.93 1715.72C1088.47 1715.72 1086.72 1714.75 1086.72 1711.62V1692.09H1093.9V1687.38H1087.68C1087.18 1687.38 1086.84 1687.69 1086.84 1688.25V1688.5C1086.84 1689.91 1085.78 1691 1084.43 1691C1083.03 1691 1081.93 1689.91 1081.93 1688.5C1081.93 1687.16 1083.03 1686.09 1084.43 1686.09H1085.9C1086.4 1686.09 1086.72 1685.75 1086.72 1685.25V1677.81H1082.12L1081.93 1681.03C1081.68 1685.5 1080 1687.38 1075.78 1687.38H1075.22V1692.09H1080.97V1712C1080.97 1718.41 1084.5 1720.62 1089.75 1720.62ZM1102.87 1732.41C1108.18 1732.41 1111.65 1729.03 1114 1722.25L1126.09 1687.38H1119.97L1112.78 1709.94C1112.62 1710.47 1112.62 1710.88 1113 1711.28L1113.43 1711.75C1113.97 1712.34 1114.28 1712.84 1114.28 1713.47C1114.28 1714.81 1113.25 1715.84 1111.97 1715.84C1110.68 1715.84 1109.65 1714.81 1109.65 1713.47C1109.65 1712.84 1110 1712.28 1110.5 1711.75L1110.93 1711.28C1111.31 1710.91 1111.25 1710.47 1111.06 1709.94L1103.31 1687.38H1097.06L1108.87 1719.97C1106.87 1725.25 1105.15 1727.09 1101.78 1727.09C1101.22 1727.09 1100.12 1727.03 1099.15 1726.66V1731.91C1100.18 1732.22 1101.47 1732.41 1102.87 1732.41ZM1129.47 1698.19H1151.15V1693.19H1138.75C1138.12 1693.19 1137.78 1693.53 1137.78 1694.16V1694.44C1137.78 1695.56 1136.84 1696.5 1135.65 1696.5C1134.47 1696.5 1133.56 1695.56 1133.56 1694.38C1133.56 1693.19 1134.47 1692.28 1135.65 1692.28H1136.03C1136.78 1692.28 1137.37 1692.22 1138.06 1691.66C1139.06 1690.88 1140.31 1689.88 1141.56 1689.12C1146.72 1686.03 1150.53 1683.34 1150.53 1677.97C1150.53 1672.78 1146.78 1669.09 1140.72 1669.09C1134.4 1669.09 1130.03 1673.06 1129.87 1678.75H1135.72C1135.78 1676.16 1137.5 1673.88 1140.53 1673.88C1143.09 1673.88 1144.68 1675.53 1144.68 1677.97C1144.68 1681.06 1142.4 1682.69 1138.47 1685.09C1133.28 1688.25 1129.53 1692 1129.47 1698.19Z" fill="#302112"/>
<circle cx="272.932" cy="941.19" r="244.706" fill="#FFC900"/>
<path d="M214.375 941H221.938L236 896.188H230.062L219.312 931.781C219.125 932.375 219.188 932.812 219.562 933.188L219.938 933.562C220.469 934.094 220.781 934.781 220.781 935.5C220.781 936.906 219.75 938 218.281 938C216.812 938 215.781 936.906 215.781 935.5C215.781 934.781 216.094 934.094 216.688 933.5L217.062 933.125C217.438 932.75 217.406 932.281 217.25 931.719L206.938 896.188H200.75L214.375 941ZM257.844 941.906C269.312 941.906 276.469 932.438 276.469 918.594C276.469 904.844 269.188 895.312 257.844 895.312C246.531 895.312 239.219 904.781 239.219 918.594C239.219 932.438 246.469 941.906 257.844 941.906ZM240.031 918.594C240.031 917.312 241.062 916.281 242.344 916.281C243.625 916.281 244.656 917.312 244.656 918.594C244.656 919.875 243.625 920.906 242.344 920.906C241.062 920.906 240.031 919.875 240.031 918.594ZM245.375 918.594C245.375 907.344 250.25 900.688 257.844 900.688C265.469 900.688 270.344 907.344 270.344 918.594C270.344 929.938 265.469 936.531 257.844 936.531C250.25 936.531 245.375 929.875 245.375 918.594ZM271.062 918.594C271.062 917.312 272.094 916.281 273.375 916.281C274.656 916.281 275.688 917.312 275.688 918.594C275.688 919.875 274.656 920.906 273.375 920.906C272.094 920.906 271.062 919.875 271.062 918.594ZM302.125 941.906C311.594 941.906 318.5 936.469 319.406 926.094H313.312C312.562 932.812 308.25 936.406 302.688 936.406C294.25 936.406 289 930 289 918.594C289 907.219 294.125 900.688 302.25 900.688C308.25 900.688 312.812 904.062 313.562 911.125H319.469C318.875 900.875 311.594 895.312 302.438 895.312C290.406 895.312 282.844 904.469 282.844 918.844C282.844 933.375 290.656 941.906 302.125 941.906ZM283.656 918.594C283.656 917.312 284.688 916.281 285.969 916.281C287.25 916.281 288.281 917.312 288.281 918.594C288.281 919.875 287.25 920.906 285.969 920.906C284.688 920.906 283.656 919.875 283.656 918.594ZM326.281 924.938H343.812V919.812H326.281V924.938ZM223.5 999H229.281V971.094H236V966.375H230.688C230.312 966.375 229.906 966.75 229.906 967.125V967.5C229.906 968.906 228.75 970 227.406 970C226 970 224.938 968.906 224.938 967.5C224.938 966.156 226 965.031 227.406 965.031H228.438C228.875 965.031 229.281 964.625 229.281 964.25V960.656C229.281 959.062 230.031 958.031 231.781 958.031H236V953.312H230.812C225.938 953.312 223.5 956.25 223.5 960.469V966.375H218.188V971.094H223.5V999ZM241.812 999H247.562V982.156C247.562 974.75 251.156 971.344 256.531 971.344C257.344 971.344 258.062 971.406 258.875 971.594V965.844C258.5 965.781 257.938 965.719 257.344 965.719C253.938 965.719 251.438 966.938 249.812 969.125C249.094 970.094 248.531 971.25 248.125 972.562C247.75 973.844 247.125 974.812 245.906 974.812C244.625 974.812 243.719 973.844 243.719 972.562C243.719 971.219 244.812 970.312 246.031 970.312H246.844C247.25 970.312 247.562 969.938 247.562 969.625V966.375H241.812V999ZM277.688 999.906C285.688 999.906 290.75 995.094 291.469 988.125H285.625C285 992.594 282.062 995.031 278.094 995.031C273.094 995.031 269.312 991.781 268.875 984.656C268.812 983.906 268.469 983.719 267.844 983.719H267.344C266.125 983.719 265.219 982.812 265.219 981.594C265.219 980.375 266.125 979.469 267.344 979.469H267.844C268.594 979.469 269 979.219 269.125 978.531C270.094 973.156 273.281 970.312 277.625 970.312C282.312 970.312 285.125 973.25 285.531 979.406H271.281C269.938 979.406 268.938 980.438 268.938 981.719C268.938 983 269.938 984.031 271.281 984.031H291.656V982.094C291.656 971.344 286.031 965.469 277.688 965.469C269.188 965.469 262.844 972.125 262.844 982.625C262.844 994.469 269.188 999.906 277.688 999.906ZM312.25 999.906C320.25 999.906 325.312 995.094 326.031 988.125H320.188C319.562 992.594 316.625 995.031 312.656 995.031C307.656 995.031 303.875 991.781 303.438 984.656C303.375 983.906 303.031 983.719 302.406 983.719H301.906C300.688 983.719 299.781 982.812 299.781 981.594C299.781 980.375 300.688 979.469 301.906 979.469H302.406C303.156 979.469 303.562 979.219 303.688 978.531C304.656 973.156 307.844 970.312 312.188 970.312C316.875 970.312 319.688 973.25 320.094 979.406H305.844C304.5 979.406 303.5 980.438 303.5 981.719C303.5 983 304.5 984.031 305.844 984.031H326.219V982.094C326.219 971.344 320.594 965.469 312.25 965.469C303.75 965.469 297.406 972.125 297.406 982.625C297.406 994.469 303.75 999.906 312.25 999.906Z" fill="#302112"/>
<circle cx="978.824" cy="1110.6" r="272.941" fill="#00FF00"/>
<path d="M787.594 1121H793.812L798.375 1107.94C798.625 1107.25 798.438 1106.72 797.906 1106.53L797.094 1106.22C795.75 1105.72 795.031 1104.38 795.469 1103.03C796 1101.59 797.344 1101.09 798.875 1101.59L799.438 1101.81C800.094 1102 800.531 1101.59 800.719 1101.03L807.156 1082.41L813.531 1101.03C813.719 1101.69 814.219 1102 814.812 1101.81L815.656 1101.53C817 1101.09 818.125 1101.47 818.719 1102.94C819.281 1104.44 818.531 1105.84 817.188 1106.28L816.469 1106.53C815.844 1106.72 815.656 1107.25 815.906 1107.94L820.375 1121H826.719L810.656 1076.19H803.812L787.594 1121ZM798.688 1104.88C798.688 1106.28 799.906 1107.44 801.375 1107.44H813.031C814.5 1107.44 815.719 1106.28 815.719 1104.88C815.719 1103.41 814.5 1102.19 813.031 1102.19H801.375C799.906 1102.19 798.688 1103.41 798.688 1104.88ZM832.219 1121H837.969V1104.28C837.969 1096.44 841.094 1092.31 846.219 1092.31C850.312 1092.31 852.562 1094.69 852.562 1098.97V1121H858.312V1098.34C858.312 1091.81 854.469 1087.47 848.156 1087.47C843.031 1087.47 840.094 1090.03 838.531 1094.56C838.031 1096.03 837.375 1096.81 836.125 1096.81C834.844 1096.81 833.938 1095.84 833.938 1094.56C833.938 1093.28 834.969 1092.31 836.25 1092.31H837.25C837.719 1092.31 837.969 1092.06 837.969 1091.56V1088.38H832.219V1121ZM878.406 1121.62C879.688 1121.62 880.688 1121.5 881.969 1121.19V1116.47C881.156 1116.66 880.25 1116.72 879.594 1116.72C877.125 1116.72 875.375 1115.75 875.375 1112.62V1093.09H882.562V1088.38H876.344C875.844 1088.38 875.5 1088.69 875.5 1089.25V1089.5C875.5 1090.91 874.438 1092 873.094 1092C871.688 1092 870.594 1090.91 870.594 1089.5C870.594 1088.16 871.688 1087.09 873.094 1087.09H874.562C875.062 1087.09 875.375 1086.75 875.375 1086.25V1078.81H870.781L870.594 1082.03C870.344 1086.5 868.656 1088.38 864.438 1088.38H863.875V1093.09H869.625V1113C869.625 1119.41 873.156 1121.62 878.406 1121.62ZM889.156 1121H894.906V1088.38H889.156V1121ZM888.75 1082.84H895.281V1076.19H888.75V1082.84ZM903.688 1104.94H921.219V1099.81H903.688V1104.94ZM945.156 1121.91C953.531 1121.91 958.656 1115.09 958.656 1104.69C958.656 1094.25 953.906 1087.47 945.719 1087.47C942.375 1087.47 939.812 1088.84 938.094 1091.19C937.406 1092.09 936.875 1093.12 936.438 1094.31C935.938 1095.72 935.281 1096.69 934 1096.69C932.719 1096.69 931.719 1095.72 931.719 1094.44C931.719 1093.16 932.719 1092.19 934 1092.19H934.812C935.438 1092.19 935.781 1091.81 935.781 1091.19V1076.19H930.031V1121H935.594V1116.16C937.594 1120.06 941.031 1121.91 945.156 1121.91ZM935.812 1104.75C935.812 1097.53 938.812 1092.34 944.312 1092.34C949.812 1092.34 952.625 1097.53 952.625 1104.75C952.625 1111.97 949.812 1117.03 944.312 1117.03C938.812 1117.03 935.812 1111.97 935.812 1104.75ZM974.875 1121.91C979.5 1121.91 983.312 1119.47 985.219 1116.34C985.375 1118.03 985.656 1119.72 986 1121H992.094V1120.09C991.188 1119.34 990.812 1116.19 990.812 1113.44V1099.25C990.812 1091.81 986.188 1087.47 978.312 1087.47C970.5 1087.47 965.281 1092.12 965.062 1098.41H971.094C971.344 1094.56 974.156 1092.25 978.312 1092.25C983 1092.25 984.969 1094.94 984.969 1097.44C984.969 1099.81 983.438 1100.59 979.656 1101.22L974.469 1102.06C968.344 1103.06 964.188 1106.03 964.188 1112.28C964.188 1118.25 968.844 1121.91 974.875 1121.91ZM970.188 1112.09C970.188 1108.91 972.125 1107.22 976.281 1106.41L980.406 1105.59L981.906 1105.31C983.375 1105.03 984.031 1104.5 984.031 1103.34V1103.31C984.031 1101.88 985.188 1100.91 986.5 1100.91C987.844 1100.91 988.875 1101.94 988.875 1103.28C988.875 1104.62 987.781 1105.62 986.5 1105.62H986.062C985.5 1105.62 985.094 1105.97 985.094 1106.66V1107.44C985.094 1112.81 982.031 1117.09 976.281 1117.09C972.812 1117.09 970.188 1115.19 970.188 1112.09ZM1012.28 1121.91C1019.19 1121.91 1024.75 1117.88 1025.53 1109.47H1019.56C1019.12 1114.47 1016.25 1117.03 1012.41 1117.03C1007.34 1117.03 1004.03 1112.88 1004.03 1104.69C1004.03 1096.5 1007.41 1092.31 1012.47 1092.31C1016.44 1092.31 1019.31 1094.88 1019.56 1099.88H1025.53C1024.88 1091.5 1019.44 1087.47 1012.34 1087.47C1004.16 1087.47 998 1093.75 998 1104.81C998 1116.12 1003.84 1121.91 1012.28 1121.91ZM998.906 1104.69C998.906 1103.53 999.812 1102.56 1001 1102.56C1002.16 1102.56 1003.12 1103.53 1003.12 1104.69C1003.12 1105.91 1002.16 1106.78 1001 1106.78C999.812 1106.78 998.906 1105.91 998.906 1104.69ZM1043.84 1121.62C1045.12 1121.62 1046.12 1121.5 1047.41 1121.19V1116.47C1046.59 1116.66 1045.69 1116.72 1045.03 1116.72C1042.56 1116.72 1040.81 1115.75 1040.81 1112.62V1093.09H1048V1088.38H1041.78C1041.28 1088.38 1040.94 1088.69 1040.94 1089.25V1089.5C1040.94 1090.91 1039.88 1092 1038.53 1092C1037.12 1092 1036.03 1090.91 1036.03 1089.5C1036.03 1088.16 1037.12 1087.09 1038.53 1087.09H1040C1040.5 1087.09 1040.81 1086.75 1040.81 1086.25V1078.81H1036.22L1036.03 1082.03C1035.78 1086.5 1034.09 1088.38 1029.88 1088.38H1029.31V1093.09H1035.06V1113C1035.06 1119.41 1038.59 1121.62 1043.84 1121.62ZM1067.59 1121.91C1075.59 1121.91 1080.66 1117.09 1081.38 1110.12H1075.53C1074.91 1114.59 1071.97 1117.03 1068 1117.03C1063 1117.03 1059.22 1113.78 1058.78 1106.66C1058.72 1105.91 1058.38 1105.72 1057.75 1105.72H1057.25C1056.03 1105.72 1055.12 1104.81 1055.12 1103.59C1055.12 1102.38 1056.03 1101.47 1057.25 1101.47H1057.75C1058.5 1101.47 1058.91 1101.22 1059.03 1100.53C1060 1095.16 1063.19 1092.31 1067.53 1092.31C1072.22 1092.31 1075.03 1095.25 1075.44 1101.41H1061.19C1059.84 1101.41 1058.84 1102.44 1058.84 1103.72C1058.84 1105 1059.84 1106.03 1061.19 1106.03H1081.56V1104.09C1081.56 1093.34 1075.94 1087.47 1067.59 1087.47C1059.09 1087.47 1052.75 1094.12 1052.75 1104.62C1052.75 1116.47 1059.09 1121.91 1067.59 1121.91ZM1089.16 1121H1094.91V1104.16C1094.91 1096.75 1098.5 1093.34 1103.88 1093.34C1104.69 1093.34 1105.41 1093.41 1106.22 1093.59V1087.84C1105.84 1087.78 1105.28 1087.72 1104.69 1087.72C1101.28 1087.72 1098.78 1088.94 1097.16 1091.12C1096.44 1092.09 1095.88 1093.25 1095.47 1094.56C1095.09 1095.84 1094.47 1096.81 1093.25 1096.81C1091.97 1096.81 1091.06 1095.84 1091.06 1094.56C1091.06 1093.22 1092.16 1092.31 1093.38 1092.31H1094.19C1094.59 1092.31 1094.91 1091.94 1094.91 1091.62V1088.38H1089.16V1121ZM1112.03 1121H1117.78V1088.38H1112.03V1121ZM1111.62 1082.84H1118.16V1076.19H1111.62V1082.84ZM1135.81 1121.91C1140.44 1121.91 1144.25 1119.47 1146.16 1116.34C1146.31 1118.03 1146.59 1119.72 1146.94 1121H1153.03V1120.09C1152.12 1119.34 1151.75 1116.19 1151.75 1113.44V1099.25C1151.75 1091.81 1147.12 1087.47 1139.25 1087.47C1131.44 1087.47 1126.22 1092.12 1126 1098.41H1132.03C1132.28 1094.56 1135.09 1092.25 1139.25 1092.25C1143.94 1092.25 1145.91 1094.94 1145.91 1097.44C1145.91 1099.81 1144.38 1100.59 1140.59 1101.22L1135.41 1102.06C1129.28 1103.06 1125.12 1106.03 1125.12 1112.28C1125.12 1118.25 1129.78 1121.91 1135.81 1121.91ZM1131.12 1112.09C1131.12 1108.91 1133.06 1107.22 1137.22 1106.41L1141.34 1105.59L1142.84 1105.31C1144.31 1105.03 1144.97 1104.5 1144.97 1103.34V1103.31C1144.97 1101.88 1146.12 1100.91 1147.44 1100.91C1148.78 1100.91 1149.81 1101.94 1149.81 1103.28C1149.81 1104.62 1148.72 1105.62 1147.44 1105.62H1147C1146.44 1105.62 1146.03 1105.97 1146.03 1106.66V1107.44C1146.03 1112.81 1142.97 1117.09 1137.22 1117.09C1133.75 1117.09 1131.12 1115.19 1131.12 1112.09ZM1160.78 1121H1166.53V1076.19H1160.78V1121Z" fill="#302112"/>
<circle cx="731.766" cy="487.071" r="374.118" fill="#FF42EF"/>
<path d="M676.371 479.555H682.59L687.152 466.492C687.402 465.805 687.215 465.273 686.683 465.086L685.871 464.773C684.527 464.273 683.808 462.93 684.246 461.586C684.777 460.148 686.121 459.648 687.652 460.148L688.215 460.367C688.871 460.555 689.308 460.148 689.496 459.586L695.933 440.961L702.308 459.586C702.496 460.242 702.996 460.555 703.59 460.367L704.433 460.086C705.777 459.648 706.902 460.023 707.496 461.492C708.058 462.992 707.308 464.398 705.965 464.836L705.246 465.086C704.621 465.273 704.433 465.805 704.683 466.492L709.152 479.555H715.496L699.433 434.742H692.59L676.371 479.555ZM687.465 463.43C687.465 464.836 688.683 465.992 690.152 465.992H701.808C703.277 465.992 704.496 464.836 704.496 463.43C704.496 461.961 703.277 460.742 701.808 460.742H690.152C688.683 460.742 687.465 461.961 687.465 463.43ZM720.996 479.555H726.746V446.93H720.996V479.555ZM720.59 441.398H727.121V434.742H720.59V441.398ZM736.058 479.555H741.808V462.711C741.808 455.305 745.402 451.898 750.777 451.898C751.59 451.898 752.308 451.961 753.121 452.148V446.398C752.746 446.336 752.183 446.273 751.59 446.273C748.183 446.273 745.683 447.492 744.058 449.68C743.34 450.648 742.777 451.805 742.371 453.117C741.996 454.398 741.371 455.367 740.152 455.367C738.871 455.367 737.965 454.398 737.965 453.117C737.965 451.773 739.058 450.867 740.277 450.867H741.09C741.496 450.867 741.808 450.492 741.808 450.18V446.93H736.058V479.555ZM754.902 463.492H772.433V458.367H754.902V463.492ZM622.183 538.461C630.558 538.461 635.683 531.648 635.683 521.242C635.683 510.805 630.933 504.023 622.746 504.023C619.402 504.023 616.84 505.398 615.121 507.742C614.433 508.648 613.902 509.68 613.465 510.867C612.965 512.273 612.308 513.242 611.027 513.242C609.746 513.242 608.746 512.273 608.746 510.992C608.746 509.711 609.746 508.742 611.027 508.742H611.84C612.465 508.742 612.808 508.367 612.808 507.742V504.93H607.058V549.086H612.808V533.086C614.84 536.711 618.183 538.461 622.183 538.461ZM612.84 521.305C612.84 514.086 615.84 508.898 621.34 508.898C626.84 508.898 629.652 514.086 629.652 521.305C629.652 528.523 626.84 533.586 621.34 533.586C615.84 533.586 612.84 528.523 612.84 521.305ZM653.371 538.461C658.371 538.461 661.058 535.711 662.652 531.336C663.183 529.867 663.808 529.117 665.09 529.117C666.371 529.117 667.277 530.055 667.277 531.336C667.277 532.617 666.246 533.586 664.965 533.586H663.933C663.496 533.586 663.246 533.836 663.246 534.367V537.555H668.996V504.93H663.246V521.93C663.246 529.43 660.121 533.586 655.121 533.586C650.84 533.586 648.652 531.086 648.652 526.93V504.93H642.902V527.586C642.902 534.492 646.871 538.461 653.371 538.461ZM678.308 537.555H684.058V520.711C684.058 513.305 687.652 509.898 693.027 509.898C693.84 509.898 694.558 509.961 695.371 510.148V504.398C694.996 504.336 694.433 504.273 693.84 504.273C690.433 504.273 687.933 505.492 686.308 507.68C685.59 508.648 685.027 509.805 684.621 511.117C684.246 512.398 683.621 513.367 682.402 513.367C681.121 513.367 680.215 512.398 680.215 511.117C680.215 509.773 681.308 508.867 682.527 508.867H683.34C683.746 508.867 684.058 508.492 684.058 508.18V504.93H678.308V537.555ZM701.183 537.555H706.933V504.93H701.183V537.555ZM700.777 499.398H707.308V492.742H700.777V499.398ZM718.246 537.555H724.027V509.648H730.746V504.93H725.433C725.058 504.93 724.652 505.305 724.652 505.68V506.055C724.652 507.461 723.496 508.555 722.152 508.555C720.746 508.555 719.683 507.461 719.683 506.055C719.683 504.711 720.746 503.586 722.152 503.586H723.183C723.621 503.586 724.027 503.18 724.027 502.805V499.211C724.027 497.617 724.777 496.586 726.527 496.586H730.746V491.867H725.558C720.683 491.867 718.246 494.805 718.246 499.023V504.93H712.933V509.648H718.246V537.555ZM738.933 549.961C744.246 549.961 747.715 546.586 750.058 539.805L762.152 504.93H756.027L748.84 527.492C748.683 528.023 748.683 528.43 749.058 528.836L749.496 529.305C750.027 529.898 750.34 530.398 750.34 531.023C750.34 532.367 749.308 533.398 748.027 533.398C746.746 533.398 745.715 532.367 745.715 531.023C745.715 530.398 746.058 529.836 746.558 529.305L746.996 528.836C747.371 528.461 747.308 528.023 747.121 527.492L739.371 504.93H733.121L744.933 537.523C742.933 542.805 741.215 544.648 737.84 544.648C737.277 544.648 736.183 544.586 735.215 544.211V549.461C736.246 549.773 737.527 549.961 738.933 549.961ZM768.121 537.555H773.871V504.93H768.121V537.555ZM767.715 499.398H774.246V492.742H767.715V499.398ZM783.183 537.555H788.933V520.836C788.933 512.992 792.058 508.867 797.183 508.867C801.277 508.867 803.527 511.242 803.527 515.523V537.555H809.277V514.898C809.277 508.367 805.433 504.023 799.121 504.023C793.996 504.023 791.058 506.586 789.496 511.117C788.996 512.586 788.34 513.367 787.09 513.367C785.808 513.367 784.902 512.398 784.902 511.117C784.902 509.836 785.933 508.867 787.215 508.867H788.215C788.683 508.867 788.933 508.617 788.933 508.117V504.93H783.183V537.555ZM830.496 549.961C839.371 549.961 845.152 544.836 845.152 535.43V504.93H839.433V509.492C837.465 505.93 834.058 504.023 829.777 504.023C821.465 504.023 816.527 510.805 816.527 520.273C816.527 529.742 821.402 536.398 829.715 536.398C833.715 536.398 836.152 535.023 837.496 532.773C837.996 532.023 838.371 531.117 838.746 530.055C839.246 528.648 839.84 527.711 841.246 527.711C842.527 527.711 843.465 528.586 843.465 529.93C843.465 531.273 842.402 532.18 841.121 532.18H840.34C839.777 532.18 839.371 532.555 839.371 533.211V535.711C839.371 541.648 836.371 545.117 830.746 545.117C826.465 545.117 823.371 543.242 823.058 539.336H817.246C817.371 545.617 822.215 549.961 830.496 549.961ZM822.558 520.273C822.558 513.617 825.371 508.961 830.871 508.961C836.371 508.961 839.371 513.617 839.371 520.273C839.371 526.93 836.371 531.617 830.871 531.617C825.371 531.617 822.558 526.93 822.558 520.273Z" fill="#302112"/>
<circle cx="1475.3" cy="637.657" r="355.294" fill="#FF5500"/>
<path d="M1325.72 638.906C1337.19 638.906 1344.35 629.438 1344.35 615.594C1344.35 601.844 1337.07 592.312 1325.72 592.312C1314.41 592.312 1307.1 601.781 1307.1 615.594C1307.1 629.438 1314.35 638.906 1325.72 638.906ZM1307.91 615.594C1307.91 614.312 1308.94 613.281 1310.22 613.281C1311.5 613.281 1312.53 614.312 1312.53 615.594C1312.53 616.875 1311.5 617.906 1310.22 617.906C1308.94 617.906 1307.91 616.875 1307.91 615.594ZM1313.25 615.594C1313.25 604.344 1318.13 597.688 1325.72 597.688C1333.35 597.688 1338.22 604.344 1338.22 615.594C1338.22 626.938 1333.35 633.531 1325.72 633.531C1318.13 633.531 1313.25 626.875 1313.25 615.594ZM1338.94 615.594C1338.94 614.312 1339.97 613.281 1341.25 613.281C1342.53 613.281 1343.57 614.312 1343.57 615.594C1343.57 616.875 1342.53 617.906 1341.25 617.906C1339.97 617.906 1338.94 616.875 1338.94 615.594ZM1373.22 593.188V608.188C1373.22 608.812 1373.57 609.188 1374.19 609.188H1375C1376.28 609.188 1377.28 610.156 1377.28 611.438C1377.28 612.719 1376.28 613.688 1375 613.688C1373.72 613.688 1373.07 612.719 1372.57 611.312C1371.85 609.375 1370.94 607.875 1369.75 606.75C1368.19 605.219 1366.16 604.469 1363.66 604.469C1355.35 604.469 1350.35 611.344 1350.35 621.75C1350.35 632.156 1355.19 638.906 1363.66 638.906C1367.91 638.906 1371.47 636.812 1373.41 633.062V638H1378.97V593.188H1373.22ZM1356.38 621.625C1356.38 614.406 1359.19 609.312 1364.69 609.312C1370.19 609.312 1373.19 614.406 1373.19 621.625C1373.19 628.844 1370.19 634.031 1364.69 634.031C1359.19 634.031 1356.38 628.844 1356.38 621.625ZM1401.07 638.906C1409.91 638.906 1415.66 632.156 1415.66 621.656C1415.66 611.156 1409.91 604.469 1401.07 604.469C1392.22 604.469 1386.47 611.156 1386.47 621.656C1386.47 632.156 1392.22 638.906 1401.07 638.906ZM1387.38 621.688C1387.38 620.531 1388.28 619.562 1389.47 619.562C1390.63 619.562 1391.6 620.531 1391.6 621.688C1391.6 622.906 1390.63 623.781 1389.47 623.781C1388.28 623.781 1387.38 622.906 1387.38 621.688ZM1392.5 621.656C1392.5 613.781 1395.69 609.344 1401.07 609.344C1406.44 609.344 1409.63 613.781 1409.63 621.656C1409.63 629.531 1406.44 634.031 1401.07 634.031C1395.69 634.031 1392.5 629.531 1392.5 621.656ZM1410.53 621.688C1410.53 620.531 1411.44 619.562 1412.66 619.562C1413.82 619.562 1414.75 620.531 1414.75 621.688C1414.75 622.906 1413.82 623.781 1412.66 623.781C1411.44 623.781 1410.53 622.906 1410.53 621.688ZM1433.32 638.906C1438.32 638.906 1441 636.156 1442.6 631.781C1443.13 630.312 1443.75 629.562 1445.03 629.562C1446.32 629.562 1447.22 630.5 1447.22 631.781C1447.22 633.062 1446.19 634.031 1444.91 634.031H1443.88C1443.44 634.031 1443.19 634.281 1443.19 634.812V638H1448.94V605.375H1443.19V622.375C1443.19 629.875 1440.07 634.031 1435.07 634.031C1430.78 634.031 1428.6 631.531 1428.6 627.375V605.375H1422.85V628.031C1422.85 634.938 1426.82 638.906 1433.32 638.906ZM1458.25 638H1464V621.156C1464 613.75 1467.6 610.344 1472.97 610.344C1473.78 610.344 1474.5 610.406 1475.32 610.594V604.844C1474.94 604.781 1474.38 604.719 1473.78 604.719C1470.38 604.719 1467.88 605.938 1466.25 608.125C1465.53 609.094 1464.97 610.25 1464.57 611.562C1464.19 612.844 1463.57 613.812 1462.35 613.812C1461.07 613.812 1460.16 612.844 1460.16 611.562C1460.16 610.219 1461.25 609.312 1462.47 609.312H1463.28C1463.69 609.312 1464 608.938 1464 608.625V605.375H1458.25V638ZM1481.13 638H1486.88V593.188H1481.13V638ZM1509.19 638.906C1517.19 638.906 1522.25 634.094 1522.97 627.125H1517.13C1516.5 631.594 1513.57 634.031 1509.6 634.031C1504.6 634.031 1500.82 630.781 1500.38 623.656C1500.32 622.906 1499.97 622.719 1499.35 622.719H1498.85C1497.63 622.719 1496.72 621.812 1496.72 620.594C1496.72 619.375 1497.63 618.469 1498.85 618.469H1499.35C1500.1 618.469 1500.5 618.219 1500.63 617.531C1501.6 612.156 1504.78 609.312 1509.13 609.312C1513.82 609.312 1516.63 612.25 1517.03 618.406H1502.78C1501.44 618.406 1500.44 619.438 1500.44 620.719C1500.44 622 1501.44 623.031 1502.78 623.031H1523.16V621.094C1523.16 610.344 1517.53 604.469 1509.19 604.469C1500.69 604.469 1494.35 611.125 1494.35 621.625C1494.35 633.469 1500.69 638.906 1509.19 638.906ZM1542.6 638.906C1549.75 638.906 1555.38 635.25 1555.38 628.281C1555.38 623.406 1552 620.469 1546.1 619.312L1540.1 618.156C1536.88 617.531 1535.41 616.312 1535.41 614.125C1535.41 611.25 1537.97 609.25 1541.94 609.25C1546.1 609.25 1548.78 611.562 1548.97 615.406H1554.88C1554.63 609.188 1550.32 604.469 1542.07 604.469C1534.07 604.469 1529.35 609 1529.35 614.844C1529.35 619.375 1532.1 622.312 1538.5 623.594L1543.88 624.688C1547.69 625.469 1549.38 626.688 1549.38 629.156C1549.38 632.188 1546.69 634.031 1542.72 634.031C1538.1 634.031 1534.78 631.781 1534.6 627.5H1528.57C1528.69 634.531 1534 638.906 1542.6 638.906ZM1540.47 621.5C1540.47 620.344 1541.5 619.375 1542.6 619.375C1543.66 619.375 1544.69 620.344 1544.69 621.5C1544.69 622.625 1543.72 623.594 1542.66 623.594C1541.57 623.594 1540.47 622.625 1540.47 621.5ZM1574.53 638.906C1581.69 638.906 1587.32 635.25 1587.32 628.281C1587.32 623.406 1583.94 620.469 1578.03 619.312L1572.03 618.156C1568.82 617.531 1567.35 616.312 1567.35 614.125C1567.35 611.25 1569.91 609.25 1573.88 609.25C1578.03 609.25 1580.72 611.562 1580.91 615.406H1586.82C1586.57 609.188 1582.25 604.469 1574 604.469C1566 604.469 1561.28 609 1561.28 614.844C1561.28 619.375 1564.03 622.312 1570.44 623.594L1575.82 624.688C1579.63 625.469 1581.32 626.688 1581.32 629.156C1581.32 632.188 1578.63 634.031 1574.66 634.031C1570.03 634.031 1566.72 631.781 1566.53 627.5H1560.5C1560.63 634.531 1565.94 638.906 1574.53 638.906ZM1572.41 621.5C1572.41 620.344 1573.44 619.375 1574.53 619.375C1575.6 619.375 1576.63 620.344 1576.63 621.5C1576.63 622.625 1575.66 623.594 1574.6 623.594C1573.5 623.594 1572.41 622.625 1572.41 621.5ZM1622.22 638.906C1627.41 638.906 1631.88 637.031 1635.28 633.781L1639.32 638H1647.1L1638.78 629.281C1641.1 625.469 1642.38 620.656 1642.44 615.344H1636.94C1636.82 619.062 1636.1 622.438 1634.88 625.188L1624.97 614.844C1629.19 612.531 1633.88 608.438 1633.88 602.812C1633.88 596.406 1628.57 592.312 1622.35 592.312C1615.38 592.312 1610.63 596.969 1610.63 603.125C1610.63 607.281 1612.35 609.469 1615.88 613.281C1610.5 616.25 1607.03 620.094 1607.03 626.219C1607.03 634.469 1613.75 638.906 1622.22 638.906ZM1612.88 625.781C1612.88 622 1614.6 619.375 1619.22 616.812L1629.5 627.688C1629.91 628.094 1630.41 628.281 1630.85 628.281C1631.32 628.281 1631.69 628.062 1632.07 627.812L1632.44 627.562C1633.13 627.094 1633.6 626.875 1634.32 626.875C1635.66 626.875 1636.69 627.875 1636.69 629.219C1636.69 630.562 1635.53 631.594 1634.32 631.594C1633.72 631.594 1633.28 631.406 1632.78 631.094L1632.38 630.844C1632.1 630.656 1631.94 630.562 1631.63 630.562C1631.25 630.562 1630.78 630.781 1630.28 631.156C1628.16 632.75 1625.47 633.656 1622.41 633.656C1616.97 633.656 1612.88 630.5 1612.88 625.781ZM1616.38 603C1616.38 599.531 1618.94 597.438 1622.22 597.438C1625.66 597.438 1628.1 599.656 1628.1 602.938C1628.1 606.5 1625.88 608.375 1623.38 609.969C1622.91 610.219 1622.72 610.594 1622.72 610.938C1622.72 611.25 1622.78 611.375 1623.03 611.688L1623.38 612.094C1623.69 612.469 1623.88 612.969 1623.88 613.625C1623.88 614.969 1622.85 615.969 1621.57 615.969C1620.16 615.969 1619.16 614.969 1619.16 613.625C1619.16 612.906 1619.32 612.406 1619.85 611.875L1620.22 611.5C1620.57 611.156 1620.63 611 1620.63 610.688C1620.63 610.344 1620.5 610.094 1620.16 609.781C1617.53 607.156 1616.38 605.562 1616.38 603ZM1355.35 696.625C1356.63 696.625 1357.63 696.5 1358.91 696.188V691.469C1358.1 691.656 1357.19 691.719 1356.53 691.719C1354.07 691.719 1352.32 690.75 1352.32 687.625V668.094H1359.5V663.375H1353.28C1352.78 663.375 1352.44 663.688 1352.44 664.25V664.5C1352.44 665.906 1351.38 667 1350.03 667C1348.63 667 1347.53 665.906 1347.53 664.5C1347.53 663.156 1348.63 662.094 1350.03 662.094H1351.5C1352 662.094 1352.32 661.75 1352.32 661.25V653.812H1347.72L1347.53 657.031C1347.28 661.5 1345.6 663.375 1341.38 663.375H1340.82V668.094H1346.57V688C1346.57 694.406 1350.1 696.625 1355.35 696.625ZM1378.22 696.906C1387.07 696.906 1392.82 690.156 1392.82 679.656C1392.82 669.156 1387.07 662.469 1378.22 662.469C1369.38 662.469 1363.63 669.156 1363.63 679.656C1363.63 690.156 1369.38 696.906 1378.22 696.906ZM1364.53 679.688C1364.53 678.531 1365.44 677.562 1366.63 677.562C1367.78 677.562 1368.75 678.531 1368.75 679.688C1368.75 680.906 1367.78 681.781 1366.63 681.781C1365.44 681.781 1364.53 680.906 1364.53 679.688ZM1369.66 679.656C1369.66 671.781 1372.85 667.344 1378.22 667.344C1383.6 667.344 1386.78 671.781 1386.78 679.656C1386.78 687.531 1383.6 692.031 1378.22 692.031C1372.85 692.031 1369.66 687.531 1369.66 679.656ZM1387.69 679.688C1387.69 678.531 1388.6 677.562 1389.82 677.562C1390.97 677.562 1391.91 678.531 1391.91 679.688C1391.91 680.906 1390.97 681.781 1389.82 681.781C1388.6 681.781 1387.69 680.906 1387.69 679.688ZM1395.41 696H1401.82L1409.66 683.375L1417.35 696H1424.07L1413.25 679.438L1423.63 663.375H1417.6L1410.75 674.375C1410.5 674.812 1410.5 675.062 1410.88 675.469L1411.53 676.094C1411.97 676.531 1412.22 677 1412.22 677.625C1412.22 678.969 1411.22 680.062 1409.88 680.062C1408.53 680.062 1407.5 678.969 1407.5 677.625C1407.5 677.062 1407.82 676.469 1408.25 675.969L1408.72 675.469C1409.03 675.125 1409.22 674.812 1408.91 674.312L1402.44 663.375H1395.85L1406.25 679.875L1395.41 696ZM1429.72 696H1435.47V663.375H1429.72V696ZM1429.32 657.844H1435.85V651.188H1429.32V657.844ZM1457.22 696.906C1464.13 696.906 1469.69 692.875 1470.47 684.469H1464.5C1464.07 689.469 1461.19 692.031 1457.35 692.031C1452.28 692.031 1448.97 687.875 1448.97 679.688C1448.97 671.5 1452.35 667.312 1457.41 667.312C1461.38 667.312 1464.25 669.875 1464.5 674.875H1470.47C1469.82 666.5 1464.38 662.469 1457.28 662.469C1449.1 662.469 1442.94 668.75 1442.94 679.812C1442.94 691.125 1448.78 696.906 1457.22 696.906ZM1443.85 679.688C1443.85 678.531 1444.75 677.562 1445.94 677.562C1447.1 677.562 1448.07 678.531 1448.07 679.688C1448.07 680.906 1447.1 681.781 1445.94 681.781C1444.75 681.781 1443.85 680.906 1443.85 679.688ZM1477.19 679.938H1494.72V674.812H1477.19V679.938ZM1504.16 696H1509.94V668.094H1516.66V663.375H1511.35C1510.97 663.375 1510.57 663.75 1510.57 664.125V664.5C1510.57 665.906 1509.41 667 1508.07 667C1506.66 667 1505.6 665.906 1505.6 664.5C1505.6 663.156 1506.66 662.031 1508.07 662.031H1509.1C1509.53 662.031 1509.94 661.625 1509.94 661.25V657.656C1509.94 656.062 1510.69 655.031 1512.44 655.031H1516.66V650.312H1511.47C1506.6 650.312 1504.16 653.25 1504.16 657.469V663.375H1498.85V668.094H1504.16V696ZM1522.47 696H1528.22V679.156C1528.22 671.75 1531.82 668.344 1537.19 668.344C1538 668.344 1538.72 668.406 1539.53 668.594V662.844C1539.16 662.781 1538.6 662.719 1538 662.719C1534.6 662.719 1532.1 663.938 1530.47 666.125C1529.75 667.094 1529.19 668.25 1528.78 669.562C1528.41 670.844 1527.78 671.812 1526.57 671.812C1525.28 671.812 1524.38 670.844 1524.38 669.562C1524.38 668.219 1525.47 667.312 1526.69 667.312H1527.5C1527.91 667.312 1528.22 666.938 1528.22 666.625V663.375H1522.47V696ZM1558.35 696.906C1566.35 696.906 1571.41 692.094 1572.13 685.125H1566.28C1565.66 689.594 1562.72 692.031 1558.75 692.031C1553.75 692.031 1549.97 688.781 1549.53 681.656C1549.47 680.906 1549.13 680.719 1548.5 680.719H1548C1546.78 680.719 1545.88 679.812 1545.88 678.594C1545.88 677.375 1546.78 676.469 1548 676.469H1548.5C1549.25 676.469 1549.66 676.219 1549.78 675.531C1550.75 670.156 1553.94 667.312 1558.28 667.312C1562.97 667.312 1565.78 670.25 1566.19 676.406H1551.94C1550.6 676.406 1549.6 677.438 1549.6 678.719C1549.6 680 1550.6 681.031 1551.94 681.031H1572.32V679.094C1572.32 668.344 1566.69 662.469 1558.35 662.469C1549.85 662.469 1543.5 669.125 1543.5 679.625C1543.5 691.469 1549.85 696.906 1558.35 696.906ZM1592.91 696.906C1600.91 696.906 1605.97 692.094 1606.69 685.125H1600.85C1600.22 689.594 1597.28 692.031 1593.32 692.031C1588.32 692.031 1584.53 688.781 1584.1 681.656C1584.03 680.906 1583.69 680.719 1583.07 680.719H1582.57C1581.35 680.719 1580.44 679.812 1580.44 678.594C1580.44 677.375 1581.35 676.469 1582.57 676.469H1583.07C1583.82 676.469 1584.22 676.219 1584.35 675.531C1585.32 670.156 1588.5 667.312 1592.85 667.312C1597.53 667.312 1600.35 670.25 1600.75 676.406H1586.5C1585.16 676.406 1584.16 677.438 1584.16 678.719C1584.16 680 1585.16 681.031 1586.5 681.031H1606.88V679.094C1606.88 668.344 1601.25 662.469 1592.91 662.469C1584.41 662.469 1578.07 669.125 1578.07 679.625C1578.07 691.469 1584.41 696.906 1592.91 696.906Z" fill="#302112"/>
</svg>
