<svg width="430" height="430" viewBox="0 0 430 430" fill="none" xmlns="http://www.w3.org/2000/svg">
<circle cx="215" cy="215" r="215" fill="#EAE4DF"/>
<line x1="183.789" y1="213.973" x2="246.19" y2="213.973" stroke="#302112" stroke-width="3.18997"/>
<circle cx="108.903" cy="215.567" r="56.7282" fill="#B6AC9E"/>
<path d="M108.507 231.11C115.991 231.11 121.449 226.812 122.165 218.613H117.349C116.756 223.923 113.348 226.763 108.952 226.763C102.284 226.763 98.1345 221.7 98.1345 212.686C98.1345 203.696 102.185 198.534 108.606 198.534C113.348 198.534 116.954 201.201 117.546 206.783H122.214C121.745 198.682 115.991 194.286 108.754 194.286C99.2458 194.286 93.2691 201.523 93.2691 212.883C93.2691 224.367 99.4434 231.11 108.507 231.11ZM93.9112 212.686C93.9112 211.673 94.7262 210.858 95.7388 210.858C96.7514 210.858 97.5664 211.673 97.5664 212.686C97.5664 213.698 96.7514 214.513 95.7388 214.513C94.7262 214.513 93.9112 213.698 93.9112 212.686Z" fill="#302112"/>
<circle cx="321.072" cy="215.567" r="56.7282" fill="#B6AC9E"/>
<path d="M327.538 214.661V230.394H332.206V194.978H327.538V209.5C327.538 209.796 327.859 210.117 328.205 210.117H329.02C330.131 210.117 330.996 211.031 330.996 212.142C330.996 213.204 330.131 214.044 329.02 214.044H328.205C327.859 214.044 327.538 214.365 327.538 214.661ZM307.114 230.394H311.757V214.661C311.757 214.365 311.46 214.044 311.115 214.044H310.299C309.188 214.044 308.324 213.204 308.324 212.142C308.324 211.031 309.188 210.117 310.299 210.117H311.115C311.46 210.117 311.757 209.796 311.757 209.5V194.978H307.114V230.394ZM311.93 212.142C311.93 213.254 312.893 214.168 314.053 214.168H325.266C326.427 214.168 327.39 213.254 327.39 212.142C327.39 210.982 326.427 210.018 325.266 210.018H314.053C312.893 210.018 311.93 210.982 311.93 212.142Z" fill="#302112"/>
</svg>
