<svg width="1080" height="1080" viewBox="0 0 1080 1080" fill="none" xmlns="http://www.w3.org/2000/svg">
<circle cx="540" cy="540" r="539.726" stroke="#302112" stroke-width="0.54768"/>
<path d="M696.863 888.238C697.221 891.566 697.463 894.928 697.584 898.321L697.084 898.339C697.144 900.014 697.174 901.697 697.174 903.387C697.174 905.077 697.144 906.76 697.084 908.435L697.584 908.453C697.463 911.846 697.221 915.208 696.863 918.536L696.366 918.482C696.003 921.846 695.521 925.173 694.924 928.461L695.416 928.55C694.81 931.884 694.086 935.176 693.248 938.424L692.764 938.299C691.921 941.568 690.962 944.79 689.892 947.963L690.366 948.123C689.285 951.328 688.091 954.482 686.789 957.581L686.328 957.387C685.023 960.493 683.608 963.542 682.089 966.531L682.534 966.758C681.004 969.769 679.367 972.719 677.63 975.602L677.201 975.344C675.465 978.225 673.627 981.04 671.693 983.784L672.101 984.072C670.157 986.83 668.116 989.516 665.982 992.125L665.595 991.808C663.467 994.41 661.248 996.935 658.941 999.378L659.305 999.721C656.991 1002.17 654.589 1004.54 652.105 1006.83L651.767 1006.46C649.295 1008.73 646.74 1010.91 644.109 1013.01L644.421 1013.4C641.786 1015.5 639.074 1017.51 636.29 1019.42L636.007 1019C633.241 1020.9 630.404 1022.71 627.5 1024.41L627.753 1024.84C624.851 1026.54 621.883 1028.15 618.853 1029.64L618.631 1029.2C615.628 1030.68 612.564 1032.07 609.445 1033.34L609.634 1033.81C606.525 1035.08 603.36 1036.24 600.144 1037.3L599.988 1036.82C596.808 1037.87 593.579 1038.8 590.303 1039.63L590.425 1040.11C587.173 1040.93 583.876 1041.63 580.539 1042.22L580.452 1041.73C577.162 1042.31 573.832 1042.78 570.466 1043.14L570.519 1043.63C567.19 1043.98 563.827 1044.22 560.434 1044.33L560.417 1043.83C558.741 1043.89 557.058 1043.92 555.368 1043.92C553.678 1043.92 551.995 1043.89 550.32 1043.83L550.302 1044.33C546.909 1044.22 543.547 1043.98 540.218 1043.63L540.27 1043.14C536.905 1042.78 533.575 1042.31 530.285 1041.73L530.197 1042.22C526.86 1041.63 523.564 1040.93 520.311 1040.11L520.433 1039.63C517.158 1038.8 513.928 1037.87 510.748 1036.82L510.593 1037.3C507.377 1036.24 504.212 1035.08 501.103 1033.81L501.292 1033.34C498.172 1032.07 495.108 1030.68 492.105 1029.2L491.883 1029.64C488.854 1028.15 485.886 1026.54 482.984 1024.84L483.237 1024.41C480.333 1022.71 477.496 1020.9 474.73 1019L474.447 1019.42C471.663 1017.51 468.951 1015.5 466.316 1013.4L466.627 1013.01C463.996 1010.91 461.442 1008.73 458.97 1006.46L458.631 1006.83C456.148 1004.54 453.746 1002.17 451.432 999.721L451.795 999.378C449.489 996.935 447.269 994.41 445.142 991.808L444.755 992.125C442.621 989.516 440.58 986.83 438.635 984.072L439.044 983.784C437.11 981.04 435.272 978.225 433.535 975.344L433.107 975.602C431.37 972.719 429.733 969.769 428.202 966.758L428.648 966.531C427.129 963.542 425.714 960.493 424.409 957.387L423.948 957.581C422.645 954.482 421.451 951.328 420.37 948.123L420.844 947.963C419.774 944.79 418.816 941.568 417.972 938.299L417.488 938.424C416.651 935.176 415.927 931.884 415.321 928.55L415.813 928.461C415.215 925.173 414.733 921.846 414.371 918.482L413.874 918.536C413.515 915.208 413.273 911.846 413.153 908.453L413.652 908.435C413.593 906.76 413.562 905.077 413.562 903.387C413.562 901.697 413.593 900.014 413.652 898.339L413.153 898.321C413.273 894.928 413.515 891.566 413.874 888.238L414.371 888.291C414.733 884.928 415.215 881.6 415.813 878.313L415.321 878.223C415.927 874.89 416.651 871.597 417.488 868.35L417.972 868.475C418.816 865.206 419.774 861.983 420.844 858.811L420.37 858.651C421.451 855.446 422.645 852.291 423.948 849.193L424.409 849.387C425.714 846.281 427.129 843.231 428.648 840.243L428.202 840.016C429.733 837.005 431.37 834.055 433.107 831.172L433.535 831.43C435.272 828.548 437.11 825.733 439.044 822.99L438.635 822.702C440.58 819.944 442.621 817.258 444.755 814.649L445.142 814.966C447.269 812.364 449.489 809.839 451.795 807.396L451.432 807.052C453.746 804.601 456.148 802.231 458.631 799.949L458.97 800.317C461.442 798.045 463.996 795.859 466.627 793.764L466.316 793.373C468.951 791.275 471.663 789.269 474.447 787.358L474.73 787.77C477.496 785.872 480.333 784.069 483.237 782.365L482.984 781.934C485.886 780.231 488.854 778.628 491.884 777.129L492.105 777.577C495.108 776.091 498.172 774.708 501.292 773.431L501.103 772.968C504.212 771.696 507.377 770.53 510.593 769.475L510.748 769.95C513.928 768.906 517.158 767.971 520.433 767.148L520.312 766.663C523.564 765.847 526.86 765.141 530.197 764.551L530.285 765.043C533.575 764.461 536.905 763.992 540.27 763.639L540.218 763.141C543.547 762.792 546.909 762.557 550.302 762.439L550.32 762.939C551.995 762.881 553.678 762.852 555.368 762.852C557.058 762.852 558.742 762.881 560.417 762.939L560.435 762.439C563.827 762.557 567.19 762.792 570.519 763.141L570.466 763.639C573.832 763.992 577.162 764.461 580.452 765.043L580.539 764.551C583.876 765.141 587.173 765.847 590.425 766.663L590.303 767.148C593.579 767.971 596.808 768.906 599.988 769.95L600.144 769.475C603.36 770.53 606.525 771.696 609.634 772.968L609.445 773.431C612.564 774.708 615.628 776.091 618.631 777.577L618.853 777.129C621.883 778.628 624.851 780.231 627.753 781.934L627.5 782.365C630.404 784.069 633.241 785.872 636.007 787.77L636.29 787.358C639.074 789.269 641.786 791.275 644.421 793.373L644.109 793.764C646.74 795.859 649.295 798.045 651.767 800.317L652.105 799.949C654.589 802.231 656.991 804.601 659.305 807.052L658.941 807.396C661.248 809.839 663.467 812.364 665.595 814.966L665.982 814.649C668.116 817.258 670.157 819.944 672.101 822.702L671.693 822.99C673.627 825.733 675.465 828.548 677.201 831.43L677.63 831.172C679.367 834.055 681.004 837.005 682.534 840.016L682.089 840.243C683.608 843.231 685.023 846.281 686.328 849.387L686.789 849.193C688.091 852.291 689.285 855.446 690.366 858.651L689.892 858.811C690.962 861.983 691.921 865.206 692.764 868.475L693.248 868.35C694.086 871.597 694.81 874.89 695.416 878.223L694.924 878.313C695.521 881.601 696.003 884.928 696.366 888.291L696.863 888.238Z" stroke="#302112" stroke-dasharray="10 10"/>
<circle cx="283.332" cy="778.871" r="130.371" stroke="#302112" stroke-dasharray="10 10"/>
<path d="M236.897 779H242.806L253.792 743.99H249.153L240.755 771.798C240.608 772.262 240.657 772.604 240.95 772.896L241.243 773.189C241.658 773.604 241.902 774.142 241.902 774.703C241.902 775.802 241.097 776.656 239.949 776.656C238.802 776.656 237.996 775.802 237.996 774.703C237.996 774.142 238.24 773.604 238.704 773.141L238.997 772.848C239.29 772.555 239.266 772.188 239.143 771.749L231.087 743.99H226.253L236.897 779ZM270.857 779.708C279.817 779.708 285.408 772.311 285.408 761.495C285.408 750.753 279.72 743.307 270.857 743.307C262.019 743.307 256.307 750.704 256.307 761.495C256.307 772.311 261.971 779.708 270.857 779.708ZM256.941 761.495C256.941 760.494 257.747 759.688 258.748 759.688C259.749 759.688 260.555 760.494 260.555 761.495C260.555 762.496 259.749 763.302 258.748 763.302C257.747 763.302 256.941 762.496 256.941 761.495ZM261.116 761.495C261.116 752.706 264.925 747.506 270.857 747.506C276.814 747.506 280.623 752.706 280.623 761.495C280.623 770.357 276.814 775.509 270.857 775.509C264.925 775.509 261.116 770.309 261.116 761.495ZM281.185 761.495C281.185 760.494 281.99 759.688 282.991 759.688C283.992 759.688 284.798 760.494 284.798 761.495C284.798 762.496 283.992 763.302 282.991 763.302C281.99 763.302 281.185 762.496 281.185 761.495ZM305.452 779.708C312.85 779.708 318.245 775.46 318.953 767.354H314.192C313.606 772.604 310.237 775.411 305.892 775.411C299.3 775.411 295.198 770.406 295.198 761.495C295.198 752.608 299.202 747.506 305.55 747.506C310.237 747.506 313.802 750.143 314.388 755.66H319.002C318.538 747.652 312.85 743.307 305.696 743.307C296.297 743.307 290.389 750.46 290.389 761.69C290.389 773.043 296.492 779.708 305.452 779.708ZM291.023 761.495C291.023 760.494 291.829 759.688 292.83 759.688C293.831 759.688 294.637 760.494 294.637 761.495C294.637 762.496 293.831 763.302 292.83 763.302C291.829 763.302 291.023 762.496 291.023 761.495ZM324.324 766.451H338.02V762.447H324.324V766.451ZM238.265 824H242.854V808.692C242.854 808.399 242.561 808.106 242.22 808.106H241.414C240.315 808.106 239.461 807.252 239.461 806.202C239.461 805.104 240.315 804.2 241.414 804.2H242.22C242.561 804.2 242.854 803.907 242.854 803.59V794.898C242.854 794.605 242.561 794.288 242.22 794.288H241.414C240.315 794.288 239.461 793.409 239.461 792.359C239.461 791.261 240.315 790.406 241.414 790.406C242.464 790.406 243.367 791.261 243.367 792.359V792.652C243.367 792.945 243.66 793.238 243.977 793.238H260.018V788.99H238.265V824ZM242.171 806.202C242.171 807.301 243.074 808.204 244.27 808.204H258.406V804.103H244.27C243.074 804.103 242.171 805.055 242.171 806.202ZM264.119 824H268.611V810.841C268.611 805.055 271.419 802.394 275.618 802.394C276.253 802.394 276.814 802.442 277.449 802.589V798.097C277.156 798.048 276.717 797.999 276.253 797.999C273.592 797.999 271.639 798.951 270.369 800.66C269.808 801.417 269.368 802.32 269.051 803.346C268.758 804.347 268.269 805.104 267.317 805.104C266.316 805.104 265.608 804.347 265.608 803.346C265.608 802.296 266.463 801.588 267.415 801.588H268.05C268.367 801.588 268.611 801.295 268.611 801.051V798.512H264.119V824ZM292.146 824.708C298.396 824.708 302.352 820.948 302.913 815.504H298.348C297.859 818.995 295.564 820.899 292.464 820.899C288.558 820.899 285.603 818.36 285.262 812.794C285.213 812.208 284.944 812.062 284.456 812.062H284.065C283.113 812.062 282.405 811.354 282.405 810.401C282.405 809.449 283.113 808.741 284.065 808.741H284.456C285.042 808.741 285.359 808.546 285.457 808.009C286.214 803.81 288.704 801.588 292.098 801.588C295.76 801.588 297.957 803.883 298.274 808.692H287.142C286.092 808.692 285.31 809.498 285.31 810.499C285.31 811.5 286.092 812.306 287.142 812.306H303.06V810.792C303.06 802.394 298.665 797.804 292.146 797.804C285.506 797.804 280.55 803.004 280.55 811.207C280.55 820.46 285.506 824.708 292.146 824.708ZM319.148 824.708C325.398 824.708 329.353 820.948 329.915 815.504H325.35C324.861 818.995 322.566 820.899 319.466 820.899C315.56 820.899 312.605 818.36 312.264 812.794C312.215 812.208 311.946 812.062 311.458 812.062H311.067C310.115 812.062 309.407 811.354 309.407 810.401C309.407 809.449 310.115 808.741 311.067 808.741H311.458C312.044 808.741 312.361 808.546 312.459 808.009C313.216 803.81 315.706 801.588 319.1 801.588C322.762 801.588 324.959 803.883 325.276 808.692H314.143C313.094 808.692 312.312 809.498 312.312 810.499C312.312 811.5 313.094 812.306 314.143 812.306H330.061V810.792C330.061 802.394 325.667 797.804 319.148 797.804C312.508 797.804 307.552 803.004 307.552 811.207C307.552 820.46 312.508 824.708 319.148 824.708Z" fill="#302112"/>
<circle cx="828.531" cy="677.226" r="191.359" stroke="#302112" stroke-dasharray="10 10"/>
<path d="M730.572 694H737.018L742.95 666.9C743.023 666.583 743.072 666.314 742.779 666.021L742.267 665.509C741.876 665.118 741.681 664.63 741.681 664.117C741.681 662.994 742.56 662.164 743.634 662.164C744.708 662.164 745.587 662.994 745.587 664.117C745.587 664.63 745.416 665.094 745.001 665.509L744.415 666.07C744.146 666.339 744.146 666.559 744.22 666.949L749.371 694H756.183L764.215 658.99H759.576L753.619 685.675C753.521 686.114 753.546 686.358 753.839 686.651L754.254 687.066C754.645 687.457 754.889 687.921 754.889 688.507C754.889 689.605 754.01 690.46 752.936 690.46C751.861 690.46 750.982 689.605 750.982 688.507C750.982 687.921 751.202 687.481 751.617 687.066L752.032 686.651C752.276 686.407 752.325 686.114 752.228 685.748L746.93 658.99H740.533L734.527 685.748C734.454 686.041 734.43 686.358 734.723 686.651L735.138 687.066C735.553 687.481 735.772 687.921 735.772 688.507C735.772 689.605 734.894 690.46 733.819 690.46C732.745 690.46 731.866 689.605 731.866 688.507C731.866 687.921 732.11 687.457 732.501 687.066L732.916 686.651C733.209 686.358 733.233 686.114 733.136 685.675L727.569 658.99H722.882L730.572 694ZM774.371 694.708C777.984 694.708 780.963 692.804 782.452 690.362C782.574 691.681 782.794 692.999 783.062 694H787.823V693.292C787.115 692.706 786.822 690.24 786.822 688.092V677.008C786.822 671.197 783.209 667.804 777.057 667.804C770.953 667.804 766.876 671.441 766.705 676.349H771.417C771.612 673.346 773.81 671.539 777.057 671.539C780.719 671.539 782.257 673.639 782.257 675.592C782.257 677.447 781.061 678.058 778.106 678.546L774.054 679.205C769.269 679.986 766.021 682.306 766.021 687.188C766.021 691.852 769.659 694.708 774.371 694.708ZM770.709 687.042C770.709 684.552 772.223 683.233 775.47 682.599L778.692 681.964L779.864 681.744C781.012 681.524 781.524 681.109 781.524 680.206V680.182C781.524 679.059 782.428 678.302 783.453 678.302C784.503 678.302 785.309 679.107 785.309 680.157C785.309 681.207 784.454 681.988 783.453 681.988H783.111C782.672 681.988 782.354 682.257 782.354 682.794V683.404C782.354 687.604 779.962 690.948 775.47 690.948C772.76 690.948 770.709 689.459 770.709 687.042ZM803.131 694.708C808.722 694.708 813.116 691.852 813.116 686.407C813.116 682.599 810.479 680.304 805.865 679.4L801.178 678.497C798.663 678.009 797.516 677.057 797.516 675.348C797.516 673.102 799.518 671.539 802.618 671.539C805.865 671.539 807.965 673.346 808.111 676.349H812.726C812.53 671.49 809.161 667.804 802.716 667.804C796.466 667.804 792.779 671.344 792.779 675.909C792.779 679.449 794.928 681.744 799.933 682.745L804.132 683.6C807.11 684.21 808.429 685.162 808.429 687.091C808.429 689.459 806.329 690.899 803.228 690.899C799.615 690.899 797.027 689.142 796.881 685.797H792.169C792.267 691.29 796.417 694.708 803.131 694.708ZM801.471 681.109C801.471 680.206 802.276 679.449 803.131 679.449C803.961 679.449 804.767 680.206 804.767 681.109C804.767 681.988 804.01 682.745 803.18 682.745C802.325 682.745 801.471 681.988 801.471 681.109ZM818.829 694H823.321V680.938C823.321 674.811 825.763 671.588 829.767 671.588C832.965 671.588 834.723 673.443 834.723 676.788V694H839.215V676.3C839.215 671.197 836.212 667.804 831.28 667.804C827.276 667.804 824.981 669.806 823.761 673.346C823.37 674.493 822.857 675.104 821.881 675.104C820.88 675.104 820.172 674.347 820.172 673.346C820.172 672.345 820.978 671.588 821.978 671.588H822.76C823.126 671.588 823.321 671.393 823.321 671.002V658.99H818.829V694ZM853.082 694.708C856.695 694.708 859.674 692.804 861.163 690.362C861.285 691.681 861.505 692.999 861.773 694H866.534V693.292C865.826 692.706 865.533 690.24 865.533 688.092V677.008C865.533 671.197 861.92 667.804 855.768 667.804C849.664 667.804 845.587 671.441 845.416 676.349H850.128C850.323 673.346 852.52 671.539 855.768 671.539C859.43 671.539 860.968 673.639 860.968 675.592C860.968 677.447 859.771 678.058 856.817 678.546L852.765 679.205C847.979 679.986 844.732 682.306 844.732 687.188C844.732 691.852 848.37 694.708 853.082 694.708ZM849.42 687.042C849.42 684.552 850.934 683.233 854.181 682.599L857.403 681.964L858.575 681.744C859.723 681.524 860.235 681.109 860.235 680.206V680.182C860.235 679.059 861.139 678.302 862.164 678.302C863.214 678.302 864.02 679.107 864.02 680.157C864.02 681.207 863.165 681.988 862.164 681.988H861.822C861.383 681.988 861.065 682.257 861.065 682.794V683.404C861.065 687.604 858.673 690.948 854.181 690.948C851.471 690.948 849.42 689.459 849.42 687.042ZM884.405 694.708C890.948 694.708 894.952 689.386 894.952 681.256C894.952 673.102 891.241 667.804 884.845 667.804C882.232 667.804 880.23 668.878 878.888 670.709C878.351 671.417 877.936 672.223 877.594 673.15C877.203 674.249 876.69 675.006 875.689 675.006C874.688 675.006 873.907 674.249 873.907 673.248C873.907 672.247 874.688 671.49 875.689 671.49H876.324C876.812 671.49 877.081 671.197 877.081 670.709V658.99H872.589V694H876.935V690.216C878.497 693.268 881.183 694.708 884.405 694.708ZM877.105 681.305C877.105 675.665 879.449 671.612 883.746 671.612C888.043 671.612 890.24 675.665 890.24 681.305C890.24 686.944 888.043 690.899 883.746 690.899C879.449 690.899 877.105 686.944 877.105 681.305ZM900.811 694H905.304V658.99H900.811V694ZM922.735 694.708C928.985 694.708 932.94 690.948 933.502 685.504H928.936C928.448 688.995 926.153 690.899 923.053 690.899C919.146 690.899 916.192 688.36 915.851 682.794C915.802 682.208 915.533 682.062 915.045 682.062H914.654C913.702 682.062 912.994 681.354 912.994 680.401C912.994 679.449 913.702 678.741 914.654 678.741H915.045C915.631 678.741 915.948 678.546 916.046 678.009C916.803 673.81 919.293 671.588 922.686 671.588C926.349 671.588 928.546 673.883 928.863 678.692H917.73C916.681 678.692 915.899 679.498 915.899 680.499C915.899 681.5 916.681 682.306 917.73 682.306H933.648V680.792C933.648 672.394 929.254 667.804 922.735 667.804C916.095 667.804 911.139 673.004 911.139 681.207C911.139 690.46 916.095 694.708 922.735 694.708Z" fill="#302112"/>
<path d="M509.87 896H529.718V891.85H515.68C515.216 891.85 514.972 892.094 514.972 892.558V892.899C514.972 893.998 514.069 894.853 513.019 894.853C511.92 894.853 511.066 893.998 511.066 892.899C511.066 891.85 511.92 890.946 513.019 890.946H513.678C514.215 890.946 514.459 890.653 514.459 890.141V860.99H509.87V896ZM543.439 896.708C550.348 896.708 554.84 891.435 554.84 883.231C554.84 875.028 550.348 869.804 543.439 869.804C536.53 869.804 532.038 875.028 532.038 883.231C532.038 891.435 536.53 896.708 543.439 896.708ZM532.746 883.256C532.746 882.353 533.454 881.596 534.381 881.596C535.285 881.596 536.041 882.353 536.041 883.256C536.041 884.208 535.285 884.892 534.381 884.892C533.454 884.892 532.746 884.208 532.746 883.256ZM536.749 883.231C536.749 877.079 539.24 873.612 543.439 873.612C547.638 873.612 550.128 877.079 550.128 883.231C550.128 889.384 547.638 892.899 543.439 892.899C539.24 892.899 536.749 889.384 536.749 883.231ZM550.836 883.256C550.836 882.353 551.544 881.596 552.496 881.596C553.4 881.596 554.132 882.353 554.132 883.256C554.132 884.208 553.4 884.892 552.496 884.892C551.544 884.892 550.836 884.208 550.836 883.256ZM565.265 896H569.66L575.836 875.395L581.72 896H586.115L593.488 870.512H589.191L584.577 887.187C584.503 887.431 584.479 887.553 584.479 887.724C584.479 887.919 584.552 888.09 584.772 888.285L585.089 888.578C585.504 888.969 585.724 889.481 585.724 889.97C585.724 891.02 584.918 891.825 583.869 891.825C582.819 891.825 582.013 891.02 582.013 889.97C582.013 889.481 582.233 888.969 582.623 888.578L582.965 888.236C583.136 888.065 583.234 887.943 583.234 887.699C583.234 887.528 583.185 887.357 583.112 887.113L578.375 870.512H573.346L568.341 887.211C568.292 887.406 568.244 887.577 568.244 887.724C568.244 887.919 568.317 888.09 568.537 888.285L568.854 888.578C569.269 888.969 569.489 889.481 569.489 889.97C569.489 891.02 568.683 891.825 567.633 891.825C566.583 891.825 565.778 891.02 565.778 889.97C565.778 889.481 565.997 888.969 566.388 888.578L566.73 888.236C566.901 888.065 566.998 887.943 566.998 887.699C566.998 887.528 566.95 887.357 566.876 887.113L562.433 870.512H557.843L565.265 896ZM504.987 941.708C513.947 941.708 519.538 934.311 519.538 923.495C519.538 912.753 513.849 905.307 504.987 905.307C496.149 905.307 490.436 912.704 490.436 923.495C490.436 934.311 496.1 941.708 504.987 941.708ZM491.071 923.495C491.071 922.494 491.876 921.688 492.877 921.688C493.878 921.688 494.684 922.494 494.684 923.495C494.684 924.496 493.878 925.302 492.877 925.302C491.876 925.302 491.071 924.496 491.071 923.495ZM495.246 923.495C495.246 914.706 499.054 909.506 504.987 909.506C510.944 909.506 514.752 914.706 514.752 923.495C514.752 932.357 510.944 937.509 504.987 937.509C499.054 937.509 495.246 932.309 495.246 923.495ZM515.314 923.495C515.314 922.494 516.12 921.688 517.121 921.688C518.121 921.688 518.927 922.494 518.927 923.495C518.927 924.496 518.121 925.302 517.121 925.302C516.12 925.302 515.314 924.496 515.314 923.495ZM542.096 905.99V917.709C542.096 918.197 542.365 918.49 542.853 918.49H543.488C544.489 918.49 545.27 919.247 545.27 920.248C545.27 921.249 544.489 922.006 543.488 922.006C542.487 922.006 541.974 921.249 541.583 920.15C541.022 918.637 540.314 917.465 539.386 916.586C538.165 915.39 536.579 914.804 534.625 914.804C528.131 914.804 524.225 920.175 524.225 928.305C524.225 936.435 528.009 941.708 534.625 941.708C537.946 941.708 540.729 940.072 542.243 937.143V941H546.588V905.99H542.096ZM528.937 928.207C528.937 922.567 531.134 918.588 535.431 918.588C539.728 918.588 542.072 922.567 542.072 928.207C542.072 933.847 539.728 937.899 535.431 937.899C531.134 937.899 528.937 933.847 528.937 928.207ZM563.849 941.708C570.758 941.708 575.25 936.435 575.25 928.231C575.25 920.028 570.758 914.804 563.849 914.804C556.94 914.804 552.448 920.028 552.448 928.231C552.448 936.435 556.94 941.708 563.849 941.708ZM553.156 928.256C553.156 927.353 553.864 926.596 554.791 926.596C555.695 926.596 556.452 927.353 556.452 928.256C556.452 929.208 555.695 929.892 554.791 929.892C553.864 929.892 553.156 929.208 553.156 928.256ZM557.16 928.231C557.16 922.079 559.65 918.612 563.849 918.612C568.048 918.612 570.538 922.079 570.538 928.231C570.538 934.384 568.048 937.899 563.849 937.899C559.65 937.899 557.16 934.384 557.16 928.231ZM571.246 928.256C571.246 927.353 571.955 926.596 572.907 926.596C573.81 926.596 574.542 927.353 574.542 928.256C574.542 929.208 573.81 929.892 572.907 929.892C571.955 929.892 571.246 929.208 571.246 928.256ZM589.044 941.708C592.951 941.708 595.05 939.56 596.295 936.142C596.71 934.994 597.199 934.408 598.2 934.408C599.201 934.408 599.909 935.141 599.909 936.142C599.909 937.143 599.103 937.899 598.102 937.899H597.296C596.954 937.899 596.759 938.095 596.759 938.51V941H601.251V915.512H596.759V928.793C596.759 934.652 594.318 937.899 590.412 937.899C587.067 937.899 585.358 935.946 585.358 932.699V915.512H580.866V933.212C580.866 938.607 583.966 941.708 589.044 941.708ZM608.527 941H613.019V927.841C613.019 922.055 615.827 919.394 620.026 919.394C620.661 919.394 621.222 919.442 621.857 919.589V915.097C621.564 915.048 621.124 914.999 620.661 914.999C617.999 914.999 616.046 915.951 614.777 917.66C614.215 918.417 613.776 919.32 613.458 920.346C613.165 921.347 612.677 922.104 611.725 922.104C610.724 922.104 610.016 921.347 610.016 920.346C610.016 919.296 610.871 918.588 611.823 918.588H612.457C612.775 918.588 613.019 918.295 613.019 918.051V915.512H608.527V941Z" fill="#302112"/>
</svg>
