<svg width="2000" height="2000" viewBox="0 0 2000 2000" fill="none" xmlns="http://www.w3.org/2000/svg">
<circle cx="1000" cy="1000" r="999.726" stroke="#302112" stroke-width="0.54768"/>
<path d="M1291.58 1658.22C1291.76 1661.47 1291.88 1664.73 1291.94 1668.01L1291.44 1668.02C1291.47 1669.66 1291.49 1671.3 1291.49 1672.94C1291.49 1674.58 1291.47 1676.22 1291.44 1677.85L1291.94 1677.86C1291.88 1681.14 1291.76 1684.41 1291.58 1687.66L1291.08 1687.63C1290.89 1690.9 1290.65 1694.16 1290.35 1697.4L1290.84 1697.45C1290.54 1700.72 1290.17 1703.97 1289.74 1707.2L1289.25 1707.14C1288.82 1710.38 1288.33 1713.61 1287.78 1716.82L1288.27 1716.9C1287.72 1720.13 1287.11 1723.34 1286.43 1726.53L1285.95 1726.43C1285.27 1729.63 1284.54 1732.82 1283.75 1735.98L1284.23 1736.1C1283.43 1739.28 1282.58 1742.44 1281.66 1745.57L1281.18 1745.43C1280.27 1748.57 1279.29 1751.69 1278.26 1754.78L1278.74 1754.94C1277.7 1758.04 1276.61 1761.13 1275.46 1764.18L1274.99 1764C1273.84 1767.06 1272.63 1770.1 1271.37 1773.1L1271.83 1773.3C1270.56 1776.32 1269.24 1779.31 1267.86 1782.27L1267.4 1782.06C1266.02 1785.02 1264.59 1787.96 1263.1 1790.86L1263.55 1791.09C1262.05 1794 1260.51 1796.88 1258.91 1799.73L1258.47 1799.49C1256.87 1802.33 1255.22 1805.15 1253.52 1807.93L1253.94 1808.19C1252.23 1810.99 1250.47 1813.74 1248.66 1816.47L1248.25 1816.19C1246.44 1818.91 1244.58 1821.59 1242.67 1824.24L1243.08 1824.53C1241.17 1827.19 1239.2 1829.81 1237.19 1832.39L1236.8 1832.08C1234.79 1834.66 1232.74 1837.19 1230.64 1839.69L1231.02 1840.01C1228.92 1842.52 1226.77 1844.98 1224.57 1847.41L1224.2 1847.07C1222.01 1849.49 1219.77 1851.87 1217.49 1854.2L1217.84 1854.55C1215.56 1856.89 1213.23 1859.19 1210.86 1861.44L1210.52 1861.08C1208.15 1863.33 1205.74 1865.54 1203.29 1867.7L1203.62 1868.07C1201.17 1870.24 1198.68 1872.35 1196.15 1874.43L1195.83 1874.04C1193.3 1876.11 1190.74 1878.13 1188.14 1880.1L1188.44 1880.5C1185.84 1882.47 1183.19 1884.4 1180.51 1886.28L1180.23 1885.87C1177.55 1887.74 1174.85 1889.57 1172.1 1891.35L1172.38 1891.76C1169.63 1893.54 1166.85 1895.27 1164.04 1896.94L1163.78 1896.51C1160.98 1898.18 1158.15 1899.8 1155.28 1901.37L1155.52 1901.81C1152.65 1903.37 1149.75 1904.89 1146.82 1906.35L1146.6 1905.9C1143.68 1907.36 1140.74 1908.76 1137.76 1910.11L1137.96 1910.57C1134.99 1911.92 1131.98 1913.21 1128.95 1914.45L1128.76 1913.99C1125.74 1915.23 1122.7 1916.41 1119.63 1917.53L1119.8 1918C1116.73 1919.12 1113.64 1920.19 1110.53 1921.2L1110.37 1920.73C1107.28 1921.73 1104.15 1922.68 1101.01 1923.57L1101.14 1924.05C1098 1924.95 1094.84 1925.78 1091.65 1926.56L1091.53 1926.07C1088.37 1926.84 1085.18 1927.56 1081.97 1928.22L1082.07 1928.71C1078.88 1929.36 1075.67 1929.96 1072.43 1930.49L1072.35 1930C1069.14 1930.54 1065.91 1931.01 1062.66 1931.43L1062.73 1931.93C1059.49 1932.34 1056.24 1932.7 1052.97 1933L1052.92 1932.5C1049.68 1932.8 1046.42 1933.04 1043.15 1933.21L1043.18 1933.71C1039.93 1933.89 1036.66 1934.01 1033.38 1934.07L1033.37 1933.57C1031.74 1933.6 1030.1 1933.61 1028.46 1933.61C1026.82 1933.61 1025.18 1933.6 1023.54 1933.57L1023.53 1934.07C1020.26 1934.01 1016.99 1933.89 1013.74 1933.71L1013.77 1933.21C1010.49 1933.04 1007.24 1932.8 1003.99 1932.5L1003.95 1933C1000.68 1932.7 997.425 1932.34 994.19 1931.93L994.254 1931.43C991.006 1931.01 987.777 1930.54 984.568 1930L984.486 1930.49C981.253 1929.96 978.039 1929.36 974.847 1928.71L974.948 1928.22C971.738 1927.56 968.55 1926.84 965.385 1926.07L965.266 1926.56C962.08 1925.78 958.916 1924.95 955.776 1924.05L955.912 1923.57C952.765 1922.68 949.642 1921.73 946.544 1920.73L946.39 1921.2C943.274 1920.19 940.183 1919.12 937.119 1918L937.291 1917.53C934.219 1916.41 931.174 1915.23 928.156 1913.99L927.967 1914.45C924.934 1913.21 921.929 1911.92 918.954 1910.57L919.161 1910.11C916.183 1908.76 913.235 1907.36 910.318 1905.9L910.095 1906.35C907.165 1904.89 904.267 1903.37 901.401 1901.81L901.64 1901.37C898.772 1899.8 895.937 1898.18 893.135 1896.51L892.879 1896.94C890.066 1895.27 887.286 1893.54 884.542 1891.76L884.814 1891.35C882.071 1889.57 879.363 1887.74 876.693 1885.87L876.405 1886.28C873.726 1884.4 871.083 1882.47 868.479 1880.5L868.781 1880.1C866.178 1878.13 863.613 1876.11 861.089 1874.04L860.772 1874.43C858.239 1872.35 855.746 1870.24 853.294 1868.07L853.625 1867.7C851.176 1865.54 848.768 1863.33 846.402 1861.08L846.058 1861.44C843.687 1859.19 841.358 1856.89 839.073 1854.55L839.431 1854.2C837.15 1851.87 834.912 1849.49 832.72 1847.07L832.349 1847.41C830.153 1844.98 828.001 1842.52 825.896 1840.01L826.279 1839.69C824.179 1837.19 822.124 1834.66 820.118 1832.08L819.724 1832.39C817.714 1829.81 815.753 1827.19 813.84 1824.53L814.246 1824.24C812.338 1821.59 810.48 1818.91 808.671 1816.19L808.255 1816.47C806.444 1813.74 804.684 1810.99 802.975 1808.19L803.401 1807.93C801.699 1805.15 800.047 1802.33 798.448 1799.49L798.012 1799.73C796.413 1796.88 794.866 1794 793.372 1791.09L793.817 1790.86C792.329 1787.96 790.895 1785.02 789.515 1782.06L789.062 1782.27C787.682 1779.31 786.357 1776.32 785.087 1773.3L785.548 1773.1C784.285 1770.1 783.077 1767.06 781.926 1764L781.458 1764.18C780.308 1761.13 779.215 1758.04 778.179 1754.94L778.654 1754.78C777.623 1751.69 776.65 1748.57 775.734 1745.43L775.254 1745.57C774.34 1742.44 773.484 1739.28 772.687 1736.1L773.172 1735.98C772.38 1732.82 771.647 1729.63 770.972 1726.43L770.483 1726.53C769.812 1723.34 769.2 1720.13 768.647 1716.9L769.14 1716.82C768.591 1713.61 768.102 1710.38 767.673 1707.14L767.177 1707.2C766.749 1703.97 766.382 1700.72 766.075 1697.45L766.572 1697.4C766.268 1694.16 766.024 1690.9 765.84 1687.63L765.341 1687.66C765.159 1684.41 765.037 1681.14 764.976 1677.86L765.475 1677.85C765.445 1676.22 765.43 1674.58 765.43 1672.94C765.43 1671.3 765.445 1669.66 765.476 1668.02L764.976 1668.01C765.037 1664.73 765.159 1661.47 765.341 1658.22L765.84 1658.25C766.024 1654.97 766.268 1651.72 766.572 1648.48L766.075 1648.43C766.382 1645.16 766.75 1641.91 767.177 1638.68L767.673 1638.74C768.102 1635.49 768.591 1632.27 769.14 1629.06L768.647 1628.98C769.2 1625.74 769.812 1622.53 770.483 1619.34L770.973 1619.45C771.647 1616.24 772.38 1613.06 773.172 1609.9L772.687 1609.78C773.484 1606.6 774.341 1603.44 775.254 1600.31L775.734 1600.45C776.65 1597.3 777.623 1594.19 778.654 1591.1L778.179 1590.94C779.215 1587.83 780.308 1584.75 781.458 1581.7L781.926 1581.87C783.077 1578.81 784.285 1575.78 785.548 1572.77L785.087 1572.58C786.357 1569.56 787.682 1566.57 789.062 1563.6L789.515 1563.82C790.895 1560.85 792.329 1557.92 793.817 1555.02L793.372 1554.79C794.866 1551.88 796.413 1549 798.012 1546.15L798.448 1546.39C800.047 1543.54 801.699 1540.73 803.401 1537.94L802.975 1537.68C804.684 1534.89 806.444 1532.13 808.255 1529.41L808.671 1529.69C810.48 1526.97 812.338 1524.28 814.246 1521.63L813.84 1521.34C815.753 1518.69 817.714 1516.07 819.724 1513.49L820.118 1513.8C822.125 1511.22 824.179 1508.68 826.279 1506.18L825.896 1505.86C828.001 1503.36 830.153 1500.89 832.349 1498.47L832.72 1498.81C834.912 1496.39 837.15 1494.01 839.431 1491.67L839.073 1491.32C841.358 1488.98 843.687 1486.69 846.058 1484.43L846.402 1484.79C848.768 1482.55 851.176 1480.34 853.625 1478.18L853.294 1477.8C855.746 1475.64 858.239 1473.52 860.772 1471.45L861.089 1471.84C863.614 1469.77 866.178 1467.75 868.781 1465.78L868.479 1465.38C871.083 1463.4 873.726 1461.47 876.406 1459.6L876.693 1460.01C879.363 1458.13 882.071 1456.31 884.814 1454.53L884.542 1454.11C887.286 1452.34 890.066 1450.61 892.879 1448.93L893.135 1449.36C895.937 1447.69 898.772 1446.07 901.641 1444.51L901.401 1444.07C904.267 1442.5 907.165 1440.99 910.095 1439.52L910.318 1439.97C913.235 1438.52 916.183 1437.11 919.161 1435.76L918.954 1435.31C921.929 1433.96 924.934 1432.66 927.967 1431.42L928.157 1431.89C931.174 1430.65 934.219 1429.47 937.291 1428.35L937.12 1427.88C940.183 1426.75 943.274 1425.69 946.39 1424.68L946.544 1425.15C949.642 1424.15 952.765 1423.2 955.912 1422.3L955.776 1421.82C958.916 1420.93 962.08 1420.1 965.267 1419.32L965.385 1419.8C968.55 1419.03 971.738 1418.32 974.948 1417.66L974.847 1417.17C978.04 1416.52 981.253 1415.92 984.486 1415.38L984.568 1415.87C987.778 1415.34 991.007 1414.86 994.254 1414.45L994.19 1413.95C997.425 1413.53 1000.68 1413.18 1003.95 1412.88L1003.99 1413.37C1007.24 1413.08 1010.49 1412.84 1013.77 1412.66L1013.74 1412.16C1016.99 1411.98 1020.26 1411.87 1023.53 1411.81L1023.54 1412.31C1025.18 1412.28 1026.82 1412.26 1028.46 1412.26C1030.1 1412.26 1031.74 1412.28 1033.37 1412.31L1033.38 1411.81C1036.66 1411.87 1039.93 1411.98 1043.18 1412.16L1043.15 1412.66C1046.42 1412.84 1049.68 1413.08 1052.92 1413.37L1052.97 1412.88C1056.24 1413.18 1059.49 1413.53 1062.73 1413.95L1062.66 1414.45C1065.91 1414.86 1069.14 1415.34 1072.35 1415.87L1072.43 1415.38C1075.67 1415.92 1078.88 1416.52 1082.07 1417.17L1081.97 1417.66C1085.18 1418.32 1088.37 1419.03 1091.53 1419.8L1091.65 1419.32C1094.84 1420.1 1098 1420.93 1101.14 1421.82L1101.01 1422.3C1104.15 1423.2 1107.28 1424.15 1110.37 1425.15L1110.53 1424.68C1113.64 1425.69 1116.74 1426.75 1119.8 1427.88L1119.63 1428.35C1122.7 1429.47 1125.74 1430.65 1128.76 1431.89L1128.95 1431.42C1131.98 1432.66 1134.99 1433.96 1137.96 1435.31L1137.76 1435.76C1140.74 1437.11 1143.68 1438.52 1146.6 1439.97L1146.82 1439.52C1149.75 1440.99 1152.65 1442.5 1155.52 1444.07L1155.28 1444.51C1158.15 1446.07 1160.98 1447.69 1163.78 1449.36L1164.04 1448.93C1166.85 1450.61 1169.63 1452.34 1172.38 1454.11L1172.1 1454.53C1174.85 1456.31 1177.55 1458.13 1180.23 1460.01L1180.51 1459.6C1183.19 1461.48 1185.84 1463.4 1188.44 1465.38L1188.14 1465.78C1190.74 1467.75 1193.3 1469.77 1195.83 1471.84L1196.15 1471.45C1198.68 1473.52 1201.17 1475.64 1203.62 1477.8L1203.29 1478.18C1205.74 1480.34 1208.15 1482.55 1210.52 1484.79L1210.86 1484.43C1213.23 1486.69 1215.56 1488.98 1217.85 1491.32L1217.49 1491.67C1219.77 1494.01 1222.01 1496.39 1224.2 1498.81L1224.57 1498.47C1226.77 1500.89 1228.92 1503.36 1231.02 1505.86L1230.64 1506.18C1232.74 1508.68 1234.79 1511.22 1236.8 1513.8L1237.19 1513.49C1239.2 1516.07 1241.17 1518.69 1243.08 1521.34L1242.67 1521.63C1244.58 1524.28 1246.44 1526.97 1248.25 1529.69L1248.66 1529.41C1250.47 1532.13 1252.23 1534.89 1253.94 1537.68L1253.52 1537.94C1255.22 1540.73 1256.87 1543.54 1258.47 1546.39L1258.91 1546.15C1260.51 1549 1262.05 1551.88 1263.55 1554.79L1263.1 1555.02C1264.59 1557.92 1266.02 1560.85 1267.4 1563.82L1267.86 1563.61C1269.24 1566.57 1270.56 1569.56 1271.83 1572.58L1271.37 1572.77C1272.63 1575.78 1273.84 1578.81 1274.99 1581.87L1275.46 1581.7C1276.61 1584.75 1277.7 1587.83 1278.74 1590.94L1278.26 1591.1C1279.29 1594.19 1280.27 1597.3 1281.18 1600.45L1281.66 1600.31C1282.58 1603.44 1283.43 1606.6 1284.23 1609.78L1283.75 1609.9C1284.54 1613.06 1285.27 1616.24 1285.95 1619.45L1286.43 1619.34C1287.11 1622.53 1287.72 1625.75 1288.27 1628.98L1287.78 1629.06C1288.33 1632.27 1288.82 1635.49 1289.25 1638.74L1289.74 1638.68C1290.17 1641.91 1290.54 1645.16 1290.84 1648.43L1290.35 1648.48C1290.65 1651.72 1290.89 1654.97 1291.08 1658.25L1291.58 1658.22Z" stroke="#302112" stroke-dasharray="10 10"/>
<circle cx="524.697" cy="1442.35" r="241.853" stroke="#302112" stroke-dasharray="10 10"/>
<path d="M478.77 1442H486.333L500.395 1397.19H494.458L483.708 1432.78C483.52 1433.38 483.583 1433.81 483.958 1434.19L484.333 1434.56C484.864 1435.09 485.176 1435.78 485.176 1436.5C485.176 1437.91 484.145 1439 482.676 1439C481.208 1439 480.176 1437.91 480.176 1436.5C480.176 1435.78 480.489 1435.09 481.083 1434.5L481.458 1434.12C481.833 1433.75 481.801 1433.28 481.645 1432.72L471.333 1397.19H465.145L478.77 1442ZM522.239 1442.91C533.708 1442.91 540.864 1433.44 540.864 1419.59C540.864 1405.84 533.583 1396.31 522.239 1396.31C510.926 1396.31 503.614 1405.78 503.614 1419.59C503.614 1433.44 510.864 1442.91 522.239 1442.91ZM504.426 1419.59C504.426 1418.31 505.458 1417.28 506.739 1417.28C508.02 1417.28 509.051 1418.31 509.051 1419.59C509.051 1420.88 508.02 1421.91 506.739 1421.91C505.458 1421.91 504.426 1420.88 504.426 1419.59ZM509.77 1419.59C509.77 1408.34 514.645 1401.69 522.239 1401.69C529.864 1401.69 534.739 1408.34 534.739 1419.59C534.739 1430.94 529.864 1437.53 522.239 1437.53C514.645 1437.53 509.77 1430.88 509.77 1419.59ZM535.458 1419.59C535.458 1418.31 536.489 1417.28 537.77 1417.28C539.051 1417.28 540.083 1418.31 540.083 1419.59C540.083 1420.88 539.051 1421.91 537.77 1421.91C536.489 1421.91 535.458 1420.88 535.458 1419.59ZM566.52 1442.91C575.989 1442.91 582.895 1437.47 583.801 1427.09H577.708C576.958 1433.81 572.645 1437.41 567.083 1437.41C558.645 1437.41 553.395 1431 553.395 1419.59C553.395 1408.22 558.52 1401.69 566.645 1401.69C572.645 1401.69 577.208 1405.06 577.958 1412.12H583.864C583.27 1401.88 575.989 1396.31 566.833 1396.31C554.801 1396.31 547.239 1405.47 547.239 1419.84C547.239 1434.38 555.051 1442.91 566.52 1442.91ZM548.051 1419.59C548.051 1418.31 549.083 1417.28 550.364 1417.28C551.645 1417.28 552.676 1418.31 552.676 1419.59C552.676 1420.88 551.645 1421.91 550.364 1421.91C549.083 1421.91 548.051 1420.88 548.051 1419.59ZM467.614 1500H473.489V1480.41C473.489 1480.03 473.114 1479.66 472.676 1479.66H471.645C470.239 1479.66 469.145 1478.56 469.145 1477.22C469.145 1475.81 470.239 1474.66 471.645 1474.66H472.676C473.114 1474.66 473.489 1474.28 473.489 1473.88V1462.75C473.489 1462.38 473.114 1461.97 472.676 1461.97H471.645C470.239 1461.97 469.145 1460.84 469.145 1459.5C469.145 1458.09 470.239 1457 471.645 1457C472.989 1457 474.145 1458.09 474.145 1459.5V1459.88C474.145 1460.25 474.52 1460.62 474.926 1460.62H495.458V1455.19H467.614V1500ZM472.614 1477.22C472.614 1478.62 473.77 1479.78 475.301 1479.78H493.395V1474.53H475.301C473.77 1474.53 472.614 1475.75 472.614 1477.22ZM500.708 1500H506.458V1483.16C506.458 1475.75 510.051 1472.34 515.426 1472.34C516.239 1472.34 516.958 1472.41 517.77 1472.59V1466.84C517.395 1466.78 516.833 1466.72 516.239 1466.72C512.833 1466.72 510.333 1467.94 508.708 1470.12C507.989 1471.09 507.426 1472.25 507.02 1473.56C506.645 1474.84 506.02 1475.81 504.801 1475.81C503.52 1475.81 502.614 1474.84 502.614 1473.56C502.614 1472.22 503.708 1471.31 504.926 1471.31H505.739C506.145 1471.31 506.458 1470.94 506.458 1470.62V1467.38H500.708V1500ZM536.583 1500.91C544.583 1500.91 549.645 1496.09 550.364 1489.12H544.52C543.895 1493.59 540.958 1496.03 536.989 1496.03C531.989 1496.03 528.208 1492.78 527.77 1485.66C527.708 1484.91 527.364 1484.72 526.739 1484.72H526.239C525.02 1484.72 524.114 1483.81 524.114 1482.59C524.114 1481.38 525.02 1480.47 526.239 1480.47H526.739C527.489 1480.47 527.895 1480.22 528.02 1479.53C528.989 1474.16 532.176 1471.31 536.52 1471.31C541.208 1471.31 544.02 1474.25 544.426 1480.41H530.176C528.833 1480.41 527.833 1481.44 527.833 1482.72C527.833 1484 528.833 1485.03 530.176 1485.03H550.551V1483.09C550.551 1472.34 544.926 1466.47 536.583 1466.47C528.083 1466.47 521.739 1473.12 521.739 1483.62C521.739 1495.47 528.083 1500.91 536.583 1500.91ZM571.145 1500.91C579.145 1500.91 584.208 1496.09 584.926 1489.12H579.083C578.458 1493.59 575.52 1496.03 571.551 1496.03C566.551 1496.03 562.77 1492.78 562.333 1485.66C562.27 1484.91 561.926 1484.72 561.301 1484.72H560.801C559.583 1484.72 558.676 1483.81 558.676 1482.59C558.676 1481.38 559.583 1480.47 560.801 1480.47H561.301C562.051 1480.47 562.458 1480.22 562.583 1479.53C563.551 1474.16 566.739 1471.31 571.083 1471.31C575.77 1471.31 578.583 1474.25 578.989 1480.41H564.739C563.395 1480.41 562.395 1481.44 562.395 1482.72C562.395 1484 563.395 1485.03 564.739 1485.03H585.114V1483.09C585.114 1472.34 579.489 1466.47 571.145 1466.47C562.645 1466.47 556.301 1473.12 556.301 1483.62C556.301 1495.47 562.645 1500.91 571.145 1500.91Z" fill="#302112"/>
<circle cx="1534.33" cy="1254.12" r="354.794" stroke="#302112" stroke-dasharray="10 10"/>
<path d="M1408.05 1276H1416.3L1423.89 1241.31C1423.99 1240.91 1424.05 1240.56 1423.67 1240.19L1423.02 1239.53C1422.52 1239.03 1422.27 1238.41 1422.27 1237.75C1422.27 1236.31 1423.39 1235.25 1424.77 1235.25C1426.14 1235.25 1427.27 1236.31 1427.27 1237.75C1427.27 1238.41 1427.05 1239 1426.52 1239.53L1425.77 1240.25C1425.42 1240.59 1425.42 1240.88 1425.52 1241.38L1432.11 1276H1440.83L1451.11 1231.19H1445.17L1437.55 1265.34C1437.42 1265.91 1437.46 1266.22 1437.83 1266.59L1438.36 1267.12C1438.86 1267.62 1439.17 1268.22 1439.17 1268.97C1439.17 1270.38 1438.05 1271.47 1436.67 1271.47C1435.3 1271.47 1434.17 1270.38 1434.17 1268.97C1434.17 1268.22 1434.46 1267.66 1434.99 1267.12L1435.52 1266.59C1435.83 1266.28 1435.89 1265.91 1435.77 1265.44L1428.99 1231.19H1420.8L1413.11 1265.44C1413.02 1265.81 1412.99 1266.22 1413.36 1266.59L1413.89 1267.12C1414.42 1267.66 1414.71 1268.22 1414.71 1268.97C1414.71 1270.38 1413.58 1271.47 1412.21 1271.47C1410.83 1271.47 1409.71 1270.38 1409.71 1268.97C1409.71 1268.22 1410.02 1267.62 1410.52 1267.12L1411.05 1266.59C1411.42 1266.22 1411.46 1265.91 1411.33 1265.34L1404.21 1231.19H1398.21L1408.05 1276ZM1464.11 1276.91C1468.74 1276.91 1472.55 1274.47 1474.46 1271.34C1474.61 1273.03 1474.89 1274.72 1475.24 1276H1481.33V1275.09C1480.42 1274.34 1480.05 1271.19 1480.05 1268.44V1254.25C1480.05 1246.81 1475.42 1242.47 1467.55 1242.47C1459.74 1242.47 1454.52 1247.12 1454.3 1253.41H1460.33C1460.58 1249.56 1463.39 1247.25 1467.55 1247.25C1472.24 1247.25 1474.21 1249.94 1474.21 1252.44C1474.21 1254.81 1472.67 1255.59 1468.89 1256.22L1463.71 1257.06C1457.58 1258.06 1453.42 1261.03 1453.42 1267.28C1453.42 1273.25 1458.08 1276.91 1464.11 1276.91ZM1459.42 1267.09C1459.42 1263.91 1461.36 1262.22 1465.52 1261.41L1469.64 1260.59L1471.14 1260.31C1472.61 1260.03 1473.27 1259.5 1473.27 1258.34V1258.31C1473.27 1256.88 1474.42 1255.91 1475.74 1255.91C1477.08 1255.91 1478.11 1256.94 1478.11 1258.28C1478.11 1259.62 1477.02 1260.62 1475.74 1260.62H1475.3C1474.74 1260.62 1474.33 1260.97 1474.33 1261.66V1262.44C1474.33 1267.81 1471.27 1272.09 1465.52 1272.09C1462.05 1272.09 1459.42 1270.19 1459.42 1267.09ZM1500.92 1276.91C1508.08 1276.91 1513.71 1273.25 1513.71 1266.28C1513.71 1261.41 1510.33 1258.47 1504.42 1257.31L1498.42 1256.16C1495.21 1255.53 1493.74 1254.31 1493.74 1252.12C1493.74 1249.25 1496.3 1247.25 1500.27 1247.25C1504.42 1247.25 1507.11 1249.56 1507.3 1253.41H1513.21C1512.96 1247.19 1508.64 1242.47 1500.39 1242.47C1492.39 1242.47 1487.67 1247 1487.67 1252.84C1487.67 1257.38 1490.42 1260.31 1496.83 1261.59L1502.21 1262.69C1506.02 1263.47 1507.71 1264.69 1507.71 1267.16C1507.71 1270.19 1505.02 1272.03 1501.05 1272.03C1496.42 1272.03 1493.11 1269.78 1492.92 1265.5H1486.89C1487.02 1272.53 1492.33 1276.91 1500.92 1276.91ZM1498.8 1259.5C1498.8 1258.34 1499.83 1257.38 1500.92 1257.38C1501.99 1257.38 1503.02 1258.34 1503.02 1259.5C1503.02 1260.62 1502.05 1261.59 1500.99 1261.59C1499.89 1261.59 1498.8 1260.62 1498.8 1259.5ZM1521.02 1276H1526.77V1259.28C1526.77 1251.44 1529.89 1247.31 1535.02 1247.31C1539.11 1247.31 1541.36 1249.69 1541.36 1253.97V1276H1547.11V1253.34C1547.11 1246.81 1543.27 1242.47 1536.96 1242.47C1531.83 1242.47 1528.89 1245.03 1527.33 1249.56C1526.83 1251.03 1526.17 1251.81 1524.92 1251.81C1523.64 1251.81 1522.74 1250.84 1522.74 1249.56C1522.74 1248.28 1523.77 1247.31 1525.05 1247.31H1526.05C1526.52 1247.31 1526.77 1247.06 1526.77 1246.56V1231.19H1521.02V1276ZM1564.86 1276.91C1569.49 1276.91 1573.3 1274.47 1575.21 1271.34C1575.36 1273.03 1575.64 1274.72 1575.99 1276H1582.08V1275.09C1581.17 1274.34 1580.8 1271.19 1580.8 1268.44V1254.25C1580.8 1246.81 1576.17 1242.47 1568.3 1242.47C1560.49 1242.47 1555.27 1247.12 1555.05 1253.41H1561.08C1561.33 1249.56 1564.14 1247.25 1568.3 1247.25C1572.99 1247.25 1574.96 1249.94 1574.96 1252.44C1574.96 1254.81 1573.42 1255.59 1569.64 1256.22L1564.46 1257.06C1558.33 1258.06 1554.17 1261.03 1554.17 1267.28C1554.17 1273.25 1558.83 1276.91 1564.86 1276.91ZM1560.17 1267.09C1560.17 1263.91 1562.11 1262.22 1566.27 1261.41L1570.39 1260.59L1571.89 1260.31C1573.36 1260.03 1574.02 1259.5 1574.02 1258.34V1258.31C1574.02 1256.88 1575.17 1255.91 1576.49 1255.91C1577.83 1255.91 1578.86 1256.94 1578.86 1258.28C1578.86 1259.62 1577.77 1260.62 1576.49 1260.62H1576.05C1575.49 1260.62 1575.08 1260.97 1575.08 1261.66V1262.44C1575.08 1267.81 1572.02 1272.09 1566.27 1272.09C1562.8 1272.09 1560.17 1270.19 1560.17 1267.09ZM1604.96 1276.91C1613.33 1276.91 1618.46 1270.09 1618.46 1259.69C1618.46 1249.25 1613.71 1242.47 1605.52 1242.47C1602.17 1242.47 1599.61 1243.84 1597.89 1246.19C1597.21 1247.09 1596.67 1248.12 1596.24 1249.31C1595.74 1250.72 1595.08 1251.69 1593.8 1251.69C1592.52 1251.69 1591.52 1250.72 1591.52 1249.44C1591.52 1248.16 1592.52 1247.19 1593.8 1247.19H1594.61C1595.24 1247.19 1595.58 1246.81 1595.58 1246.19V1231.19H1589.83V1276H1595.39V1271.16C1597.39 1275.06 1600.83 1276.91 1604.96 1276.91ZM1595.61 1259.75C1595.61 1252.53 1598.61 1247.34 1604.11 1247.34C1609.61 1247.34 1612.42 1252.53 1612.42 1259.75C1612.42 1266.97 1609.61 1272.03 1604.11 1272.03C1598.61 1272.03 1595.61 1266.97 1595.61 1259.75ZM1625.96 1276H1631.71V1231.19H1625.96V1276ZM1654.02 1276.91C1662.02 1276.91 1667.08 1272.09 1667.8 1265.12H1661.96C1661.33 1269.59 1658.39 1272.03 1654.42 1272.03C1649.42 1272.03 1645.64 1268.78 1645.21 1261.66C1645.14 1260.91 1644.8 1260.72 1644.17 1260.72H1643.67C1642.46 1260.72 1641.55 1259.81 1641.55 1258.59C1641.55 1257.38 1642.46 1256.47 1643.67 1256.47H1644.17C1644.92 1256.47 1645.33 1256.22 1645.46 1255.53C1646.42 1250.16 1649.61 1247.31 1653.96 1247.31C1658.64 1247.31 1661.46 1250.25 1661.86 1256.41H1647.61C1646.27 1256.41 1645.27 1257.44 1645.27 1258.72C1645.27 1260 1646.27 1261.03 1647.61 1261.03H1667.99V1259.09C1667.99 1248.34 1662.36 1242.47 1654.02 1242.47C1645.52 1242.47 1639.17 1249.12 1639.17 1259.62C1639.17 1271.47 1645.52 1276.91 1654.02 1276.91Z" fill="#302112"/>
<path d="M969.546 1673H994.952V1667.69H976.983C976.39 1667.69 976.077 1668 976.077 1668.59V1669.03C976.077 1670.44 974.921 1671.53 973.577 1671.53C972.171 1671.53 971.077 1670.44 971.077 1669.03C971.077 1667.69 972.171 1666.53 973.577 1666.53H974.421C975.108 1666.53 975.421 1666.16 975.421 1665.5V1628.19H969.546V1673ZM1012.51 1673.91C1021.36 1673.91 1027.11 1667.16 1027.11 1656.66C1027.11 1646.16 1021.36 1639.47 1012.51 1639.47C1003.67 1639.47 997.921 1646.16 997.921 1656.66C997.921 1667.16 1003.67 1673.91 1012.51 1673.91ZM998.827 1656.69C998.827 1655.53 999.733 1654.56 1000.92 1654.56C1002.08 1654.56 1003.05 1655.53 1003.05 1656.69C1003.05 1657.91 1002.08 1658.78 1000.92 1658.78C999.733 1658.78 998.827 1657.91 998.827 1656.69ZM1003.95 1656.66C1003.95 1648.78 1007.14 1644.34 1012.51 1644.34C1017.89 1644.34 1021.08 1648.78 1021.08 1656.66C1021.08 1664.53 1017.89 1669.03 1012.51 1669.03C1007.14 1669.03 1003.95 1664.53 1003.95 1656.66ZM1021.98 1656.69C1021.98 1655.53 1022.89 1654.56 1024.11 1654.56C1025.26 1654.56 1026.2 1655.53 1026.2 1656.69C1026.2 1657.91 1025.26 1658.78 1024.11 1658.78C1022.89 1658.78 1021.98 1657.91 1021.98 1656.69ZM1040.45 1673H1046.08L1053.98 1646.62L1061.51 1673H1067.14L1076.58 1640.38H1071.08L1065.17 1661.72C1065.08 1662.03 1065.05 1662.19 1065.05 1662.41C1065.05 1662.66 1065.14 1662.88 1065.42 1663.12L1065.83 1663.5C1066.36 1664 1066.64 1664.66 1066.64 1665.28C1066.64 1666.62 1065.61 1667.66 1064.26 1667.66C1062.92 1667.66 1061.89 1666.62 1061.89 1665.28C1061.89 1664.66 1062.17 1664 1062.67 1663.5L1063.11 1663.06C1063.33 1662.84 1063.45 1662.69 1063.45 1662.38C1063.45 1662.16 1063.39 1661.94 1063.3 1661.62L1057.23 1640.38H1050.8L1044.39 1661.75C1044.33 1662 1044.26 1662.22 1044.26 1662.41C1044.26 1662.66 1044.36 1662.88 1044.64 1663.12L1045.05 1663.5C1045.58 1664 1045.86 1664.66 1045.86 1665.28C1045.86 1666.62 1044.83 1667.66 1043.48 1667.66C1042.14 1667.66 1041.11 1666.62 1041.11 1665.28C1041.11 1664.66 1041.39 1664 1041.89 1663.5L1042.33 1663.06C1042.55 1662.84 1042.67 1662.69 1042.67 1662.38C1042.67 1662.16 1042.61 1661.94 1042.51 1661.62L1036.83 1640.38H1030.95L1040.45 1673ZM963.296 1731.91C974.765 1731.91 981.921 1722.44 981.921 1708.59C981.921 1694.84 974.64 1685.31 963.296 1685.31C951.983 1685.31 944.671 1694.78 944.671 1708.59C944.671 1722.44 951.921 1731.91 963.296 1731.91ZM945.483 1708.59C945.483 1707.31 946.515 1706.28 947.796 1706.28C949.077 1706.28 950.108 1707.31 950.108 1708.59C950.108 1709.88 949.077 1710.91 947.796 1710.91C946.515 1710.91 945.483 1709.88 945.483 1708.59ZM950.827 1708.59C950.827 1697.34 955.702 1690.69 963.296 1690.69C970.921 1690.69 975.796 1697.34 975.796 1708.59C975.796 1719.94 970.921 1726.53 963.296 1726.53C955.702 1726.53 950.827 1719.88 950.827 1708.59ZM976.515 1708.59C976.515 1707.31 977.546 1706.28 978.827 1706.28C980.108 1706.28 981.14 1707.31 981.14 1708.59C981.14 1709.88 980.108 1710.91 978.827 1710.91C977.546 1710.91 976.515 1709.88 976.515 1708.59ZM1010.8 1686.19V1701.19C1010.8 1701.81 1011.14 1702.19 1011.76 1702.19H1012.58C1013.86 1702.19 1014.86 1703.16 1014.86 1704.44C1014.86 1705.72 1013.86 1706.69 1012.58 1706.69C1011.3 1706.69 1010.64 1705.72 1010.14 1704.31C1009.42 1702.38 1008.51 1700.88 1007.33 1699.75C1005.76 1698.22 1003.73 1697.47 1001.23 1697.47C992.921 1697.47 987.921 1704.34 987.921 1714.75C987.921 1725.16 992.765 1731.91 1001.23 1731.91C1005.48 1731.91 1009.05 1729.81 1010.98 1726.06V1731H1016.55V1686.19H1010.8ZM993.952 1714.62C993.952 1707.41 996.765 1702.31 1002.26 1702.31C1007.76 1702.31 1010.76 1707.41 1010.76 1714.62C1010.76 1721.84 1007.76 1727.03 1002.26 1727.03C996.765 1727.03 993.952 1721.84 993.952 1714.62ZM1038.64 1731.91C1047.48 1731.91 1053.23 1725.16 1053.23 1714.66C1053.23 1704.16 1047.48 1697.47 1038.64 1697.47C1029.8 1697.47 1024.05 1704.16 1024.05 1714.66C1024.05 1725.16 1029.8 1731.91 1038.64 1731.91ZM1024.95 1714.69C1024.95 1713.53 1025.86 1712.56 1027.05 1712.56C1028.2 1712.56 1029.17 1713.53 1029.17 1714.69C1029.17 1715.91 1028.2 1716.78 1027.05 1716.78C1025.86 1716.78 1024.95 1715.91 1024.95 1714.69ZM1030.08 1714.66C1030.08 1706.78 1033.26 1702.34 1038.64 1702.34C1044.01 1702.34 1047.2 1706.78 1047.2 1714.66C1047.2 1722.53 1044.01 1727.03 1038.64 1727.03C1033.26 1727.03 1030.08 1722.53 1030.08 1714.66ZM1048.11 1714.69C1048.11 1713.53 1049.01 1712.56 1050.23 1712.56C1051.39 1712.56 1052.33 1713.53 1052.33 1714.69C1052.33 1715.91 1051.39 1716.78 1050.23 1716.78C1049.01 1716.78 1048.11 1715.91 1048.11 1714.69ZM1070.89 1731.91C1075.89 1731.91 1078.58 1729.16 1080.17 1724.78C1080.7 1723.31 1081.33 1722.56 1082.61 1722.56C1083.89 1722.56 1084.8 1723.5 1084.8 1724.78C1084.8 1726.06 1083.76 1727.03 1082.48 1727.03H1081.45C1081.01 1727.03 1080.76 1727.28 1080.76 1727.81V1731H1086.51V1698.38H1080.76V1715.38C1080.76 1722.88 1077.64 1727.03 1072.64 1727.03C1068.36 1727.03 1066.17 1724.53 1066.17 1720.38V1698.38H1060.42V1721.03C1060.42 1727.94 1064.39 1731.91 1070.89 1731.91ZM1095.83 1731H1101.58V1714.16C1101.58 1706.75 1105.17 1703.34 1110.55 1703.34C1111.36 1703.34 1112.08 1703.41 1112.89 1703.59V1697.84C1112.51 1697.78 1111.95 1697.72 1111.36 1697.72C1107.95 1697.72 1105.45 1698.94 1103.83 1701.12C1103.11 1702.09 1102.55 1703.25 1102.14 1704.56C1101.76 1705.84 1101.14 1706.81 1099.92 1706.81C1098.64 1706.81 1097.73 1705.84 1097.73 1704.56C1097.73 1703.22 1098.83 1702.31 1100.05 1702.31H1100.86C1101.26 1702.31 1101.58 1701.94 1101.58 1701.62V1698.38H1095.83V1731Z" fill="#302112"/>
</svg>
