<svg width="390" height="320" viewBox="0 0 390 320" fill="none" xmlns="http://www.w3.org/2000/svg">
<circle cx="120" cy="178.794" r="3" transform="rotate(-180 120 178.794)" fill="#FF5500"/>
<circle cx="130.649" cy="178.794" r="3" transform="rotate(-180 130.649 178.794)" fill="#FF5500"/>
<circle cx="141.297" cy="178.794" r="3" transform="rotate(-180 141.297 178.794)" fill="#FF5500"/>
<circle cx="151.946" cy="178.794" r="3" transform="rotate(-180 151.946 178.794)" fill="#FF5500"/>
<circle cx="162.595" cy="178.794" r="3" transform="rotate(-180 162.595 178.794)" fill="#FF5500"/>
<circle cx="173.243" cy="178.794" r="3" transform="rotate(-180 173.243 178.794)" fill="#FF5500"/>
<circle cx="183.892" cy="178.794" r="3" transform="rotate(-180 183.892 178.794)" fill="#FF5500"/>
<circle cx="194.541" cy="178.794" r="3" transform="rotate(-180 194.541 178.794)" fill="#FF5500"/>
<circle cx="205.189" cy="178.794" r="3" transform="rotate(-180 205.189 178.794)" fill="#FF5500"/>
<circle cx="215.838" cy="178.794" r="3" transform="rotate(-180 215.838 178.794)" fill="#FF5500"/>
<circle cx="226.486" cy="178.794" r="3" transform="rotate(-180 226.486 178.794)" fill="#FF5500"/>
<circle cx="237.135" cy="178.794" r="3" transform="rotate(-180 237.135 178.794)" fill="#FF5500"/>
<circle cx="247.784" cy="178.794" r="3" transform="rotate(-180 247.784 178.794)" fill="#FF5500"/>
<circle cx="258.432" cy="178.794" r="3" transform="rotate(-180 258.432 178.794)" fill="#FF5500"/>
<circle cx="269.082" cy="179.044" r="3" transform="rotate(135.222 269.082 179.044)" fill="#FF5500"/>
<circle cx="261.446" cy="186.62" r="3" transform="rotate(135.222 261.446 186.62)" fill="#FF5500"/>
<circle cx="253.811" cy="194.197" r="3" transform="rotate(135.222 253.811 194.197)" fill="#FF5500"/>
<circle cx="246.175" cy="201.774" r="3" transform="rotate(135.222 246.175 201.774)" fill="#FF5500"/>
<circle cx="238.726" cy="209.166" r="3" transform="rotate(135.222 238.726 209.166)" fill="#FF5500"/>
<circle cx="231.09" cy="216.742" r="3" transform="rotate(135.222 231.09 216.742)" fill="#FF5500"/>
<circle cx="223.756" cy="224.02" r="3" transform="rotate(135.222 223.756 224.02)" fill="#FF5500"/>
<circle cx="270.649" cy="140.135" r="3" fill="#FF5500"/>
<circle cx="260" cy="140.135" r="3" fill="#FF5500"/>
<circle cx="249.352" cy="140.135" r="3" fill="#FF5500"/>
<circle cx="238.703" cy="140.135" r="3" fill="#FF5500"/>
<circle cx="228.054" cy="140.135" r="3" fill="#FF5500"/>
<circle cx="217.406" cy="140.135" r="3" fill="#FF5500"/>
<circle cx="206.757" cy="140.135" r="3" fill="#FF5500"/>
<circle cx="196.108" cy="140.135" r="3" fill="#FF5500"/>
<circle cx="185.46" cy="140.135" r="3" fill="#FF5500"/>
<circle cx="174.811" cy="140.135" r="3" fill="#FF5500"/>
<circle cx="164.163" cy="140.135" r="3" fill="#FF5500"/>
<circle cx="153.514" cy="140.135" r="3" fill="#FF5500"/>
<circle cx="142.865" cy="140.135" r="3" fill="#FF5500"/>
<circle cx="132.217" cy="140.135" r="3" fill="#FF5500"/>
<circle cx="121.567" cy="139.885" r="3" transform="rotate(-44.7777 121.567 139.885)" fill="#FF5500"/>
<circle cx="129.203" cy="132.309" r="3" transform="rotate(-44.7777 129.203 132.309)" fill="#FF5500"/>
<circle cx="136.838" cy="124.732" r="3" transform="rotate(-44.7777 136.838 124.732)" fill="#FF5500"/>
<circle cx="144.474" cy="117.155" r="3" transform="rotate(-44.7777 144.474 117.155)" fill="#FF5500"/>
<circle cx="151.923" cy="109.763" r="3" transform="rotate(-44.7777 151.923 109.763)" fill="#FF5500"/>
<circle cx="159.559" cy="102.187" r="3" transform="rotate(-44.7777 159.559 102.187)" fill="#FF5500"/>
<circle cx="166.893" cy="94.9093" r="3" transform="rotate(-44.7777 166.893 94.9093)" fill="#FF5500"/>
<rect x="0.5" y="0.5" width="389" height="319" rx="4.5" stroke="#E1D5C6"/>
</svg>
