<svg width="1080" height="1080" viewBox="0 0 1080 1080" fill="none" xmlns="http://www.w3.org/2000/svg">
<circle cx="540" cy="540" r="539.726" stroke="#302112" stroke-width="0.54768"/>
<ellipse cx="550.282" cy="903.387" rx="142.306" ry="141.035" fill="#E1D5C6"/>
<circle cx="278.253" cy="773.785" r="130.871" fill="#F9F4F0"/>
<path d="M216.836 762H221.208L224.417 752.815C224.592 752.332 224.46 751.958 224.087 751.827L223.516 751.607C222.571 751.255 222.065 750.311 222.373 749.366C222.747 748.355 223.691 748.003 224.768 748.355L225.164 748.509C225.625 748.641 225.933 748.355 226.064 747.959L230.591 734.864L235.073 747.959C235.205 748.421 235.557 748.641 235.974 748.509L236.567 748.311C237.512 748.003 238.303 748.267 238.721 749.3C239.116 750.354 238.589 751.343 237.644 751.651L237.139 751.827C236.699 751.958 236.567 752.332 236.743 752.815L239.885 762H244.346L233.052 730.491H228.24L216.836 762ZM224.636 750.662C224.636 751.651 225.493 752.464 226.526 752.464H234.722C235.754 752.464 236.611 751.651 236.611 750.662C236.611 749.629 235.754 748.772 234.722 748.772H226.526C225.493 748.772 224.636 749.629 224.636 750.662ZM248.213 762H252.256V750.245C252.256 744.729 254.453 741.829 258.057 741.829C260.935 741.829 262.517 743.499 262.517 746.509V762H266.56V746.07C266.56 741.478 263.857 738.423 259.419 738.423C255.815 738.423 253.75 740.225 252.651 743.411C252.3 744.444 251.838 744.993 250.959 744.993C250.059 744.993 249.421 744.312 249.421 743.411C249.421 742.51 250.146 741.829 251.047 741.829H251.75C252.08 741.829 252.256 741.653 252.256 741.302V739.061H248.213V762ZM280.688 762.439C281.589 762.439 282.292 762.352 283.193 762.132V758.814C282.622 758.946 281.985 758.99 281.523 758.99C279.788 758.99 278.557 758.309 278.557 756.111V742.378H283.611V739.061H279.238C278.887 739.061 278.645 739.28 278.645 739.676V739.852C278.645 740.84 277.898 741.609 276.953 741.609C275.964 741.609 275.195 740.84 275.195 739.852C275.195 738.907 275.964 738.16 276.953 738.16H277.986C278.337 738.16 278.557 737.918 278.557 737.566V732.337H275.327L275.195 734.6C275.02 737.742 273.833 739.061 270.867 739.061H270.471V742.378H274.514V756.375C274.514 760.879 276.997 762.439 280.688 762.439ZM288.247 762H292.29V739.061H288.247V762ZM287.961 735.171H292.554V730.491H287.961V735.171ZM298.464 750.706H310.791V747.103H298.464V750.706ZM176.384 802H180.427V790.245C180.427 784.729 182.537 781.829 185.964 781.829C188.667 781.829 190.139 783.499 190.139 786.509V802H194.204V789.366C194.204 784.4 196.533 781.829 199.829 781.829C202.51 781.829 203.916 783.499 203.916 786.509V802H207.959V786.07C207.959 781.478 205.366 778.423 200.862 778.423C197.192 778.423 194.688 780.137 193.391 782.994C192.534 780.159 190.271 778.423 187.437 778.423C184.031 778.423 181.855 780.181 180.823 783.411C180.515 784.444 180.01 784.993 179.131 784.993C178.23 784.993 177.593 784.312 177.593 783.411C177.593 782.51 178.318 781.829 179.219 781.829H179.922C180.251 781.829 180.427 781.653 180.427 781.302V779.061H176.384V802ZM223.274 802.637C229.492 802.637 233.535 797.891 233.535 790.508C233.535 783.125 229.492 778.423 223.274 778.423C217.056 778.423 213.013 783.125 213.013 790.508C213.013 797.891 217.056 802.637 223.274 802.637ZM213.65 790.53C213.65 789.717 214.287 789.036 215.122 789.036C215.935 789.036 216.616 789.717 216.616 790.53C216.616 791.387 215.935 792.002 215.122 792.002C214.287 792.002 213.65 791.387 213.65 790.53ZM217.253 790.508C217.253 784.971 219.495 781.851 223.274 781.851C227.053 781.851 229.294 784.971 229.294 790.508C229.294 796.045 227.053 799.209 223.274 799.209C219.495 799.209 217.253 796.045 217.253 790.508ZM229.932 790.53C229.932 789.717 230.569 789.036 231.426 789.036C232.239 789.036 232.898 789.717 232.898 790.53C232.898 791.387 232.239 792.002 231.426 792.002C230.569 792.002 229.932 791.387 229.932 790.53ZM245.95 802.637C249.465 802.637 251.355 800.704 252.476 797.627C252.849 796.595 253.289 796.067 254.189 796.067C255.09 796.067 255.728 796.727 255.728 797.627C255.728 798.528 255.002 799.209 254.102 799.209H253.376C253.069 799.209 252.893 799.385 252.893 799.759V802H256.936V779.061H252.893V791.014C252.893 796.287 250.696 799.209 247.18 799.209C244.17 799.209 242.632 797.452 242.632 794.529V779.061H238.589V794.991C238.589 799.847 241.379 802.637 245.95 802.637ZM263.484 802H267.527V770.491H263.484V802ZM288.862 770.491V781.038C288.862 781.478 289.104 781.741 289.543 781.741H290.115C291.016 781.741 291.719 782.422 291.719 783.323C291.719 784.224 291.016 784.905 290.115 784.905C289.214 784.905 288.752 784.224 288.401 783.235C287.896 781.873 287.258 780.818 286.423 780.027C285.325 778.951 283.896 778.423 282.139 778.423C276.294 778.423 272.778 783.257 272.778 790.574C272.778 797.891 276.184 802.637 282.139 802.637C285.127 802.637 287.632 801.165 288.994 798.528V802H292.905V770.491H288.862ZM277.019 790.486C277.019 785.411 278.997 781.829 282.864 781.829C286.731 781.829 288.84 785.411 288.84 790.486C288.84 795.562 286.731 799.209 282.864 799.209C278.997 799.209 277.019 795.562 277.019 790.486ZM299.475 802H303.518V779.061H299.475V802ZM299.189 775.171H303.782V770.491H299.189V775.171ZM310.066 802H314.109V790.245C314.109 784.729 316.306 781.829 319.91 781.829C322.788 781.829 324.37 783.499 324.37 786.509V802H328.413V786.07C328.413 781.478 325.71 778.423 321.272 778.423C317.668 778.423 315.603 780.225 314.504 783.411C314.153 784.444 313.691 784.993 312.812 784.993C311.912 784.993 311.274 784.312 311.274 783.411C311.274 782.51 312 781.829 312.9 781.829H313.604C313.933 781.829 314.109 781.653 314.109 781.302V779.061H310.066V802ZM343.333 810.723C349.573 810.723 353.638 807.12 353.638 800.506V779.061H349.617V782.269C348.232 779.764 345.837 778.423 342.827 778.423C336.982 778.423 333.511 783.191 333.511 789.849C333.511 796.507 336.938 801.187 342.783 801.187C345.596 801.187 347.31 800.22 348.254 798.638C348.606 798.111 348.87 797.474 349.133 796.727C349.485 795.738 349.902 795.079 350.891 795.079C351.792 795.079 352.451 795.694 352.451 796.639C352.451 797.583 351.704 798.221 350.803 798.221H350.254C349.858 798.221 349.573 798.484 349.573 798.946V800.704C349.573 804.878 347.463 807.317 343.508 807.317C340.498 807.317 338.323 805.999 338.103 803.252H334.016C334.104 807.669 337.51 810.723 343.333 810.723ZM337.751 789.849C337.751 785.169 339.729 781.895 343.596 781.895C347.463 781.895 349.573 785.169 349.573 789.849C349.573 794.529 347.463 797.825 343.596 797.825C339.729 797.825 337.751 794.529 337.751 789.849Z" fill="#302112"/>
<circle cx="845.639" cy="718.569" r="169.678" fill="#B6AC9E"/>
<path d="M741.301 736.957H747.746L753.679 709.857C753.752 709.54 753.801 709.271 753.508 708.979L752.995 708.466C752.604 708.075 752.409 707.587 752.409 707.074C752.409 705.951 753.288 705.121 754.362 705.121C755.436 705.121 756.315 705.951 756.315 707.074C756.315 707.587 756.145 708.051 755.729 708.466L755.144 709.027C754.875 709.296 754.875 709.516 754.948 709.906L760.1 736.957H766.911L774.943 701.947H770.305L764.348 728.632C764.25 729.071 764.274 729.315 764.567 729.608L764.982 730.023C765.373 730.414 765.617 730.878 765.617 731.464C765.617 732.562 764.738 733.417 763.664 733.417C762.59 733.417 761.711 732.562 761.711 731.464C761.711 730.878 761.931 730.438 762.346 730.023L762.761 729.608C763.005 729.364 763.054 729.071 762.956 728.705L757.658 701.947H751.262L745.256 728.705C745.183 728.998 745.158 729.315 745.451 729.608L745.866 730.023C746.281 730.438 746.501 730.878 746.501 731.464C746.501 732.562 745.622 733.417 744.548 733.417C743.474 733.417 742.595 732.562 742.595 731.464C742.595 730.878 742.839 730.414 743.229 730.023L743.645 729.608C743.937 729.315 743.962 729.071 743.864 728.632L738.298 701.947H733.61L741.301 736.957ZM785.1 737.665C788.713 737.665 791.691 735.761 793.181 733.319C793.303 734.638 793.522 735.956 793.791 736.957H798.552V736.249C797.844 735.663 797.551 733.197 797.551 731.049V719.965C797.551 714.154 793.937 710.761 787.785 710.761C781.682 710.761 777.604 714.398 777.434 719.306H782.145C782.341 716.303 784.538 714.496 787.785 714.496C791.447 714.496 792.985 716.596 792.985 718.549C792.985 720.404 791.789 721.015 788.835 721.503L784.782 722.162C779.997 722.943 776.75 725.263 776.75 730.146C776.75 734.809 780.388 737.665 785.1 737.665ZM781.437 729.999C781.437 727.509 782.951 726.19 786.198 725.556L789.421 724.921L790.593 724.701C791.74 724.481 792.253 724.066 792.253 723.163V723.139C792.253 722.016 793.156 721.259 794.182 721.259C795.231 721.259 796.037 722.064 796.037 723.114C796.037 724.164 795.183 724.945 794.182 724.945H793.84C793.4 724.945 793.083 725.214 793.083 725.751V726.361C793.083 730.561 790.69 733.905 786.198 733.905C783.488 733.905 781.437 732.416 781.437 729.999ZM813.859 737.665C819.45 737.665 823.845 734.809 823.845 729.364C823.845 725.556 821.208 723.261 816.594 722.357L811.906 721.454C809.392 720.966 808.244 720.014 808.244 718.305C808.244 716.059 810.246 714.496 813.347 714.496C816.594 714.496 818.693 716.303 818.84 719.306H823.454C823.259 714.447 819.89 710.761 813.444 710.761C807.194 710.761 803.508 714.301 803.508 718.866C803.508 722.406 805.656 724.701 810.661 725.702L814.86 726.557C817.839 727.167 819.157 728.119 819.157 730.048C819.157 732.416 817.058 733.856 813.957 733.856C810.344 733.856 807.756 732.099 807.609 728.754H802.897C802.995 734.247 807.145 737.665 813.859 737.665ZM812.199 724.066C812.199 723.163 813.005 722.406 813.859 722.406C814.689 722.406 815.495 723.163 815.495 724.066C815.495 724.945 814.738 725.702 813.908 725.702C813.054 725.702 812.199 724.945 812.199 724.066ZM829.558 736.957H834.05V723.896C834.05 717.768 836.491 714.545 840.495 714.545C843.693 714.545 845.451 716.4 845.451 719.745V736.957H849.943V719.257C849.943 714.154 846.94 710.761 842.009 710.761C838.005 710.761 835.71 712.763 834.489 716.303C834.099 717.45 833.586 718.061 832.609 718.061C831.608 718.061 830.9 717.304 830.9 716.303C830.9 715.302 831.706 714.545 832.707 714.545H833.488C833.854 714.545 834.05 714.35 834.05 713.959V701.947H829.558V736.957ZM863.811 737.665C867.424 737.665 870.402 735.761 871.892 733.319C872.014 734.638 872.233 735.956 872.502 736.957H877.263V736.249C876.555 735.663 876.262 733.197 876.262 731.049V719.965C876.262 714.154 872.648 710.761 866.496 710.761C860.393 710.761 856.315 714.398 856.145 719.306H860.856C861.052 716.303 863.249 714.496 866.496 714.496C870.158 714.496 871.696 716.596 871.696 718.549C871.696 720.404 870.5 721.015 867.546 721.503L863.493 722.162C858.708 722.943 855.461 725.263 855.461 730.146C855.461 734.809 859.099 737.665 863.811 737.665ZM860.148 729.999C860.148 727.509 861.662 726.19 864.909 725.556L868.132 724.921L869.304 724.701C870.451 724.481 870.964 724.066 870.964 723.163V723.139C870.964 722.016 871.867 721.259 872.893 721.259C873.942 721.259 874.748 722.064 874.748 723.114C874.748 724.164 873.894 724.945 872.893 724.945H872.551C872.111 724.945 871.794 725.214 871.794 725.751V726.361C871.794 730.561 869.401 733.905 864.909 733.905C862.199 733.905 860.148 732.416 860.148 729.999ZM895.134 737.665C901.677 737.665 905.681 732.343 905.681 724.213C905.681 716.059 901.97 710.761 895.573 710.761C892.961 710.761 890.959 711.835 889.616 713.666C889.079 714.374 888.664 715.18 888.322 716.107C887.932 717.206 887.419 717.963 886.418 717.963C885.417 717.963 884.636 717.206 884.636 716.205C884.636 715.204 885.417 714.447 886.418 714.447H887.053C887.541 714.447 887.81 714.154 887.81 713.666V701.947H883.317V736.957H887.663V733.173C889.226 736.225 891.911 737.665 895.134 737.665ZM887.834 724.262C887.834 718.622 890.178 714.569 894.475 714.569C898.771 714.569 900.969 718.622 900.969 724.262C900.969 729.901 898.771 733.856 894.475 733.856C890.178 733.856 887.834 729.901 887.834 724.262ZM911.54 736.957H916.032V701.947H911.54V736.957ZM933.464 737.665C939.714 737.665 943.669 733.905 944.23 728.461H939.665C939.177 731.952 936.882 733.856 933.781 733.856C929.875 733.856 926.921 731.317 926.579 725.751C926.53 725.165 926.262 725.019 925.773 725.019H925.383C924.431 725.019 923.723 724.311 923.723 723.358C923.723 722.406 924.431 721.698 925.383 721.698H925.773C926.359 721.698 926.677 721.503 926.774 720.966C927.531 716.767 930.021 714.545 933.415 714.545C937.077 714.545 939.274 716.84 939.592 721.649H928.459C927.409 721.649 926.628 722.455 926.628 723.456C926.628 724.457 927.409 725.263 928.459 725.263H944.377V723.749C944.377 715.351 939.982 710.761 933.464 710.761C926.823 710.761 921.867 715.961 921.867 724.164C921.867 733.417 926.823 737.665 933.464 737.665ZM951.213 706.439V719.916H955.729V697.602H952.189C951.872 700.165 949.626 701.557 946.477 701.654V704.999H950.114C950.627 704.999 950.895 704.73 950.895 704.34V703.974C950.895 702.973 951.628 702.265 952.58 702.265C953.459 702.265 954.24 702.973 954.24 703.974C954.24 704.901 953.508 705.683 952.58 705.683H952.043C951.433 705.683 951.213 705.902 951.213 706.439Z" fill="#302112"/>
<path d="M477.973 888.68C485.075 888.68 490.255 884.602 490.934 876.82H486.364C485.801 881.859 482.567 884.555 478.395 884.555C472.067 884.555 468.13 879.75 468.13 871.195C468.13 862.664 471.973 857.766 478.067 857.766C482.567 857.766 485.989 860.297 486.551 865.594H490.981C490.536 857.906 485.075 853.734 478.208 853.734C469.184 853.734 463.512 860.602 463.512 871.383C463.512 882.281 469.372 888.68 477.973 888.68ZM464.122 871.195C464.122 870.234 464.895 869.461 465.856 869.461C466.817 869.461 467.591 870.234 467.591 871.195C467.591 872.156 466.817 872.93 465.856 872.93C464.895 872.93 464.122 872.156 464.122 871.195ZM506.051 888.68C512.684 888.68 516.997 883.617 516.997 875.742C516.997 867.867 512.684 862.852 506.051 862.852C499.419 862.852 495.106 867.867 495.106 875.742C495.106 883.617 499.419 888.68 506.051 888.68ZM495.786 875.766C495.786 874.898 496.466 874.172 497.356 874.172C498.223 874.172 498.95 874.898 498.95 875.766C498.95 876.68 498.223 877.336 497.356 877.336C496.466 877.336 495.786 876.68 495.786 875.766ZM499.63 875.742C499.63 869.836 502.02 866.508 506.051 866.508C510.083 866.508 512.473 869.836 512.473 875.742C512.473 881.648 510.083 885.023 506.051 885.023C502.02 885.023 499.63 881.648 499.63 875.742ZM513.153 875.766C513.153 874.898 513.833 874.172 514.747 874.172C515.614 874.172 516.317 874.898 516.317 875.766C516.317 876.68 515.614 877.336 514.747 877.336C513.833 877.336 513.153 876.68 513.153 875.766ZM522.598 888H526.911V875.461C526.911 869.578 529.255 866.484 533.098 866.484C536.169 866.484 537.856 868.266 537.856 871.477V888H542.169V871.008C542.169 866.109 539.286 862.852 534.551 862.852C530.708 862.852 528.505 864.773 527.333 868.172C526.958 869.273 526.466 869.859 525.528 869.859C524.567 869.859 523.887 869.133 523.887 868.172C523.887 867.211 524.661 866.484 525.622 866.484H526.372C526.723 866.484 526.911 866.297 526.911 865.922V863.531H522.598V888ZM557.239 888.469C558.2 888.469 558.95 888.375 559.911 888.141V884.602C559.301 884.742 558.622 884.789 558.13 884.789C556.278 884.789 554.966 884.062 554.966 881.719V867.07H560.356V863.531H555.692C555.317 863.531 555.059 863.766 555.059 864.188V864.375C555.059 865.43 554.262 866.25 553.255 866.25C552.2 866.25 551.38 865.43 551.38 864.375C551.38 863.367 552.2 862.57 553.255 862.57H554.356C554.731 862.57 554.966 862.312 554.966 861.938V856.359H551.52L551.38 858.773C551.192 862.125 549.926 863.531 546.762 863.531H546.341V867.07H550.653V882C550.653 886.805 553.301 888.469 557.239 888.469ZM565.301 888H569.614V875.367C569.614 869.812 572.309 867.258 576.341 867.258C576.95 867.258 577.489 867.305 578.098 867.445V863.133C577.817 863.086 577.395 863.039 576.95 863.039C574.395 863.039 572.52 863.953 571.301 865.594C570.762 866.32 570.341 867.188 570.036 868.172C569.755 869.133 569.286 869.859 568.372 869.859C567.411 869.859 566.731 869.133 566.731 868.172C566.731 867.164 567.551 866.484 568.466 866.484H569.075C569.38 866.484 569.614 866.203 569.614 865.969V863.531H565.301V888ZM591.223 888.68C597.856 888.68 602.169 883.617 602.169 875.742C602.169 867.867 597.856 862.852 591.223 862.852C584.591 862.852 580.278 867.867 580.278 875.742C580.278 883.617 584.591 888.68 591.223 888.68ZM580.958 875.766C580.958 874.898 581.637 874.172 582.528 874.172C583.395 874.172 584.122 874.898 584.122 875.766C584.122 876.68 583.395 877.336 582.528 877.336C581.637 877.336 580.958 876.68 580.958 875.766ZM584.801 875.742C584.801 869.836 587.192 866.508 591.223 866.508C595.255 866.508 597.645 869.836 597.645 875.742C597.645 881.648 595.255 885.023 591.223 885.023C587.192 885.023 584.801 881.648 584.801 875.742ZM598.325 875.766C598.325 874.898 599.005 874.172 599.919 874.172C600.786 874.172 601.489 874.898 601.489 875.766C601.489 876.68 600.786 877.336 599.919 877.336C599.005 877.336 598.325 876.68 598.325 875.766ZM607.77 888H612.083V854.391H607.77V888ZM627.95 888.68C633.317 888.68 637.536 885.938 637.536 880.711C637.536 877.055 635.005 874.852 630.575 873.984L626.075 873.117C623.661 872.648 622.559 871.734 622.559 870.094C622.559 867.938 624.481 866.438 627.458 866.438C630.575 866.438 632.591 868.172 632.731 871.055H637.161C636.973 866.391 633.739 862.852 627.551 862.852C621.551 862.852 618.012 866.25 618.012 870.633C618.012 874.031 620.075 876.234 624.88 877.195L628.911 878.016C631.77 878.602 633.036 879.516 633.036 881.367C633.036 883.641 631.02 885.023 628.044 885.023C624.575 885.023 622.091 883.336 621.95 880.125H617.426C617.52 885.398 621.505 888.68 627.95 888.68ZM626.356 875.625C626.356 874.758 627.13 874.031 627.95 874.031C628.747 874.031 629.52 874.758 629.52 875.625C629.52 876.469 628.794 877.195 627.997 877.195C627.176 877.195 626.356 876.469 626.356 875.625ZM452.614 941H456.926V928.461C456.926 922.578 459.27 919.484 463.114 919.484C466.184 919.484 467.872 921.266 467.872 924.477V941H472.184V924.008C472.184 919.109 469.301 915.852 464.567 915.852C460.723 915.852 458.52 917.773 457.348 921.172C456.973 922.273 456.481 922.859 455.544 922.859C454.583 922.859 453.903 922.133 453.903 921.172C453.903 920.211 454.676 919.484 455.637 919.484H456.387C456.739 919.484 456.926 919.297 456.926 918.922V907.391H452.614V941ZM486.598 941.68C490.348 941.68 492.364 939.617 493.559 936.336C493.958 935.234 494.426 934.672 495.387 934.672C496.348 934.672 497.028 935.375 497.028 936.336C497.028 937.297 496.255 938.023 495.294 938.023H494.52C494.192 938.023 494.005 938.211 494.005 938.609V941H498.317V916.531H494.005V929.281C494.005 934.906 491.661 938.023 487.911 938.023C484.7 938.023 483.059 936.148 483.059 933.031V916.531H478.747V933.523C478.747 938.703 481.723 941.68 486.598 941.68ZM505.301 941H509.614V928.461C509.614 922.578 511.864 919.484 515.52 919.484C518.403 919.484 519.973 921.266 519.973 924.477V941H524.309V927.523C524.309 922.227 526.794 919.484 530.309 919.484C533.169 919.484 534.669 921.266 534.669 924.477V941H538.981V924.008C538.981 919.109 536.216 915.852 531.411 915.852C527.497 915.852 524.825 917.68 523.442 920.727C522.528 917.703 520.114 915.852 517.091 915.852C513.458 915.852 511.137 917.727 510.036 921.172C509.708 922.273 509.169 922.859 508.231 922.859C507.27 922.859 506.591 922.133 506.591 921.172C506.591 920.211 507.364 919.484 508.325 919.484H509.075C509.426 919.484 509.614 919.297 509.614 918.922V916.531H505.301V941ZM545.755 941H550.067V916.531H545.755V941ZM545.45 912.383H550.348V907.391H545.45V912.383ZM572.825 907.391V918.641C572.825 919.109 573.083 919.391 573.551 919.391H574.161C575.122 919.391 575.872 920.117 575.872 921.078C575.872 922.039 575.122 922.766 574.161 922.766C573.2 922.766 572.708 922.039 572.333 920.984C571.794 919.531 571.114 918.406 570.223 917.562C569.051 916.414 567.528 915.852 565.653 915.852C559.419 915.852 555.669 921.008 555.669 928.812C555.669 936.617 559.301 941.68 565.653 941.68C568.841 941.68 571.512 940.109 572.966 937.297V941H577.137V907.391H572.825ZM560.192 928.719C560.192 923.305 562.301 919.484 566.426 919.484C570.551 919.484 572.801 923.305 572.801 928.719C572.801 934.133 570.551 938.023 566.426 938.023C562.301 938.023 560.192 934.133 560.192 928.719ZM584.145 941H588.458V916.531H584.145V941ZM583.841 912.383H588.739V907.391H583.841V912.383ZM603.739 941.469C604.7 941.469 605.45 941.375 606.411 941.141V937.602C605.801 937.742 605.122 937.789 604.63 937.789C602.778 937.789 601.466 937.062 601.466 934.719V920.07H606.856V916.531H602.192C601.817 916.531 601.559 916.766 601.559 917.188V917.375C601.559 918.43 600.762 919.25 599.755 919.25C598.7 919.25 597.88 918.43 597.88 917.375C597.88 916.367 598.7 915.57 599.755 915.57H600.856C601.231 915.57 601.466 915.312 601.466 914.938V909.359H598.02L597.88 911.773C597.692 915.125 596.426 916.531 593.262 916.531H592.841V920.07H597.153V935C597.153 939.805 599.801 941.469 603.739 941.469ZM613.583 950.305C617.567 950.305 620.169 947.773 621.926 942.688L630.997 916.531H626.403L621.012 933.453C620.895 933.852 620.895 934.156 621.176 934.461L621.505 934.812C621.903 935.258 622.137 935.633 622.137 936.102C622.137 937.109 621.364 937.883 620.403 937.883C619.442 937.883 618.669 937.109 618.669 936.102C618.669 935.633 618.926 935.211 619.301 934.812L619.63 934.461C619.911 934.18 619.864 933.852 619.723 933.453L613.911 916.531H609.223L618.083 940.977C616.583 944.938 615.294 946.32 612.762 946.32C612.341 946.32 611.52 946.273 610.794 945.992V949.93C611.567 950.164 612.528 950.305 613.583 950.305ZM633.528 924.641H649.794V920.891H640.489C640.02 920.891 639.762 921.148 639.762 921.617V921.828C639.762 922.672 639.059 923.375 638.169 923.375C637.278 923.375 636.598 922.672 636.598 921.781C636.598 920.891 637.278 920.211 638.169 920.211H638.45C639.012 920.211 639.458 920.164 639.973 919.742C640.723 919.156 641.661 918.406 642.598 917.844C646.466 915.523 649.325 913.508 649.325 909.477C649.325 905.586 646.512 902.82 641.966 902.82C637.231 902.82 633.95 905.797 633.833 910.062H638.216C638.262 908.117 639.551 906.406 641.825 906.406C643.747 906.406 644.942 907.648 644.942 909.477C644.942 911.797 643.231 913.016 640.278 914.82C636.387 917.188 633.575 920 633.528 924.641Z" fill="#302112"/>
<circle cx="147.383" cy="508.243" r="132.141" fill="#FFC900"/>
<path d="M101.239 508H107.147L118.134 472.99H113.495L105.097 500.798C104.95 501.262 104.999 501.604 105.292 501.896L105.585 502.189C106 502.604 106.244 503.142 106.244 503.703C106.244 504.802 105.438 505.656 104.291 505.656C103.144 505.656 102.338 504.802 102.338 503.703C102.338 503.142 102.582 502.604 103.046 502.141L103.339 501.848C103.632 501.555 103.607 501.188 103.485 500.749L95.4287 472.99H90.5947L101.239 508ZM135.199 508.708C144.159 508.708 149.75 501.311 149.75 490.495C149.75 479.753 144.061 472.307 135.199 472.307C126.361 472.307 120.648 479.704 120.648 490.495C120.648 501.311 126.312 508.708 135.199 508.708ZM121.283 490.495C121.283 489.494 122.089 488.688 123.09 488.688C124.091 488.688 124.896 489.494 124.896 490.495C124.896 491.496 124.091 492.302 123.09 492.302C122.089 492.302 121.283 491.496 121.283 490.495ZM125.458 490.495C125.458 481.706 129.267 476.506 135.199 476.506C141.156 476.506 144.965 481.706 144.965 490.495C144.965 499.357 141.156 504.509 135.199 504.509C129.267 504.509 125.458 499.309 125.458 490.495ZM145.526 490.495C145.526 489.494 146.332 488.688 147.333 488.688C148.334 488.688 149.14 489.494 149.14 490.495C149.14 491.496 148.334 492.302 147.333 492.302C146.332 492.302 145.526 491.496 145.526 490.495ZM169.794 508.708C177.191 508.708 182.587 504.46 183.295 496.354H178.534C177.948 501.604 174.579 504.411 170.233 504.411C163.642 504.411 159.54 499.406 159.54 490.495C159.54 481.608 163.544 476.506 169.892 476.506C174.579 476.506 178.144 479.143 178.729 484.66H183.344C182.88 476.652 177.191 472.307 170.038 472.307C160.639 472.307 154.73 479.46 154.73 490.69C154.73 502.043 160.834 508.708 169.794 508.708ZM155.365 490.495C155.365 489.494 156.171 488.688 157.172 488.688C158.173 488.688 158.978 489.494 158.978 490.495C158.978 491.496 158.173 492.302 157.172 492.302C156.171 492.302 155.365 491.496 155.365 490.495ZM188.666 495.451H202.362V491.447H188.666V495.451ZM108.368 553H112.885V531.198H118.134V527.512H113.983C113.69 527.512 113.373 527.805 113.373 528.098V528.391C113.373 529.489 112.47 530.344 111.42 530.344C110.321 530.344 109.491 529.489 109.491 528.391C109.491 527.341 110.321 526.462 111.42 526.462H112.226C112.567 526.462 112.885 526.145 112.885 525.852V523.044C112.885 521.799 113.471 520.993 114.838 520.993H118.134V517.307H114.081C110.272 517.307 108.368 519.602 108.368 522.897V527.512H104.218V531.198H108.368V553ZM122.675 553H127.167V539.841C127.167 534.055 129.975 531.394 134.174 531.394C134.809 531.394 135.37 531.442 136.005 531.589V527.097C135.712 527.048 135.272 526.999 134.809 526.999C132.147 526.999 130.194 527.951 128.925 529.66C128.363 530.417 127.924 531.32 127.606 532.346C127.313 533.347 126.825 534.104 125.873 534.104C124.872 534.104 124.164 533.347 124.164 532.346C124.164 531.296 125.019 530.588 125.971 530.588H126.605C126.923 530.588 127.167 530.295 127.167 530.051V527.512H122.675V553ZM150.702 553.708C156.952 553.708 160.907 549.948 161.469 544.504H156.903C156.415 547.995 154.12 549.899 151.019 549.899C147.113 549.899 144.159 547.36 143.817 541.794C143.769 541.208 143.5 541.062 143.012 541.062H142.621C141.669 541.062 140.961 540.354 140.961 539.401C140.961 538.449 141.669 537.741 142.621 537.741H143.012C143.598 537.741 143.915 537.546 144.013 537.009C144.769 532.81 147.26 530.588 150.653 530.588C154.315 530.588 156.513 532.883 156.83 537.692H145.697C144.647 537.692 143.866 538.498 143.866 539.499C143.866 540.5 144.647 541.306 145.697 541.306H161.615V539.792C161.615 531.394 157.221 526.804 150.702 526.804C144.061 526.804 139.105 532.004 139.105 540.207C139.105 549.46 144.061 553.708 150.702 553.708ZM177.704 553.708C183.954 553.708 187.909 549.948 188.471 544.504H183.905C183.417 547.995 181.122 549.899 178.021 549.899C174.115 549.899 171.161 547.36 170.819 541.794C170.77 541.208 170.502 541.062 170.014 541.062H169.623C168.671 541.062 167.963 540.354 167.963 539.401C167.963 538.449 168.671 537.741 169.623 537.741H170.014C170.6 537.741 170.917 537.546 171.015 537.009C171.771 532.81 174.262 530.588 177.655 530.588C181.317 530.588 183.515 532.883 183.832 537.692H172.699C171.649 537.692 170.868 538.498 170.868 539.499C170.868 540.5 171.649 541.306 172.699 541.306H188.617V539.792C188.617 531.394 184.223 526.804 177.704 526.804C171.063 526.804 166.107 532.004 166.107 540.207C166.107 549.46 171.063 553.708 177.704 553.708Z" fill="#302112"/>
<circle cx="528.56" cy="599.72" r="147.388" fill="#00FF00"/>
<path d="M478.484 588H483.343L486.907 577.795C487.103 577.258 486.956 576.843 486.541 576.696L485.906 576.452C484.856 576.062 484.295 575.012 484.637 573.962C485.052 572.839 486.102 572.448 487.298 572.839L487.737 573.01C488.25 573.156 488.592 572.839 488.738 572.399L493.768 557.849L498.748 572.399C498.895 572.912 499.285 573.156 499.749 573.01L500.408 572.79C501.458 572.448 502.337 572.741 502.801 573.889C503.24 575.061 502.654 576.159 501.604 576.501L501.043 576.696C500.555 576.843 500.408 577.258 500.604 577.795L504.095 588H509.051L496.502 552.99H491.155L478.484 588ZM487.151 575.402C487.151 576.501 488.104 577.404 489.251 577.404H498.357C499.505 577.404 500.457 576.501 500.457 575.402C500.457 574.255 499.505 573.303 498.357 573.303H489.251C488.104 573.303 487.151 574.255 487.151 575.402ZM513.348 588H517.84V574.938C517.84 568.811 520.281 565.588 524.285 565.588C527.483 565.588 529.241 567.443 529.241 570.788V588H533.733V570.3C533.733 565.197 530.73 561.804 525.799 561.804C521.795 561.804 519.5 563.806 518.279 567.346C517.889 568.493 517.376 569.104 516.399 569.104C515.398 569.104 514.69 568.347 514.69 567.346C514.69 566.345 515.496 565.588 516.497 565.588H517.278C517.645 565.588 517.84 565.393 517.84 565.002V562.512H513.348V588ZM549.432 588.488C550.433 588.488 551.214 588.391 552.215 588.146V584.46C551.58 584.606 550.872 584.655 550.359 584.655C548.431 584.655 547.063 583.898 547.063 581.457V566.198H552.679V562.512H547.82C547.43 562.512 547.161 562.756 547.161 563.195V563.391C547.161 564.489 546.331 565.344 545.281 565.344C544.183 565.344 543.328 564.489 543.328 563.391C543.328 562.341 544.183 561.511 545.281 561.511H546.429C546.819 561.511 547.063 561.242 547.063 560.852V555.041H543.475L543.328 557.556C543.133 561.047 541.814 562.512 538.519 562.512H538.079V566.198H542.571V581.75C542.571 586.755 545.33 588.488 549.432 588.488ZM557.83 588H562.322V562.512H557.83V588ZM557.513 558.19H562.615V552.99H557.513V558.19ZM569.183 575.451H582.879V571.447H569.183V575.451ZM451.434 633.708C457.977 633.708 461.98 628.386 461.98 620.256C461.98 612.102 458.27 606.804 451.873 606.804C449.261 606.804 447.259 607.878 445.916 609.709C445.379 610.417 444.964 611.223 444.622 612.15C444.231 613.249 443.719 614.006 442.718 614.006C441.717 614.006 440.936 613.249 440.936 612.248C440.936 611.247 441.717 610.49 442.718 610.49H443.353C443.841 610.49 444.109 610.197 444.109 609.709V597.99H439.617V633H443.963V629.216C445.525 632.268 448.211 633.708 451.434 633.708ZM444.134 620.305C444.134 614.665 446.478 610.612 450.774 610.612C455.071 610.612 457.269 614.665 457.269 620.305C457.269 625.944 455.071 629.899 450.774 629.899C446.478 629.899 444.134 625.944 444.134 620.305ZM474.651 633.708C478.265 633.708 481.243 631.804 482.732 629.362C482.854 630.681 483.074 631.999 483.343 633H488.104V632.292C487.396 631.706 487.103 629.24 487.103 627.092V616.008C487.103 610.197 483.489 606.804 477.337 606.804C471.233 606.804 467.156 610.441 466.985 615.349H471.697C471.893 612.346 474.09 610.539 477.337 610.539C480.999 610.539 482.537 612.639 482.537 614.592C482.537 616.447 481.341 617.058 478.387 617.546L474.334 618.205C469.549 618.986 466.302 621.306 466.302 626.188C466.302 630.852 469.939 633.708 474.651 633.708ZM470.989 626.042C470.989 623.552 472.503 622.233 475.75 621.599L478.973 620.964L480.145 620.744C481.292 620.524 481.805 620.109 481.805 619.206V619.182C481.805 618.059 482.708 617.302 483.733 617.302C484.783 617.302 485.589 618.107 485.589 619.157C485.589 620.207 484.734 620.988 483.733 620.988H483.392C482.952 620.988 482.635 621.257 482.635 621.794V622.404C482.635 626.604 480.242 629.948 475.75 629.948C473.04 629.948 470.989 628.459 470.989 626.042ZM503.875 633.708C509.271 633.708 513.616 630.559 514.227 623.991H509.563C509.222 627.897 506.976 629.899 503.973 629.899C500.018 629.899 497.43 626.652 497.43 620.256C497.43 613.859 500.066 610.588 504.021 610.588C507.122 610.588 509.368 612.59 509.563 616.496H514.227C513.714 609.953 509.466 606.804 503.924 606.804C497.527 606.804 492.718 611.711 492.718 620.354C492.718 629.191 497.283 633.708 503.875 633.708ZM493.426 620.256C493.426 619.353 494.134 618.596 495.062 618.596C495.965 618.596 496.722 619.353 496.722 620.256C496.722 621.208 495.965 621.892 495.062 621.892C494.134 621.892 493.426 621.208 493.426 620.256ZM528.533 633.488C529.534 633.488 530.315 633.391 531.316 633.146V629.46C530.682 629.606 529.974 629.655 529.461 629.655C527.532 629.655 526.165 628.898 526.165 626.457V611.198H531.78V607.512H526.922C526.531 607.512 526.263 607.756 526.263 608.195V608.391C526.263 609.489 525.433 610.344 524.383 610.344C523.284 610.344 522.43 609.489 522.43 608.391C522.43 607.341 523.284 606.511 524.383 606.511H525.53C525.921 606.511 526.165 606.242 526.165 605.852V600.041H522.576L522.43 602.556C522.234 606.047 520.916 607.512 517.62 607.512H517.181V611.198H521.673V626.75C521.673 631.755 524.432 633.488 528.533 633.488ZM547.088 633.708C553.338 633.708 557.293 629.948 557.854 624.504H553.289C552.801 627.995 550.506 629.899 547.405 629.899C543.499 629.899 540.545 627.36 540.203 621.794C540.154 621.208 539.886 621.062 539.397 621.062H539.007C538.055 621.062 537.347 620.354 537.347 619.401C537.347 618.449 538.055 617.741 539.007 617.741H539.397C539.983 617.741 540.301 617.546 540.398 617.009C541.155 612.81 543.646 610.588 547.039 610.588C550.701 610.588 552.898 612.883 553.216 617.692H542.083C541.033 617.692 540.252 618.498 540.252 619.499C540.252 620.5 541.033 621.306 542.083 621.306H558.001V619.792C558.001 611.394 553.606 606.804 547.088 606.804C540.447 606.804 535.491 612.004 535.491 620.207C535.491 629.46 540.447 633.708 547.088 633.708ZM563.934 633H568.426V619.841C568.426 614.055 571.233 611.394 575.433 611.394C576.067 611.394 576.629 611.442 577.264 611.589V607.097C576.971 607.048 576.531 606.999 576.067 606.999C573.406 606.999 571.453 607.951 570.184 609.66C569.622 610.417 569.183 611.32 568.865 612.346C568.572 613.347 568.084 614.104 567.132 614.104C566.131 614.104 565.423 613.347 565.423 612.346C565.423 611.296 566.277 610.588 567.229 610.588H567.864C568.182 610.588 568.426 610.295 568.426 610.051V607.512H563.934V633ZM581.805 633H586.297V607.512H581.805V633ZM581.487 603.19H586.59V597.99H581.487V603.19ZM600.384 633.708C603.997 633.708 606.976 631.804 608.465 629.362C608.587 630.681 608.807 631.999 609.075 633H613.836V632.292C613.128 631.706 612.835 629.24 612.835 627.092V616.008C612.835 610.197 609.222 606.804 603.069 606.804C596.966 606.804 592.889 610.441 592.718 615.349H597.43C597.625 612.346 599.822 610.539 603.069 610.539C606.731 610.539 608.27 612.639 608.27 614.592C608.27 616.447 607.073 617.058 604.119 617.546L600.066 618.205C595.281 618.986 592.034 621.306 592.034 626.188C592.034 630.852 595.672 633.708 600.384 633.708ZM596.722 626.042C596.722 623.552 598.235 622.233 601.482 621.599L604.705 620.964L605.877 620.744C607.024 620.524 607.537 620.109 607.537 619.206V619.182C607.537 618.059 608.44 617.302 609.466 617.302C610.516 617.302 611.321 618.107 611.321 619.157C611.321 620.207 610.467 620.988 609.466 620.988H609.124C608.685 620.988 608.367 621.257 608.367 621.794V622.404C608.367 626.604 605.975 629.948 601.482 629.948C598.772 629.948 596.722 628.459 596.722 626.042ZM619.891 633H624.383V597.99H619.891V633Z" fill="#302112"/>
<circle cx="395.149" cy="263.016" r="202.024" fill="#FF42EF"/>
<path d="M353.239 256.777H358.097L361.662 246.572C361.857 246.035 361.71 245.62 361.295 245.474L360.661 245.229C359.611 244.839 359.049 243.789 359.391 242.739C359.806 241.616 360.856 241.226 362.052 241.616L362.492 241.787C363.004 241.934 363.346 241.616 363.493 241.177L368.522 226.626L373.502 241.177C373.649 241.689 374.04 241.934 374.503 241.787L375.163 241.567C376.212 241.226 377.091 241.519 377.555 242.666C377.995 243.838 377.409 244.937 376.359 245.278L375.797 245.474C375.309 245.62 375.163 246.035 375.358 246.572L378.849 256.777H383.805L371.256 221.768H365.91L353.239 256.777ZM361.906 244.18C361.906 245.278 362.858 246.182 364.005 246.182H373.112C374.259 246.182 375.211 245.278 375.211 244.18C375.211 243.032 374.259 242.08 373.112 242.08H364.005C362.858 242.08 361.906 243.032 361.906 244.18ZM388.102 256.777H392.594V231.289H388.102V256.777ZM387.785 226.968H392.887V221.768H387.785V226.968ZM399.87 256.777H404.362V243.618C404.362 237.832 407.169 235.171 411.369 235.171C412.003 235.171 412.565 235.22 413.2 235.366V230.874C412.907 230.825 412.467 230.776 412.003 230.776C409.342 230.776 407.389 231.729 406.12 233.438C405.558 234.194 405.119 235.098 404.801 236.123C404.508 237.124 404.02 237.881 403.068 237.881C402.067 237.881 401.359 237.124 401.359 236.123C401.359 235.073 402.213 234.365 403.166 234.365H403.8C404.118 234.365 404.362 234.072 404.362 233.828V231.289H399.87V256.777ZM414.591 244.229H428.288V240.225H414.591V244.229ZM310.905 302.485C317.448 302.485 321.452 297.163 321.452 289.033C321.452 280.879 317.741 275.581 311.344 275.581C308.732 275.581 306.73 276.655 305.387 278.486C304.85 279.194 304.435 280 304.093 280.928C303.703 282.026 303.19 282.783 302.189 282.783C301.188 282.783 300.407 282.026 300.407 281.025C300.407 280.024 301.188 279.268 302.189 279.268H302.824C303.312 279.268 303.581 278.975 303.581 278.486V276.289H299.088V310.786H303.581V298.286C305.167 301.118 307.78 302.485 310.905 302.485ZM303.605 289.082C303.605 283.442 305.949 279.39 310.246 279.39C314.542 279.39 316.74 283.442 316.74 289.082C316.74 294.722 314.542 298.677 310.246 298.677C305.949 298.677 303.605 294.722 303.605 289.082ZM335.27 302.485C339.176 302.485 341.276 300.337 342.521 296.919C342.936 295.771 343.424 295.186 344.425 295.186C345.426 295.186 346.134 295.918 346.134 296.919C346.134 297.92 345.329 298.677 344.328 298.677H343.522C343.18 298.677 342.985 298.872 342.985 299.287V301.777H347.477V276.289H342.985V289.57C342.985 295.43 340.543 298.677 336.637 298.677C333.292 298.677 331.584 296.724 331.584 293.477V276.289H327.091V293.989C327.091 299.385 330.192 302.485 335.27 302.485ZM354.752 301.777H359.245V288.618C359.245 282.832 362.052 280.171 366.251 280.171C366.886 280.171 367.448 280.22 368.083 280.366V275.874C367.79 275.825 367.35 275.776 366.886 275.776C364.225 275.776 362.272 276.729 361.002 278.438C360.441 279.194 360.001 280.098 359.684 281.123C359.391 282.124 358.903 282.881 357.951 282.881C356.95 282.881 356.242 282.124 356.242 281.123C356.242 280.073 357.096 279.365 358.048 279.365H358.683C359.001 279.365 359.245 279.072 359.245 278.828V276.289H354.752V301.777ZM372.624 301.777H377.116V276.289H372.624V301.777ZM372.306 271.968H377.409V266.768H372.306V271.968ZM385.954 301.777H390.47V279.976H395.719V276.289H391.569C391.276 276.289 390.959 276.582 390.959 276.875V277.168C390.959 278.267 390.055 279.121 389.005 279.121C387.907 279.121 387.077 278.267 387.077 277.168C387.077 276.118 387.907 275.239 389.005 275.239H389.811C390.153 275.239 390.47 274.922 390.47 274.629V271.821C390.47 270.576 391.056 269.771 392.423 269.771H395.719V266.084H391.667C387.858 266.084 385.954 268.379 385.954 271.675V276.289H381.803V279.976H385.954V301.777ZM402.116 311.47C406.266 311.47 408.976 308.833 410.807 303.535L420.255 276.289H415.47L409.855 293.916C409.733 294.331 409.733 294.648 410.026 294.966L410.368 295.332C410.783 295.796 411.027 296.187 411.027 296.675C411.027 297.725 410.221 298.53 409.22 298.53C408.219 298.53 407.414 297.725 407.414 296.675C407.414 296.187 407.682 295.747 408.073 295.332L408.415 294.966C408.708 294.673 408.659 294.331 408.512 293.916L402.458 276.289H397.575L406.803 301.753C405.241 305.879 403.898 307.319 401.261 307.319C400.822 307.319 399.967 307.271 399.21 306.978V311.079C400.016 311.323 401.017 311.47 402.116 311.47ZM424.918 301.777H429.411V276.289H424.918V301.777ZM424.601 271.968H429.704V266.768H424.601V271.968ZM436.686 301.777H441.178V288.716C441.178 282.588 443.62 279.365 447.624 279.365C450.822 279.365 452.58 281.221 452.58 284.565V301.777H457.072V284.077C457.072 278.975 454.069 275.581 449.137 275.581C445.133 275.581 442.838 277.583 441.618 281.123C441.227 282.271 440.714 282.881 439.738 282.881C438.737 282.881 438.029 282.124 438.029 281.123C438.029 280.122 438.834 279.365 439.835 279.365H440.617C440.983 279.365 441.178 279.17 441.178 278.779V276.289H436.686V301.777ZM473.649 311.47C480.583 311.47 485.099 307.466 485.099 300.117V276.289H480.631V279.854C479.093 277.07 476.432 275.581 473.087 275.581C466.593 275.581 462.736 280.879 462.736 288.276C462.736 295.674 466.544 300.874 473.039 300.874C476.164 300.874 478.068 299.8 479.118 298.042C479.508 297.456 479.801 296.748 480.094 295.918C480.485 294.819 480.949 294.087 482.047 294.087C483.048 294.087 483.781 294.771 483.781 295.82C483.781 296.87 482.951 297.578 481.95 297.578H481.339C480.9 297.578 480.583 297.871 480.583 298.384V300.337C480.583 304.976 478.239 307.686 473.844 307.686C470.5 307.686 468.083 306.221 467.838 303.169H463.297C463.395 308.076 467.179 311.47 473.649 311.47ZM467.448 288.276C467.448 283.076 469.645 279.438 473.942 279.438C478.239 279.438 480.583 283.076 480.583 288.276C480.583 293.477 478.239 297.139 473.942 297.139C469.645 297.139 467.448 293.477 467.448 288.276Z" fill="#302112"/>
<circle cx="796.664" cy="344.335" r="191.859" fill="#FF5500"/>
<path d="M701.798 344.708C710.758 344.708 716.349 337.311 716.349 326.495C716.349 315.753 710.66 308.307 701.798 308.307C692.96 308.307 687.247 315.704 687.247 326.495C687.247 337.311 692.911 344.708 701.798 344.708ZM687.882 326.495C687.882 325.494 688.688 324.688 689.688 324.688C690.689 324.688 691.495 325.494 691.495 326.495C691.495 327.496 690.689 328.302 689.688 328.302C688.688 328.302 687.882 327.496 687.882 326.495ZM692.057 326.495C692.057 317.706 695.865 312.506 701.798 312.506C707.755 312.506 711.563 317.706 711.563 326.495C711.563 335.357 707.755 340.509 701.798 340.509C695.865 340.509 692.057 335.309 692.057 326.495ZM712.125 326.495C712.125 325.494 712.931 324.688 713.932 324.688C714.933 324.688 715.738 325.494 715.738 326.495C715.738 327.496 714.933 328.302 713.932 328.302C712.931 328.302 712.125 327.496 712.125 326.495ZM738.907 308.99V320.709C738.907 321.197 739.176 321.49 739.664 321.49H740.299C741.3 321.49 742.081 322.247 742.081 323.248C742.081 324.249 741.3 325.006 740.299 325.006C739.298 325.006 738.785 324.249 738.395 323.15C737.833 321.637 737.125 320.465 736.197 319.586C734.977 318.39 733.39 317.804 731.437 317.804C724.942 317.804 721.036 323.175 721.036 331.305C721.036 339.435 724.82 344.708 731.437 344.708C734.757 344.708 737.54 343.072 739.054 340.143V344H743.399V308.99H738.907ZM725.748 331.207C725.748 325.567 727.945 321.588 732.242 321.588C736.539 321.588 738.883 325.567 738.883 331.207C738.883 336.847 736.539 340.899 732.242 340.899C727.945 340.899 725.748 336.847 725.748 331.207ZM760.66 344.708C767.569 344.708 772.062 339.435 772.062 331.231C772.062 323.028 767.569 317.804 760.66 317.804C753.751 317.804 749.259 323.028 749.259 331.231C749.259 339.435 753.751 344.708 760.66 344.708ZM749.967 331.256C749.967 330.353 750.675 329.596 751.603 329.596C752.506 329.596 753.263 330.353 753.263 331.256C753.263 332.208 752.506 332.892 751.603 332.892C750.675 332.892 749.967 332.208 749.967 331.256ZM753.971 331.231C753.971 325.079 756.461 321.612 760.66 321.612C764.859 321.612 767.35 325.079 767.35 331.231C767.35 337.384 764.859 340.899 760.66 340.899C756.461 340.899 753.971 337.384 753.971 331.231ZM768.058 331.256C768.058 330.353 768.766 329.596 769.718 329.596C770.621 329.596 771.354 330.353 771.354 331.256C771.354 332.208 770.621 332.892 769.718 332.892C768.766 332.892 768.058 332.208 768.058 331.256ZM785.855 344.708C789.762 344.708 791.861 342.56 793.106 339.142C793.521 337.994 794.01 337.408 795.011 337.408C796.012 337.408 796.72 338.141 796.72 339.142C796.72 340.143 795.914 340.899 794.913 340.899H794.107C793.766 340.899 793.57 341.095 793.57 341.51V344H798.062V318.512H793.57V331.793C793.57 337.652 791.129 340.899 787.223 340.899C783.878 340.899 782.169 338.946 782.169 335.699V318.512H777.677V336.212C777.677 341.607 780.777 344.708 785.855 344.708ZM805.338 344H809.83V330.841C809.83 325.055 812.638 322.394 816.837 322.394C817.472 322.394 818.033 322.442 818.668 322.589V318.097C818.375 318.048 817.936 317.999 817.472 317.999C814.811 317.999 812.857 318.951 811.588 320.66C811.026 321.417 810.587 322.32 810.27 323.346C809.977 324.347 809.488 325.104 808.536 325.104C807.535 325.104 806.827 324.347 806.827 323.346C806.827 322.296 807.682 321.588 808.634 321.588H809.269C809.586 321.588 809.83 321.295 809.83 321.051V318.512H805.338V344ZM823.209 344H827.701V308.99H823.209V344ZM845.133 344.708C851.383 344.708 855.338 340.948 855.899 335.504H851.334C850.846 338.995 848.551 340.899 845.45 340.899C841.544 340.899 838.59 338.36 838.248 332.794C838.199 332.208 837.931 332.062 837.442 332.062H837.052C836.1 332.062 835.392 331.354 835.392 330.401C835.392 329.449 836.1 328.741 837.052 328.741H837.442C838.028 328.741 838.346 328.546 838.443 328.009C839.2 323.81 841.69 321.588 845.084 321.588C848.746 321.588 850.943 323.883 851.261 328.692H840.128C839.078 328.692 838.297 329.498 838.297 330.499C838.297 331.5 839.078 332.306 840.128 332.306H856.046V330.792C856.046 322.394 851.651 317.804 845.133 317.804C838.492 317.804 833.536 323.004 833.536 331.207C833.536 340.46 838.492 344.708 845.133 344.708ZM871.231 344.708C876.822 344.708 881.217 341.852 881.217 336.407C881.217 332.599 878.58 330.304 873.966 329.4L869.278 328.497C866.764 328.009 865.616 327.057 865.616 325.348C865.616 323.102 867.618 321.539 870.719 321.539C873.966 321.539 876.065 323.346 876.212 326.349H880.826C880.631 321.49 877.262 317.804 870.816 317.804C864.566 317.804 860.88 321.344 860.88 325.909C860.88 329.449 863.028 331.744 868.033 332.745L872.232 333.6C875.211 334.21 876.529 335.162 876.529 337.091C876.529 339.459 874.43 340.899 871.329 340.899C867.716 340.899 865.128 339.142 864.981 335.797H860.27C860.367 341.29 864.518 344.708 871.231 344.708ZM869.571 331.109C869.571 330.206 870.377 329.449 871.231 329.449C872.062 329.449 872.867 330.206 872.867 331.109C872.867 331.988 872.11 332.745 871.28 332.745C870.426 332.745 869.571 331.988 869.571 331.109ZM896.183 344.708C901.773 344.708 906.168 341.852 906.168 336.407C906.168 332.599 903.531 330.304 898.917 329.4L894.229 328.497C891.715 328.009 890.567 327.057 890.567 325.348C890.567 323.102 892.569 321.539 895.67 321.539C898.917 321.539 901.017 323.346 901.163 326.349H905.777C905.582 321.49 902.213 317.804 895.768 317.804C889.518 317.804 885.831 321.344 885.831 325.909C885.831 329.449 887.979 331.744 892.984 332.745L897.184 333.6C900.162 334.21 901.48 335.162 901.48 337.091C901.48 339.459 899.381 340.899 896.28 340.899C892.667 340.899 890.079 339.142 889.933 335.797H885.221C885.318 341.29 889.469 344.708 896.183 344.708ZM894.522 331.109C894.522 330.206 895.328 329.449 896.183 329.449C897.013 329.449 897.818 330.206 897.818 331.109C897.818 331.988 897.062 332.745 896.231 332.745C895.377 332.745 894.522 331.988 894.522 331.109ZM683.316 389.708C687.369 389.708 690.86 388.243 693.521 385.704L696.671 389H702.75L696.256 382.188C698.062 379.21 699.063 375.45 699.112 371.3H694.815C694.718 374.205 694.156 376.842 693.204 378.99L685.465 370.909C688.761 369.103 692.423 365.904 692.423 361.51C692.423 356.505 688.272 353.307 683.414 353.307C677.97 353.307 674.259 356.944 674.259 361.754C674.259 365.001 675.602 366.71 678.36 369.688C674.161 372.008 671.451 375.011 671.451 379.796C671.451 386.241 676.7 389.708 683.316 389.708ZM676.017 379.454C676.017 376.5 677.359 374.449 680.973 372.447L689.005 380.943C689.322 381.261 689.713 381.407 690.055 381.407C690.421 381.407 690.714 381.236 691.007 381.041L691.3 380.846C691.837 380.479 692.203 380.309 692.765 380.309C693.814 380.309 694.62 381.09 694.62 382.14C694.62 383.189 693.717 383.995 692.765 383.995C692.301 383.995 691.959 383.849 691.568 383.604L691.251 383.409C691.031 383.263 690.909 383.189 690.665 383.189C690.372 383.189 690.006 383.36 689.615 383.653C687.955 384.898 685.855 385.606 683.463 385.606C679.215 385.606 676.017 383.141 676.017 379.454ZM678.751 361.656C678.751 358.946 680.753 357.311 683.316 357.311C686.002 357.311 687.906 359.044 687.906 361.607C687.906 364.391 686.173 365.855 684.22 367.101C683.854 367.296 683.707 367.589 683.707 367.857C683.707 368.102 683.756 368.199 683.951 368.443L684.22 368.761C684.464 369.054 684.61 369.444 684.61 369.957C684.61 371.007 683.805 371.788 682.804 371.788C681.705 371.788 680.924 371.007 680.924 369.957C680.924 369.396 681.046 369.005 681.461 368.59L681.754 368.297C682.022 368.028 682.071 367.906 682.071 367.662C682.071 367.394 681.974 367.198 681.705 366.954C679.654 364.903 678.751 363.658 678.751 361.656ZM724.942 389.488C725.943 389.488 726.725 389.391 727.726 389.146V385.46C727.091 385.606 726.383 385.655 725.87 385.655C723.941 385.655 722.574 384.898 722.574 382.457V367.198H728.189V363.512H723.331C722.94 363.512 722.672 363.756 722.672 364.195V364.391C722.672 365.489 721.842 366.344 720.792 366.344C719.693 366.344 718.839 365.489 718.839 364.391C718.839 363.341 719.693 362.511 720.792 362.511H721.939C722.33 362.511 722.574 362.242 722.574 361.852V356.041H718.985L718.839 358.556C718.644 362.047 717.325 363.512 714.029 363.512H713.59V367.198H718.082V382.75C718.082 387.755 720.841 389.488 724.942 389.488ZM742.813 389.708C749.723 389.708 754.215 384.435 754.215 376.231C754.215 368.028 749.723 362.804 742.813 362.804C735.904 362.804 731.412 368.028 731.412 376.231C731.412 384.435 735.904 389.708 742.813 389.708ZM732.12 376.256C732.12 375.353 732.828 374.596 733.756 374.596C734.659 374.596 735.416 375.353 735.416 376.256C735.416 377.208 734.659 377.892 733.756 377.892C732.828 377.892 732.12 377.208 732.12 376.256ZM736.124 376.231C736.124 370.079 738.614 366.612 742.813 366.612C747.013 366.612 749.503 370.079 749.503 376.231C749.503 382.384 747.013 385.899 742.813 385.899C738.614 385.899 736.124 382.384 736.124 376.231ZM750.211 376.256C750.211 375.353 750.919 374.596 751.871 374.596C752.774 374.596 753.507 375.353 753.507 376.256C753.507 377.208 752.774 377.892 751.871 377.892C750.919 377.892 750.211 377.208 750.211 376.256ZM756.241 389H761.246L767.374 379.137L773.38 389H778.629L770.182 376.061L778.287 363.512H773.575L768.229 372.105C768.033 372.447 768.033 372.643 768.326 372.96L768.839 373.448C769.181 373.79 769.376 374.156 769.376 374.645C769.376 375.694 768.595 376.549 767.545 376.549C766.495 376.549 765.689 375.694 765.689 374.645C765.689 374.205 765.934 373.741 766.275 373.351L766.642 372.96C766.886 372.691 767.032 372.447 766.788 372.057L761.734 363.512H756.583L764.713 376.402L756.241 389ZM783.048 389H787.54V363.512H783.048V389ZM782.73 359.19H787.833V353.99H782.73V359.19ZM804.532 389.708C809.928 389.708 814.273 386.559 814.884 379.991H810.221C809.879 383.897 807.633 385.899 804.63 385.899C800.675 385.899 798.087 382.652 798.087 376.256C798.087 369.859 800.724 366.588 804.679 366.588C807.779 366.588 810.025 368.59 810.221 372.496H814.884C814.371 365.953 810.123 362.804 804.581 362.804C798.185 362.804 793.375 367.711 793.375 376.354C793.375 385.191 797.94 389.708 804.532 389.708ZM794.083 376.256C794.083 375.353 794.791 374.596 795.719 374.596C796.622 374.596 797.379 375.353 797.379 376.256C797.379 377.208 796.622 377.892 795.719 377.892C794.791 377.892 794.083 377.208 794.083 376.256ZM820.133 376.451H833.829V372.447H820.133V376.451ZM841.202 389H845.719V367.198H850.968V363.512H846.817C846.524 363.512 846.207 363.805 846.207 364.098V364.391C846.207 365.489 845.304 366.344 844.254 366.344C843.155 366.344 842.325 365.489 842.325 364.391C842.325 363.341 843.155 362.462 844.254 362.462H845.06C845.401 362.462 845.719 362.145 845.719 361.852V359.044C845.719 357.799 846.305 356.993 847.672 356.993H850.968V353.307H846.915C843.106 353.307 841.202 355.602 841.202 358.897V363.512H837.052V367.198H841.202V389ZM855.509 389H860.001V375.841C860.001 370.055 862.809 367.394 867.008 367.394C867.643 367.394 868.204 367.442 868.839 367.589V363.097C868.546 363.048 868.106 362.999 867.643 362.999C864.981 362.999 863.028 363.951 861.759 365.66C861.197 366.417 860.758 367.32 860.44 368.346C860.147 369.347 859.659 370.104 858.707 370.104C857.706 370.104 856.998 369.347 856.998 368.346C856.998 367.296 857.853 366.588 858.805 366.588H859.439C859.757 366.588 860.001 366.295 860.001 366.051V363.512H855.509V389ZM883.536 389.708C889.786 389.708 893.741 385.948 894.303 380.504H889.737C889.249 383.995 886.954 385.899 883.854 385.899C879.947 385.899 876.993 383.36 876.651 377.794C876.603 377.208 876.334 377.062 875.846 377.062H875.455C874.503 377.062 873.795 376.354 873.795 375.401C873.795 374.449 874.503 373.741 875.455 373.741H875.846C876.432 373.741 876.749 373.546 876.847 373.009C877.604 368.81 880.094 366.588 883.487 366.588C887.149 366.588 889.347 368.883 889.664 373.692H878.531C877.481 373.692 876.7 374.498 876.7 375.499C876.7 376.5 877.481 377.306 878.531 377.306H894.449V375.792C894.449 367.394 890.055 362.804 883.536 362.804C876.896 362.804 871.939 368.004 871.939 376.207C871.939 385.46 876.896 389.708 883.536 389.708ZM910.538 389.708C916.788 389.708 920.743 385.948 921.305 380.504H916.739C916.251 383.995 913.956 385.899 910.855 385.899C906.949 385.899 903.995 383.36 903.653 377.794C903.604 377.208 903.336 377.062 902.848 377.062H902.457C901.505 377.062 900.797 376.354 900.797 375.401C900.797 374.449 901.505 373.741 902.457 373.741H902.848C903.434 373.741 903.751 373.546 903.849 373.009C904.605 368.81 907.096 366.588 910.489 366.588C914.151 366.588 916.349 368.883 916.666 373.692H905.533C904.483 373.692 903.702 374.498 903.702 375.499C903.702 376.5 904.483 377.306 905.533 377.306H921.451V375.792C921.451 367.394 917.057 362.804 910.538 362.804C903.897 362.804 898.941 368.004 898.941 376.207C898.941 385.46 903.897 389.708 910.538 389.708Z" fill="#302112"/>
</svg>
