<svg width="390" height="320" viewBox="0 0 390 320" fill="none" xmlns="http://www.w3.org/2000/svg">
<circle cx="103.333" cy="135.033" r="3" transform="rotate(-90 103.333 135.033)" fill="#FF5500"/>
<circle cx="104.92" cy="123.84" r="3" transform="rotate(-73.7518 104.92 123.84)" fill="#FF5500"/>
<circle cx="109.612" cy="113.509" r="3" transform="rotate(-57.3225 109.612 113.509)" fill="#FF5500"/>
<circle cx="117.015" cy="104.91" r="3" transform="rotate(-41.0434 117.015 104.91)" fill="#FF5500"/>
<circle cx="126.604" cy="98.6878" r="3" transform="rotate(-24.6354 126.604 98.6878)" fill="#FF5500"/>
<circle cx="137.501" cy="95.4541" r="3" transform="rotate(-8.16548 137.501 95.4541)" fill="#FF5500"/>
<circle cx="149.164" cy="95.0327" r="3" fill="#FF5500"/>
<circle cx="160.614" cy="95.0327" r="3" fill="#FF5500"/>
<circle cx="172.064" cy="95.0327" r="3" fill="#FF5500"/>
<circle cx="183.515" cy="95.0327" r="3" fill="#FF5500"/>
<circle cx="195.114" cy="95.3561" r="3" transform="rotate(7.28563 195.114 95.3561)" fill="#FF5500"/>
<circle cx="205.854" cy="98.2967" r="3" transform="rotate(23.5681 205.854 98.2967)" fill="#FF5500"/>
<circle cx="215.631" cy="104.322" r="3" transform="rotate(40.0012 215.631 104.322)" fill="#FF5500"/>
<circle cx="223.25" cy="112.788" r="3" transform="rotate(56.2723 223.25 112.788)" fill="#FF5500"/>
<circle cx="228.234" cy="123.239" r="3" transform="rotate(72.885 228.234 123.239)" fill="#FF5500"/>
<circle cx="229.995" cy="134.4" r="3" transform="rotate(89.1153 229.995 134.4)" fill="#FF5500"/>
<circle cx="229.999" cy="146.015" r="3" transform="rotate(90.4423 229.999 146.015)" fill="#FF5500"/>
<circle cx="228.273" cy="157.364" r="3" transform="rotate(106.898 228.273 157.364)" fill="#FF5500"/>
<circle cx="223.421" cy="167.686" r="3" transform="rotate(123.308 223.421 167.686)" fill="#FF5500"/>
<circle cx="215.846" cy="176.229" r="3" transform="rotate(139.582 215.846 176.229)" fill="#FF5500"/>
<circle cx="206.169" cy="182.297" r="3" transform="rotate(156.005 206.169 182.297)" fill="#FF5500"/>
<circle cx="195.183" cy="185.366" r="3" transform="rotate(172.494 195.183 185.366)" fill="#FF5500"/>
<circle cx="183.733" cy="185.699" r="3" fill="#FF5500"/>
<circle cx="172.283" cy="185.699" r="3" fill="#FF5500"/>
<circle cx="160.832" cy="185.699" r="3" fill="#FF5500"/>
<circle cx="149.382" cy="185.699" r="3" fill="#FF5500"/>
<circle cx="137.754" cy="185.312" r="3" transform="rotate(-172.054 137.754 185.312)" fill="#FF5500"/>
<circle cx="126.807" cy="182.136" r="3" transform="rotate(-155.578 126.807 182.136)" fill="#FF5500"/>
<circle cx="117.229" cy="176.008" r="3" transform="rotate(-139.373 117.229 176.008)" fill="#FF5500"/>
<circle cx="109.756" cy="167.446" r="3" transform="rotate(-123.098 109.756 167.446)" fill="#FF5500"/>
<circle cx="104.967" cy="157.049" r="3" transform="rotate(-106.465 104.967 157.049)" fill="#FF5500"/>
<circle cx="103.333" cy="145.597" r="3" transform="rotate(-90 103.333 145.597)" fill="#FF5500"/>
<circle cx="161" cy="174.065" r="3" transform="rotate(-90 161 174.065)" fill="#FF5500"/>
<circle cx="162.587" cy="162.873" r="3" transform="rotate(-73.7518 162.587 162.873)" fill="#FF5500"/>
<circle cx="167.279" cy="152.542" r="3" transform="rotate(-57.3225 167.279 152.542)" fill="#FF5500"/>
<circle cx="174.681" cy="143.943" r="3" transform="rotate(-41.0434 174.681 143.943)" fill="#FF5500"/>
<circle cx="184.27" cy="137.721" r="3" transform="rotate(-24.6354 184.27 137.721)" fill="#FF5500"/>
<circle cx="195.168" cy="134.487" r="3" transform="rotate(-8.16548 195.168 134.487)" fill="#FF5500"/>
<circle cx="206.83" cy="134.065" r="3" fill="#FF5500"/>
<circle cx="218.281" cy="134.065" r="3" fill="#FF5500"/>
<circle cx="229.731" cy="134.065" r="3" fill="#FF5500"/>
<circle cx="241.182" cy="134.065" r="3" fill="#FF5500"/>
<circle cx="252.781" cy="134.389" r="3" transform="rotate(7.28563 252.781 134.389)" fill="#FF5500"/>
<circle cx="263.521" cy="137.33" r="3" transform="rotate(23.5681 263.521 137.33)" fill="#FF5500"/>
<circle cx="273.297" cy="143.354" r="3" transform="rotate(40.0012 273.297 143.354)" fill="#FF5500"/>
<circle cx="280.917" cy="151.821" r="3" transform="rotate(56.2723 280.917 151.821)" fill="#FF5500"/>
<circle cx="285.9" cy="162.271" r="3" transform="rotate(72.885 285.9 162.271)" fill="#FF5500"/>
<circle cx="287.662" cy="173.433" r="3" transform="rotate(89.1153 287.662 173.433)" fill="#FF5500"/>
<circle cx="287.666" cy="185.048" r="3" transform="rotate(90.4423 287.666 185.048)" fill="#FF5500"/>
<circle cx="285.939" cy="196.397" r="3" transform="rotate(106.898 285.939 196.397)" fill="#FF5500"/>
<circle cx="281.087" cy="206.719" r="3" transform="rotate(123.308 281.087 206.719)" fill="#FF5500"/>
<circle cx="273.512" cy="215.261" r="3" transform="rotate(139.582 273.512 215.261)" fill="#FF5500"/>
<circle cx="263.836" cy="221.329" r="3" transform="rotate(156.005 263.836 221.329)" fill="#FF5500"/>
<circle cx="252.85" cy="224.399" r="3" transform="rotate(172.494 252.85 224.399)" fill="#FF5500"/>
<circle cx="241.4" cy="224.732" r="3" fill="#FF5500"/>
<circle cx="229.949" cy="224.732" r="3" fill="#FF5500"/>
<circle cx="218.499" cy="224.732" r="3" fill="#FF5500"/>
<circle cx="207.048" cy="224.732" r="3" fill="#FF5500"/>
<circle cx="195.42" cy="224.345" r="3" transform="rotate(-172.054 195.42 224.345)" fill="#FF5500"/>
<circle cx="184.474" cy="221.169" r="3" transform="rotate(-155.578 184.474 221.169)" fill="#FF5500"/>
<circle cx="174.896" cy="215.041" r="3" transform="rotate(-139.373 174.896 215.041)" fill="#FF5500"/>
<circle cx="167.423" cy="206.479" r="3" transform="rotate(-123.098 167.423 206.479)" fill="#FF5500"/>
<circle cx="162.633" cy="196.081" r="3" transform="rotate(-106.465 162.633 196.081)" fill="#FF5500"/>
<circle cx="161" cy="184.63" r="3" transform="rotate(-90 161 184.63)" fill="#FF5500"/>
<rect x="0.5" y="0.5" width="389" height="319" rx="4.5" stroke="#E1D5C6"/>
</svg>
