<svg width="160" height="160" viewBox="0 0 160 160" fill="none" xmlns="http://www.w3.org/2000/svg">
<rect width="160" height="160" rx="80" fill="#F9F4F0"/>
<circle cx="80.6236" cy="30.8252" r="2.82524" fill="#302112"/>
<circle cx="71.7082" cy="31.5832" r="2.82524" transform="rotate(166.551 71.7082 31.5832)" fill="#302112"/>
<circle cx="63.5919" cy="34.6527" r="2.82524" transform="rotate(152.784 63.5919 34.6527)" fill="#302112"/>
<circle cx="56.4257" cy="39.5507" r="2.82524" transform="rotate(139.157 56.4257 39.5507)" fill="#302112"/>
<circle cx="50.6066" cy="45.9863" r="2.82524" transform="rotate(125.632 50.6066 45.9863)" fill="#302112"/>
<circle cx="46.4742" cy="53.5668" r="2.82524" transform="rotate(112.102 46.4742 53.5668)" fill="#302112"/>
<circle cx="44.2433" cy="61.9136" r="2.82524" transform="rotate(98.4064 44.2433 61.9136)" fill="#302112"/>
<circle cx="44.0865" cy="70.7535" r="2.82524" transform="rotate(83.7318 44.0865 70.7535)" fill="#302112"/>
<circle cx="45.9868" cy="79.2604" r="2.82524" transform="rotate(72.3161 45.9868 79.2604)" fill="#302112"/>
<circle cx="49.1944" cy="87.3079" r="2.82524" transform="rotate(64.9343 49.1944 87.3079)" fill="#302112"/>
<circle cx="53.1443" cy="94.7991" r="2.82524" transform="rotate(59.8455 53.1443 94.7991)" fill="#302112"/>
<circle cx="57.8326" cy="102.238" r="2.82524" transform="rotate(55.9391 57.8326 102.238)" fill="#302112"/>
<circle cx="62.842" cy="109.217" r="2.82524" transform="rotate(52.875 62.842 109.217)" fill="#302112"/>
<circle cx="68.3221" cy="116.105" r="2.82524" transform="rotate(50.2219 68.3221 116.105)" fill="#302112"/>
<circle cx="74.0082" cy="122.636" r="2.82524" transform="rotate(47.7223 74.0082 122.636)" fill="#302112"/>
<circle cx="80.7889" cy="128.008" r="2.82524" transform="rotate(-3.01834 80.7889 128.008)" fill="#302112"/>
<circle cx="87.1378" cy="122.416" r="2.82524" transform="rotate(-47.7598 87.1378 122.416)" fill="#302112"/>
<circle cx="92.6575" cy="115.83" r="2.6744" transform="rotate(-50.2717 92.6575 115.83)" fill="#302112"/>
<circle cx="98.1722" cy="109.128" r="2.82524" transform="rotate(-52.875 98.1722 109.128)" fill="#302112"/>
<circle cx="103.184" cy="102.133" r="2.82524" transform="rotate(-55.9391 103.184 102.133)" fill="#302112"/>
<circle cx="107.874" cy="94.6755" r="2.82524" transform="rotate(-59.8455 107.874 94.6755)" fill="#302112"/>
<circle cx="111.95" cy="86.8825" r="2.82524" transform="rotate(-65.0825 111.95 86.8825)" fill="#302112"/>
<circle cx="115.101" cy="78.8132" r="2.82524" transform="rotate(-72.5251 115.101 78.8132)" fill="#302112"/>
<circle cx="116.91" cy="70.2818" r="2.82524" transform="rotate(-84.0381 116.91 70.2818)" fill="#302112"/>
<circle cx="116.633" cy="61.4456" r="2.82524" transform="rotate(-98.6266 116.633 61.4456)" fill="#302112"/>
<circle cx="114.275" cy="53.087" r="2.82524" transform="rotate(-112.316 114.275 53.087)" fill="#302112"/>
<circle cx="109.977" cy="45.4853" r="2.82524" transform="rotate(-126.05 109.977 45.4853)" fill="#302112"/>
<circle cx="104.04" cy="39.1383" r="2.82524" transform="rotate(-139.573 104.04 39.1383)" fill="#302112"/>
<circle cx="96.7799" cy="34.3598" r="2.82524" transform="rotate(-153.208 96.7799 34.3598)" fill="#302112"/>
<circle cx="88.6078" cy="31.4337" r="2.82524" transform="rotate(-166.769 88.6078 31.4337)" fill="#302112"/>
<circle cx="98.1259" cy="66.0508" r="2.82524" transform="rotate(90 98.1259 66.0508)" fill="#302112"/>
<circle cx="96.047" cy="74.2204" r="2.82524" transform="rotate(117.612 96.047 74.2204)" fill="#302112"/>
<circle cx="90.3824" cy="80.5125" r="2.82524" transform="rotate(145.224 90.3824 80.5125)" fill="#302112"/>
<circle cx="82.4515" cy="83.4451" r="2.82524" transform="rotate(172.934 82.4515 83.4451)" fill="#302112"/>
<circle cx="74.0056" cy="82.332" r="2.82524" transform="rotate(-159.003 74.0056 82.332)" fill="#302112"/>
<circle cx="67.1219" cy="77.4501" r="2.82524" transform="rotate(-131.46 67.1219 77.4501)" fill="#302112"/>
<circle cx="63.2805" cy="69.9261" r="2.82524" transform="rotate(-103.639 63.2805 69.9261)" fill="#302112"/>
<circle cx="63.3823" cy="61.4598" r="2.82524" transform="rotate(-75.9252 63.3823 61.4598)" fill="#302112"/>
<circle cx="67.407" cy="54.0289" r="2.82524" transform="rotate(-48.1232 67.407 54.0289)" fill="#302112"/>
<circle cx="74.4674" cy="49.2942" r="2.82524" transform="rotate(-20.3522 74.4674 49.2942)" fill="#302112"/>
<circle cx="82.9435" cy="48.4181" r="2.82524" transform="rotate(7.50568 82.9435 48.4181)" fill="#302112"/>
<circle cx="90.7287" cy="51.5294" r="2.82524" transform="rotate(35.1954 90.7287 51.5294)" fill="#302112"/>
<circle cx="96.2458" cy="57.9636" r="2.82524" transform="rotate(62.8122 96.2458 57.9636)" fill="#302112"/>
</svg>
