<svg width="103" height="41" viewBox="0 0 103 41" fill="none" xmlns="http://www.w3.org/2000/svg">
<g clip-path="url(#clip0_2835_763)">
<path d="M25.9218 4.76184C25.5241 4.37393 25.1047 4.00902 24.6657 3.66887C21.7109 1.41961 18.0509 0.306368 14.3486 0.530803C10.6463 0.755239 7.14655 2.30251 4.48318 4.89235C1.59299 7.79198 0.0117188 11.8254 0.0117188 16.3115C0.0117188 25.4427 6.40995 32.0657 15.2228 32.0657C18.5991 32.0939 21.8886 30.9933 24.5722 28.9377C24.9543 28.64 25.3202 28.33 25.6698 27.9997C25.2633 30.3773 24.2633 32.237 22.7511 33.5502C20.9219 35.1366 18.2309 35.9972 14.9626 35.9972C9.77573 35.9972 6.59696 33.8928 5.74738 33.2484L4.08477 31.9883L1.29621 35.7158L2.94661 36.9678C4.08887 37.8324 8.32861 40.6382 14.9626 40.6382C19.4016 40.6382 23.1576 39.4148 25.8283 37.0942C28.9746 34.3659 30.5681 30.2876 30.5681 24.9818V0.944603H25.9218V4.76184ZM22.7674 8.15901C24.8324 10.1981 25.9218 13.0325 25.9218 16.3155C25.9218 22.6409 21.3162 27.4124 15.2106 27.4124C13.8263 27.4384 12.4506 27.1879 11.1637 26.6754C9.87685 26.1629 8.70447 25.3986 7.71481 24.4272C5.70672 22.388 4.64574 19.5985 4.64574 16.3155C4.64574 13.11 5.75551 10.2308 7.7758 8.20389C9.79079 6.26492 12.4731 5.1796 15.2651 5.17352C18.0571 5.16745 20.744 6.24108 22.7674 8.17125" fill="#FF42EF"/>
<path d="M46.5236 20.304C46.4667 26.0421 43.6212 27.2371 41.2392 27.2371C39.4994 27.2371 38.2514 26.7232 37.4262 25.6629C36.601 24.6025 36.1579 22.9304 36.1579 20.8505V0.94458H31.5117V20.8627C31.5117 27.7958 35.1498 31.9107 41.2392 31.9107C43.1082 31.9334 44.9437 31.4121 46.5236 30.41V31.6334H51.1699V0.964966H46.5236V20.304Z" fill="#FF42EF"/>
<path d="M62.6649 13.534C58.5024 12.1433 57.665 10.6425 57.665 8.67681C57.665 7.12299 58.7137 5.30817 61.6608 5.30817C64.36 5.30817 65.5795 6.49087 65.612 9.14582L65.6364 11.2053H70.2542V9.12135C70.2542 3.89303 66.9656 0.646729 61.6608 0.646729C59.1487 0.646729 56.974 1.46238 55.3846 2.99581C54.6261 3.73176 54.0252 4.6151 53.6184 5.59186C53.2117 6.56861 53.0076 7.61829 53.0187 8.67681C53.0187 11.7069 53.9415 15.4956 61.1487 17.9304C65.8843 19.5617 66.2624 21.1522 66.2624 23.0894C66.2624 24.3414 65.7949 27.2492 61.4739 27.2492C58.4252 27.2492 56.8845 25.6505 56.8845 22.498V20.414H52.2383V22.498C52.2383 28.3054 55.7748 31.9106 61.4739 31.9106C67.173 31.9106 70.9046 28.3462 70.9046 23.0404C70.9046 20.5364 70.1607 18.534 68.6323 16.923C67.299 15.512 65.4047 14.4394 62.673 13.5422" fill="#FF42EF"/>
<path d="M97.6861 0.94458V13.6443H76.406V0.94458H71.7598V31.613H76.406V17.5798H97.6861V31.613H102.332V0.94458H97.6861Z" fill="#FF42EF"/>
</g>
<defs>
<clipPath id="clip0_2835_763">
<rect width="102.331" height="40.13" fill="white" transform="translate(0 0.5)"/>
</clipPath>
</defs>
</svg>
