<svg width="160" height="160" viewBox="0 0 160 160" fill="none" xmlns="http://www.w3.org/2000/svg">
<rect width="160" height="160" rx="80" fill="#F9F4F0"/>
<g clip-path="url(#clip0_3245_14121)">
<path d="M47.559 64.2988C47.559 62.7385 48.8619 61.4736 50.4691 61.4736C52.0763 61.4736 53.3792 62.7385 53.3792 64.2988C53.3792 65.8591 52.0763 67.124 50.4691 67.124C48.8619 67.124 47.559 65.8591 47.559 64.2988Z" fill="#302112"/>
<path d="M39.978 59.9495C40.8948 58.6869 42.6923 58.4289 43.9928 59.3732C45.2933 60.3175 45.6044 62.1065 44.6876 63.3691C43.7708 64.6317 41.9733 64.8898 40.6728 63.9454C39.3723 63.0011 39.0613 61.2121 39.978 59.9495Z" fill="#302112"/>
<path d="M36.4112 51.9811C37.8956 51.5 39.5005 52.3495 39.996 53.8784C40.4914 55.4073 39.6898 57.0367 38.2055 57.5177C36.7211 57.9987 35.1162 57.1493 34.6207 55.6204C34.1252 54.0914 34.9269 52.4621 36.4112 51.9811Z" fill="#302112"/>
<path d="M37.8378 43.183C39.3222 43.664 40.1238 45.2933 39.6283 46.8223C39.1329 48.3512 37.5279 49.2006 36.0436 48.7196C34.5593 48.2386 33.7576 46.6092 34.2531 45.0803C34.7485 43.5514 36.3535 42.7019 37.8378 43.183Z" fill="#302112"/>
<path d="M44.7159 37.2811C45.6283 38.5469 45.3111 40.3349 44.0073 41.2747C42.7036 42.2145 40.907 41.9502 39.9946 40.6844C39.0822 39.4187 39.3994 37.6307 40.7032 36.6909C42.007 35.7511 43.8035 36.0154 44.7159 37.2811Z" fill="#302112"/>
<path d="M53.3548 36.3541C53.3575 37.9145 52.0569 39.1816 50.4497 39.1844C48.8425 39.1873 47.5374 37.9246 47.5347 36.3643C47.532 34.804 48.8327 33.5368 50.4398 33.534C52.047 33.5312 53.3521 34.7938 53.3548 36.3541Z" fill="#302112"/>
<ellipse cx="59.4615" cy="64.1241" rx="2.82524" ry="2.82524" fill="#302112"/>
<ellipse cx="59.4615" cy="36.354" rx="2.82524" ry="2.82524" fill="#302112"/>
<ellipse cx="68.6072" cy="64.1241" rx="2.82524" ry="2.82524" fill="#302112"/>
<ellipse cx="68.6072" cy="36.354" rx="2.82524" ry="2.82524" fill="#302112"/>
<ellipse cx="77.7535" cy="64.1241" rx="2.82524" ry="2.82524" fill="#302112"/>
<ellipse cx="128.112" cy="77.0942" rx="2.82523" ry="2.82524" transform="rotate(135 128.112 77.0942)" fill="#302112"/>
<ellipse cx="121.645" cy="83.5615" rx="2.82523" ry="2.82524" transform="rotate(135 121.645 83.5615)" fill="#302112"/>
<ellipse cx="115.178" cy="90.0283" rx="2.82523" ry="2.82524" transform="rotate(135 115.178 90.0283)" fill="#302112"/>
<ellipse cx="108.711" cy="96.4956" rx="2.82523" ry="2.82524" transform="rotate(135 108.711 96.4956)" fill="#302112"/>
<ellipse cx="102.244" cy="102.963" rx="2.82523" ry="2.82524" transform="rotate(135 102.244 102.963)" fill="#302112"/>
<ellipse cx="95.7765" cy="109.43" rx="2.82523" ry="2.82524" transform="rotate(135 95.7765 109.43)" fill="#302112"/>
<ellipse cx="89.3094" cy="115.897" rx="2.82523" ry="2.82524" transform="rotate(135 89.3094 115.897)" fill="#302112"/>
<ellipse cx="82.8424" cy="122.364" rx="2.82523" ry="2.82524" transform="rotate(135 82.8424 122.364)" fill="#302112"/>
<ellipse cx="76.2556" cy="128.951" rx="2.82523" ry="2.82524" transform="rotate(-135 76.2556 128.951)" fill="#302112"/>
<ellipse cx="121.526" cy="70.7467" rx="2.82523" ry="2.82524" transform="rotate(-135 121.526 70.7467)" fill="#302112"/>
<ellipse cx="115.059" cy="64.2794" rx="2.82523" ry="2.82524" transform="rotate(-135 115.059 64.2794)" fill="#302112"/>
<ellipse cx="108.591" cy="57.8131" rx="2.82523" ry="2.82524" transform="rotate(-135 108.591 57.8131)" fill="#302112"/>
<ellipse cx="102.124" cy="51.3448" rx="2.82523" ry="2.82524" transform="rotate(-135 102.124 51.3448)" fill="#302112"/>
<ellipse cx="95.6567" cy="44.878" rx="2.82523" ry="2.82524" transform="rotate(-135 95.6567 44.878)" fill="#302112"/>
<ellipse cx="89.1902" cy="38.4108" rx="2.82523" ry="2.82524" transform="rotate(-135 89.1902 38.4108)" fill="#302112"/>
<ellipse cx="69.7886" cy="122.484" rx="2.82523" ry="2.82524" transform="rotate(-135 69.7886 122.484)" fill="#302112"/>
<ellipse cx="63.3218" cy="116.017" rx="2.82523" ry="2.82524" transform="rotate(-135 63.3218 116.017)" fill="#302112"/>
<ellipse cx="56.8542" cy="109.55" rx="2.82523" ry="2.82524" transform="rotate(-135 56.8542 109.55)" fill="#302112"/>
<ellipse cx="50.387" cy="103.082" rx="2.82523" ry="2.82524" transform="rotate(-135 50.387 103.082)" fill="#302112"/>
<ellipse cx="43.9197" cy="96.6154" rx="2.82523" ry="2.82524" transform="rotate(-135 43.9197 96.6154)" fill="#302112"/>
<ellipse cx="37.4531" cy="90.1486" rx="2.82523" ry="2.82524" transform="rotate(-135 37.4531 90.1486)" fill="#302112"/>
<ellipse cx="108.591" cy="83.6813" rx="2.82523" ry="2.82524" transform="rotate(-135 108.591 83.6813)" fill="#302112"/>
<ellipse cx="102.124" cy="77.214" rx="2.82523" ry="2.82524" transform="rotate(-135 102.124 77.214)" fill="#302112"/>
<ellipse cx="95.6565" cy="70.7467" rx="2.82523" ry="2.82524" transform="rotate(-135 95.6565 70.7467)" fill="#302112"/>
<ellipse cx="89.1897" cy="64.2794" rx="2.82523" ry="2.82524" transform="rotate(-135 89.1897 64.2794)" fill="#302112"/>
<ellipse cx="82.7224" cy="57.8131" rx="2.82523" ry="2.82524" transform="rotate(-135 82.7224 57.8131)" fill="#302112"/>
<ellipse cx="76.2554" cy="51.3453" rx="2.82523" ry="2.82524" transform="rotate(-135 76.2554 51.3453)" fill="#302112"/>
<ellipse cx="82.8429" cy="31.8242" rx="2.82523" ry="2.82524" transform="rotate(135 82.8429 31.8242)" fill="#302112"/>
<ellipse cx="76.3759" cy="38.2915" rx="2.82523" ry="2.82524" transform="rotate(135 76.3759 38.2915)" fill="#302112"/>
<ellipse cx="69.9083" cy="44.7588" rx="2.82523" ry="2.82524" transform="rotate(135 69.9083 44.7588)" fill="#302112"/>
<ellipse cx="63.4415" cy="51.2256" rx="2.82523" ry="2.82524" transform="rotate(135 63.4415 51.2256)" fill="#302112"/>
<ellipse cx="56.9745" cy="57.6929" rx="2.82523" ry="2.82524" transform="rotate(135 56.9745 57.6929)" fill="#302112"/>
<ellipse cx="44.0394" cy="70.627" rx="2.82523" ry="2.82524" transform="rotate(135 44.0394 70.627)" fill="#302112"/>
<ellipse cx="37.5721" cy="77.0942" rx="2.82523" ry="2.82524" transform="rotate(135 37.5721 77.0942)" fill="#302112"/>
<ellipse cx="30.9861" cy="83.6808" rx="2.82523" ry="2.82524" transform="rotate(-135 30.9861 83.6808)" fill="#302112"/>
</g>
<defs>
<clipPath id="clip0_3245_14121">
<rect width="103" height="102.677" fill="white" transform="translate(28 29)"/>
</clipPath>
</defs>
</svg>
