<svg width="509" height="508" viewBox="0 0 509 508" fill="none" xmlns="http://www.w3.org/2000/svg">
<circle cx="123.474" cy="92.0167" r="32.5126" stroke="#B6AC9E" stroke-width="1.22689"/>
<circle cx="182.364" cy="147.228" r="32.5126" stroke="#B6AC9E" stroke-width="1.22689"/>
<circle cx="149.235" cy="213.482" r="32.5126" stroke="#B6AC9E" stroke-width="1.22689"/>
<circle cx="236.345" cy="199.985" r="32.5126" stroke="#B6AC9E" stroke-width="1.22689"/>
<circle cx="307.505" cy="229.431" r="32.5126" stroke="#B6AC9E" stroke-width="1.22689"/>
<circle cx="399.521" cy="266.235" r="32.5126" stroke="#B6AC9E" stroke-width="1.22689"/>
<circle cx="355.353" cy="374.204" r="32.5126" stroke="#B6AC9E" stroke-width="1.22689"/>
<circle cx="333.271" cy="299.364" r="32.5126" stroke="#B6AC9E" stroke-width="1.22689"/>
<circle cx="278.06" cy="350.892" r="32.5126" stroke="#B6AC9E" stroke-width="1.22689"/>
<circle cx="302.599" cy="420.825" r="32.5126" stroke="#B6AC9E" stroke-width="1.22689"/>
<circle cx="236.345" cy="277.278" r="32.5126" stroke="#B6AC9E" stroke-width="1.22689"/>
<circle cx="163.958" cy="279.732" r="32.5126" stroke="#B6AC9E" stroke-width="1.22689"/>
<circle cx="90.3448" cy="277.278" r="32.5126" stroke="#B6AC9E" stroke-width="1.22689"/>
<circle cx="144.329" cy="360.708" r="32.5126" stroke="#B6AC9E" stroke-width="1.22689"/>
<circle cx="211.81" cy="387.7" r="32.5126" stroke="#B6AC9E" stroke-width="1.22689"/>
<circle cx="241.255" cy="458.857" r="32.5126" stroke="#B6AC9E" stroke-width="1.22689"/>
<circle cx="258.431" cy="125.146" r="32.5126" stroke="#B6AC9E" stroke-width="1.22689"/>
<circle cx="333.271" cy="130.052" r="32.5126" stroke="#B6AC9E" stroke-width="1.22689"/>
<circle cx="373.759" cy="192.622" r="32.5126" stroke="#B6AC9E" stroke-width="1.22689"/>
<circle cx="448.599" cy="211.024" r="32.5126" stroke="#B6AC9E" stroke-width="1.22689"/>
<circle cx="254.748" cy="253.966" r="253.353" stroke="#302112" stroke-width="1.22689"/>
</svg>
