<svg width="198" height="198" viewBox="0 0 198 198" fill="none" xmlns="http://www.w3.org/2000/svg">
<circle cx="98.5996" cy="98.5996" r="98.5996" fill="#00FF00"/>
<path d="M30.1709 77.6339V112.053H36.5006V62.9902H30.9579C30.6157 67.4039 26.8864 70.2094 20.8647 70.3463V75.2047H28.426C29.0761 75.2047 29.4182 74.7599 29.4182 74.2125V73.8704C29.4182 72.3307 30.7526 71.0648 32.2238 71.0648C33.8319 71.0648 35.0294 72.3307 35.0294 73.8704C35.0294 75.41 33.8319 76.6759 32.2238 76.6759H31.0947C30.4789 76.6759 30.1709 77.0865 30.1709 77.6339ZM62.112 113.046C73.1632 113.046 80.0403 103.226 80.0403 87.5218C80.0403 71.8175 73.1632 62.0322 62.112 62.0322C51.0266 62.0322 44.1495 71.8175 44.1495 87.5218C44.1495 103.226 51.0266 113.046 62.112 113.046ZM45.0049 87.5218C45.0049 86.1191 46.1339 84.99 47.5367 84.99C48.9395 84.99 50.0344 86.1191 50.0344 87.5218C50.0344 88.9246 48.9395 90.0537 47.5367 90.0537C46.1339 90.0537 45.0049 88.9246 45.0049 87.5218ZM50.8897 87.5218C50.8897 74.0756 55.1665 67.9171 62.112 67.9171C69.0233 67.9171 73.3001 74.0756 73.3001 87.5218C73.3001 100.968 69.0233 107.161 62.112 107.161C55.1665 107.161 50.8897 100.968 50.8897 87.5218ZM74.1554 87.5218C74.1554 86.1191 75.2845 84.99 76.6873 84.99C78.0901 84.99 79.1849 86.1191 79.1849 87.5218C79.1849 88.9246 78.0901 90.0537 76.6873 90.0537C75.2845 90.0537 74.1554 88.9246 74.1554 87.5218ZM103.462 113.046C114.513 113.046 121.39 103.226 121.39 87.5218C121.39 71.8175 114.513 62.0322 103.462 62.0322C92.3766 62.0322 85.4995 71.8175 85.4995 87.5218C85.4995 103.226 92.3766 113.046 103.462 113.046ZM86.3548 87.5218C86.3548 86.1191 87.4839 84.99 88.8867 84.99C90.2895 84.99 91.3843 86.1191 91.3843 87.5218C91.3843 88.9246 90.2895 90.0537 88.8867 90.0537C87.4839 90.0537 86.3548 88.9246 86.3548 87.5218ZM92.2397 87.5218C92.2397 74.0756 96.5165 67.9171 103.462 67.9171C110.373 67.9171 114.65 74.0756 114.65 87.5218C114.65 100.968 110.373 107.161 103.462 107.161C96.5165 107.161 92.2397 100.968 92.2397 87.5218ZM115.505 87.5218C115.505 86.1191 116.634 84.99 118.037 84.99C119.44 84.99 120.535 86.1191 120.535 87.5218C120.535 88.9246 119.44 90.0537 118.037 90.0537C116.634 90.0537 115.505 88.9246 115.505 87.5218ZM130.647 112.053H137.045L168.899 62.9902H162.535L130.647 112.053ZM125.378 75.2731C125.378 83.1766 129.518 88.1377 135.95 88.1377C142.417 88.1377 146.557 83.1766 146.557 75.2731C146.557 67.3354 142.349 62.4428 135.95 62.4428C129.587 62.4428 125.378 67.3354 125.378 75.2731ZM131.263 75.2731C131.263 70.0726 132.803 67.3354 135.95 67.3354C139.064 67.3354 140.672 70.0726 140.672 75.2731C140.672 80.4395 139.064 83.2451 135.95 83.2451C132.871 83.2451 131.263 80.4395 131.263 75.2731ZM154.255 99.8732C154.255 107.777 158.395 112.738 164.827 112.738C171.294 112.738 175.434 107.777 175.434 99.8732C175.434 91.9355 171.225 87.0428 164.827 87.0428C158.463 87.0428 154.255 91.9355 154.255 99.8732ZM160.14 99.8732C160.14 94.6726 161.68 91.9355 164.827 91.9355C167.941 91.9355 169.549 94.6726 169.549 99.8732C169.549 105.04 167.941 107.845 164.827 107.845C161.748 107.845 160.14 105.04 160.14 99.8732Z" fill="#302112"/>
<path d="M30.8708 140.397C29.739 140.397 28.7887 140.135 28.0199 139.612C27.2512 139.078 26.6799 138.363 26.3062 137.466C25.9325 136.558 25.7456 135.539 25.7456 134.407C25.7456 133.232 25.9432 132.202 26.3382 131.316C26.7333 130.419 27.3206 129.725 28.1 129.234C28.8795 128.732 29.8191 128.481 30.9189 128.481C32.2535 128.481 33.2999 128.838 34.058 129.554C34.8161 130.269 35.2699 131.241 35.4194 132.469L33.8658 132.629C33.7484 131.753 33.4281 131.059 32.9049 130.547C32.3923 130.034 31.7037 129.778 30.8388 129.778C29.739 129.778 28.8795 130.2 28.2602 131.043C27.6516 131.876 27.3472 132.992 27.3472 134.391C27.3472 135.288 27.4807 136.094 27.7477 136.809C28.0146 137.514 28.4097 138.069 28.9329 138.475C29.4667 138.87 30.1127 139.067 30.8708 139.067C31.6716 139.067 32.3443 138.822 32.8888 138.331C33.4334 137.829 33.7858 137.151 33.9459 136.297L35.4194 136.553C35.1845 137.706 34.688 138.635 33.9299 139.34C33.1825 140.044 32.1628 140.397 30.8708 140.397ZM38.8442 128.513V140.125H37.4829V128.513H38.8442ZM47.9557 136.521H42.27C42.2806 137.3 42.4995 137.93 42.9266 138.411C43.3644 138.881 43.941 139.115 44.6564 139.115C45.1689 139.115 45.6067 138.987 45.9697 138.731C46.3327 138.464 46.605 138.085 46.7865 137.594L47.9076 138.09C47.63 138.817 47.2029 139.372 46.6264 139.756C46.0604 140.13 45.3718 140.317 44.5603 140.317C43.4071 140.317 42.5102 139.964 41.8695 139.26C41.2289 138.544 40.9086 137.53 40.9086 136.217C40.9086 134.871 41.2289 133.819 41.8695 133.061C42.5102 132.303 43.4018 131.924 44.5442 131.924C45.6333 131.924 46.4715 132.234 47.0588 132.853C47.6567 133.472 47.9557 134.375 47.9557 135.56V136.521ZM46.5783 135.24C46.5783 134.514 46.3968 133.958 46.0338 133.574C45.6814 133.19 45.1742 132.997 44.5122 132.997C43.8182 132.997 43.2736 133.211 42.8786 133.638C42.4942 134.065 42.2913 134.658 42.27 135.416H46.5783V135.24ZM51.9241 140.317C51.1019 140.317 50.4453 140.103 49.9541 139.676C49.4629 139.249 49.2173 138.678 49.2173 137.962C49.2173 137.557 49.3134 137.194 49.5056 136.873C49.6978 136.542 49.9754 136.275 50.3385 136.072C50.6481 135.923 51.0112 135.795 51.4276 135.688C51.844 135.581 52.3779 135.49 53.0292 135.416L54.5187 135.24V135.111C54.5187 134.375 54.3799 133.846 54.1023 133.526C53.8247 133.206 53.3762 133.045 52.7569 133.045C52.2124 133.045 51.7799 133.184 51.4596 133.462C51.1393 133.739 50.9631 134.129 50.9311 134.631H49.4736C49.527 133.809 49.8473 133.152 50.4346 132.661C51.0325 132.17 51.8013 131.924 52.7409 131.924C53.8407 131.924 54.6415 132.191 55.1433 132.725C55.6452 133.248 55.8961 134.092 55.8961 135.256V137.418C55.8961 138.635 55.9869 139.537 56.1684 140.125H54.7429C54.6789 139.676 54.6362 139.19 54.6148 138.667C54.4333 139.18 54.1023 139.585 53.6218 139.884C53.1413 140.173 52.5754 140.317 51.9241 140.317ZM52.2284 139.196C52.9224 139.196 53.4776 138.966 53.8941 138.507C54.3212 138.037 54.5347 137.412 54.5347 136.633V136.233L52.3565 136.553C51.7693 136.638 51.3368 136.793 51.0592 137.017C50.7923 137.231 50.6588 137.535 50.6588 137.93C50.6588 138.325 50.7976 138.635 51.0752 138.859C51.3528 139.083 51.7372 139.196 52.2284 139.196ZM59.6529 133.942C59.8558 133.344 60.1654 132.859 60.5818 132.485C61.0089 132.111 61.5108 131.924 62.0873 131.924C62.2155 131.924 62.3116 131.93 62.3756 131.94V133.27H62.3116C61.5535 133.27 60.9662 133.478 60.5498 133.894C60.2081 134.236 59.9892 134.631 59.8931 135.079C59.797 135.528 59.749 136.067 59.749 136.697V140.125H58.3876V132.116H59.6529V133.942ZM70.9465 140.317C70.1991 140.317 69.5425 140.151 68.9766 139.82C68.4107 139.479 67.9729 138.993 67.6632 138.363C67.3643 137.733 67.2148 136.985 67.2148 136.12C67.2148 135.256 67.3643 134.508 67.6632 133.878C67.9729 133.248 68.4107 132.768 68.9766 132.437C69.5425 132.095 70.1991 131.924 70.9465 131.924C71.694 131.924 72.3506 132.095 72.9165 132.437C73.4824 132.768 73.9149 133.248 74.2138 133.878C74.5235 134.508 74.6783 135.256 74.6783 136.12C74.6783 136.985 74.5235 137.733 74.2138 138.363C73.9149 138.993 73.4824 139.479 72.9165 139.82C72.3506 140.151 71.694 140.317 70.9465 140.317ZM70.9465 139.132C71.6726 139.132 72.2332 138.875 72.6282 138.363C73.034 137.85 73.2369 137.103 73.2369 136.12C73.2369 135.138 73.034 134.391 72.6282 133.878C72.2332 133.366 71.6726 133.109 70.9465 133.109C70.2205 133.109 69.6546 133.366 69.2488 133.878C68.8538 134.391 68.6562 135.138 68.6562 136.12C68.6562 137.103 68.8538 137.85 69.2488 138.363C69.6546 138.875 70.2205 139.132 70.9465 139.132ZM80.1321 133.238H78.1301V140.125H76.7687V133.238H75.2952V132.116H76.7687V130.851C76.7687 130.114 76.9822 129.527 77.4093 129.089C77.8364 128.641 78.4023 128.417 79.107 128.417C79.5021 128.417 79.8438 128.454 80.1321 128.529V129.698C79.8118 129.645 79.5288 129.618 79.2832 129.618C78.8775 129.618 78.5838 129.735 78.4023 129.97C78.2208 130.194 78.1301 130.552 78.1301 131.043V132.116H80.1321V133.238ZM87.0422 132.116V133.51C87.4906 132.431 88.2541 131.892 89.3325 131.892C89.8877 131.892 90.3575 132.031 90.7419 132.309C91.137 132.586 91.4253 132.992 91.6068 133.526C92.1407 132.437 92.9522 131.892 94.0413 131.892C94.81 131.892 95.408 132.154 95.8351 132.677C96.2622 133.2 96.4757 133.932 96.4757 134.871V140.125H95.1143V134.983C95.1143 133.723 94.6072 133.093 93.5928 133.093C93.0269 133.093 92.5838 133.296 92.2635 133.702C91.9538 134.097 91.799 134.658 91.799 135.384V140.125H90.4376V134.919C90.4376 134.332 90.3041 133.884 90.0372 133.574C89.781 133.254 89.4126 133.093 88.9321 133.093C88.3769 133.093 87.9338 133.307 87.6028 133.734C87.2824 134.15 87.1223 134.722 87.1223 135.448V140.125H85.7609V132.116H87.0422ZM101.945 140.317C101.198 140.317 100.541 140.151 99.975 139.82C99.4091 139.479 98.9713 138.993 98.6617 138.363C98.3627 137.733 98.2132 136.985 98.2132 136.12C98.2132 135.256 98.3627 134.508 98.6617 133.878C98.9713 133.248 99.4091 132.768 99.975 132.437C100.541 132.095 101.198 131.924 101.945 131.924C102.692 131.924 103.349 132.095 103.915 132.437C104.481 132.768 104.913 133.248 105.212 133.878C105.522 134.508 105.677 135.256 105.677 136.12C105.677 136.985 105.522 137.733 105.212 138.363C104.913 138.993 104.481 139.479 103.915 139.82C103.349 140.151 102.692 140.317 101.945 140.317ZM101.945 139.132C102.671 139.132 103.232 138.875 103.627 138.363C104.032 137.85 104.235 137.103 104.235 136.12C104.235 135.138 104.032 134.391 103.627 133.878C103.232 133.366 102.671 133.109 101.945 133.109C101.219 133.109 100.653 133.366 100.247 133.878C99.8522 134.391 99.6547 135.138 99.6547 136.12C99.6547 137.103 99.8522 137.85 100.247 138.363C100.653 138.875 101.219 139.132 101.945 139.132ZM109.091 128.513V140.125H107.729V128.513H109.091ZM114.406 140.317C113.766 140.317 113.2 140.146 112.709 139.804C112.218 139.452 111.833 138.961 111.556 138.331C111.289 137.69 111.155 136.953 111.155 136.12C111.155 135.309 111.299 134.588 111.588 133.958C111.876 133.318 112.276 132.821 112.789 132.469C113.312 132.106 113.905 131.924 114.567 131.924C115.634 131.924 116.419 132.383 116.921 133.302V128.513H118.282V140.125H117.001V138.635C116.756 139.18 116.414 139.596 115.976 139.884C115.549 140.173 115.026 140.317 114.406 140.317ZM114.775 139.115C115.437 139.115 115.965 138.865 116.36 138.363C116.756 137.85 116.953 137.167 116.953 136.313V135.944C116.953 135.069 116.756 134.38 116.36 133.878C115.976 133.376 115.448 133.125 114.775 133.125C114.091 133.125 113.558 133.392 113.173 133.926C112.789 134.449 112.597 135.181 112.597 136.12C112.597 137.06 112.789 137.797 113.173 138.331C113.558 138.854 114.091 139.115 114.775 139.115ZM121.061 140.125V132.116H122.422V140.125H121.061ZM120.964 130.627V128.913H122.518V130.627H120.964ZM125.115 132.116H126.396V133.702C126.92 132.495 127.811 131.892 129.071 131.892C129.957 131.892 130.625 132.17 131.073 132.725C131.522 133.27 131.746 134.076 131.746 135.143V140.125H130.384V135.224C130.384 133.803 129.797 133.093 128.623 133.093C127.961 133.093 127.437 133.35 127.053 133.862C126.669 134.364 126.476 135.058 126.476 135.944V140.125H125.115V132.116ZM140.356 131.988C139.747 131.988 139.347 132.239 139.155 132.741C139.646 133.232 139.892 133.862 139.892 134.631C139.892 135.154 139.769 135.624 139.523 136.04C139.288 136.446 138.947 136.772 138.498 137.017C138.06 137.252 137.537 137.37 136.929 137.37C136.373 137.37 135.861 137.258 135.391 137.033C135.22 137.108 135.081 137.215 134.975 137.354C134.868 137.482 134.814 137.637 134.814 137.818C134.814 138.064 134.916 138.261 135.119 138.411C135.332 138.56 135.674 138.635 136.144 138.635H138.098C138.995 138.635 139.673 138.833 140.132 139.228C140.591 139.612 140.821 140.167 140.821 140.893C140.821 141.683 140.495 142.303 139.844 142.751C139.192 143.21 138.194 143.44 136.849 143.44C135.546 143.44 134.617 143.237 134.062 142.831C133.517 142.426 133.245 141.897 133.245 141.246C133.245 140.861 133.357 140.52 133.581 140.221C133.805 139.932 134.126 139.719 134.542 139.58C133.923 139.302 133.613 138.838 133.613 138.187C133.613 137.802 133.715 137.471 133.918 137.194C134.12 136.916 134.398 136.713 134.75 136.585C134.227 136.083 133.966 135.432 133.966 134.631C133.966 133.841 134.233 133.195 134.766 132.693C135.3 132.18 136.021 131.924 136.929 131.924C137.494 131.924 138.018 132.036 138.498 132.261C138.626 131.823 138.845 131.47 139.155 131.203C139.475 130.937 139.892 130.803 140.404 130.803C140.596 130.803 140.772 130.824 140.933 130.867V132.052C140.719 132.01 140.527 131.988 140.356 131.988ZM136.929 136.329C137.43 136.329 137.836 136.174 138.146 135.864C138.455 135.544 138.61 135.138 138.61 134.647C138.61 134.156 138.455 133.755 138.146 133.446C137.836 133.125 137.43 132.965 136.929 132.965C136.416 132.965 136.005 133.12 135.695 133.43C135.396 133.739 135.247 134.14 135.247 134.631C135.247 135.122 135.402 135.528 135.711 135.848C136.021 136.169 136.427 136.329 136.929 136.329ZM136.096 139.836C135.925 139.836 135.701 139.826 135.423 139.804C135.145 139.932 134.932 140.103 134.782 140.317C134.644 140.53 134.574 140.76 134.574 141.005C134.574 141.475 134.782 141.812 135.199 142.014C135.626 142.217 136.229 142.319 137.009 142.319C137.916 142.319 138.552 142.196 138.915 141.95C139.278 141.715 139.459 141.395 139.459 140.989C139.459 140.616 139.32 140.327 139.043 140.125C138.765 139.932 138.349 139.836 137.793 139.836H136.096Z" fill="#302112"/>
</svg>
