<svg width="349" height="349" viewBox="0 0 349 349" fill="none" xmlns="http://www.w3.org/2000/svg">
<rect width="349" height="349" rx="171.374" fill="#00FF00"/>
<path d="M92.6691 197.483C115.595 197.483 127.026 179.378 127.026 148.728C127.026 123.454 115.595 105.349 94.0904 105.349C76.232 105.349 63.5025 117.399 63.5025 135.937C63.5025 152.374 74.5018 164.732 91.6186 164.732C100.64 164.732 110.033 160.592 112.567 152.188C113.37 149.531 115.224 147.368 117.943 147.368C120.662 147.368 122.824 149.408 122.824 152.25C122.824 155.093 120.662 157.132 117.757 157.132H116.769C115.471 157.132 114.791 157.812 114.668 159.109C112.876 179.563 103.607 186.855 93.2253 186.855C82.8439 186.855 76.9735 180.922 76.232 172.58H63.9969C65.0474 188.585 76.9117 197.483 92.6691 197.483ZM75.6141 134.948C75.6141 123.949 82.9675 115.854 93.8432 115.854C104.842 115.854 112.196 123.949 112.196 134.948C112.196 146.133 104.842 154.104 93.8432 154.104C82.9675 154.104 75.6141 146.133 75.6141 134.948ZM163.336 197.483C186.262 197.483 197.694 179.378 197.694 148.728C197.694 123.454 186.262 105.349 164.758 105.349C146.899 105.349 134.17 117.399 134.17 135.937C134.17 152.374 145.169 164.732 162.286 164.732C171.308 164.732 180.7 160.592 183.234 152.188C184.037 149.531 185.891 147.368 188.61 147.368C191.329 147.368 193.492 149.408 193.492 152.25C193.492 155.093 191.329 157.132 188.424 157.132H187.436C186.138 157.132 185.458 157.812 185.335 159.109C183.543 179.563 174.274 186.855 163.892 186.855C153.511 186.855 147.641 180.922 146.899 172.58H134.664C135.715 188.585 147.579 197.483 163.336 197.483ZM146.281 134.948C146.281 123.949 153.635 115.854 164.51 115.854C175.51 115.854 182.863 123.949 182.863 134.948C182.863 146.133 175.51 154.104 164.51 154.104C153.635 154.104 146.281 146.133 146.281 134.948ZM211.881 196H223.437L280.967 107.388H269.473L211.881 196ZM202.365 129.572C202.365 143.846 209.842 152.806 221.459 152.806C233.138 152.806 240.615 143.846 240.615 129.572C240.615 115.236 233.015 106.399 221.459 106.399C209.966 106.399 202.365 115.236 202.365 129.572ZM212.994 129.572C212.994 120.179 215.774 115.236 221.459 115.236C227.083 115.236 229.987 120.179 229.987 129.572C229.987 138.903 227.083 143.97 221.459 143.97C215.898 143.97 212.994 138.903 212.994 129.572ZM254.519 174.001C254.519 188.276 261.996 197.236 273.613 197.236C285.292 197.236 292.769 188.276 292.769 174.001C292.769 159.665 285.169 150.829 273.613 150.829C262.12 150.829 254.519 159.665 254.519 174.001ZM265.147 174.001C265.147 164.609 267.928 159.665 273.613 159.665C279.236 159.665 282.141 164.609 282.141 174.001C282.141 183.332 279.236 188.399 273.613 188.399C268.052 188.399 265.147 183.332 265.147 174.001Z" fill="#302112"/>
<path d="M63.6477 228.238C64.0751 226.978 64.7276 225.955 65.605 225.167C66.505 224.38 67.5624 223.986 68.7773 223.986C69.0473 223.986 69.2498 223.997 69.3848 224.02V226.821H69.2498C67.6524 226.821 66.415 227.259 65.5375 228.137C64.8176 228.857 64.3564 229.689 64.1539 230.634C63.9514 231.579 63.8502 232.715 63.8502 234.043V241.265H60.9816V224.391H63.6477V228.238ZM84.5878 233.671H72.6074C72.6299 235.314 73.0911 236.641 73.991 237.654C74.9135 238.644 76.1284 239.139 77.6358 239.139C78.7157 239.139 79.6381 238.869 80.4031 238.329C81.168 237.766 81.7417 236.967 82.1242 235.933L84.4865 236.979C83.9016 238.509 83.0016 239.679 81.7867 240.488C80.5943 241.276 79.1432 241.67 77.4333 241.67C75.0035 241.67 73.1136 240.927 71.7637 239.442C70.4138 237.935 69.7388 235.798 69.7388 233.03C69.7388 230.195 70.4138 227.979 71.7637 226.382C73.1136 224.785 74.9922 223.986 77.3995 223.986C79.6944 223.986 81.4605 224.638 82.6979 225.943C83.9578 227.248 84.5878 229.149 84.5878 231.647V233.671ZM81.6855 231.343V230.972C81.6855 229.442 81.303 228.272 80.538 227.462C79.7956 226.652 78.7269 226.247 77.332 226.247C75.8696 226.247 74.7222 226.697 73.8898 227.597C73.0798 228.497 72.6524 229.745 72.6074 231.343H81.6855ZM87.6303 224.391H90.3301V227.327C91.275 225.1 92.8837 223.986 95.156 223.986C96.3259 223.986 97.3159 224.278 98.1258 224.863C98.9582 225.426 99.5657 226.258 99.9482 227.361C101.051 225.111 102.76 223.986 105.078 223.986C106.698 223.986 107.958 224.537 108.858 225.64C109.757 226.719 110.207 228.238 110.207 230.195V241.265H107.339V230.432C107.339 227.777 106.27 226.449 104.133 226.449C102.94 226.449 102.007 226.877 101.332 227.732C100.679 228.564 100.353 229.745 100.353 231.275V241.265H97.4846V230.297C97.4846 229.059 97.2034 228.114 96.6409 227.462C96.1009 226.787 95.3247 226.449 94.3123 226.449C93.1424 226.449 92.2087 226.899 91.5113 227.799C90.8363 228.677 90.4988 229.88 90.4988 231.41V241.265H87.6303V224.391ZM120.432 241.67C118.858 241.67 117.474 241.321 116.281 240.623C115.089 239.903 114.167 238.88 113.514 237.552C112.884 236.225 112.569 234.65 112.569 232.828C112.569 231.005 112.884 229.431 113.514 228.103C114.167 226.776 115.089 225.763 116.281 225.066C117.474 224.346 118.858 223.986 120.432 223.986C122.007 223.986 123.391 224.346 124.583 225.066C125.776 225.763 126.687 226.776 127.317 228.103C127.969 229.431 128.296 231.005 128.296 232.828C128.296 234.65 127.969 236.225 127.317 237.552C126.687 238.88 125.776 239.903 124.583 240.623C123.391 241.321 122.007 241.67 120.432 241.67ZM120.432 239.172C121.962 239.172 123.143 238.632 123.976 237.552C124.831 236.472 125.258 234.898 125.258 232.828C125.258 230.758 124.831 229.183 123.976 228.103C123.143 227.023 121.962 226.483 120.432 226.483C118.902 226.483 117.71 227.023 116.855 228.103C116.023 229.183 115.606 230.758 115.606 232.828C115.606 234.898 116.023 236.472 116.855 237.552C117.71 238.632 118.902 239.172 120.432 239.172ZM134.396 241.265L128.288 224.391H131.393L135.173 235.764C135.465 236.641 135.701 237.496 135.881 238.329H135.983C136.163 237.496 136.399 236.641 136.691 235.764L140.471 224.391H143.576L137.468 241.265H134.396ZM149.239 241.67C147.506 241.67 146.123 241.22 145.088 240.32C144.053 239.42 143.535 238.216 143.535 236.709C143.535 235.854 143.738 235.089 144.143 234.414C144.548 233.716 145.133 233.154 145.898 232.727C146.55 232.412 147.315 232.142 148.192 231.917C149.07 231.692 150.195 231.5 151.567 231.343L154.706 230.972V230.702C154.706 229.149 154.413 228.036 153.828 227.361C153.243 226.686 152.298 226.348 150.993 226.348C149.846 226.348 148.935 226.641 148.26 227.226C147.585 227.811 147.214 228.632 147.146 229.689H144.075C144.188 227.957 144.863 226.573 146.1 225.538C147.36 224.503 148.98 223.986 150.96 223.986C153.277 223.986 154.964 224.548 156.022 225.673C157.079 226.776 157.608 228.553 157.608 231.005V235.561C157.608 238.126 157.799 240.027 158.182 241.265H155.178C155.043 240.32 154.953 239.296 154.908 238.194C154.526 239.274 153.828 240.128 152.816 240.758C151.803 241.366 150.611 241.67 149.239 241.67ZM149.88 239.307C151.342 239.307 152.512 238.824 153.389 237.856C154.289 236.866 154.739 235.55 154.739 233.908V233.064L150.15 233.739C148.912 233.919 148.001 234.245 147.416 234.718C146.854 235.168 146.572 235.809 146.572 236.641C146.572 237.474 146.865 238.126 147.45 238.599C148.035 239.071 148.845 239.307 149.88 239.307ZM161.559 216.798H164.427V241.265H161.559V216.798ZM182.226 241.67C180.651 241.67 179.267 241.321 178.075 240.623C176.883 239.903 175.96 238.88 175.308 237.552C174.678 236.225 174.363 234.65 174.363 232.828C174.363 231.005 174.678 229.431 175.308 228.103C175.96 226.776 176.883 225.763 178.075 225.066C179.267 224.346 180.651 223.986 182.226 223.986C183.801 223.986 185.185 224.346 186.377 225.066C187.569 225.763 188.481 226.776 189.11 228.103C189.763 229.431 190.089 231.005 190.089 232.828C190.089 234.65 189.763 236.225 189.11 237.552C188.481 238.88 187.569 239.903 186.377 240.623C185.185 241.321 183.801 241.67 182.226 241.67ZM182.226 239.172C183.756 239.172 184.937 238.632 185.769 237.552C186.624 236.472 187.052 234.898 187.052 232.828C187.052 230.758 186.624 229.183 185.769 228.103C184.937 227.023 183.756 226.483 182.226 226.483C180.696 226.483 179.504 227.023 178.649 228.103C177.816 229.183 177.4 230.758 177.4 232.828C177.4 234.898 177.816 236.472 178.649 237.552C179.504 238.632 180.696 239.172 182.226 239.172ZM200.776 224.391V226.753H196.557V241.265H193.689V226.753H190.584V224.391H193.689V221.725C193.689 220.172 194.139 218.935 195.039 218.013C195.939 217.068 197.131 216.595 198.616 216.595C199.448 216.595 200.168 216.674 200.776 216.831V219.295C200.101 219.183 199.505 219.126 198.987 219.126C198.132 219.126 197.514 219.374 197.131 219.869C196.749 220.341 196.557 221.095 196.557 222.13V224.391H200.776ZM69.0473 275.67C67.7874 275.67 66.6849 275.377 65.74 274.792C64.8176 274.185 64.1314 273.375 63.6814 272.362L63.1752 275.265H60.9816V250.798H63.8502V261.327C64.3226 260.337 65.0201 259.538 65.9425 258.931C66.8649 258.301 67.9561 257.986 69.216 257.986C70.5659 257.986 71.7471 258.368 72.7595 259.133C73.7944 259.876 74.5931 260.922 75.1556 262.272C75.718 263.599 75.9993 265.118 75.9993 266.828C75.9993 268.56 75.7068 270.101 75.1218 271.451C74.5594 272.779 73.7494 273.814 72.692 274.556C71.6571 275.298 70.4422 275.67 69.0473 275.67ZM68.2711 273.139C69.7335 273.139 70.8809 272.576 71.7133 271.451C72.5458 270.304 72.962 268.763 72.962 266.828C72.962 264.893 72.557 263.363 71.7471 262.238C70.9371 261.091 69.7897 260.517 68.3048 260.517C66.8874 260.517 65.7738 261.046 64.9638 262.103C64.1764 263.161 63.7827 264.612 63.7827 266.457V267.334C63.7827 269.111 64.1764 270.529 64.9638 271.586C65.7738 272.621 66.8762 273.139 68.2711 273.139ZM83.0551 275.67C81.3228 275.67 79.9391 275.22 78.9042 274.32C77.8693 273.42 77.3518 272.216 77.3518 270.709C77.3518 269.854 77.5543 269.089 77.9593 268.414C78.3642 267.716 78.9492 267.154 79.7141 266.727C80.3666 266.412 81.1315 266.142 82.009 265.917C82.8864 265.692 84.0113 265.5 85.3837 265.343L88.5222 264.972V264.702C88.5222 263.149 88.2298 262.036 87.6448 261.361C87.0598 260.686 86.1149 260.348 84.81 260.348C83.6626 260.348 82.7514 260.641 82.0765 261.226C81.4015 261.811 81.0303 262.632 80.9628 263.689H77.8918C78.0043 261.957 78.6792 260.573 79.9166 259.538C81.1765 258.503 82.7964 257.986 84.7763 257.986C87.0936 257.986 88.781 258.548 89.8384 259.673C90.8958 260.776 91.4245 262.553 91.4245 265.005V269.561C91.4245 272.126 91.6158 274.027 91.9982 275.265H88.9947C88.8597 274.32 88.7697 273.296 88.7247 272.194C88.3423 273.274 87.6448 274.128 86.6324 274.758C85.62 275.366 84.4275 275.67 83.0551 275.67ZM83.6963 273.307C85.1587 273.307 86.3287 272.824 87.2061 271.856C88.106 270.866 88.556 269.55 88.556 267.908V267.064L83.9663 267.739C82.7289 267.919 81.8177 268.245 81.2328 268.718C80.6703 269.168 80.3891 269.809 80.3891 270.641C80.3891 271.474 80.6816 272.126 81.2665 272.599C81.8515 273.071 82.6614 273.307 83.6963 273.307ZM101.454 275.67C99.9012 275.67 98.5401 275.31 97.3702 274.59C96.2002 273.87 95.2891 272.846 94.6366 271.519C94.0067 270.169 93.6917 268.605 93.6917 266.828C93.6917 264.083 94.3779 261.923 95.7503 260.348C97.1452 258.773 99.0463 257.986 101.454 257.986C103.433 257.986 105.031 258.526 106.246 259.606C107.461 260.686 108.181 262.193 108.406 264.128L105.47 264.465C105.312 263.183 104.873 262.204 104.153 261.529C103.456 260.832 102.534 260.483 101.386 260.483C99.9237 260.483 98.7763 261.046 97.9439 262.171C97.1339 263.273 96.729 264.814 96.729 266.794C96.729 268.819 97.1452 270.394 97.9776 271.519C98.8101 272.621 99.98 273.172 101.487 273.172C102.635 273.172 103.557 272.835 104.255 272.16C104.952 271.485 105.413 270.484 105.638 269.156L108.372 269.595C108.057 271.53 107.292 273.026 106.077 274.083C104.885 275.141 103.343 275.67 101.454 275.67ZM108.755 260.753V258.391H111.894V253.97L114.763 252.755V258.391H118.981V260.753H114.763V270.101C114.763 271.069 114.954 271.777 115.336 272.227C115.741 272.655 116.371 272.869 117.226 272.869C117.721 272.869 118.306 272.79 118.981 272.632V275.265C118.239 275.467 117.406 275.568 116.484 275.568C114.774 275.568 113.581 275.107 112.906 274.185C112.231 273.262 111.894 271.935 111.894 270.203V260.753H108.755ZM134.662 267.671H122.682C122.704 269.314 123.165 270.641 124.065 271.654C124.988 272.644 126.203 273.139 127.71 273.139C128.79 273.139 129.712 272.869 130.477 272.329C131.242 271.766 131.816 270.967 132.198 269.933L134.561 270.979C133.976 272.509 133.076 273.679 131.861 274.488C130.669 275.276 129.217 275.67 127.508 275.67C125.078 275.67 123.188 274.927 121.838 273.442C120.488 271.935 119.813 269.798 119.813 267.03C119.813 264.195 120.488 261.979 121.838 260.382C123.188 258.785 125.066 257.986 127.474 257.986C129.769 257.986 131.535 258.638 132.772 259.943C134.032 261.248 134.662 263.149 134.662 265.647V267.671ZM131.76 265.343V264.972C131.76 263.442 131.377 262.272 130.612 261.462C129.87 260.652 128.801 260.247 127.406 260.247C125.944 260.247 124.796 260.697 123.964 261.597C123.154 262.497 122.727 263.745 122.682 265.343H131.76ZM140.371 262.238C140.798 260.978 141.451 259.955 142.328 259.167C143.228 258.38 144.285 257.986 145.5 257.986C145.77 257.986 145.973 257.997 146.108 258.02V260.821H145.973C144.375 260.821 143.138 261.259 142.26 262.137C141.541 262.857 141.079 263.689 140.877 264.634C140.674 265.579 140.573 266.715 140.573 268.043V275.265H137.705V258.391H140.371V262.238ZM151.014 275.265H148.145V258.391H151.014V275.265ZM151.216 255.252H147.943V251.641H151.216V255.252ZM159.574 275.67C157.841 275.67 156.458 275.22 155.423 274.32C154.388 273.42 153.87 272.216 153.87 270.709C153.87 269.854 154.073 269.089 154.478 268.414C154.883 267.716 155.468 267.154 156.233 266.727C156.885 266.412 157.65 266.142 158.528 265.917C159.405 265.692 160.53 265.5 161.902 265.343L165.041 264.972V264.702C165.041 263.149 164.748 262.036 164.163 261.361C163.578 260.686 162.634 260.348 161.329 260.348C160.181 260.348 159.27 260.641 158.595 261.226C157.92 261.811 157.549 262.632 157.481 263.689H154.41C154.523 261.957 155.198 260.573 156.435 259.538C157.695 258.503 159.315 257.986 161.295 257.986C163.612 257.986 165.3 258.548 166.357 259.673C167.414 260.776 167.943 262.553 167.943 265.005V269.561C167.943 272.126 168.134 274.027 168.517 275.265H165.513C165.378 274.32 165.288 273.296 165.243 272.194C164.861 273.274 164.163 274.128 163.151 274.758C162.139 275.366 160.946 275.67 159.574 275.67ZM160.215 273.307C161.677 273.307 162.847 272.824 163.725 271.856C164.625 270.866 165.075 269.55 165.075 267.908V267.064L160.485 267.739C159.248 267.919 158.336 268.245 157.751 268.718C157.189 269.168 156.908 269.809 156.908 270.641C156.908 271.474 157.2 272.126 157.785 272.599C158.37 273.071 159.18 273.307 160.215 273.307ZM171.894 250.798H174.762V275.265H171.894V250.798Z" fill="#302112"/>
</svg>
