<svg width="349" height="349" viewBox="0 0 349 349" fill="none" xmlns="http://www.w3.org/2000/svg">
<rect width="349" height="349" rx="171.374" fill="#00FF00"/>
<path d="M92.6691 197.483C115.595 197.483 127.026 179.378 127.026 148.728C127.026 123.454 115.595 105.349 94.0904 105.349C76.232 105.349 63.5025 117.399 63.5025 135.937C63.5025 152.374 74.5018 164.732 91.6186 164.732C100.64 164.732 110.033 160.592 112.567 152.188C113.37 149.531 115.224 147.368 117.943 147.368C120.662 147.368 122.824 149.408 122.824 152.25C122.824 155.093 120.662 157.132 117.757 157.132H116.769C115.471 157.132 114.791 157.812 114.668 159.109C112.876 179.563 103.607 186.855 93.2253 186.855C82.8439 186.855 76.9735 180.922 76.232 172.58H63.9969C65.0474 188.585 76.9117 197.483 92.6691 197.483ZM75.6141 134.948C75.6141 123.949 82.9675 115.854 93.8432 115.854C104.842 115.854 112.196 123.949 112.196 134.948C112.196 146.133 104.842 154.104 93.8432 154.104C82.9675 154.104 75.6141 146.133 75.6141 134.948ZM163.336 197.483C186.262 197.483 197.694 179.378 197.694 148.728C197.694 123.454 186.262 105.349 164.758 105.349C146.899 105.349 134.17 117.399 134.17 135.937C134.17 152.374 145.169 164.732 162.286 164.732C171.308 164.732 180.7 160.592 183.234 152.188C184.037 149.531 185.891 147.368 188.61 147.368C191.329 147.368 193.492 149.408 193.492 152.25C193.492 155.093 191.329 157.132 188.424 157.132H187.436C186.138 157.132 185.458 157.812 185.335 159.109C183.543 179.563 174.274 186.855 163.892 186.855C153.511 186.855 147.641 180.922 146.899 172.58H134.664C135.715 188.585 147.579 197.483 163.336 197.483ZM146.281 134.948C146.281 123.949 153.635 115.854 164.51 115.854C175.51 115.854 182.863 123.949 182.863 134.948C182.863 146.133 175.51 154.104 164.51 154.104C153.635 154.104 146.281 146.133 146.281 134.948ZM211.881 196H223.437L280.967 107.388H269.473L211.881 196ZM202.365 129.572C202.365 143.846 209.842 152.806 221.459 152.806C233.138 152.806 240.615 143.846 240.615 129.572C240.615 115.236 233.015 106.399 221.459 106.399C209.966 106.399 202.365 115.236 202.365 129.572ZM212.994 129.572C212.994 120.179 215.774 115.236 221.459 115.236C227.083 115.236 229.987 120.179 229.987 129.572C229.987 138.903 227.083 143.97 221.459 143.97C215.898 143.97 212.994 138.903 212.994 129.572ZM254.519 174.001C254.519 188.276 261.996 197.236 273.613 197.236C285.292 197.236 292.769 188.276 292.769 174.001C292.769 159.665 285.169 150.829 273.613 150.829C262.12 150.829 254.519 159.665 254.519 174.001ZM265.147 174.001C265.147 164.609 267.928 159.665 273.613 159.665C279.236 159.665 282.141 164.609 282.141 174.001C282.141 183.332 279.236 188.399 273.613 188.399C268.052 188.399 265.147 183.332 265.147 174.001Z" fill="#302112"/>
<path d="M63.6477 228.238C64.0751 226.978 64.7276 225.955 65.605 225.167C66.505 224.38 67.5624 223.986 68.7773 223.986C69.0473 223.986 69.2498 223.997 69.3848 224.02V226.821H69.2498C67.6524 226.821 66.415 227.259 65.5375 228.137C64.8176 228.857 64.3564 229.689 64.1539 230.634C63.9514 231.579 63.8502 232.715 63.8502 234.043V241.265H60.9816V224.391H63.6477V228.238ZM84.5878 233.671H72.6074C72.6299 235.314 73.0911 236.641 73.991 237.654C74.9135 238.644 76.1284 239.139 77.6358 239.139C78.7157 239.139 79.6381 238.869 80.4031 238.329C81.168 237.766 81.7417 236.967 82.1242 235.933L84.4865 236.979C83.9016 238.509 83.0016 239.679 81.7867 240.488C80.5943 241.276 79.1432 241.67 77.4333 241.67C75.0035 241.67 73.1136 240.927 71.7637 239.442C70.4138 237.935 69.7388 235.798 69.7388 233.03C69.7388 230.195 70.4138 227.979 71.7637 226.382C73.1136 224.785 74.9922 223.986 77.3995 223.986C79.6944 223.986 81.4605 224.638 82.6979 225.943C83.9578 227.248 84.5878 229.149 84.5878 231.647V233.671ZM81.6855 231.343V230.972C81.6855 229.442 81.303 228.272 80.538 227.462C79.7956 226.652 78.7269 226.247 77.332 226.247C75.8696 226.247 74.7222 226.697 73.8898 227.597C73.0798 228.497 72.6524 229.745 72.6074 231.343H81.6855ZM87.6303 224.391H90.3301V227.327C91.275 225.1 92.8837 223.986 95.156 223.986C96.3259 223.986 97.3159 224.278 98.1258 224.863C98.9582 225.426 99.5657 226.258 99.9482 227.361C101.051 225.111 102.76 223.986 105.078 223.986C106.698 223.986 107.958 224.537 108.858 225.64C109.757 226.719 110.207 228.238 110.207 230.195V241.265H107.339V230.432C107.339 227.777 106.27 226.449 104.133 226.449C102.94 226.449 102.007 226.877 101.332 227.732C100.679 228.564 100.353 229.745 100.353 231.275V241.265H97.4846V230.297C97.4846 229.059 97.2034 228.114 96.6409 227.462C96.1009 226.787 95.3247 226.449 94.3123 226.449C93.1424 226.449 92.2087 226.899 91.5113 227.799C90.8363 228.677 90.4988 229.88 90.4988 231.41V241.265H87.6303V224.391ZM120.432 241.67C118.858 241.67 117.474 241.321 116.281 240.623C115.089 239.903 114.167 238.88 113.514 237.552C112.884 236.225 112.569 234.65 112.569 232.828C112.569 231.005 112.884 229.431 113.514 228.103C114.167 226.776 115.089 225.763 116.281 225.066C117.474 224.346 118.858 223.986 120.432 223.986C122.007 223.986 123.391 224.346 124.583 225.066C125.776 225.763 126.687 226.776 127.317 228.103C127.969 229.431 128.296 231.005 128.296 232.828C128.296 234.65 127.969 236.225 127.317 237.552C126.687 238.88 125.776 239.903 124.583 240.623C123.391 241.321 122.007 241.67 120.432 241.67ZM120.432 239.172C121.962 239.172 123.143 238.632 123.976 237.552C124.831 236.472 125.258 234.898 125.258 232.828C125.258 230.758 124.831 229.183 123.976 228.103C123.143 227.023 121.962 226.483 120.432 226.483C118.902 226.483 117.71 227.023 116.855 228.103C116.023 229.183 115.606 230.758 115.606 232.828C115.606 234.898 116.023 236.472 116.855 237.552C117.71 238.632 118.902 239.172 120.432 239.172ZM134.396 241.265L128.288 224.391H131.393L135.173 235.764C135.465 236.641 135.701 237.496 135.881 238.329H135.983C136.163 237.496 136.399 236.641 136.691 235.764L140.471 224.391H143.576L137.468 241.265H134.396ZM149.239 241.67C147.506 241.67 146.123 241.22 145.088 240.32C144.053 239.42 143.535 238.216 143.535 236.709C143.535 235.854 143.738 235.089 144.143 234.414C144.548 233.716 145.133 233.154 145.898 232.727C146.55 232.412 147.315 232.142 148.192 231.917C149.07 231.692 150.195 231.5 151.567 231.343L154.706 230.972V230.702C154.706 229.149 154.413 228.036 153.828 227.361C153.243 226.686 152.298 226.348 150.993 226.348C149.846 226.348 148.935 226.641 148.26 227.226C147.585 227.811 147.214 228.632 147.146 229.689H144.075C144.188 227.957 144.863 226.573 146.1 225.538C147.36 224.503 148.98 223.986 150.96 223.986C153.277 223.986 154.964 224.548 156.022 225.673C157.079 226.776 157.608 228.553 157.608 231.005V235.561C157.608 238.126 157.799 240.027 158.182 241.265H155.178C155.043 240.32 154.953 239.296 154.908 238.194C154.526 239.274 153.828 240.128 152.816 240.758C151.803 241.366 150.611 241.67 149.239 241.67ZM149.88 239.307C151.342 239.307 152.512 238.824 153.389 237.856C154.289 236.866 154.739 235.55 154.739 233.908V233.064L150.15 233.739C148.912 233.919 148.001 234.245 147.416 234.718C146.854 235.168 146.572 235.809 146.572 236.641C146.572 237.474 146.865 238.126 147.45 238.599C148.035 239.071 148.845 239.307 149.88 239.307ZM161.559 216.798H164.427V241.265H161.559V216.798ZM180.066 241.67C178.334 241.67 176.95 241.22 175.915 240.32C174.88 239.42 174.363 238.216 174.363 236.709C174.363 235.854 174.565 235.089 174.97 234.414C175.375 233.716 175.96 233.154 176.725 232.727C177.378 232.412 178.143 232.142 179.02 231.917C179.897 231.692 181.022 231.5 182.395 231.343L185.533 230.972V230.702C185.533 229.149 185.241 228.036 184.656 227.361C184.071 226.686 183.126 226.348 181.821 226.348C180.674 226.348 179.762 226.641 179.087 227.226C178.413 227.811 178.041 228.632 177.974 229.689H174.903C175.015 227.957 175.69 226.573 176.928 225.538C178.188 224.503 179.807 223.986 181.787 223.986C184.105 223.986 185.792 224.548 186.849 225.673C187.907 226.776 188.436 228.553 188.436 231.005V235.561C188.436 238.126 188.627 240.027 189.009 241.265H186.006C185.871 240.32 185.781 239.296 185.736 238.194C185.353 239.274 184.656 240.128 183.643 240.758C182.631 241.366 181.439 241.67 180.066 241.67ZM180.707 239.307C182.17 239.307 183.34 238.824 184.217 237.856C185.117 236.866 185.567 235.55 185.567 233.908V233.064L180.977 233.739C179.74 233.919 178.829 234.245 178.244 234.718C177.681 235.168 177.4 235.809 177.4 236.641C177.4 237.474 177.693 238.126 178.278 238.599C178.862 239.071 179.672 239.307 180.707 239.307ZM199.853 224.391V226.753H195.635V241.265H192.766V226.753H189.661V224.391H192.766V221.725C192.766 220.172 193.216 218.935 194.116 218.013C195.016 217.068 196.208 216.595 197.693 216.595C198.526 216.595 199.246 216.674 199.853 216.831V219.295C199.178 219.183 198.582 219.126 198.064 219.126C197.209 219.126 196.591 219.374 196.208 219.869C195.826 220.341 195.635 221.095 195.635 222.13V224.391H199.853ZM199.999 226.753V224.391H203.138V219.97L206.006 218.755V224.391H210.225V226.753H206.006V236.101C206.006 237.069 206.197 237.777 206.58 238.227C206.985 238.655 207.615 238.869 208.47 238.869C208.965 238.869 209.55 238.79 210.225 238.632V241.265C209.482 241.467 208.65 241.568 207.727 241.568C206.017 241.568 204.825 241.107 204.15 240.185C203.475 239.262 203.138 237.935 203.138 236.203V226.753H199.999ZM225.906 233.671H213.925C213.948 235.314 214.409 236.641 215.309 237.654C216.231 238.644 217.446 239.139 218.954 239.139C220.034 239.139 220.956 238.869 221.721 238.329C222.486 237.766 223.06 236.967 223.442 235.933L225.804 236.979C225.219 238.509 224.319 239.679 223.105 240.488C221.912 241.276 220.461 241.67 218.751 241.67C216.321 241.67 214.431 240.927 213.082 239.442C211.732 237.935 211.057 235.798 211.057 233.03C211.057 230.195 211.732 227.979 213.082 226.382C214.431 224.785 216.31 223.986 218.717 223.986C221.012 223.986 222.778 224.638 224.016 225.943C225.276 227.248 225.906 229.149 225.906 231.647V233.671ZM223.003 231.343V230.972C223.003 229.442 222.621 228.272 221.856 227.462C221.113 226.652 220.045 226.247 218.65 226.247C217.187 226.247 216.04 226.697 215.208 227.597C214.398 228.497 213.97 229.745 213.925 231.343H223.003ZM231.614 228.238C232.042 226.978 232.694 225.955 233.572 225.167C234.471 224.38 235.529 223.986 236.744 223.986C237.014 223.986 237.216 223.997 237.351 224.02V226.821H237.216C235.619 226.821 234.381 227.259 233.504 228.137C232.784 228.857 232.323 229.689 232.12 230.634C231.918 231.579 231.817 232.715 231.817 234.043V241.265H228.948V224.391H231.614V228.238ZM59.1255 272.767C61.8478 270.765 64.5026 268.526 67.0899 266.052C68.5748 264.612 69.6097 263.329 70.1947 262.204C70.7797 261.079 71.0721 259.82 71.0721 258.425C71.0721 256.985 70.6897 255.882 69.9247 255.117C69.1823 254.33 68.1361 253.936 66.7862 253.936C65.4363 253.936 64.3676 254.319 63.5802 255.084C62.7927 255.849 62.399 256.872 62.399 258.155C62.399 258.695 62.489 259.415 62.669 260.314L59.6317 260.011C59.4742 259.381 59.3955 258.751 59.3955 258.121C59.3955 256.029 60.0704 254.375 61.4203 253.16C62.7702 251.923 64.6151 251.304 66.9549 251.304C69.2498 251.304 71.0384 251.923 72.3208 253.16C73.6032 254.375 74.2444 256.119 74.2444 258.391C74.2444 260.033 73.8169 261.608 72.962 263.116C72.1296 264.623 70.8021 266.22 68.9798 267.908C67.1799 269.573 65.2563 271.114 63.209 272.531H74.5144V275.265H59.1255V272.767ZM92.4169 266.963V269.325H88.5697V275.265H85.7012V269.325H74.6995V267.266L85.1949 251.81H88.5697V266.963H92.4169ZM85.7012 258.357C85.7012 256.782 85.7237 255.59 85.7687 254.78H85.7012C85.4987 255.32 85.2737 255.804 85.0262 256.231C84.7787 256.659 84.4413 257.198 84.0138 257.851L79.9978 263.892C79.1204 265.219 78.3779 266.243 77.7705 266.963H85.7012V258.357ZM102.026 275.265V250.798H104.894V261.563C105.907 259.178 107.752 257.986 110.429 257.986C112.251 257.986 113.635 258.56 114.58 259.707C115.525 260.854 115.997 262.542 115.997 264.769V275.265H113.129V264.972C113.129 263.487 112.814 262.362 112.184 261.597C111.576 260.832 110.665 260.449 109.45 260.449C108.01 260.449 106.885 260.978 106.075 262.036C105.288 263.071 104.894 264.544 104.894 266.457V275.265H102.026ZM126.226 275.67C124.651 275.67 123.268 275.321 122.075 274.623C120.883 273.903 119.96 272.88 119.308 271.552C118.678 270.225 118.363 268.65 118.363 266.828C118.363 265.005 118.678 263.431 119.308 262.103C119.96 260.776 120.883 259.763 122.075 259.066C123.268 258.346 124.651 257.986 126.226 257.986C127.801 257.986 129.185 258.346 130.377 259.066C131.57 259.763 132.481 260.776 133.111 262.103C133.763 263.431 134.089 265.005 134.089 266.828C134.089 268.65 133.763 270.225 133.111 271.552C132.481 272.88 131.57 273.903 130.377 274.623C129.185 275.321 127.801 275.67 126.226 275.67ZM126.226 273.172C127.756 273.172 128.937 272.632 129.77 271.552C130.625 270.472 131.052 268.898 131.052 266.828C131.052 264.758 130.625 263.183 129.77 262.103C128.937 261.023 127.756 260.483 126.226 260.483C124.696 260.483 123.504 261.023 122.649 262.103C121.816 263.183 121.4 264.758 121.4 266.828C121.4 268.898 121.816 270.472 122.649 271.552C123.504 272.632 124.696 273.172 126.226 273.172ZM142.211 275.67C140.186 275.67 138.713 275.107 137.79 273.982C136.89 272.857 136.44 271.249 136.44 269.156V258.391H139.309V268.819C139.309 270.236 139.601 271.327 140.186 272.092C140.794 272.835 141.649 273.206 142.751 273.206C144.101 273.206 145.192 272.677 146.025 271.62C146.857 270.562 147.273 269.179 147.273 267.469V258.391H150.142V275.265H147.442V272.092C147.06 273.127 146.385 273.982 145.417 274.657C144.45 275.332 143.381 275.67 142.211 275.67ZM157.205 262.238C157.632 260.978 158.285 259.955 159.162 259.167C160.062 258.38 161.12 257.986 162.334 257.986C162.604 257.986 162.807 257.997 162.942 258.02V260.821H162.807C161.21 260.821 159.972 261.259 159.095 262.137C158.375 262.857 157.914 263.689 157.711 264.634C157.509 265.579 157.407 266.715 157.407 268.043V275.265H154.539V258.391H157.205V262.238ZM170.519 275.67C168.516 275.67 166.874 275.22 165.592 274.32C164.332 273.42 163.556 272.137 163.263 270.472L166.165 269.966C166.368 271.024 166.852 271.845 167.616 272.43C168.381 273.015 169.383 273.307 170.62 273.307C171.722 273.307 172.577 273.071 173.185 272.599C173.815 272.104 174.13 271.485 174.13 270.742C174.13 270.023 173.927 269.483 173.522 269.123C173.117 268.763 172.51 268.515 171.7 268.38L168.393 267.773C166.953 267.503 165.839 266.974 165.052 266.187C164.287 265.377 163.904 264.33 163.904 263.048C163.904 261.563 164.478 260.348 165.625 259.403C166.795 258.458 168.359 257.986 170.316 257.986C172.206 257.986 173.747 258.391 174.94 259.201C176.155 260.011 176.841 261.124 176.998 262.542L174.163 263.183C173.961 262.306 173.522 261.608 172.847 261.091C172.172 260.573 171.284 260.314 170.181 260.314C169.101 260.314 168.246 260.539 167.616 260.989C167.009 261.439 166.705 262.081 166.705 262.913C166.705 263.588 166.919 264.117 167.346 264.499C167.796 264.882 168.449 265.152 169.304 265.309L172.577 265.917C174.085 266.209 175.187 266.738 175.885 267.503C176.605 268.245 176.965 269.246 176.965 270.506C176.965 272.059 176.391 273.307 175.243 274.252C174.118 275.197 172.544 275.67 170.519 275.67Z" fill="#302112"/>
</svg>
