<svg width="509" height="508" viewBox="0 0 509 508" fill="none" xmlns="http://www.w3.org/2000/svg">
<circle cx="127.185" cy="92.0167" r="33.126" fill="#EAE4DF"/>
<circle cx="186.075" cy="147.228" r="33.126" fill="#EAE4DF"/>
<circle cx="152.95" cy="213.482" r="33.126" fill="#EAE4DF"/>
<circle cx="240.06" cy="199.985" r="33.126" fill="#EAE4DF"/>
<path d="M344.346 229.431C344.346 247.726 329.515 262.557 311.22 262.557C292.925 262.557 278.094 247.726 278.094 229.431C278.094 211.136 292.925 196.305 311.22 196.305C329.515 196.305 344.346 211.136 344.346 229.431Z" fill="#EAE4DF"/>
<circle cx="403.235" cy="266.235" r="33.126" fill="#EAE4DF"/>
<circle cx="359.067" cy="374.204" r="33.126" fill="#EAE4DF"/>
<circle cx="336.985" cy="299.364" r="33.126" fill="#EAE4DF"/>
<circle cx="281.774" cy="350.892" r="33.126" fill="#EAE4DF"/>
<circle cx="306.314" cy="420.825" r="33.126" fill="#EAE4DF"/>
<circle cx="240.06" cy="277.278" r="33.126" fill="#EAE4DF"/>
<circle cx="167.673" cy="279.732" r="33.126" fill="#EAE4DF"/>
<circle cx="94.0596" cy="277.278" r="33.126" fill="#EAE4DF"/>
<circle cx="148.044" cy="360.708" r="33.126" fill="#EAE4DF"/>
<circle cx="215.521" cy="387.7" r="33.126" fill="#EAE4DF"/>
<circle cx="244.966" cy="458.857" r="33.126" fill="#EAE4DF"/>
<circle cx="262.146" cy="125.146" r="33.126" fill="#EAE4DF"/>
<circle cx="336.985" cy="130.052" r="33.126" fill="#EAE4DF"/>
<circle cx="377.474" cy="192.622" r="33.126" fill="#EAE4DF"/>
<circle cx="452.314" cy="211.024" r="33.126" fill="#EAE4DF"/>
<circle cx="254.783" cy="253.966" r="253.353" stroke="#302112" stroke-width="1.22689"/>
</svg>
