<svg width="439" height="639" viewBox="0 0 439 639" fill="none" xmlns="http://www.w3.org/2000/svg">
<g clip-path="url(#clip0_347_8703)">
<path d="M49.1902 248.009C55.7096 248.009 60.9947 242.724 60.9947 236.204C60.9947 229.685 55.7096 224.4 49.1902 224.4C42.6708 224.4 37.3857 229.685 37.3857 236.204C37.3857 242.724 42.6708 248.009 49.1902 248.009Z" fill="#00FF00"/>
<path d="M287.316 591.279C293.836 591.279 299.121 585.994 299.121 579.475C299.121 572.955 293.836 567.67 287.316 567.67C280.797 567.67 275.512 572.955 275.512 579.475C275.512 585.994 280.797 591.279 287.316 591.279Z" fill="#00FF00"/>
<path d="M371.442 24.5503C377.962 24.5503 383.247 19.2653 383.247 12.7459C383.247 6.22644 377.962 0.941406 371.442 0.941406C364.923 0.941406 359.638 6.22644 359.638 12.7459C359.638 19.2653 364.923 24.5503 371.442 24.5503Z" fill="#00FF00"/>
<path d="M265.364 39.5669C271.883 39.5669 277.168 34.2819 277.168 27.7625C277.168 21.243 271.883 15.958 265.364 15.958C258.845 15.958 253.56 21.243 253.56 27.7625C253.56 34.2819 258.845 39.5669 265.364 39.5669Z" fill="#00FF00"/>
<path d="M123.668 120.175C130.187 120.175 135.472 114.89 135.472 108.37C135.472 101.851 130.187 96.5657 123.668 96.5657C117.148 96.5657 111.863 101.851 111.863 108.37C111.863 114.89 117.148 120.175 123.668 120.175Z" fill="#00FF00"/>
<path d="M440.199 549.983C446.718 549.983 452.003 544.698 452.003 538.178C452.003 531.659 446.718 526.374 440.199 526.374C433.68 526.374 428.395 531.659 428.395 538.178C428.395 544.698 433.68 549.983 440.199 549.983Z" fill="#00FF00"/>
<path d="M145.483 556.224C152.003 556.224 157.288 550.939 157.288 544.419C157.288 537.9 152.003 532.615 145.483 532.615C138.964 532.615 133.679 537.9 133.679 544.419C133.679 550.939 138.964 556.224 145.483 556.224Z" fill="#00FF00"/>
<path d="M53.3992 393.258C59.9186 393.258 65.2036 387.973 65.2036 381.453C65.2036 374.934 59.9186 369.649 53.3992 369.649C46.8798 369.649 41.5947 374.934 41.5947 381.453C41.5947 387.973 46.8798 393.258 53.3992 393.258Z" fill="#00FF00"/>
<path d="M253.96 580.144C260.479 580.144 265.764 574.859 265.764 568.339C265.764 561.82 260.479 556.535 253.96 556.535C247.44 556.535 242.155 561.82 242.155 568.339C242.155 574.859 247.44 580.144 253.96 580.144Z" fill="#00FF00"/>
<path d="M351.969 637.309C358.489 637.309 363.774 632.024 363.774 625.504C363.774 618.985 358.489 613.7 351.969 613.7C345.45 613.7 340.165 618.985 340.165 625.504C340.165 632.024 345.45 637.309 351.969 637.309Z" fill="#00FF00"/>
<path d="M318.176 632.176C324.695 632.176 329.98 626.891 329.98 620.371C329.98 613.852 324.695 608.567 318.176 608.567C311.656 608.567 306.371 613.852 306.371 620.371C306.371 626.891 311.656 632.176 318.176 632.176Z" fill="#00FF00"/>
<path d="M320.838 91.0105C327.357 91.0105 332.642 85.7255 332.642 79.2061C332.642 72.6866 327.357 67.4016 320.838 67.4016C314.318 67.4016 309.033 72.6866 309.033 79.2061C309.033 85.7255 314.318 91.0105 320.838 91.0105Z" fill="#00FF00"/>
<path d="M182.724 604.835C189.244 604.835 194.529 599.55 194.529 593.03C194.529 586.511 189.244 581.226 182.724 581.226C176.205 581.226 170.92 586.511 170.92 593.03C170.92 599.55 176.205 604.835 182.724 604.835Z" fill="#00FF00"/>
<path d="M420.833 69.617C427.352 69.617 432.637 64.3319 432.637 57.8125C432.637 51.2931 427.352 46.0081 420.833 46.0081C414.313 46.0081 409.028 51.2931 409.028 57.8125C409.028 64.3319 414.313 69.617 420.833 69.617Z" fill="#00FF00"/>
<path d="M267.016 638.059C273.536 638.059 278.821 632.774 278.821 626.254C278.821 619.735 273.536 614.45 267.016 614.45C260.497 614.45 255.212 619.735 255.212 626.254C255.212 632.774 260.497 638.059 267.016 638.059Z" fill="#00FF00"/>
<path d="M157.292 162.924C163.811 162.924 169.096 157.639 169.096 151.119C169.096 144.6 163.811 139.315 157.292 139.315C150.772 139.315 145.487 144.6 145.487 151.119C145.487 157.639 150.772 162.924 157.292 162.924Z" fill="#00FF00"/>
<path d="M449.451 78.1966C455.97 78.1966 461.255 72.9115 461.255 66.3921C461.255 59.8727 455.97 54.5876 449.451 54.5876C442.932 54.5876 437.646 59.8727 437.646 66.3921C437.646 72.9115 442.932 78.1966 449.451 78.1966Z" fill="#00FF00"/>
<path d="M23.447 417.966C29.9665 417.966 35.2515 412.681 35.2515 406.161C35.2515 399.642 29.9665 394.357 23.447 394.357C16.9276 394.357 11.6426 399.642 11.6426 406.161C11.6426 412.681 16.9276 417.966 23.447 417.966Z" fill="#00FF00"/>
<path d="M207.296 43.1665C213.815 43.1665 219.1 37.8815 219.1 31.3621C219.1 24.8427 213.815 19.5576 207.296 19.5576C200.776 19.5576 195.491 24.8427 195.491 31.3621C195.491 37.8815 200.776 43.1665 207.296 43.1665Z" fill="#00FF00"/>
<path d="M327.696 599.442C334.215 599.442 339.501 594.157 339.501 587.637C339.501 581.118 334.215 575.833 327.696 575.833C321.177 575.833 315.892 581.118 315.892 587.637C315.892 594.157 321.177 599.442 327.696 599.442Z" fill="#00FF00"/>
<path d="M25.9304 225.776C32.4499 225.776 37.7349 220.491 37.7349 213.971C37.7349 207.452 32.4499 202.167 25.9304 202.167C19.411 202.167 14.126 207.452 14.126 213.971C14.126 220.491 19.411 225.776 25.9304 225.776Z" fill="#00FF00"/>
<path d="M84.9187 168.04C91.4381 168.04 96.7232 162.755 96.7232 156.236C96.7232 149.716 91.4381 144.431 84.9187 144.431C78.3993 144.431 73.1143 149.716 73.1143 156.236C73.1143 162.755 78.3993 168.04 84.9187 168.04Z" fill="#00FF00"/>
<path d="M11.8045 331.914C18.3239 331.914 23.6089 326.629 23.6089 320.109C23.6089 313.59 18.3239 308.305 11.8045 308.305C5.28504 308.305 0 313.59 0 320.109C0 326.629 5.28504 331.914 11.8045 331.914Z" fill="#00FF00"/>
<path d="M75.3084 474.798C81.8278 474.798 87.1128 469.513 87.1128 462.994C87.1128 456.474 81.8278 451.189 75.3084 451.189C68.7889 451.189 63.5039 456.474 63.5039 462.994C63.5039 469.513 68.7889 474.798 75.3084 474.798Z" fill="#00FF00"/>
<path d="M44.572 488.034C51.0915 488.034 56.3765 482.749 56.3765 476.23C56.3765 469.71 51.0915 464.425 44.572 464.425C38.0526 464.425 32.7676 469.71 32.7676 476.23C32.7676 482.749 38.0526 488.034 44.572 488.034Z" fill="#00FF00"/>
<path d="M26.8718 450.333C33.3913 450.333 38.6763 445.048 38.6763 438.529C38.6763 432.009 33.3913 426.724 26.8718 426.724C20.3524 426.724 15.0674 432.009 15.0674 438.529C15.0674 445.048 20.3524 450.333 26.8718 450.333Z" fill="#00FF00"/>
<path d="M154.936 89.8648C161.456 89.8648 166.741 84.5797 166.741 78.0603C166.741 71.5409 161.456 66.2559 154.936 66.2559C148.417 66.2559 143.132 71.5409 143.132 78.0603C143.132 84.5797 148.417 89.8648 154.936 89.8648Z" fill="#00FF00"/>
<path d="M82.0349 300.828C88.5544 300.828 93.8394 295.543 93.8394 289.024C93.8394 282.505 88.5544 277.219 82.0349 277.219C75.5155 277.219 70.2305 282.505 70.2305 289.024C70.2305 295.543 75.5155 300.828 82.0349 300.828Z" fill="#00FF00"/>
<path d="M60.0017 448.097C66.5212 448.097 71.8062 442.812 71.8062 436.292C71.8062 429.773 66.5212 424.488 60.0017 424.488C53.4823 424.488 48.1973 429.773 48.1973 436.292C48.1973 442.812 53.4823 448.097 60.0017 448.097Z" fill="#00FF00"/>
<path d="M85.6941 135.894C92.2135 135.894 97.4986 130.609 97.4986 124.09C97.4986 117.57 92.2135 112.285 85.6941 112.285C79.1747 112.285 73.8896 117.57 73.8896 124.09C73.8896 130.609 79.1747 135.894 85.6941 135.894Z" fill="#00FF00"/>
<path d="M24.3797 263.238C30.8991 263.238 36.1841 257.953 36.1841 251.434C36.1841 244.914 30.8991 239.629 24.3797 239.629C17.8602 239.629 12.5752 244.914 12.5752 251.434C12.5752 257.953 17.8602 263.238 24.3797 263.238Z" fill="#00FF00"/>
<path d="M428.603 621.755C435.123 621.755 440.408 616.47 440.408 609.951C440.408 603.432 435.123 598.146 428.603 598.146C422.084 598.146 416.799 603.432 416.799 609.951C416.799 616.47 422.084 621.755 428.603 621.755Z" fill="#00FF00"/>
<path d="M356.144 58.8094C362.664 58.8094 367.949 53.5243 367.949 47.0049C367.949 40.4855 362.664 35.2004 356.144 35.2004C349.625 35.2004 344.34 40.4855 344.34 47.0049C344.34 53.5243 349.625 58.8094 356.144 58.8094Z" fill="#00FF00"/>
<path d="M85.1365 536.206C91.6559 536.206 96.941 530.921 96.941 524.402C96.941 517.882 91.6559 512.597 85.1365 512.597C78.6171 512.597 73.332 517.882 73.332 524.402C73.332 530.921 78.6171 536.206 85.1365 536.206Z" fill="#00FF00"/>
<path d="M102.125 228.004C108.644 228.004 113.929 222.719 113.929 216.199C113.929 209.68 108.644 204.395 102.125 204.395C95.6053 204.395 90.3203 209.68 90.3203 216.199C90.3203 222.719 95.6053 228.004 102.125 228.004Z" fill="#00FF00"/>
<path d="M388.968 634.109C395.487 634.109 400.772 628.824 400.772 622.305C400.772 615.786 395.487 610.5 388.968 610.5C382.448 610.5 377.163 615.786 377.163 622.305C377.163 628.824 382.448 634.109 388.968 634.109Z" fill="#00FF00"/>
<path d="M61.7615 189.655C68.2809 189.655 73.566 184.37 73.566 177.851C73.566 171.331 68.2809 166.046 61.7615 166.046C55.2421 166.046 49.957 171.331 49.957 177.851C49.957 184.37 55.2421 189.655 61.7615 189.655Z" fill="#00FF00"/>
<path d="M414.797 36.4314C421.316 36.4314 426.601 31.1464 426.601 24.627C426.601 18.1075 421.316 12.8225 414.797 12.8225C408.277 12.8225 402.992 18.1075 402.992 24.627C402.992 31.1464 408.277 36.4314 414.797 36.4314Z" fill="#00FF00"/>
<path d="M160.082 500.904C166.601 500.904 171.886 495.619 171.886 489.099C171.886 482.58 166.601 477.295 160.082 477.295C153.562 477.295 148.277 482.58 148.277 489.099C148.277 495.619 153.562 500.904 160.082 500.904Z" fill="#00FF00"/>
<path d="M292.645 31.4815C299.165 31.4815 304.45 26.1964 304.45 19.677C304.45 13.1576 299.165 7.87256 292.645 7.87256C286.126 7.87256 280.841 13.1576 280.841 19.677C280.841 26.1964 286.126 31.4815 292.645 31.4815Z" fill="#00FF00"/>
<path d="M52.4109 165.761C58.9303 165.761 64.2154 160.476 64.2154 153.956C64.2154 147.437 58.9303 142.152 52.4109 142.152C45.8915 142.152 40.6064 147.437 40.6064 153.956C40.6064 160.476 45.8915 165.761 52.4109 165.761Z" fill="#00FF00"/>
<path d="M318.367 517.884C324.886 517.884 330.171 512.599 330.171 506.079C330.171 499.56 324.886 494.275 318.367 494.275C311.848 494.275 306.562 499.56 306.562 506.079C306.562 512.599 311.848 517.884 318.367 517.884Z" fill="#00FF00"/>
<path d="M198.141 544.415C204.661 544.415 209.946 539.13 209.946 532.611C209.946 526.091 204.661 520.806 198.141 520.806C191.622 520.806 186.337 526.091 186.337 532.611C186.337 539.13 191.622 544.415 198.141 544.415Z" fill="#00FF00"/>
<path d="M168.875 61.3355C175.394 61.3355 180.679 56.0504 180.679 49.531C180.679 43.0116 175.394 37.7266 168.875 37.7266C162.355 37.7266 157.07 43.0116 157.07 49.531C157.07 56.0504 162.355 61.3355 168.875 61.3355Z" fill="#00FF00"/>
<path d="M216.31 610.117C222.83 610.117 228.115 604.832 228.115 598.313C228.115 591.793 222.83 586.508 216.31 586.508C209.791 586.508 204.506 591.793 204.506 598.313C204.506 604.832 209.791 610.117 216.31 610.117Z" fill="#00FF00"/>
<path d="M193.954 140.921C200.473 140.921 205.758 135.636 205.758 129.116C205.758 122.597 200.473 117.312 193.954 117.312C187.434 117.312 182.149 122.597 182.149 129.116C182.149 135.636 187.434 140.921 193.954 140.921Z" fill="#00FF00"/>
<path d="M183.904 83.7005C190.424 83.7005 195.709 78.4154 195.709 71.896C195.709 65.3766 190.424 60.0916 183.904 60.0916C177.385 60.0916 172.1 65.3766 172.1 71.896C172.1 78.4154 177.385 83.7005 183.904 83.7005Z" fill="#00FF00"/>
<path d="M395.052 565.404C401.571 565.404 406.856 560.119 406.856 553.6C406.856 547.08 401.571 541.795 395.052 541.795C388.532 541.795 383.247 547.08 383.247 553.6C383.247 560.119 388.532 565.404 395.052 565.404Z" fill="#00FF00"/>
<path d="M135.754 594.325C142.273 594.325 147.558 589.04 147.558 582.521C147.558 576.001 142.273 570.716 135.754 570.716C129.234 570.716 123.949 576.001 123.949 582.521C123.949 589.04 129.234 594.325 135.754 594.325Z" fill="#00FF00"/>
<path d="M390.403 90.7166C396.923 90.7166 402.208 85.4316 402.208 78.9121C402.208 72.3927 396.923 67.1077 390.403 67.1077C383.884 67.1077 378.599 72.3927 378.599 78.9121C378.599 85.4316 383.884 90.7166 390.403 90.7166Z" fill="#00FF00"/>
<path d="M447.032 192.586C453.551 192.586 458.836 187.301 458.836 180.782C458.836 174.262 453.551 168.977 447.032 168.977C440.513 168.977 435.228 174.262 435.228 180.782C435.228 187.301 440.513 192.586 447.032 192.586Z" fill="#00FF00"/>
<path d="M440.062 594.53C446.582 594.53 451.867 589.245 451.867 582.725C451.867 576.206 446.582 570.921 440.062 570.921C433.543 570.921 428.258 576.206 428.258 582.725C428.258 589.245 433.543 594.53 440.062 594.53Z" fill="#00FF00"/>
<path d="M20.3328 294.954C26.8522 294.954 32.1372 289.669 32.1372 283.149C32.1372 276.63 26.8522 271.345 20.3328 271.345C13.8134 271.345 8.52832 276.63 8.52832 283.149C8.52832 289.669 13.8134 294.954 20.3328 294.954Z" fill="#00FF00"/>
<path d="M107.714 98.2654C114.233 98.2654 119.518 92.9804 119.518 86.461C119.518 79.9415 114.233 74.6565 107.714 74.6565C101.194 74.6565 95.9092 79.9415 95.9092 86.461C95.9092 92.9804 101.194 98.2654 107.714 98.2654Z" fill="#00FF00"/>
<path d="M119.148 413.919C125.668 413.919 130.953 408.633 130.953 402.114C130.953 395.595 125.668 390.31 119.148 390.31C112.629 390.31 107.344 395.595 107.344 402.114C107.344 408.633 112.629 413.919 119.148 413.919Z" fill="#00FF00"/>
<path d="M38.114 337.209C44.6335 337.209 49.9185 331.924 49.9185 325.404C49.9185 318.885 44.6335 313.6 38.114 313.6C31.5946 313.6 26.3096 318.885 26.3096 325.404C26.3096 331.924 31.5946 337.209 38.114 337.209Z" fill="#00FF00"/>
<path d="M209.294 68.4241C215.813 68.4241 221.098 63.1391 221.098 56.6196C221.098 50.1002 215.813 44.8152 209.294 44.8152C202.774 44.8152 197.489 50.1002 197.489 56.6196C197.489 63.1391 202.774 68.4241 209.294 68.4241Z" fill="#00FF00"/>
<path d="M323.317 37.9524C329.837 37.9524 335.122 32.6674 335.122 26.148C335.122 19.6285 329.837 14.3435 323.317 14.3435C316.798 14.3435 311.513 19.6285 311.513 26.148C311.513 32.6674 316.798 37.9524 323.317 37.9524Z" fill="#00FF00"/>
<path d="M21.2019 376.81C27.7213 376.81 33.0064 371.525 33.0064 365.005C33.0064 358.486 27.7213 353.201 21.2019 353.201C14.6825 353.201 9.39746 358.486 9.39746 365.005C9.39746 371.525 14.6825 376.81 21.2019 376.81Z" fill="#00FF00"/>
<path d="M117.261 520.197C123.78 520.197 129.065 514.912 129.065 508.393C129.065 501.873 123.78 496.588 117.261 496.588C110.741 496.588 105.456 501.873 105.456 508.393C105.456 514.912 110.741 520.197 117.261 520.197Z" fill="#00FF00"/>
<path d="M240.685 59.5037C247.205 59.5037 252.49 54.2187 252.49 47.6992C252.49 41.1798 247.205 35.8948 240.685 35.8948C234.166 35.8948 228.881 41.1798 228.881 47.6992C228.881 54.2187 234.166 59.5037 240.685 59.5037Z" fill="#00FF00"/>
</g>
<defs>
<clipPath id="clip0_347_8703">
<rect width="639" height="639" fill="white"/>
</clipPath>
</defs>
</svg>
