<svg width="160" height="160" viewBox="0 0 160 160" fill="none" xmlns="http://www.w3.org/2000/svg">
<rect width="160" height="160" rx="80" fill="#F9F4F0"/>
<path d="M34.6504 115.936C34.6504 117.496 33.3856 118.761 31.8252 118.761C30.2649 118.761 29 117.496 29 115.936C29 114.376 30.2649 113.111 31.8252 113.111C33.3856 113.111 34.6504 114.376 34.6504 115.936Z" fill="#302112"/>
<path d="M43.2068 115.936C43.2068 117.496 41.9419 118.761 40.3816 118.761C38.8213 118.761 37.5564 117.496 37.5564 115.936C37.5564 114.376 38.8213 113.111 40.3816 113.111C41.9419 113.111 43.2068 114.376 43.2068 115.936Z" fill="#302112"/>
<path d="M70.1675 115.936C70.1675 117.496 68.9026 118.761 67.3423 118.761C65.782 118.761 64.5171 117.496 64.5171 115.936C64.5171 114.376 65.782 113.111 67.3423 113.111C68.9026 113.111 70.1675 114.376 70.1675 115.936Z" fill="#302112"/>
<path d="M79.0469 115.936C79.0469 117.496 77.782 118.761 76.2217 118.761C74.6614 118.761 73.3965 117.496 73.3965 115.936C73.3965 114.376 74.6614 113.111 76.2217 113.111C77.782 113.111 79.0469 114.376 79.0469 115.936Z" fill="#302112"/>
<path d="M87.9258 115.936C87.9258 117.496 86.6609 118.761 85.1006 118.761C83.5403 118.761 82.2754 117.496 82.2754 115.936C82.2754 114.376 83.5403 113.111 85.1006 113.111C86.6609 113.111 87.9258 114.376 87.9258 115.936Z" fill="#302112"/>
<path d="M96.8052 115.936C96.8052 117.496 95.5403 118.761 93.98 118.761C92.4197 118.761 91.1548 117.496 91.1548 115.936C91.1548 114.376 92.4197 113.111 93.98 113.111C95.5403 113.111 96.8052 114.376 96.8052 115.936Z" fill="#302112"/>
<path d="M105.685 115.936C105.685 117.496 104.42 118.761 102.859 118.761C101.299 118.761 100.034 117.496 100.034 115.936C100.034 114.376 101.299 113.111 102.859 113.111C104.42 113.111 105.685 114.376 105.685 115.936Z" fill="#302112"/>
<path d="M114.564 115.936C114.564 117.496 113.299 118.761 111.739 118.761C110.178 118.761 108.913 117.496 108.913 115.936C108.913 114.376 110.178 113.111 111.739 113.111C113.299 113.111 114.564 114.376 114.564 115.936Z" fill="#302112"/>
<path d="M123.443 115.936C123.443 117.496 122.178 118.761 120.618 118.761C119.058 118.761 117.793 117.496 117.793 115.936C117.793 114.376 119.058 113.111 120.618 113.111C122.178 113.111 123.443 114.376 123.443 115.936Z" fill="#302112"/>
<path d="M132.322 115.936C132.322 117.496 131.057 118.761 129.497 118.761C127.937 118.761 126.672 117.496 126.672 115.936C126.672 114.376 127.937 113.111 129.497 113.111C131.057 113.111 132.322 114.376 132.322 115.936Z" fill="#302112"/>
<path d="M34.6504 45.3863C34.6504 46.9466 33.3856 48.2115 31.8252 48.2115C30.2649 48.2115 29 46.9466 29 45.3863C29 43.8259 30.2649 42.561 31.8252 42.561C33.3856 42.561 34.6504 43.8259 34.6504 45.3863Z" fill="#302112"/>
<path d="M43.2068 45.3863C43.2068 46.9466 41.9419 48.2115 40.3816 48.2115C38.8213 48.2115 37.5564 46.9466 37.5564 45.3863C37.5564 43.8259 38.8213 42.561 40.3816 42.561C41.9419 42.561 43.2068 43.8259 43.2068 45.3863Z" fill="#302112"/>
<path d="M70.1675 45.3863C70.1675 46.9466 68.9026 48.2115 67.3423 48.2115C65.782 48.2115 64.5171 46.9466 64.5171 45.3863C64.5171 43.8259 65.782 42.561 67.3423 42.561C68.9026 42.561 70.1675 43.8259 70.1675 45.3863Z" fill="#302112"/>
<path d="M79.0469 45.3863C79.0469 46.9466 77.782 48.2115 76.2217 48.2115C74.6614 48.2115 73.3965 46.9466 73.3965 45.3863C73.3965 43.8259 74.6614 42.561 76.2217 42.561C77.782 42.561 79.0469 43.8259 79.0469 45.3863Z" fill="#302112"/>
<path d="M87.9258 45.3863C87.9258 46.9466 86.6609 48.2115 85.1006 48.2115C83.5403 48.2115 82.2754 46.9466 82.2754 45.3863C82.2754 43.8259 83.5403 42.561 85.1006 42.561C86.6609 42.561 87.9258 43.8259 87.9258 45.3863Z" fill="#302112"/>
<path d="M96.8052 45.3863C96.8052 46.9466 95.5403 48.2115 93.98 48.2115C92.4197 48.2115 91.1548 46.9466 91.1548 45.3863C91.1548 43.8259 92.4197 42.561 93.98 42.561C95.5403 42.561 96.8052 43.8259 96.8052 45.3863Z" fill="#302112"/>
<path d="M105.685 45.3863C105.685 46.9466 104.42 48.2115 102.859 48.2115C101.299 48.2115 100.034 46.9466 100.034 45.3863C100.034 43.8259 101.299 42.561 102.859 42.561C104.42 42.561 105.685 43.8259 105.685 45.3863Z" fill="#302112"/>
<path d="M114.564 45.3863C114.564 46.9466 113.299 48.2115 111.739 48.2115C110.178 48.2115 108.913 46.9466 108.913 45.3863C108.913 43.8259 110.178 42.561 111.739 42.561C113.299 42.561 114.564 43.8259 114.564 45.3863Z" fill="#302112"/>
<path d="M123.443 45.3863C123.443 46.9466 122.178 48.2115 120.618 48.2115C119.058 48.2115 117.793 46.9466 117.793 45.3863C117.793 43.8259 119.058 42.561 120.618 42.561C122.178 42.561 123.443 43.8259 123.443 45.3863Z" fill="#302112"/>
<path d="M132.322 45.3863C132.322 46.9466 131.057 48.2115 129.497 48.2115C127.937 48.2115 126.672 46.9466 126.672 45.3863C126.672 43.8259 127.937 42.561 129.497 42.561C131.057 42.561 132.322 43.8259 132.322 45.3863Z" fill="#302112"/>
<path d="M34.6504 81.7105C34.6504 83.2708 33.3856 84.5357 31.8252 84.5357C30.2649 84.5357 29 83.2708 29 81.7105C29 80.1501 30.2649 78.8853 31.8252 78.8853C33.3856 78.8853 34.6504 80.1501 34.6504 81.7105Z" fill="#302112"/>
<path d="M43.5298 81.7105C43.5298 83.2708 42.2649 84.5357 40.7046 84.5357C39.1443 84.5357 37.8794 83.2708 37.8794 81.7105C37.8794 80.1501 39.1443 78.8853 40.7046 78.8853C42.2649 78.8853 43.5298 80.1501 43.5298 81.7105Z" fill="#302112"/>
<path d="M52.409 81.7105C52.409 83.2708 51.1441 84.5357 49.5838 84.5357C48.0234 84.5357 46.7585 83.2708 46.7585 81.7105C46.7585 80.1501 48.0234 78.8853 49.5838 78.8853C51.1441 78.8853 52.409 80.1501 52.409 81.7105Z" fill="#302112"/>
<path d="M61.2884 81.7105C61.2884 83.2708 60.0235 84.5357 58.4632 84.5357C56.9028 84.5357 55.6379 83.2708 55.6379 81.7105C55.6379 80.1501 56.9028 78.8853 58.4632 78.8853C60.0235 78.8853 61.2884 80.1501 61.2884 81.7105Z" fill="#302112"/>
<path d="M70.1675 81.7105C70.1675 83.2708 68.9026 84.5357 67.3423 84.5357C65.782 84.5357 64.5171 83.2708 64.5171 81.7105C64.5171 80.1501 65.782 78.8853 67.3423 78.8853C68.9026 78.8853 70.1675 80.1501 70.1675 81.7105Z" fill="#302112"/>
<path d="M79.0469 81.7105C79.0469 83.2708 77.782 84.5357 76.2217 84.5357C74.6614 84.5357 73.3965 83.2708 73.3965 81.7105C73.3965 80.1501 74.6614 78.8853 76.2217 78.8853C77.782 78.8853 79.0469 80.1501 79.0469 81.7105Z" fill="#302112"/>
<path d="M87.9258 81.7105C87.9258 83.2708 86.6609 84.5357 85.1006 84.5357C83.5403 84.5357 82.2754 83.2708 82.2754 81.7105C82.2754 80.1501 83.5403 78.8853 85.1006 78.8853C86.6609 78.8853 87.9258 80.1501 87.9258 81.7105Z" fill="#302112"/>
<path d="M96.8052 81.7105C96.8052 83.2708 95.5403 84.5357 93.98 84.5357C92.4197 84.5357 91.1548 83.2708 91.1548 81.7105C91.1548 80.1501 92.4197 78.8853 93.98 78.8853C95.5403 78.8853 96.8052 80.1501 96.8052 81.7105Z" fill="#302112"/>
<path d="M123.443 81.7105C123.443 83.2708 122.178 84.5357 120.618 84.5357C119.058 84.5357 117.793 83.2708 117.793 81.7105C117.793 80.1501 119.058 78.8853 120.618 78.8853C122.178 78.8853 123.443 80.1501 123.443 81.7105Z" fill="#302112"/>
<path d="M132.322 81.7105C132.322 83.2708 131.057 84.5357 129.497 84.5357C127.937 84.5357 126.672 83.2708 126.672 81.7105C126.672 80.1501 127.937 78.8853 129.497 78.8853C131.057 78.8853 132.322 80.1501 132.322 81.7105Z" fill="#302112"/>
<circle cx="118.107" cy="89.7184" r="2.79591" transform="rotate(126.033 118.107 89.7184)" fill="#302112"/>
<circle cx="111.439" cy="94.5681" r="2.79591" transform="rotate(161.804 111.439 94.5681)" fill="#302112"/>
<circle cx="103.14" cy="94.5524" r="2.79591" transform="rotate(-161.804 103.14 94.5524)" fill="#302112"/>
<circle cx="96.4885" cy="89.6767" r="2.79591" transform="rotate(-125.824 96.4885 89.6767)" fill="#302112"/>
<circle cx="96.5717" cy="73.9645" r="2.79591" transform="rotate(-53.5487 96.5717 73.9645)" fill="#302112"/>
<circle cx="103.283" cy="69.1558" r="2.79591" transform="rotate(-17.5479 103.283 69.1558)" fill="#302112"/>
<circle cx="111.568" cy="69.2305" r="2.79591" transform="rotate(18.6284 111.568 69.2305)" fill="#302112"/>
<circle cx="118.191" cy="74.1536" r="2.79591" transform="rotate(54.5952 118.191 74.1536)" fill="#302112"/>
<circle cx="63.8853" cy="123.621" r="2.79591" transform="rotate(126.033 63.8853 123.621)" fill="#302112"/>
<circle cx="57.2169" cy="128.471" r="2.79591" transform="rotate(161.804 57.2169 128.471)" fill="#302112"/>
<circle cx="48.9179" cy="128.455" r="2.79591" transform="rotate(-161.804 48.9179 128.455)" fill="#302112"/>
<circle cx="42.267" cy="123.579" r="2.79591" transform="rotate(-125.824 42.267 123.579)" fill="#302112"/>
<circle cx="42.3503" cy="107.867" r="2.79591" transform="rotate(-53.5487 42.3503 107.867)" fill="#302112"/>
<circle cx="49.0618" cy="103.059" r="2.79591" transform="rotate(-17.5479 49.0618 103.059)" fill="#302112"/>
<circle cx="57.3464" cy="103.133" r="2.79591" transform="rotate(18.6284 57.3464 103.133)" fill="#302112"/>
<circle cx="63.9696" cy="108.056" r="2.79591" transform="rotate(54.5952 63.9696 108.056)" fill="#302112"/>
<circle cx="63.8853" cy="53.0714" r="2.79591" transform="rotate(126.033 63.8853 53.0714)" fill="#302112"/>
<circle cx="57.2169" cy="57.9211" r="2.79591" transform="rotate(161.804 57.2169 57.9211)" fill="#302112"/>
<circle cx="48.9179" cy="57.9054" r="2.79591" transform="rotate(-161.804 48.9179 57.9054)" fill="#302112"/>
<circle cx="42.267" cy="53.0297" r="2.79591" transform="rotate(-125.824 42.267 53.0297)" fill="#302112"/>
<circle cx="42.3503" cy="37.3175" r="2.79591" transform="rotate(-53.5487 42.3503 37.3175)" fill="#302112"/>
<circle cx="49.0618" cy="32.5089" r="2.79591" transform="rotate(-17.5479 49.0618 32.5089)" fill="#302112"/>
<circle cx="57.3464" cy="32.5831" r="2.79591" transform="rotate(18.6284 57.3464 32.5831)" fill="#302112"/>
<circle cx="63.9696" cy="37.5061" r="2.79591" transform="rotate(54.5952 63.9696 37.5061)" fill="#302112"/>
</svg>
