<svg width="425" height="425" viewBox="0 0 425 425" fill="none" xmlns="http://www.w3.org/2000/svg">
<circle cx="212.5" cy="212.5" r="212.226" stroke="#302112" stroke-width="0.54768"/>
<circle cx="109.5" cy="302.5" r="51.5" fill="#F9F4F0"/>
<path d="M92.8177 302H95.6536L100.927 285.195H98.7005L94.6692 298.543C94.5989 298.766 94.6223 298.93 94.763 299.07L94.9036 299.211C95.1028 299.41 95.22 299.668 95.22 299.938C95.22 300.465 94.8333 300.875 94.2825 300.875C93.7317 300.875 93.345 300.465 93.345 299.938C93.345 299.668 93.4622 299.41 93.6848 299.188L93.8255 299.047C93.9661 298.906 93.9544 298.73 93.8958 298.52L90.0286 285.195H87.7083L92.8177 302ZM108.398 302.34C112.699 302.34 115.383 298.789 115.383 293.598C115.383 288.441 112.652 284.867 108.398 284.867C104.156 284.867 101.414 288.418 101.414 293.598C101.414 298.789 104.133 302.34 108.398 302.34ZM101.719 293.598C101.719 293.117 102.105 292.73 102.586 292.73C103.066 292.73 103.453 293.117 103.453 293.598C103.453 294.078 103.066 294.465 102.586 294.465C102.105 294.465 101.719 294.078 101.719 293.598ZM103.723 293.598C103.723 289.379 105.551 286.883 108.398 286.883C111.258 286.883 113.086 289.379 113.086 293.598C113.086 297.852 111.258 300.324 108.398 300.324C105.551 300.324 103.723 297.828 103.723 293.598ZM113.355 293.598C113.355 293.117 113.742 292.73 114.223 292.73C114.703 292.73 115.09 293.117 115.09 293.598C115.09 294.078 114.703 294.465 114.223 294.465C113.742 294.465 113.355 294.078 113.355 293.598ZM124.284 302.34C127.835 302.34 130.425 300.301 130.764 296.41H128.479C128.198 298.93 126.581 300.277 124.495 300.277C121.331 300.277 119.362 297.875 119.362 293.598C119.362 289.332 121.284 286.883 124.331 286.883C126.581 286.883 128.292 288.148 128.573 290.797H130.788C130.565 286.953 127.835 284.867 124.401 284.867C119.889 284.867 117.053 288.301 117.053 293.691C117.053 299.141 119.983 302.34 124.284 302.34ZM117.358 293.598C117.358 293.117 117.745 292.73 118.225 292.73C118.706 292.73 119.092 293.117 119.092 293.598C119.092 294.078 118.706 294.465 118.225 294.465C117.745 294.465 117.358 294.078 117.358 293.598ZM88.9941 328H91.1972V320.652C91.1972 320.512 91.0566 320.371 90.8925 320.371H90.5058C89.9784 320.371 89.5683 319.961 89.5683 319.457C89.5683 318.93 89.9784 318.496 90.5058 318.496H90.8925C91.0566 318.496 91.1972 318.355 91.1972 318.203V314.031C91.1972 313.891 91.0566 313.738 90.8925 313.738H90.5058C89.9784 313.738 89.5683 313.316 89.5683 312.812C89.5683 312.285 89.9784 311.875 90.5058 311.875C91.0097 311.875 91.4433 312.285 91.4433 312.812V312.953C91.4433 313.094 91.5839 313.234 91.7362 313.234H99.4355V311.195H88.9941V328ZM90.8691 319.457C90.8691 319.984 91.3027 320.418 91.8769 320.418H98.662V318.449H91.8769C91.3027 318.449 90.8691 318.906 90.8691 319.457ZM100.684 328H102.84V321.684C102.84 318.906 104.188 317.629 106.204 317.629C106.508 317.629 106.778 317.652 107.083 317.723V315.566C106.942 315.543 106.731 315.52 106.508 315.52C105.231 315.52 104.294 315.977 103.684 316.797C103.415 317.16 103.204 317.594 103.051 318.086C102.911 318.566 102.676 318.93 102.219 318.93C101.739 318.93 101.399 318.566 101.399 318.086C101.399 317.582 101.809 317.242 102.266 317.242H102.571C102.723 317.242 102.84 317.102 102.84 316.984V315.766H100.684V328ZM113.417 328.34C116.417 328.34 118.316 326.535 118.585 323.922H116.394C116.16 325.598 115.058 326.512 113.57 326.512C111.695 326.512 110.277 325.293 110.113 322.621C110.089 322.34 109.96 322.27 109.726 322.27H109.538C109.081 322.27 108.742 321.93 108.742 321.473C108.742 321.016 109.081 320.676 109.538 320.676H109.726C110.007 320.676 110.16 320.582 110.206 320.324C110.57 318.309 111.765 317.242 113.394 317.242C115.152 317.242 116.206 318.344 116.359 320.652H111.015C110.511 320.652 110.136 321.039 110.136 321.52C110.136 322 110.511 322.387 111.015 322.387H118.656V321.66C118.656 317.629 116.546 315.426 113.417 315.426C110.23 315.426 107.851 317.922 107.851 321.859C107.851 326.301 110.23 328.34 113.417 328.34ZM125.658 328.34C128.658 328.34 130.557 326.535 130.826 323.922H128.635C128.4 325.598 127.299 326.512 125.811 326.512C123.936 326.512 122.518 325.293 122.354 322.621C122.33 322.34 122.201 322.27 121.967 322.27H121.779C121.322 322.27 120.982 321.93 120.982 321.473C120.982 321.016 121.322 320.676 121.779 320.676H121.967C122.248 320.676 122.4 320.582 122.447 320.324C122.811 318.309 124.006 317.242 125.635 317.242C127.393 317.242 128.447 318.344 128.6 320.652H123.256C122.752 320.652 122.377 321.039 122.377 321.52C122.377 322 122.752 322.387 123.256 322.387H130.897V321.66C130.897 317.629 128.787 315.426 125.658 315.426C122.471 315.426 120.092 317.922 120.092 321.859C120.092 326.301 122.471 328.34 125.658 328.34Z" fill="#302112"/>
<circle cx="332.771" cy="280.771" r="66.7715" fill="#B6AC9E"/>
<path d="M279.647 286.948H281.979L283.69 282.049C283.784 281.792 283.714 281.592 283.515 281.522L283.21 281.405C282.706 281.217 282.436 280.713 282.6 280.21C282.8 279.67 283.304 279.483 283.878 279.67L284.089 279.753C284.335 279.823 284.499 279.67 284.569 279.46L286.983 272.475L289.374 279.46C289.444 279.706 289.632 279.823 289.854 279.753L290.171 279.647C290.675 279.483 291.097 279.624 291.319 280.174C291.53 280.737 291.249 281.264 290.745 281.428L290.475 281.522C290.241 281.592 290.171 281.792 290.265 282.049L291.94 286.948H294.319L288.296 270.143H285.729L279.647 286.948ZM283.807 280.901C283.807 281.428 284.265 281.862 284.815 281.862H289.186C289.737 281.862 290.194 281.428 290.194 280.901C290.194 280.35 289.737 279.893 289.186 279.893H284.815C284.265 279.893 283.807 280.35 283.807 280.901ZM295.662 286.948H297.818V280.678C297.818 277.737 298.99 276.19 300.912 276.19C302.447 276.19 303.291 277.081 303.291 278.686V286.948H305.447V278.452C305.447 276.003 304.005 274.374 301.638 274.374C299.716 274.374 298.615 275.335 298.029 277.034C297.841 277.585 297.595 277.878 297.127 277.878C296.646 277.878 296.306 277.514 296.306 277.034C296.306 276.553 296.693 276.19 297.173 276.19H297.548C297.724 276.19 297.818 276.096 297.818 275.909V274.713H295.662V286.948ZM312.262 287.182C312.742 287.182 313.117 287.135 313.598 287.018V285.249C313.293 285.319 312.953 285.342 312.707 285.342C311.782 285.342 311.125 284.979 311.125 283.807V276.483H313.821V274.713H311.489C311.301 274.713 311.172 274.831 311.172 275.042V275.135C311.172 275.663 310.774 276.073 310.27 276.073C309.742 276.073 309.332 275.663 309.332 275.135C309.332 274.631 309.742 274.233 310.27 274.233H310.821C311.008 274.233 311.125 274.104 311.125 273.917V271.128H309.403L309.332 272.335C309.239 274.01 308.606 274.713 307.024 274.713H306.813V276.483H308.969V283.948C308.969 286.35 310.293 287.182 312.262 287.182ZM315.573 286.948H317.73V274.713H315.573V286.948ZM315.421 272.639H317.87V270.143H315.421V272.639ZM320.302 280.924H326.877V279.003H320.302V280.924ZM329.461 286.948H331.618V280.678C331.618 277.737 332.743 276.19 334.571 276.19C336.012 276.19 336.797 277.081 336.797 278.686V286.948H338.965V280.21C338.965 277.561 340.207 276.19 341.965 276.19C343.395 276.19 344.145 277.081 344.145 278.686V286.948H346.301V278.452C346.301 276.003 344.918 274.374 342.516 274.374C340.559 274.374 339.223 275.288 338.532 276.811C338.075 275.299 336.868 274.374 335.356 274.374C333.54 274.374 332.379 275.311 331.829 277.034C331.665 277.585 331.395 277.878 330.926 277.878C330.446 277.878 330.106 277.514 330.106 277.034C330.106 276.553 330.493 276.19 330.973 276.19H331.348C331.524 276.19 331.618 276.096 331.618 275.909V274.713H329.461V286.948ZM353.749 287.288C357.066 287.288 359.222 284.756 359.222 280.819C359.222 276.881 357.066 274.374 353.749 274.374C350.433 274.374 348.277 276.881 348.277 280.819C348.277 284.756 350.433 287.288 353.749 287.288ZM348.616 280.831C348.616 280.397 348.956 280.034 349.402 280.034C349.835 280.034 350.198 280.397 350.198 280.831C350.198 281.288 349.835 281.616 349.402 281.616C348.956 281.616 348.616 281.288 348.616 280.831ZM350.538 280.819C350.538 277.866 351.734 276.202 353.749 276.202C355.765 276.202 356.96 277.866 356.96 280.819C356.96 283.772 355.765 285.46 353.749 285.46C351.734 285.46 350.538 283.772 350.538 280.819ZM357.3 280.831C357.3 280.397 357.64 280.034 358.097 280.034C358.53 280.034 358.882 280.397 358.882 280.831C358.882 281.288 358.53 281.616 358.097 281.616C357.64 281.616 357.3 281.288 357.3 280.831ZM365.123 287.288C366.998 287.288 368.006 286.256 368.603 284.616C368.803 284.065 369.037 283.784 369.517 283.784C369.998 283.784 370.338 284.135 370.338 284.616C370.338 285.096 369.951 285.46 369.471 285.46H369.084C368.92 285.46 368.826 285.553 368.826 285.753V286.948H370.982V274.713H368.826V281.088C368.826 283.901 367.654 285.46 365.779 285.46C364.174 285.46 363.353 284.522 363.353 282.963V274.713H361.197V283.21C361.197 285.799 362.685 287.288 365.123 287.288ZM373.755 286.948H375.911V270.143H373.755V286.948ZM386.57 270.143V275.768C386.57 276.003 386.699 276.143 386.933 276.143H387.238C387.718 276.143 388.093 276.506 388.093 276.987C388.093 277.467 387.718 277.831 387.238 277.831C386.757 277.831 386.511 277.467 386.324 276.94C386.054 276.213 385.714 275.651 385.269 275.229C384.683 274.655 383.921 274.374 382.984 274.374C379.867 274.374 377.992 276.952 377.992 280.854C377.992 284.756 379.808 287.288 382.984 287.288C384.577 287.288 385.913 286.503 386.64 285.096V286.948H388.726V270.143H386.57ZM380.253 280.807C380.253 278.1 381.308 276.19 383.37 276.19C385.433 276.19 386.558 278.1 386.558 280.807C386.558 283.514 385.433 285.46 383.37 285.46C381.308 285.46 380.253 283.514 380.253 280.807Z" fill="#302112"/>
<circle cx="218.5" cy="357.5" r="62.5" fill="#E1D5C6"/>
<path d="M177.972 347H180.305L182.015 342.102C182.109 341.844 182.039 341.645 181.84 341.574L181.535 341.457C181.031 341.27 180.762 340.766 180.926 340.262C181.125 339.723 181.629 339.535 182.203 339.723L182.414 339.805C182.66 339.875 182.824 339.723 182.894 339.512L185.308 332.527L187.699 339.512C187.769 339.758 187.957 339.875 188.18 339.805L188.496 339.699C189 339.535 189.422 339.676 189.644 340.227C189.855 340.789 189.574 341.316 189.07 341.48L188.801 341.574C188.566 341.645 188.496 341.844 188.59 342.102L190.265 347H192.644L186.621 330.195H184.055L177.972 347ZM182.133 340.953C182.133 341.48 182.59 341.914 183.14 341.914H187.512C188.062 341.914 188.519 341.48 188.519 340.953C188.519 340.402 188.062 339.945 187.512 339.945H183.14C182.59 339.945 182.133 340.402 182.133 340.953ZM199.659 347.34C202.799 347.34 204.721 344.785 204.721 340.883C204.721 336.969 202.94 334.426 199.87 334.426C198.616 334.426 197.655 334.941 197.01 335.82C196.752 336.16 196.553 336.547 196.389 336.992C196.202 337.52 195.956 337.883 195.475 337.883C194.995 337.883 194.62 337.52 194.62 337.039C194.62 336.559 194.995 336.195 195.475 336.195H195.78C196.014 336.195 196.143 336.055 196.143 335.82V330.195H193.987V347H196.073V345.184C196.823 346.648 198.112 347.34 199.659 347.34ZM196.155 340.906C196.155 338.199 197.28 336.254 199.342 336.254C201.405 336.254 202.46 338.199 202.46 340.906C202.46 343.613 201.405 345.512 199.342 345.512C197.28 345.512 196.155 343.613 196.155 340.906ZM211.255 347.34C213.939 347.34 216.048 345.969 216.048 343.355C216.048 341.527 214.782 340.426 212.568 339.992L210.318 339.559C209.111 339.324 208.56 338.867 208.56 338.047C208.56 336.969 209.521 336.219 211.009 336.219C212.568 336.219 213.575 337.086 213.646 338.527H215.861C215.767 336.195 214.15 334.426 211.056 334.426C208.056 334.426 206.286 336.125 206.286 338.316C206.286 340.016 207.318 341.117 209.72 341.598L211.736 342.008C213.165 342.301 213.798 342.758 213.798 343.684C213.798 344.82 212.79 345.512 211.302 345.512C209.568 345.512 208.325 344.668 208.255 343.062H205.993C206.04 345.699 208.032 347.34 211.255 347.34ZM210.458 340.812C210.458 340.379 210.845 340.016 211.255 340.016C211.654 340.016 212.04 340.379 212.04 340.812C212.04 341.234 211.677 341.598 211.279 341.598C210.868 341.598 210.458 341.234 210.458 340.812ZM222.852 347.34C226.168 347.34 228.324 344.809 228.324 340.871C228.324 336.934 226.168 334.426 222.852 334.426C219.535 334.426 217.379 336.934 217.379 340.871C217.379 344.809 219.535 347.34 222.852 347.34ZM217.719 340.883C217.719 340.449 218.059 340.086 218.504 340.086C218.938 340.086 219.301 340.449 219.301 340.883C219.301 341.34 218.938 341.668 218.504 341.668C218.059 341.668 217.719 341.34 217.719 340.883ZM219.641 340.871C219.641 337.918 220.836 336.254 222.852 336.254C224.867 336.254 226.062 337.918 226.062 340.871C226.062 343.824 224.867 345.512 222.852 345.512C220.836 345.512 219.641 343.824 219.641 340.871ZM226.402 340.883C226.402 340.449 226.742 340.086 227.199 340.086C227.633 340.086 227.984 340.449 227.984 340.883C227.984 341.34 227.633 341.668 227.199 341.668C226.742 341.668 226.402 341.34 226.402 340.883ZM230.405 347H232.561V340.684C232.561 337.906 233.909 336.629 235.925 336.629C236.229 336.629 236.499 336.652 236.803 336.723V334.566C236.663 334.543 236.452 334.52 236.229 334.52C234.952 334.52 234.014 334.977 233.405 335.797C233.135 336.16 232.925 336.594 232.772 337.086C232.632 337.566 232.397 337.93 231.94 337.93C231.46 337.93 231.12 337.566 231.12 337.086C231.12 336.582 231.53 336.242 231.987 336.242H232.292C232.444 336.242 232.561 336.102 232.561 335.984V334.766H230.405V347ZM243.935 347.34C247.076 347.34 248.998 344.785 248.998 340.883C248.998 336.969 247.216 334.426 244.146 334.426C242.892 334.426 241.931 334.941 241.287 335.82C241.029 336.16 240.83 336.547 240.665 336.992C240.478 337.52 240.232 337.883 239.751 337.883C239.271 337.883 238.896 337.52 238.896 337.039C238.896 336.559 239.271 336.195 239.751 336.195H240.056C240.29 336.195 240.419 336.055 240.419 335.82V330.195H238.263V347H240.349V345.184C241.099 346.648 242.388 347.34 243.935 347.34ZM240.431 340.906C240.431 338.199 241.556 336.254 243.619 336.254C245.681 336.254 246.736 338.199 246.736 340.906C246.736 343.613 245.681 345.512 243.619 345.512C241.556 345.512 240.431 343.613 240.431 340.906ZM255.531 347.34C258.215 347.34 260.324 345.969 260.324 343.355C260.324 341.527 259.059 340.426 256.844 339.992L254.594 339.559C253.387 339.324 252.836 338.867 252.836 338.047C252.836 336.969 253.797 336.219 255.285 336.219C256.844 336.219 257.852 337.086 257.922 338.527H260.137C260.043 336.195 258.426 334.426 255.332 334.426C252.332 334.426 250.563 336.125 250.563 338.316C250.563 340.016 251.594 341.117 253.996 341.598L256.012 342.008C257.442 342.301 258.074 342.758 258.074 343.684C258.074 344.82 257.067 345.512 255.578 345.512C253.844 345.512 252.602 344.668 252.531 343.062H250.27C250.317 345.699 252.309 347.34 255.531 347.34ZM254.735 340.812C254.735 340.379 255.121 340.016 255.531 340.016C255.93 340.016 256.317 340.379 256.317 340.812C256.317 341.234 255.953 341.598 255.555 341.598C255.145 341.598 254.735 341.234 254.735 340.812ZM176.868 373H179.024V366.73C179.024 363.789 180.149 362.242 181.977 362.242C183.418 362.242 184.204 363.133 184.204 364.738V373H186.372V366.262C186.372 363.613 187.614 362.242 189.372 362.242C190.801 362.242 191.551 363.133 191.551 364.738V373H193.708V364.504C193.708 362.055 192.325 360.426 189.922 360.426C187.965 360.426 186.629 361.34 185.938 362.863C185.481 361.352 184.274 360.426 182.762 360.426C180.946 360.426 179.786 361.363 179.235 363.086C179.071 363.637 178.801 363.93 178.333 363.93C177.852 363.93 177.512 363.566 177.512 363.086C177.512 362.605 177.899 362.242 178.379 362.242H178.754C178.93 362.242 179.024 362.148 179.024 361.961V360.766H176.868V373ZM201.155 373.34C204.472 373.34 206.628 370.809 206.628 366.871C206.628 362.934 204.472 360.426 201.155 360.426C197.839 360.426 195.683 362.934 195.683 366.871C195.683 370.809 197.839 373.34 201.155 373.34ZM196.023 366.883C196.023 366.449 196.363 366.086 196.808 366.086C197.241 366.086 197.605 366.449 197.605 366.883C197.605 367.34 197.241 367.668 196.808 367.668C196.363 367.668 196.023 367.34 196.023 366.883ZM197.945 366.871C197.945 363.918 199.14 362.254 201.155 362.254C203.171 362.254 204.366 363.918 204.366 366.871C204.366 369.824 203.171 371.512 201.155 371.512C199.14 371.512 197.945 369.824 197.945 366.871ZM204.706 366.883C204.706 366.449 205.046 366.086 205.503 366.086C205.937 366.086 206.288 366.449 206.288 366.883C206.288 367.34 205.937 367.668 205.503 367.668C205.046 367.668 204.706 367.34 204.706 366.883ZM208.709 373H210.865V360.766H208.709V373ZM208.557 358.691H211.006V356.195H208.557V358.691ZM218.079 373.34C220.762 373.34 222.872 371.969 222.872 369.355C222.872 367.527 221.606 366.426 219.391 365.992L217.141 365.559C215.934 365.324 215.383 364.867 215.383 364.047C215.383 362.969 216.344 362.219 217.833 362.219C219.391 362.219 220.399 363.086 220.469 364.527H222.684C222.59 362.195 220.973 360.426 217.88 360.426C214.88 360.426 213.11 362.125 213.11 364.316C213.11 366.016 214.141 367.117 216.544 367.598L218.559 368.008C219.989 368.301 220.622 368.758 220.622 369.684C220.622 370.82 219.614 371.512 218.126 371.512C216.391 371.512 215.149 370.668 215.079 369.062H212.817C212.864 371.699 214.856 373.34 218.079 373.34ZM217.282 366.812C217.282 366.379 217.669 366.016 218.079 366.016C218.477 366.016 218.864 366.379 218.864 366.812C218.864 367.234 218.501 367.598 218.102 367.598C217.692 367.598 217.282 367.234 217.282 366.812ZM229.042 373.234C229.523 373.234 229.898 373.188 230.378 373.07V371.301C230.074 371.371 229.734 371.395 229.488 371.395C228.562 371.395 227.906 371.031 227.906 369.859V362.535H230.601V360.766H228.269C228.081 360.766 227.952 360.883 227.952 361.094V361.188C227.952 361.715 227.554 362.125 227.05 362.125C226.523 362.125 226.113 361.715 226.113 361.188C226.113 360.684 226.523 360.285 227.05 360.285H227.601C227.788 360.285 227.906 360.156 227.906 359.969V357.18H226.183L226.113 358.387C226.019 360.062 225.386 360.766 223.804 360.766H223.593V362.535H225.749V370C225.749 372.402 227.074 373.234 229.042 373.234ZM236.174 373.34C238.049 373.34 239.057 372.309 239.654 370.668C239.854 370.117 240.088 369.836 240.568 369.836C241.049 369.836 241.389 370.188 241.389 370.668C241.389 371.148 241.002 371.512 240.522 371.512H240.135C239.971 371.512 239.877 371.605 239.877 371.805V373H242.033V360.766H239.877V367.141C239.877 369.953 238.705 371.512 236.83 371.512C235.225 371.512 234.404 370.574 234.404 369.016V360.766H232.248V369.262C232.248 371.852 233.736 373.34 236.174 373.34ZM244.805 373H246.962V366.684C246.962 363.906 248.309 362.629 250.325 362.629C250.63 362.629 250.899 362.652 251.204 362.723V360.566C251.063 360.543 250.852 360.52 250.63 360.52C249.352 360.52 248.415 360.977 247.805 361.797C247.536 362.16 247.325 362.594 247.173 363.086C247.032 363.566 246.798 363.93 246.341 363.93C245.86 363.93 245.52 363.566 245.52 363.086C245.52 362.582 245.93 362.242 246.387 362.242H246.692C246.845 362.242 246.962 362.102 246.962 361.984V360.766H244.805V373ZM257.539 373.34C260.539 373.34 262.437 371.535 262.707 368.922H260.515C260.281 370.598 259.179 371.512 257.691 371.512C255.816 371.512 254.398 370.293 254.234 367.621C254.21 367.34 254.082 367.27 253.847 367.27H253.66C253.203 367.27 252.863 366.93 252.863 366.473C252.863 366.016 253.203 365.676 253.66 365.676H253.847C254.128 365.676 254.281 365.582 254.328 365.324C254.691 363.309 255.886 362.242 257.515 362.242C259.273 362.242 260.328 363.344 260.48 365.652H255.136C254.632 365.652 254.257 366.039 254.257 366.52C254.257 367 254.632 367.387 255.136 367.387H262.777V366.66C262.777 362.629 260.667 360.426 257.539 360.426C254.351 360.426 251.972 362.922 251.972 366.859C251.972 371.301 254.351 373.34 257.539 373.34Z" fill="#302112"/>
<circle cx="58" cy="198" r="52" fill="#FFC900"/>
<path d="M35.7441 197H47.2167V195.031H39.3183C39.1308 195.031 39.0253 195.125 39.0019 195.348C38.9433 195.828 38.5566 196.215 38.0761 196.215C37.5487 196.215 37.1386 195.805 37.1386 195.289C37.1386 194.773 37.537 194.363 38.0644 194.363H38.287C38.6034 194.363 38.7206 194.34 38.9198 194.047L46.9823 182.117V180.195H35.6503V182.164H43.2675C43.5487 182.164 43.6777 182.023 43.6894 181.777C43.7245 181.168 44.1112 180.793 44.6503 180.793C45.1777 180.793 45.5644 181.203 45.5644 181.719C45.5644 182.234 45.1659 182.645 44.6386 182.645H44.4862C44.1933 182.645 44.0409 182.668 43.7831 183.055L35.7441 195.078V197ZM54.0436 197.34C57.0436 197.34 58.942 195.535 59.2116 192.922H57.0202C56.7858 194.598 55.6842 195.512 54.1959 195.512C52.3209 195.512 50.903 194.293 50.7389 191.621C50.7155 191.34 50.5866 191.27 50.3522 191.27H50.1647C49.7077 191.27 49.3678 190.93 49.3678 190.473C49.3678 190.016 49.7077 189.676 50.1647 189.676H50.3522C50.6334 189.676 50.7858 189.582 50.8327 189.324C51.1959 187.309 52.3913 186.242 54.0202 186.242C55.778 186.242 56.8327 187.344 56.985 189.652H51.6413C51.1373 189.652 50.7623 190.039 50.7623 190.52C50.7623 191 51.1373 191.387 51.6413 191.387H59.2819V190.66C59.2819 186.629 57.1725 184.426 54.0436 184.426C50.8561 184.426 48.4772 186.922 48.4772 190.859C48.4772 195.301 50.8561 197.34 54.0436 197.34ZM61.4095 197H63.5658V190.684C63.5658 187.906 64.9134 186.629 66.9291 186.629C67.2337 186.629 67.5033 186.652 67.808 186.723V184.566C67.6673 184.543 67.4564 184.52 67.2337 184.52C65.9564 184.52 65.0189 184.977 64.4095 185.797C64.14 186.16 63.9291 186.594 63.7767 187.086C63.6361 187.566 63.4017 187.93 62.9447 187.93C62.4642 187.93 62.1244 187.566 62.1244 187.086C62.1244 186.582 62.5345 186.242 62.9916 186.242H63.2962C63.4486 186.242 63.5658 186.102 63.5658 185.984V184.766H61.4095V197ZM73.6505 197.34C76.9669 197.34 79.1231 194.809 79.1231 190.871C79.1231 186.934 76.9669 184.426 73.6505 184.426C70.3341 184.426 68.1778 186.934 68.1778 190.871C68.1778 194.809 70.3341 197.34 73.6505 197.34ZM68.5177 190.883C68.5177 190.449 68.8575 190.086 69.3028 190.086C69.7364 190.086 70.0997 190.449 70.0997 190.883C70.0997 191.34 69.7364 191.668 69.3028 191.668C68.8575 191.668 68.5177 191.34 68.5177 190.883ZM70.4395 190.871C70.4395 187.918 71.6348 186.254 73.6505 186.254C75.6661 186.254 76.8614 187.918 76.8614 190.871C76.8614 193.824 75.6661 195.512 73.6505 195.512C71.6348 195.512 70.4395 193.824 70.4395 190.871ZM77.2012 190.883C77.2012 190.449 77.5411 190.086 77.9981 190.086C78.4317 190.086 78.7833 190.449 78.7833 190.883C78.7833 191.34 78.4317 191.668 77.9981 191.668C77.5411 191.668 77.2012 191.34 77.2012 190.883ZM34.6861 223.34C38.9869 223.34 41.6705 219.789 41.6705 214.598C41.6705 209.441 38.94 205.867 34.6861 205.867C30.4439 205.867 27.7017 209.418 27.7017 214.598C27.7017 219.789 30.4205 223.34 34.6861 223.34ZM28.0064 214.598C28.0064 214.117 28.3931 213.73 28.8736 213.73C29.3541 213.73 29.7408 214.117 29.7408 214.598C29.7408 215.078 29.3541 215.465 28.8736 215.465C28.3931 215.465 28.0064 215.078 28.0064 214.598ZM30.0103 214.598C30.0103 210.379 31.8384 207.883 34.6861 207.883C37.5455 207.883 39.3736 210.379 39.3736 214.598C39.3736 218.852 37.5455 221.324 34.6861 221.324C31.8384 221.324 30.0103 218.828 30.0103 214.598ZM39.6431 214.598C39.6431 214.117 40.0298 213.73 40.5103 213.73C40.9908 213.73 41.3775 214.117 41.3775 214.598C41.3775 215.078 40.9908 215.465 40.5103 215.465C40.0298 215.465 39.6431 215.078 39.6431 214.598ZM51.7786 206.195V211.82C51.7786 212.055 51.9075 212.195 52.1419 212.195H52.4466C52.927 212.195 53.302 212.559 53.302 213.039C53.302 213.52 52.927 213.883 52.4466 213.883C51.9661 213.883 51.72 213.52 51.5325 212.992C51.263 212.266 50.9231 211.703 50.4778 211.281C49.8919 210.707 49.1302 210.426 48.1927 210.426C45.0755 210.426 43.2005 213.004 43.2005 216.906C43.2005 220.809 45.0169 223.34 48.1927 223.34C49.7864 223.34 51.1223 222.555 51.8489 221.148V223H53.9348V206.195H51.7786ZM45.4622 216.859C45.4622 214.152 46.5169 212.242 48.5794 212.242C50.6419 212.242 51.7669 214.152 51.7669 216.859C51.7669 219.566 50.6419 221.512 48.5794 221.512C46.5169 221.512 45.4622 219.566 45.4622 216.859ZM61.5 223.34C64.8164 223.34 66.9727 220.809 66.9727 216.871C66.9727 212.934 64.8164 210.426 61.5 210.426C58.1836 210.426 56.0273 212.934 56.0273 216.871C56.0273 220.809 58.1836 223.34 61.5 223.34ZM56.3672 216.883C56.3672 216.449 56.707 216.086 57.1523 216.086C57.5859 216.086 57.9492 216.449 57.9492 216.883C57.9492 217.34 57.5859 217.668 57.1523 217.668C56.707 217.668 56.3672 217.34 56.3672 216.883ZM58.2891 216.871C58.2891 213.918 59.4844 212.254 61.5 212.254C63.5156 212.254 64.7109 213.918 64.7109 216.871C64.7109 219.824 63.5156 221.512 61.5 221.512C59.4844 221.512 58.2891 219.824 58.2891 216.871ZM65.0508 216.883C65.0508 216.449 65.3906 216.086 65.8477 216.086C66.2812 216.086 66.6328 216.449 66.6328 216.883C66.6328 217.34 66.2812 217.668 65.8477 217.668C65.3906 217.668 65.0508 217.34 65.0508 216.883ZM72.8737 223.34C74.7487 223.34 75.7566 222.309 76.3542 220.668C76.5534 220.117 76.7878 219.836 77.2683 219.836C77.7487 219.836 78.0886 220.188 78.0886 220.668C78.0886 221.148 77.7019 221.512 77.2214 221.512H76.8347C76.6706 221.512 76.5769 221.605 76.5769 221.805V223H78.7331V210.766H76.5769V217.141C76.5769 219.953 75.405 221.512 73.53 221.512C71.9245 221.512 71.1042 220.574 71.1042 219.016V210.766H68.948V219.262C68.948 221.852 70.4362 223.34 72.8737 223.34ZM81.5053 223H83.6616V216.684C83.6616 213.906 85.0092 212.629 87.0248 212.629C87.3295 212.629 87.5991 212.652 87.9037 212.723V210.566C87.7631 210.543 87.5522 210.52 87.3295 210.52C86.0522 210.52 85.1147 210.977 84.5053 211.797C84.2358 212.16 84.0248 212.594 83.8725 213.086C83.7319 213.566 83.4975 213.93 83.0405 213.93C82.56 213.93 82.2202 213.566 82.2202 213.086C82.2202 212.582 82.6303 212.242 83.0873 212.242H83.392C83.5444 212.242 83.6616 212.102 83.6616 211.984V210.766H81.5053V223Z" fill="#302112"/>
<circle cx="208" cy="234" r="58" fill="#00FF00"/>
<path d="M184.3 216.911V230.786H186.503V216.911C186.503 216.267 186.023 215.786 185.402 215.786C184.78 215.786 184.3 216.267 184.3 216.911ZM178.722 215.95H183.984C184.218 215.95 184.347 215.81 184.347 215.599V215.493C184.347 214.919 184.78 214.439 185.378 214.439C185.976 214.439 186.433 214.919 186.433 215.493V215.599C186.433 215.81 186.55 215.95 186.796 215.95H192.07V213.982H178.722V215.95ZM195.674 231.126C198.99 231.126 201.146 228.595 201.146 224.657C201.146 220.72 198.99 218.212 195.674 218.212C192.357 218.212 190.201 220.72 190.201 224.657C190.201 228.595 192.357 231.126 195.674 231.126ZM190.541 224.669C190.541 224.236 190.881 223.872 191.326 223.872C191.76 223.872 192.123 224.236 192.123 224.669C192.123 225.126 191.76 225.454 191.326 225.454C190.881 225.454 190.541 225.126 190.541 224.669ZM192.463 224.657C192.463 221.704 193.658 220.04 195.674 220.04C197.689 220.04 198.885 221.704 198.885 224.657C198.885 227.611 197.689 229.298 195.674 229.298C193.658 229.298 192.463 227.611 192.463 224.657ZM199.225 224.669C199.225 224.236 199.564 223.872 200.021 223.872C200.455 223.872 200.807 224.236 200.807 224.669C200.807 225.126 200.455 225.454 200.021 225.454C199.564 225.454 199.225 225.126 199.225 224.669ZM201.399 230.786H203.801L206.743 226.052L209.626 230.786H212.145L208.09 224.575L211.981 218.552H209.719L207.153 222.677C207.059 222.841 207.059 222.935 207.2 223.087L207.446 223.322C207.61 223.486 207.704 223.661 207.704 223.896C207.704 224.4 207.329 224.81 206.825 224.81C206.321 224.81 205.934 224.4 205.934 223.896C205.934 223.685 206.051 223.462 206.215 223.275L206.391 223.087C206.508 222.958 206.579 222.841 206.462 222.654L204.036 218.552H201.563L205.465 224.74L201.399 230.786ZM213.546 230.786H215.703V218.552H213.546V230.786ZM213.394 216.478H215.843V213.982H213.394V216.478ZM223.139 231.126C225.729 231.126 227.815 229.615 228.108 226.462H225.869C225.705 228.337 224.627 229.298 223.186 229.298C221.287 229.298 220.045 227.74 220.045 224.669C220.045 221.599 221.311 220.029 223.209 220.029C224.697 220.029 225.775 220.99 225.869 222.865H228.108C227.861 219.724 225.822 218.212 223.162 218.212C220.092 218.212 217.783 220.568 217.783 224.716C217.783 228.958 219.975 231.126 223.139 231.126ZM218.123 224.669C218.123 224.236 218.463 223.872 218.908 223.872C219.342 223.872 219.705 224.236 219.705 224.669C219.705 225.126 219.342 225.454 218.908 225.454C218.463 225.454 218.123 225.126 218.123 224.669ZM229.907 224.763H236.481V222.841H229.907V224.763ZM190.518 256.786H192.685V246.322H195.205V244.552H193.213C193.072 244.552 192.92 244.693 192.92 244.833V244.974C192.92 245.501 192.486 245.911 191.982 245.911C191.455 245.911 191.057 245.501 191.057 244.974C191.057 244.47 191.455 244.048 191.982 244.048H192.369C192.533 244.048 192.685 243.896 192.685 243.755V242.407C192.685 241.81 192.967 241.423 193.623 241.423H195.205V239.654H193.26C191.432 239.654 190.518 240.755 190.518 242.337V244.552H188.525V246.322H190.518V256.786ZM196.665 256.786H198.821V250.47C198.821 247.693 200.169 246.415 202.184 246.415C202.489 246.415 202.758 246.439 203.063 246.509V244.353C202.923 244.329 202.712 244.306 202.489 244.306C201.212 244.306 200.274 244.763 199.665 245.583C199.395 245.947 199.184 246.38 199.032 246.872C198.891 247.353 198.657 247.716 198.2 247.716C197.719 247.716 197.38 247.353 197.38 246.872C197.38 246.368 197.79 246.029 198.247 246.029H198.551C198.704 246.029 198.821 245.888 198.821 245.771V244.552H196.665V256.786ZM209.398 257.126C212.398 257.126 214.296 255.322 214.566 252.708H212.374C212.14 254.384 211.038 255.298 209.55 255.298C207.675 255.298 206.257 254.079 206.093 251.407C206.07 251.126 205.941 251.056 205.706 251.056H205.519C205.062 251.056 204.722 250.716 204.722 250.259C204.722 249.802 205.062 249.462 205.519 249.462H205.706C205.988 249.462 206.14 249.368 206.187 249.111C206.55 247.095 207.745 246.029 209.374 246.029C211.132 246.029 212.187 247.13 212.339 249.439H206.995C206.492 249.439 206.117 249.825 206.117 250.306C206.117 250.786 206.492 251.173 206.995 251.173H214.636V250.447C214.636 246.415 212.527 244.212 209.398 244.212C206.21 244.212 203.831 246.708 203.831 250.646C203.831 255.087 206.21 257.126 209.398 257.126ZM221.639 257.126C224.639 257.126 226.537 255.322 226.807 252.708H224.615C224.381 254.384 223.279 255.298 221.791 255.298C219.916 255.298 218.498 254.079 218.334 251.407C218.311 251.126 218.182 251.056 217.947 251.056H217.76C217.303 251.056 216.963 250.716 216.963 250.259C216.963 249.802 217.303 249.462 217.76 249.462H217.947C218.229 249.462 218.381 249.368 218.428 249.111C218.791 247.095 219.986 246.029 221.615 246.029C223.373 246.029 224.428 247.13 224.58 249.439H219.236C218.733 249.439 218.358 249.825 218.358 250.306C218.358 250.786 218.733 251.173 219.236 251.173H226.877V250.447C226.877 246.415 224.768 244.212 221.639 244.212C218.451 244.212 216.072 246.708 216.072 250.646C216.072 255.087 218.451 257.126 221.639 257.126Z" fill="#302112"/>
<circle cx="155.5" cy="101.5" r="79.5" fill="#FF42EF"/>
<path d="M141.094 93.543H143.426L145.137 88.6446C145.231 88.3868 145.161 88.1876 144.962 88.1172L144.657 88.0001C144.153 87.8126 143.883 87.3087 144.048 86.8047C144.247 86.2657 144.751 86.0782 145.325 86.2657L145.536 86.3477C145.782 86.418 145.946 86.2657 146.016 86.0547L148.43 79.0704L150.821 86.0547C150.891 86.3008 151.079 86.418 151.301 86.3477L151.618 86.2422C152.122 86.0782 152.544 86.2188 152.766 86.7696C152.977 87.3321 152.696 87.8594 152.192 88.0235L151.923 88.1172C151.688 88.1876 151.618 88.3868 151.712 88.6446L153.387 93.543H155.766L149.743 76.7383H147.176L141.094 93.543ZM145.255 87.4962C145.255 88.0235 145.712 88.4571 146.262 88.4571H150.633C151.184 88.4571 151.641 88.0235 151.641 87.4962C151.641 86.9454 151.184 86.4883 150.633 86.4883H146.262C145.712 86.4883 145.255 86.9454 145.255 87.4962ZM157.109 93.543H159.265V81.3087H157.109V93.543ZM156.956 79.2344H159.406V76.7383H156.956V79.2344ZM162.037 93.543H164.193V87.2266C164.193 84.4493 165.541 83.1719 167.557 83.1719C167.861 83.1719 168.131 83.1954 168.436 83.2657V81.1094C168.295 81.086 168.084 81.0626 167.861 81.0626C166.584 81.0626 165.647 81.5196 165.037 82.3399C164.768 82.7032 164.557 83.1368 164.404 83.629C164.264 84.1094 164.029 84.4727 163.572 84.4727C163.092 84.4727 162.752 84.1094 162.752 83.629C162.752 83.1251 163.162 82.7852 163.619 82.7852H163.924C164.076 82.7852 164.193 82.6446 164.193 82.5274V81.3087H162.037V93.543ZM168.384 87.5196H174.958V85.5977H168.384V87.5196ZM116.867 119.543H119.07V113.133C119.07 112.992 118.93 112.852 118.765 112.852H118.379C117.851 112.852 117.441 112.441 117.441 111.938C117.441 111.41 117.851 110.977 118.379 110.977H118.765C118.93 110.977 119.07 110.836 119.07 110.684V105.574C119.07 105.434 118.93 105.281 118.765 105.281H118.379C117.851 105.281 117.441 104.859 117.441 104.356C117.441 103.828 117.851 103.418 118.379 103.418C118.883 103.418 119.316 103.828 119.316 104.356V104.402C119.316 104.566 119.457 104.707 119.609 104.707H122.363C124.672 104.707 125.984 105.785 125.984 107.813C125.984 109.828 124.672 110.906 122.363 110.906H119.89C119.34 110.906 118.883 111.363 118.883 111.914C118.883 112.441 119.34 112.875 119.89 112.875H122.797C126.09 112.875 128.293 111 128.293 107.813C128.293 104.613 126.09 102.738 122.773 102.738H116.867V119.543ZM133.831 119.883C135.706 119.883 136.713 118.852 137.311 117.211C137.51 116.66 137.745 116.379 138.225 116.379C138.706 116.379 139.045 116.731 139.045 117.211C139.045 117.691 138.659 118.055 138.178 118.055H137.792C137.628 118.055 137.534 118.148 137.534 118.348V119.543H139.69V107.309H137.534V113.684C137.534 116.496 136.362 118.055 134.487 118.055C132.881 118.055 132.061 117.117 132.061 115.559V107.309H129.905V115.805C129.905 118.395 131.393 119.883 133.831 119.883ZM142.462 119.543H144.618V113.227C144.618 110.449 145.966 109.172 147.982 109.172C148.286 109.172 148.556 109.195 148.861 109.266V107.109C148.72 107.086 148.509 107.063 148.286 107.063C147.009 107.063 146.072 107.52 145.462 108.34C145.193 108.703 144.982 109.137 144.829 109.629C144.689 110.109 144.454 110.473 143.997 110.473C143.517 110.473 143.177 110.109 143.177 109.629C143.177 109.125 143.587 108.785 144.044 108.785H144.349C144.501 108.785 144.618 108.645 144.618 108.527V107.309H142.462V119.543ZM150.32 119.543H152.477V107.309H150.32V119.543ZM150.168 105.234H152.617V102.738H150.168V105.234ZM155.999 119.543H158.167V109.078H160.686V107.309H158.694C158.553 107.309 158.401 107.449 158.401 107.59V107.731C158.401 108.258 157.968 108.668 157.464 108.668C156.936 108.668 156.538 108.258 156.538 107.731C156.538 107.227 156.936 106.805 157.464 106.805H157.85C158.014 106.805 158.167 106.652 158.167 106.512V105.164C158.167 104.566 158.448 104.18 159.104 104.18H160.686V102.41H158.741C156.913 102.41 155.999 103.512 155.999 105.094V107.309H154.007V109.078H155.999V119.543ZM163.037 124.195C165.029 124.195 166.33 122.93 167.208 120.387L171.744 107.309H169.447L166.751 115.77C166.693 115.969 166.693 116.121 166.833 116.273L166.998 116.449C167.197 116.672 167.314 116.859 167.314 117.094C167.314 117.598 166.927 117.984 166.447 117.984C165.966 117.984 165.58 117.598 165.58 117.094C165.58 116.859 165.708 116.648 165.896 116.449L166.06 116.273C166.201 116.133 166.177 115.969 166.107 115.77L163.201 107.309H160.857L165.287 119.531C164.537 121.512 163.892 122.203 162.626 122.203C162.415 122.203 162.005 122.18 161.642 122.039V124.008C162.029 124.125 162.509 124.195 163.037 124.195ZM173.262 119.543H175.418V107.309H173.262V119.543ZM173.11 105.234H175.559V102.738H173.11V105.234ZM178.19 119.543H180.347V113.273C180.347 110.332 181.518 108.785 183.44 108.785C184.975 108.785 185.819 109.676 185.819 111.281V119.543H187.975V111.047C187.975 108.598 186.534 106.969 184.167 106.969C182.245 106.969 181.143 107.93 180.558 109.629C180.37 110.18 180.124 110.473 179.655 110.473C179.175 110.473 178.835 110.109 178.835 109.629C178.835 109.148 179.222 108.785 179.702 108.785H180.077C180.253 108.785 180.347 108.691 180.347 108.504V107.309H178.19V119.543ZM195.213 124.195C198.541 124.195 200.709 122.273 200.709 118.746V107.309H198.564V109.02C197.826 107.684 196.548 106.969 194.943 106.969C191.826 106.969 189.974 109.512 189.974 113.063C189.974 116.613 191.802 119.109 194.92 119.109C196.42 119.109 197.334 118.594 197.838 117.75C198.025 117.469 198.166 117.129 198.306 116.731C198.494 116.203 198.716 115.852 199.244 115.852C199.724 115.852 200.076 116.18 200.076 116.684C200.076 117.188 199.677 117.527 199.197 117.527H198.904C198.693 117.527 198.541 117.668 198.541 117.914V118.852C198.541 121.078 197.416 122.379 195.306 122.379C193.701 122.379 192.541 121.676 192.423 120.211H190.244C190.291 122.566 192.107 124.195 195.213 124.195ZM192.236 113.063C192.236 110.566 193.291 108.82 195.353 108.82C197.416 108.82 198.541 110.566 198.541 113.063C198.541 115.559 197.416 117.316 195.353 117.316C193.291 117.316 192.236 115.559 192.236 113.063Z" fill="#302112"/>
<circle cx="313.5" cy="133.5" r="75.5" fill="#FF5500"/>
<path d="M289.753 127H292.085L293.795 122.102C293.889 121.844 293.819 121.645 293.62 121.574L293.315 121.457C292.811 121.27 292.542 120.766 292.706 120.262C292.905 119.723 293.409 119.535 293.983 119.723L294.194 119.805C294.44 119.875 294.604 119.723 294.674 119.512L297.088 112.527L299.479 119.512C299.549 119.758 299.737 119.875 299.96 119.805L300.276 119.699C300.78 119.535 301.202 119.676 301.424 120.227C301.635 120.789 301.354 121.316 300.85 121.48L300.581 121.574C300.346 121.645 300.276 121.844 300.37 122.102L302.045 127H304.424L298.401 110.195H295.835L289.753 127ZM293.913 120.953C293.913 121.48 294.37 121.914 294.92 121.914H299.292C299.842 121.914 300.299 121.48 300.299 120.953C300.299 120.402 299.842 119.945 299.292 119.945H294.92C294.37 119.945 293.913 120.402 293.913 120.953ZM305.767 127H307.923V120.73C307.923 117.789 309.095 116.242 311.017 116.242C312.552 116.242 313.396 117.133 313.396 118.738V127H315.552V118.504C315.552 116.055 314.111 114.426 311.743 114.426C309.822 114.426 308.72 115.387 308.134 117.086C307.947 117.637 307.7 117.93 307.232 117.93C306.751 117.93 306.411 117.566 306.411 117.086C306.411 116.605 306.798 116.242 307.279 116.242H307.654C307.829 116.242 307.923 116.148 307.923 115.961V114.766H305.767V127ZM322.367 127.234C322.848 127.234 323.223 127.188 323.703 127.07V125.301C323.398 125.371 323.059 125.395 322.812 125.395C321.887 125.395 321.23 125.031 321.23 123.859V116.535H323.926V114.766H321.594C321.406 114.766 321.277 114.883 321.277 115.094V115.188C321.277 115.715 320.879 116.125 320.375 116.125C319.848 116.125 319.438 115.715 319.438 115.188C319.438 114.684 319.848 114.285 320.375 114.285H320.926C321.113 114.285 321.23 114.156 321.23 113.969V111.18H319.508L319.438 112.387C319.344 114.062 318.711 114.766 317.129 114.766H316.918V116.535H319.074V124C319.074 126.402 320.398 127.234 322.367 127.234ZM325.678 127H327.835V114.766H325.678V127ZM325.526 112.691H327.975V110.195H325.526V112.691ZM330.408 120.977H336.982V119.055H330.408V120.977ZM278.208 153.34C281.349 153.34 283.271 150.785 283.271 146.883C283.271 142.969 281.489 140.426 278.419 140.426C277.165 140.426 276.204 140.941 275.56 141.82C275.302 142.16 275.103 142.547 274.939 142.992C274.751 143.52 274.505 143.883 274.025 143.883C273.544 143.883 273.169 143.52 273.169 143.039C273.169 142.559 273.544 142.195 274.025 142.195H274.329C274.564 142.195 274.693 142.055 274.693 141.82V136.195H272.536V153H274.622V151.184C275.372 152.648 276.661 153.34 278.208 153.34ZM274.704 146.906C274.704 144.199 275.829 142.254 277.892 142.254C279.954 142.254 281.009 144.199 281.009 146.906C281.009 149.613 279.954 151.512 277.892 151.512C275.829 151.512 274.704 149.613 274.704 146.906ZM288.633 153.34C290.367 153.34 291.797 152.426 292.512 151.254C292.57 151.887 292.676 152.52 292.805 153H295.09V152.66C294.75 152.379 294.609 151.195 294.609 150.164V144.844C294.609 142.055 292.875 140.426 289.922 140.426C286.992 140.426 285.035 142.172 284.953 144.527H287.215C287.308 143.086 288.363 142.219 289.922 142.219C291.68 142.219 292.418 143.227 292.418 144.164C292.418 145.055 291.844 145.348 290.426 145.582L288.48 145.898C286.183 146.273 284.625 147.387 284.625 149.73C284.625 151.969 286.371 153.34 288.633 153.34ZM286.875 149.66C286.875 148.465 287.601 147.832 289.16 147.527L290.707 147.223L291.269 147.117C291.82 147.012 292.066 146.812 292.066 146.379V146.367C292.066 145.828 292.5 145.465 292.992 145.465C293.496 145.465 293.883 145.852 293.883 146.355C293.883 146.859 293.472 147.234 292.992 147.234H292.828C292.617 147.234 292.465 147.363 292.465 147.621V147.914C292.465 149.93 291.316 151.535 289.16 151.535C287.859 151.535 286.875 150.82 286.875 149.66ZM301.94 153.34C304.53 153.34 306.616 151.828 306.909 148.676H304.67C304.506 150.551 303.428 151.512 301.987 151.512C300.088 151.512 298.846 149.953 298.846 146.883C298.846 143.812 300.112 142.242 302.01 142.242C303.499 142.242 304.577 143.203 304.67 145.078H306.909C306.663 141.938 304.624 140.426 301.963 140.426C298.893 140.426 296.585 142.781 296.585 146.93C296.585 151.172 298.776 153.34 301.94 153.34ZM296.924 146.883C296.924 146.449 297.264 146.086 297.71 146.086C298.143 146.086 298.506 146.449 298.506 146.883C298.506 147.34 298.143 147.668 297.71 147.668C297.264 147.668 296.924 147.34 296.924 146.883ZM313.056 153.234C313.536 153.234 313.911 153.188 314.392 153.07V151.301C314.087 151.371 313.747 151.395 313.501 151.395C312.575 151.395 311.919 151.031 311.919 149.859V142.535H314.615V140.766H312.283C312.095 140.766 311.966 140.883 311.966 141.094V141.188C311.966 141.715 311.568 142.125 311.064 142.125C310.536 142.125 310.126 141.715 310.126 141.188C310.126 140.684 310.536 140.285 311.064 140.285H311.615C311.802 140.285 311.919 140.156 311.919 139.969V137.18H310.197L310.126 138.387C310.033 140.062 309.4 140.766 307.818 140.766H307.607V142.535H309.763V150C309.763 152.402 311.087 153.234 313.056 153.234ZM321.242 153.34C324.242 153.34 326.141 151.535 326.41 148.922H324.219C323.984 150.598 322.883 151.512 321.395 151.512C319.52 151.512 318.102 150.293 317.938 147.621C317.914 147.34 317.785 147.27 317.551 147.27H317.363C316.906 147.27 316.566 146.93 316.566 146.473C316.566 146.016 316.906 145.676 317.363 145.676H317.551C317.832 145.676 317.984 145.582 318.031 145.324C318.395 143.309 319.59 142.242 321.219 142.242C322.977 142.242 324.031 143.344 324.184 145.652H318.84C318.336 145.652 317.961 146.039 317.961 146.52C317.961 147 318.336 147.387 318.84 147.387H326.48V146.66C326.48 142.629 324.371 140.426 321.242 140.426C318.055 140.426 315.676 142.922 315.676 146.859C315.676 151.301 318.055 153.34 321.242 153.34ZM328.608 153H330.764V146.684C330.764 143.906 332.112 142.629 334.128 142.629C334.432 142.629 334.702 142.652 335.007 142.723V140.566C334.866 140.543 334.655 140.52 334.432 140.52C333.155 140.52 332.217 140.977 331.608 141.797C331.339 142.16 331.128 142.594 330.975 143.086C330.835 143.566 330.6 143.93 330.143 143.93C329.663 143.93 329.323 143.566 329.323 143.086C329.323 142.582 329.733 142.242 330.19 142.242H330.495C330.647 142.242 330.764 142.102 330.764 141.984V140.766H328.608V153ZM336.466 153H338.622V140.766H336.466V153ZM336.314 138.691H338.763V136.195H336.314V138.691ZM344.664 153.34C346.399 153.34 347.828 152.426 348.543 151.254C348.602 151.887 348.707 152.52 348.836 153H351.121V152.66C350.781 152.379 350.641 151.195 350.641 150.164V144.844C350.641 142.055 348.906 140.426 345.953 140.426C343.024 140.426 341.067 142.172 340.985 144.527H343.246C343.34 143.086 344.395 142.219 345.953 142.219C347.711 142.219 348.449 143.227 348.449 144.164C348.449 145.055 347.875 145.348 346.457 145.582L344.512 145.898C342.215 146.273 340.656 147.387 340.656 149.73C340.656 151.969 342.402 153.34 344.664 153.34ZM342.906 149.66C342.906 148.465 343.633 147.832 345.192 147.527L346.738 147.223L347.301 147.117C347.852 147.012 348.098 146.812 348.098 146.379V146.367C348.098 145.828 348.531 145.465 349.024 145.465C349.527 145.465 349.914 145.852 349.914 146.355C349.914 146.859 349.504 147.234 349.024 147.234H348.86C348.649 147.234 348.496 147.363 348.496 147.621V147.914C348.496 149.93 347.348 151.535 345.192 151.535C343.891 151.535 342.906 150.82 342.906 149.66ZM353.307 153H355.464V136.195H353.307V153Z" fill="#302112"/>
</svg>
