<svg width="425" height="425" viewBox="0 0 425 425" fill="none" xmlns="http://www.w3.org/2000/svg">
<circle cx="212.5" cy="212.5" r="212.226" stroke="#302112" stroke-width="0.54768"/>
<path d="M272.125 339.317C273.182 342.76 273.911 346.344 274.275 350.034L273.777 350.083C273.953 351.865 274.043 353.672 274.043 355.5C274.043 357.328 273.953 359.135 273.777 360.917L274.275 360.966C273.911 364.656 273.182 368.24 272.125 371.683L271.647 371.536C270.576 375.023 269.165 378.364 267.452 381.52L267.891 381.759C266.144 384.977 264.085 388.006 261.755 390.804L261.371 390.484C259.057 393.262 256.473 395.811 253.66 398.093L253.974 398.481C251.151 400.77 248.098 402.791 244.854 404.505L244.621 404.063C241.45 405.739 238.095 407.118 234.595 408.165L234.738 408.644C231.29 409.674 227.703 410.384 224.01 410.739L223.962 410.241C222.179 410.412 220.371 410.5 218.543 410.5C216.714 410.5 214.907 410.412 213.124 410.241L213.076 410.739C209.383 410.384 205.795 409.674 202.348 408.644L202.491 408.165C198.991 407.118 195.636 405.739 192.465 404.063L192.232 404.505C188.988 402.791 185.935 400.77 183.111 398.481L183.426 398.093C180.612 395.811 178.029 393.262 175.715 390.484L175.331 390.804C173.001 388.006 170.942 384.977 169.195 381.759L169.634 381.52C167.921 378.364 166.51 375.023 165.439 371.536L164.961 371.683C163.904 368.24 163.175 364.656 162.811 360.966L163.309 360.917C163.133 359.135 163.043 357.328 163.043 355.5C163.043 353.672 163.133 351.865 163.309 350.083L162.811 350.034C163.175 346.344 163.904 342.76 164.961 339.317L165.439 339.464C166.51 335.977 167.921 332.636 169.634 329.48L169.195 329.241C170.942 326.023 173.001 322.994 175.331 320.196L175.715 320.516C178.029 317.738 180.612 315.189 183.426 312.907L183.111 312.519C185.935 310.23 188.988 308.209 192.232 306.495L192.465 306.937C195.636 305.261 198.991 303.882 202.491 302.835L202.348 302.356C205.795 301.326 209.383 300.616 213.076 300.261L213.124 300.759C214.907 300.588 216.714 300.5 218.543 300.5C220.371 300.5 222.179 300.588 223.962 300.759L224.01 300.261C227.703 300.616 231.29 301.326 234.738 302.356L234.595 302.835C238.095 303.882 241.45 305.261 244.621 306.937L244.854 306.495C248.098 308.209 251.151 310.23 253.974 312.519L253.66 312.907C256.473 315.189 259.057 317.738 261.371 320.516L261.755 320.196C264.085 322.994 266.144 326.023 267.891 329.241L267.452 329.48C269.165 332.636 270.576 335.977 271.647 339.464L272.125 339.317Z" stroke="#302112" stroke-dasharray="10 10"/>
<circle cx="111.5" cy="306.5" r="51" stroke="#302112" stroke-dasharray="10 10"/>
<path d="M94.8177 306H97.6536L102.927 289.195H100.7L96.6692 302.543C96.5989 302.766 96.6223 302.93 96.763 303.07L96.9036 303.211C97.1028 303.41 97.22 303.668 97.22 303.938C97.22 304.465 96.8333 304.875 96.2825 304.875C95.7317 304.875 95.345 304.465 95.345 303.938C95.345 303.668 95.4622 303.41 95.6848 303.188L95.8255 303.047C95.9661 302.906 95.9544 302.73 95.8958 302.52L92.0286 289.195H89.7083L94.8177 306ZM110.398 306.34C114.699 306.34 117.383 302.789 117.383 297.598C117.383 292.441 114.652 288.867 110.398 288.867C106.156 288.867 103.414 292.418 103.414 297.598C103.414 302.789 106.133 306.34 110.398 306.34ZM103.719 297.598C103.719 297.117 104.105 296.73 104.586 296.73C105.066 296.73 105.453 297.117 105.453 297.598C105.453 298.078 105.066 298.465 104.586 298.465C104.105 298.465 103.719 298.078 103.719 297.598ZM105.723 297.598C105.723 293.379 107.551 290.883 110.398 290.883C113.258 290.883 115.086 293.379 115.086 297.598C115.086 301.852 113.258 304.324 110.398 304.324C107.551 304.324 105.723 301.828 105.723 297.598ZM115.355 297.598C115.355 297.117 115.742 296.73 116.223 296.73C116.703 296.73 117.09 297.117 117.09 297.598C117.09 298.078 116.703 298.465 116.223 298.465C115.742 298.465 115.355 298.078 115.355 297.598ZM126.284 306.34C129.835 306.34 132.425 304.301 132.764 300.41H130.479C130.198 302.93 128.581 304.277 126.495 304.277C123.331 304.277 121.362 301.875 121.362 297.598C121.362 293.332 123.284 290.883 126.331 290.883C128.581 290.883 130.292 292.148 130.573 294.797H132.788C132.565 290.953 129.835 288.867 126.401 288.867C121.889 288.867 119.053 292.301 119.053 297.691C119.053 303.141 121.983 306.34 126.284 306.34ZM119.358 297.598C119.358 297.117 119.745 296.73 120.225 296.73C120.706 296.73 121.092 297.117 121.092 297.598C121.092 298.078 120.706 298.465 120.225 298.465C119.745 298.465 119.358 298.078 119.358 297.598ZM90.9941 332H93.1972V324.652C93.1972 324.512 93.0566 324.371 92.8925 324.371H92.5058C91.9784 324.371 91.5683 323.961 91.5683 323.457C91.5683 322.93 91.9784 322.496 92.5058 322.496H92.8925C93.0566 322.496 93.1972 322.355 93.1972 322.203V318.031C93.1972 317.891 93.0566 317.738 92.8925 317.738H92.5058C91.9784 317.738 91.5683 317.316 91.5683 316.812C91.5683 316.285 91.9784 315.875 92.5058 315.875C93.0097 315.875 93.4433 316.285 93.4433 316.812V316.953C93.4433 317.094 93.5839 317.234 93.7362 317.234H101.435V315.195H90.9941V332ZM92.8691 323.457C92.8691 323.984 93.3027 324.418 93.8769 324.418H100.662V322.449H93.8769C93.3027 322.449 92.8691 322.906 92.8691 323.457ZM102.684 332H104.84V325.684C104.84 322.906 106.188 321.629 108.204 321.629C108.508 321.629 108.778 321.652 109.083 321.723V319.566C108.942 319.543 108.731 319.52 108.508 319.52C107.231 319.52 106.294 319.977 105.684 320.797C105.415 321.16 105.204 321.594 105.051 322.086C104.911 322.566 104.676 322.93 104.219 322.93C103.739 322.93 103.399 322.566 103.399 322.086C103.399 321.582 103.809 321.242 104.266 321.242H104.571C104.723 321.242 104.84 321.102 104.84 320.984V319.766H102.684V332ZM115.417 332.34C118.417 332.34 120.316 330.535 120.585 327.922H118.394C118.16 329.598 117.058 330.512 115.57 330.512C113.695 330.512 112.277 329.293 112.113 326.621C112.089 326.34 111.96 326.27 111.726 326.27H111.538C111.081 326.27 110.742 325.93 110.742 325.473C110.742 325.016 111.081 324.676 111.538 324.676H111.726C112.007 324.676 112.16 324.582 112.206 324.324C112.57 322.309 113.765 321.242 115.394 321.242C117.152 321.242 118.206 322.344 118.359 324.652H113.015C112.511 324.652 112.136 325.039 112.136 325.52C112.136 326 112.511 326.387 113.015 326.387H120.656V325.66C120.656 321.629 118.546 319.426 115.417 319.426C112.23 319.426 109.851 321.922 109.851 325.859C109.851 330.301 112.23 332.34 115.417 332.34ZM127.658 332.34C130.658 332.34 132.557 330.535 132.826 327.922H130.635C130.4 329.598 129.299 330.512 127.811 330.512C125.936 330.512 124.518 329.293 124.354 326.621C124.33 326.34 124.201 326.27 123.967 326.27H123.779C123.322 326.27 122.982 325.93 122.982 325.473C122.982 325.016 123.322 324.676 123.779 324.676H123.967C124.248 324.676 124.4 324.582 124.447 324.324C124.811 322.309 126.006 321.242 127.635 321.242C129.393 321.242 130.447 322.344 130.6 324.652H125.256C124.752 324.652 124.377 325.039 124.377 325.52C124.377 326 124.752 326.387 125.256 326.387H132.897V325.66C132.897 321.629 130.787 319.426 127.658 319.426C124.471 319.426 122.092 321.922 122.092 325.859C122.092 330.301 124.471 332.34 127.658 332.34Z" fill="#302112"/>
<circle cx="326.043" cy="266.5" r="75" stroke="#302112" stroke-dasharray="10 10"/>
<path d="M283.942 272H287.036L289.883 258.992C289.918 258.84 289.942 258.711 289.801 258.57L289.555 258.324C289.368 258.137 289.274 257.902 289.274 257.656C289.274 257.117 289.696 256.719 290.211 256.719C290.727 256.719 291.149 257.117 291.149 257.656C291.149 257.902 291.067 258.125 290.868 258.324L290.586 258.594C290.458 258.723 290.458 258.828 290.493 259.016L292.965 272H296.235L300.09 255.195H297.864L295.004 268.004C294.958 268.215 294.969 268.332 295.11 268.473L295.309 268.672C295.497 268.859 295.614 269.082 295.614 269.363C295.614 269.891 295.192 270.301 294.676 270.301C294.161 270.301 293.739 269.891 293.739 269.363C293.739 269.082 293.844 268.871 294.043 268.672L294.243 268.473C294.36 268.355 294.383 268.215 294.336 268.039L291.793 255.195H288.723L285.84 268.039C285.805 268.18 285.793 268.332 285.934 268.473L286.133 268.672C286.333 268.871 286.438 269.082 286.438 269.363C286.438 269.891 286.016 270.301 285.5 270.301C284.985 270.301 284.563 269.891 284.563 269.363C284.563 269.082 284.68 268.859 284.868 268.672L285.067 268.473C285.208 268.332 285.219 268.215 285.172 268.004L282.5 255.195H280.25L283.942 272ZM304.245 272.34C305.98 272.34 307.409 271.426 308.124 270.254C308.183 270.887 308.288 271.52 308.417 272H310.702V271.66C310.363 271.379 310.222 270.195 310.222 269.164V263.844C310.222 261.055 308.488 259.426 305.534 259.426C302.605 259.426 300.648 261.172 300.566 263.527H302.827C302.921 262.086 303.976 261.219 305.534 261.219C307.292 261.219 308.03 262.227 308.03 263.164C308.03 264.055 307.456 264.348 306.038 264.582L304.093 264.898C301.796 265.273 300.238 266.387 300.238 268.73C300.238 270.969 301.984 272.34 304.245 272.34ZM302.488 268.66C302.488 267.465 303.214 266.832 304.773 266.527L306.32 266.223L306.882 266.117C307.433 266.012 307.679 265.812 307.679 265.379V265.367C307.679 264.828 308.113 264.465 308.605 264.465C309.109 264.465 309.495 264.852 309.495 265.355C309.495 265.859 309.085 266.234 308.605 266.234H308.441C308.23 266.234 308.077 266.363 308.077 266.621V266.914C308.077 268.93 306.929 270.535 304.773 270.535C303.472 270.535 302.488 269.82 302.488 268.66ZM317.33 272.34C320.014 272.34 322.123 270.969 322.123 268.355C322.123 266.527 320.857 265.426 318.642 264.992L316.392 264.559C315.185 264.324 314.635 263.867 314.635 263.047C314.635 261.969 315.596 261.219 317.084 261.219C318.642 261.219 319.65 262.086 319.721 263.527H321.935C321.842 261.195 320.225 259.426 317.131 259.426C314.131 259.426 312.361 261.125 312.361 263.316C312.361 265.016 313.392 266.117 315.795 266.598L317.81 267.008C319.24 267.301 319.873 267.758 319.873 268.684C319.873 269.82 318.865 270.512 317.377 270.512C315.642 270.512 314.4 269.668 314.33 268.062H312.068C312.115 270.699 314.107 272.34 317.33 272.34ZM316.533 265.812C316.533 265.379 316.92 265.016 317.33 265.016C317.728 265.016 318.115 265.379 318.115 265.812C318.115 266.234 317.752 266.598 317.353 266.598C316.943 266.598 316.533 266.234 316.533 265.812ZM324.145 272H326.301V265.73C326.301 262.789 327.473 261.242 329.395 261.242C330.93 261.242 331.774 262.133 331.774 263.738V272H333.93V263.504C333.93 261.055 332.489 259.426 330.122 259.426C328.2 259.426 327.098 260.387 326.512 262.086C326.325 262.637 326.079 262.93 325.61 262.93C325.13 262.93 324.79 262.566 324.79 262.086C324.79 261.605 325.176 261.242 325.657 261.242H326.032C326.208 261.242 326.301 261.148 326.301 260.961V255.195H324.145V272ZM339.867 272.34C341.601 272.34 343.031 271.426 343.745 270.254C343.804 270.887 343.91 271.52 344.038 272H346.324V271.66C345.984 271.379 345.843 270.195 345.843 269.164V263.844C345.843 261.055 344.109 259.426 341.156 259.426C338.226 259.426 336.269 261.172 336.187 263.527H338.449C338.542 262.086 339.597 261.219 341.156 261.219C342.913 261.219 343.652 262.227 343.652 263.164C343.652 264.055 343.077 264.348 341.66 264.582L339.714 264.898C337.417 265.273 335.859 266.387 335.859 268.73C335.859 270.969 337.605 272.34 339.867 272.34ZM338.109 268.66C338.109 267.465 338.835 266.832 340.394 266.527L341.941 266.223L342.503 266.117C343.054 266.012 343.3 265.812 343.3 265.379V265.367C343.3 264.828 343.734 264.465 344.226 264.465C344.73 264.465 345.117 264.852 345.117 265.355C345.117 265.859 344.706 266.234 344.226 266.234H344.062C343.851 266.234 343.699 266.363 343.699 266.621V266.914C343.699 268.93 342.55 270.535 340.394 270.535C339.093 270.535 338.109 269.82 338.109 268.66ZM354.182 272.34C357.322 272.34 359.244 269.785 359.244 265.883C359.244 261.969 357.463 259.426 354.393 259.426C353.139 259.426 352.178 259.941 351.533 260.82C351.275 261.16 351.076 261.547 350.912 261.992C350.725 262.52 350.479 262.883 349.998 262.883C349.518 262.883 349.143 262.52 349.143 262.039C349.143 261.559 349.518 261.195 349.998 261.195H350.303C350.537 261.195 350.666 261.055 350.666 260.82V255.195H348.51V272H350.596V270.184C351.346 271.648 352.635 272.34 354.182 272.34ZM350.678 265.906C350.678 263.199 351.803 261.254 353.865 261.254C355.928 261.254 356.982 263.199 356.982 265.906C356.982 268.613 355.928 270.512 353.865 270.512C351.803 270.512 350.678 268.613 350.678 265.906ZM361.337 272H363.493V255.195H361.337V272ZM371.14 272.34C374.14 272.34 376.039 270.535 376.308 267.922H374.117C373.882 269.598 372.781 270.512 371.292 270.512C369.417 270.512 368 269.293 367.835 266.621C367.812 266.34 367.683 266.27 367.449 266.27H367.261C366.804 266.27 366.464 265.93 366.464 265.473C366.464 265.016 366.804 264.676 367.261 264.676H367.449C367.73 264.676 367.882 264.582 367.929 264.324C368.292 262.309 369.488 261.242 371.117 261.242C372.875 261.242 373.929 262.344 374.082 264.652H368.738C368.234 264.652 367.859 265.039 367.859 265.52C367.859 266 368.234 266.387 368.738 266.387H376.378V265.66C376.378 261.629 374.269 259.426 371.14 259.426C367.953 259.426 365.574 261.922 365.574 265.859C365.574 270.301 367.953 272.34 371.14 272.34Z" fill="#302112"/>
<path d="M199.915 346H209.443V344.008H202.704C202.482 344.008 202.365 344.125 202.365 344.348V344.512C202.365 345.039 201.931 345.449 201.427 345.449C200.9 345.449 200.49 345.039 200.49 344.512C200.49 344.008 200.9 343.574 201.427 343.574H201.743C202.001 343.574 202.118 343.434 202.118 343.188V329.195H199.915V346ZM215.309 346.34C218.625 346.34 220.781 343.809 220.781 339.871C220.781 335.934 218.625 333.426 215.309 333.426C211.992 333.426 209.836 335.934 209.836 339.871C209.836 343.809 211.992 346.34 215.309 346.34ZM210.176 339.883C210.176 339.449 210.516 339.086 210.961 339.086C211.395 339.086 211.758 339.449 211.758 339.883C211.758 340.34 211.395 340.668 210.961 340.668C210.516 340.668 210.176 340.34 210.176 339.883ZM212.098 339.871C212.098 336.918 213.293 335.254 215.309 335.254C217.324 335.254 218.52 336.918 218.52 339.871C218.52 342.824 217.324 344.512 215.309 344.512C213.293 344.512 212.098 342.824 212.098 339.871ZM218.859 339.883C218.859 339.449 219.199 339.086 219.656 339.086C220.09 339.086 220.441 339.449 220.441 339.883C220.441 340.34 220.09 340.668 219.656 340.668C219.199 340.668 218.859 340.34 218.859 339.883ZM225.065 346H227.175L230.139 336.109L232.964 346H235.073L238.612 333.766H236.55L234.335 341.77C234.3 341.887 234.288 341.945 234.288 342.027C234.288 342.121 234.323 342.203 234.428 342.297L234.581 342.438C234.78 342.625 234.885 342.871 234.885 343.105C234.885 343.609 234.499 343.996 233.995 343.996C233.491 343.996 233.104 343.609 233.104 343.105C233.104 342.871 233.21 342.625 233.397 342.438L233.561 342.273C233.643 342.191 233.69 342.133 233.69 342.016C233.69 341.934 233.667 341.852 233.632 341.734L231.358 333.766H228.944L226.542 341.781C226.518 341.875 226.495 341.957 226.495 342.027C226.495 342.121 226.53 342.203 226.635 342.297L226.788 342.438C226.987 342.625 227.092 342.871 227.092 343.105C227.092 343.609 226.706 343.996 226.202 343.996C225.698 343.996 225.311 343.609 225.311 343.105C225.311 342.871 225.417 342.625 225.604 342.438L225.768 342.273C225.85 342.191 225.897 342.133 225.897 342.016C225.897 341.934 225.874 341.852 225.839 341.734L223.706 333.766H221.503L225.065 346ZM198.151 372.34C202.452 372.34 205.135 368.789 205.135 363.598C205.135 358.441 202.405 354.867 198.151 354.867C193.909 354.867 191.167 358.418 191.167 363.598C191.167 368.789 193.885 372.34 198.151 372.34ZM191.471 363.598C191.471 363.117 191.858 362.73 192.338 362.73C192.819 362.73 193.206 363.117 193.206 363.598C193.206 364.078 192.819 364.465 192.338 364.465C191.858 364.465 191.471 364.078 191.471 363.598ZM193.475 363.598C193.475 359.379 195.303 356.883 198.151 356.883C201.01 356.883 202.838 359.379 202.838 363.598C202.838 367.852 201.01 370.324 198.151 370.324C195.303 370.324 193.475 367.828 193.475 363.598ZM203.108 363.598C203.108 363.117 203.495 362.73 203.975 362.73C204.456 362.73 204.842 363.117 204.842 363.598C204.842 364.078 204.456 364.465 203.975 364.465C203.495 364.465 203.108 364.078 203.108 363.598ZM207.357 372H209.513V365.684C209.513 362.906 210.861 361.629 212.876 361.629C213.181 361.629 213.45 361.652 213.755 361.723V359.566C213.615 359.543 213.404 359.52 213.181 359.52C211.904 359.52 210.966 359.977 210.357 360.797C210.087 361.16 209.876 361.594 209.724 362.086C209.583 362.566 209.349 362.93 208.892 362.93C208.411 362.93 208.072 362.566 208.072 362.086C208.072 361.582 208.482 361.242 208.939 361.242H209.243C209.396 361.242 209.513 361.102 209.513 360.984V359.766H207.357V372ZM223.102 355.195V360.82C223.102 361.055 223.23 361.195 223.465 361.195H223.77C224.25 361.195 224.625 361.559 224.625 362.039C224.625 362.52 224.25 362.883 223.77 362.883C223.289 362.883 223.043 362.52 222.855 361.992C222.586 361.266 222.246 360.703 221.801 360.281C221.215 359.707 220.453 359.426 219.516 359.426C216.398 359.426 214.523 362.004 214.523 365.906C214.523 369.809 216.34 372.34 219.516 372.34C221.109 372.34 222.445 371.555 223.172 370.148V372H225.258V355.195H223.102ZM216.785 365.859C216.785 363.152 217.84 361.242 219.902 361.242C221.965 361.242 223.09 363.152 223.09 365.859C223.09 368.566 221.965 370.512 219.902 370.512C217.84 370.512 216.785 368.566 216.785 365.859ZM232.917 372.34C235.917 372.34 237.815 370.535 238.085 367.922H235.893C235.659 369.598 234.557 370.512 233.069 370.512C231.194 370.512 229.776 369.293 229.612 366.621C229.589 366.34 229.46 366.27 229.225 366.27H229.038C228.581 366.27 228.241 365.93 228.241 365.473C228.241 365.016 228.581 364.676 229.038 364.676H229.225C229.507 364.676 229.659 364.582 229.706 364.324C230.069 362.309 231.264 361.242 232.893 361.242C234.651 361.242 235.706 362.344 235.858 364.652H230.514C230.01 364.652 229.635 365.039 229.635 365.52C229.635 366 230.01 366.387 230.514 366.387H238.155V365.66C238.155 361.629 236.046 359.426 232.917 359.426C229.729 359.426 227.35 361.922 227.35 365.859C227.35 370.301 229.729 372.34 232.917 372.34ZM240.283 372H242.439V365.684C242.439 362.906 243.787 361.629 245.802 361.629C246.107 361.629 246.376 361.652 246.681 361.723V359.566C246.54 359.543 246.33 359.52 246.107 359.52C244.83 359.52 243.892 359.977 243.283 360.797C243.013 361.16 242.802 361.594 242.65 362.086C242.509 362.566 242.275 362.93 241.818 362.93C241.337 362.93 240.997 362.566 240.997 362.086C240.997 361.582 241.408 361.242 241.865 361.242H242.169C242.322 361.242 242.439 361.102 242.439 360.984V359.766H240.283V372Z" fill="#302112"/>
</svg>
