<svg width="390" height="390" viewBox="0 0 390 390" fill="none" xmlns="http://www.w3.org/2000/svg">
<circle cx="195" cy="195" r="194.5" stroke="#E1D5C6"/>
<line x1="277.582" y1="276.675" x2="259.333" y2="266.139" stroke="#E1D5C6" stroke-width="2.36701"/>
<line x1="277" y1="179.934" x2="260.186" y2="192.635" stroke="#E1D5C6" stroke-width="2.36701"/>
<line x1="230.649" y1="86.6616" x2="213.835" y2="99.3623" stroke="#E1D5C6" stroke-width="2.36701"/>
<circle cx="195.079" cy="170.324" r="16.271" fill="#B6AC9E"/>
<path d="M195.63 179.318C199.142 179.318 201.704 177.301 202.04 173.453H199.78C199.501 175.945 197.902 177.278 195.838 177.278C192.709 177.278 190.761 174.902 190.761 170.671C190.761 166.452 192.662 164.029 195.676 164.029C197.902 164.029 199.594 165.281 199.872 167.901H202.063C201.843 164.099 199.142 162.035 195.746 162.035C191.283 162.035 188.478 165.432 188.478 170.764C188.478 176.154 191.376 179.318 195.63 179.318ZM188.779 170.671C188.779 170.196 189.162 169.813 189.637 169.813C190.112 169.813 190.495 170.196 190.495 170.671C190.495 171.146 190.112 171.529 189.637 171.529C189.162 171.529 188.779 171.146 188.779 170.671Z" fill="#302112"/>
<circle cx="195.079" cy="110.584" r="16.271" fill="#B6AC9E"/>
<path d="M195.63 119.579C199.142 119.579 201.704 117.562 202.04 113.713H199.78C199.501 116.206 197.902 117.539 195.838 117.539C192.709 117.539 190.761 115.162 190.761 110.932C190.761 106.712 192.662 104.29 195.676 104.29C197.902 104.29 199.594 105.541 199.872 108.161H202.063C201.843 104.359 199.142 102.296 195.746 102.296C191.283 102.296 188.478 105.692 188.478 111.024C188.478 116.414 191.376 119.579 195.63 119.579ZM188.779 110.932C188.779 110.456 189.162 110.074 189.637 110.074C190.112 110.074 190.495 110.456 190.495 110.932C190.495 111.407 190.112 111.789 189.637 111.789C189.162 111.789 188.779 111.407 188.779 110.932Z" fill="#302112"/>
<circle cx="195.079" cy="45.271" r="16.271" fill="#B6AC9E"/>
<path d="M198.875 46.5455V53.9293H201.066V37.3071H198.875V44.1229C198.875 44.262 199.026 44.4127 199.188 44.4127H199.571C200.093 44.4127 200.498 44.8416 200.498 45.3632C200.498 45.8616 200.093 46.2558 199.571 46.2558H199.188C199.026 46.2558 198.875 46.4064 198.875 46.5455ZM189.289 53.9293H191.468V46.5455C191.468 46.4064 191.329 46.2558 191.167 46.2558H190.785C190.263 46.2558 189.857 45.8616 189.857 45.3632C189.857 44.8416 190.263 44.4127 190.785 44.4127H191.167C191.329 44.4127 191.468 44.262 191.468 44.1229V37.3071H189.289V53.9293ZM191.55 45.3632C191.55 45.8848 192.002 46.3137 192.546 46.3137H197.809C198.354 46.3137 198.806 45.8848 198.806 45.3632C198.806 44.8184 198.354 44.3663 197.809 44.3663H192.546C192.002 44.3663 191.55 44.8184 191.55 45.3632Z" fill="#302112"/>
<circle cx="243.889" cy="202.866" r="16.271" fill="#B6AC9E"/>
<path d="M244.44 211.86C247.952 211.86 250.514 209.843 250.85 205.995H248.59C248.311 208.487 246.712 209.82 244.649 209.82C241.519 209.82 239.571 207.444 239.571 203.213C239.571 198.994 241.472 196.571 244.486 196.571C246.712 196.571 248.404 197.823 248.682 200.443H250.873C250.653 196.641 247.952 194.577 244.556 194.577C240.093 194.577 237.288 197.974 237.288 203.306C237.288 208.696 240.186 211.86 244.44 211.86ZM237.589 203.213C237.589 202.738 237.972 202.355 238.447 202.355C238.922 202.355 239.305 202.738 239.305 203.213C239.305 203.688 238.922 204.071 238.447 204.071C237.972 204.071 237.589 203.688 237.589 203.213Z" fill="#302112"/>
<circle cx="98.3784" cy="167.535" r="16.271" fill="#B6AC9E"/>
<path d="M102.172 168.81V176.193H104.363V159.571H102.172V166.387C102.172 166.526 102.322 166.677 102.485 166.677H102.867C103.389 166.677 103.795 167.106 103.795 167.627C103.795 168.126 103.389 168.52 102.867 168.52H102.485C102.322 168.52 102.172 168.671 102.172 168.81ZM92.5856 176.193H94.7648V168.81C94.7648 168.671 94.6257 168.52 94.4635 168.52H94.0809C93.5593 168.52 93.1536 168.126 93.1536 167.627C93.1536 167.106 93.5593 166.677 94.0809 166.677H94.4635C94.6257 166.677 94.7648 166.526 94.7648 166.387V159.571H92.5856V176.193ZM94.846 167.627C94.846 168.149 95.2981 168.578 95.8429 168.578H101.105C101.65 168.578 102.102 168.149 102.102 167.627C102.102 167.083 101.65 166.63 101.105 166.63H95.8429C95.2981 166.63 94.846 167.083 94.846 167.627Z" fill="#302112"/>
<circle cx="142.921" cy="74.0933" r="16.271" fill="#B6AC9E"/>
<path d="M146.717 75.3679V82.7516H148.908V66.1294H146.717V72.9452C146.717 73.0843 146.868 73.235 147.03 73.235H147.413C147.934 73.235 148.34 73.6639 148.34 74.1855C148.34 74.684 147.934 75.0781 147.413 75.0781H147.03C146.868 75.0781 146.717 75.2288 146.717 75.3679ZM137.131 82.7516H139.31V75.3679C139.31 75.2288 139.171 75.0781 139.009 75.0781H138.626C138.105 75.0781 137.699 74.684 137.699 74.1855C137.699 73.6639 138.105 73.235 138.626 73.235H139.009C139.171 73.235 139.31 73.0843 139.31 72.9452V66.1294H137.131V82.7516ZM139.391 74.1855C139.391 74.7071 139.843 75.136 140.388 75.136H145.651C146.196 75.136 146.648 74.7071 146.648 74.1855C146.648 73.6407 146.196 73.1887 145.651 73.1887H140.388C139.843 73.1887 139.391 73.6407 139.391 74.1855Z" fill="#302112"/>
<circle cx="294.8" cy="285.384" r="16.271" fill="#B6AC9E"/>
<path d="M298.596 286.658V294.042H300.787V277.42H298.596V284.236C298.596 284.375 298.747 284.526 298.909 284.526H299.292C299.813 284.526 300.219 284.955 300.219 285.476C300.219 285.975 299.813 286.369 299.292 286.369H298.909C298.747 286.369 298.596 286.519 298.596 286.658ZM289.01 294.042H291.189V286.658C291.189 286.519 291.05 286.369 290.888 286.369H290.505C289.984 286.369 289.578 285.975 289.578 285.476C289.578 284.955 289.984 284.526 290.505 284.526H290.888C291.05 284.526 291.189 284.375 291.189 284.236V277.42H289.01V294.042ZM291.27 285.476C291.27 285.998 291.722 286.427 292.267 286.427H297.53C298.075 286.427 298.527 285.998 298.527 285.476C298.527 284.931 298.075 284.479 297.53 284.479H292.267C291.722 284.479 291.27 284.931 291.27 285.476Z" fill="#302112"/>
<circle cx="291.732" cy="167.474" r="16.271" fill="#B6AC9E"/>
<path d="M295.529 168.749V176.133H297.72V159.51H295.529V166.326C295.529 166.465 295.679 166.616 295.842 166.616H296.224C296.746 166.616 297.152 167.045 297.152 167.567C297.152 168.065 296.746 168.459 296.224 168.459H295.842C295.679 168.459 295.529 168.61 295.529 168.749ZM285.943 176.133H288.122V168.749C288.122 168.61 287.983 168.459 287.82 168.459H287.438C286.916 168.459 286.511 168.065 286.511 167.567C286.511 167.045 286.916 166.616 287.438 166.616H287.82C287.983 166.616 288.122 166.465 288.122 166.326V159.51H285.943V176.133ZM288.203 167.567C288.203 168.088 288.655 168.517 289.2 168.517H294.462C295.007 168.517 295.459 168.088 295.459 167.567C295.459 167.022 295.007 166.57 294.462 166.57H289.2C288.655 166.57 288.203 167.022 288.203 167.567Z" fill="#302112"/>
<circle cx="245.379" cy="74.0933" r="16.271" fill="#B6AC9E"/>
<path d="M249.176 75.3679V82.7516H251.367V66.1294H249.176V72.9452C249.176 73.0843 249.326 73.235 249.489 73.235H249.871C250.393 73.235 250.799 73.6639 250.799 74.1855C250.799 74.684 250.393 75.0781 249.871 75.0781H249.489C249.326 75.0781 249.176 75.2288 249.176 75.3679ZM239.59 82.7516H241.769V75.3679C241.769 75.2288 241.63 75.0781 241.467 75.0781H241.085C240.563 75.0781 240.158 74.684 240.158 74.1855C240.158 73.6639 240.563 73.235 241.085 73.235H241.467C241.63 73.235 241.769 73.0843 241.769 72.9452V66.1294H239.59V82.7516ZM241.85 74.1855C241.85 74.7071 242.302 75.136 242.847 75.136H248.109C248.654 75.136 249.106 74.7071 249.106 74.1855C249.106 73.6407 248.654 73.1887 248.109 73.1887H242.847C242.302 73.1887 241.85 73.6407 241.85 74.1855Z" fill="#302112"/>
<circle cx="195.079" cy="343.73" r="16.271" fill="#B6AC9E"/>
<path d="M198.875 345.005V352.388H201.066V335.766H198.875V342.582C198.875 342.721 199.026 342.872 199.188 342.872H199.571C200.093 342.872 200.498 343.301 200.498 343.822C200.498 344.321 200.093 344.715 199.571 344.715H199.188C199.026 344.715 198.875 344.865 198.875 345.005ZM189.289 352.388H191.468V345.005C191.468 344.865 191.329 344.715 191.167 344.715H190.785C190.263 344.715 189.857 344.321 189.857 343.822C189.857 343.301 190.263 342.872 190.785 342.872H191.167C191.329 342.872 191.468 342.721 191.468 342.582V335.766H189.289V352.388ZM191.55 343.822C191.55 344.344 192.002 344.773 192.546 344.773H197.809C198.354 344.773 198.806 344.344 198.806 343.822C198.806 343.277 198.354 342.825 197.809 342.825H192.546C192.002 342.825 191.55 343.277 191.55 343.822Z" fill="#302112"/>
<circle cx="146.261" cy="202.866" r="16.271" fill="#B6AC9E"/>
<path d="M146.812 211.86C150.324 211.86 152.886 209.843 153.222 205.995H150.962C150.683 208.487 149.084 209.82 147.021 209.82C143.891 209.82 141.944 207.444 141.944 203.213C141.944 198.994 143.845 196.571 146.858 196.571C149.084 196.571 150.776 197.823 151.054 200.443H153.245C153.025 196.641 150.324 194.577 146.928 194.577C142.465 194.577 139.66 197.974 139.66 203.306C139.66 208.696 142.558 211.86 146.812 211.86ZM139.961 203.213C139.961 202.738 140.344 202.355 140.819 202.355C141.294 202.355 141.677 202.738 141.677 203.213C141.677 203.688 141.294 204.071 140.819 204.071C140.344 204.071 139.961 203.688 139.961 203.213Z" fill="#302112"/>
<circle cx="243.889" cy="255.168" r="16.271" fill="#B6AC9E"/>
<path d="M244.44 264.163C247.952 264.163 250.514 262.146 250.85 258.297H248.59C248.311 260.79 246.712 262.123 244.649 262.123C241.519 262.123 239.571 259.746 239.571 255.515C239.571 251.296 241.472 248.874 244.486 248.874C246.712 248.874 248.404 250.125 248.682 252.745H250.873C250.653 248.943 247.952 246.88 244.556 246.88C240.093 246.88 237.288 250.276 237.288 255.608C237.288 260.998 240.186 264.163 244.44 264.163ZM237.589 255.515C237.589 255.04 237.972 254.658 238.447 254.658C238.922 254.658 239.305 255.04 239.305 255.515C239.305 255.991 238.922 256.373 238.447 256.373C237.972 256.373 237.589 255.991 237.589 255.515Z" fill="#302112"/>
<circle cx="195.079" cy="284.224" r="16.271" fill="#B6AC9E"/>
<path d="M195.63 293.218C199.142 293.218 201.704 291.201 202.04 287.353H199.78C199.501 289.845 197.902 291.178 195.838 291.178C192.709 291.178 190.761 288.802 190.761 284.571C190.761 280.352 192.662 277.929 195.676 277.929C197.902 277.929 199.594 279.181 199.872 281.8H202.063C201.843 277.998 199.142 275.935 195.746 275.935C191.283 275.935 188.478 279.331 188.478 284.664C188.478 290.054 191.376 293.218 195.63 293.218ZM188.779 284.571C188.779 284.096 189.162 283.713 189.637 283.713C190.112 283.713 190.495 284.096 190.495 284.571C190.495 285.046 190.112 285.429 189.637 285.429C189.162 285.429 188.779 285.046 188.779 284.571Z" fill="#302112"/>
<circle cx="146.261" cy="255.168" r="16.271" fill="#B6AC9E"/>
<path d="M146.812 264.163C150.324 264.163 152.886 262.146 153.222 258.297H150.962C150.683 260.79 149.084 262.123 147.021 262.123C143.891 262.123 141.944 259.746 141.944 255.515C141.944 251.296 143.845 248.874 146.858 248.874C149.084 248.874 150.776 250.125 151.054 252.745H153.245C153.025 248.943 150.324 246.88 146.928 246.88C142.465 246.88 139.66 250.276 139.66 255.608C139.66 260.998 142.558 264.163 146.812 264.163ZM139.961 255.515C139.961 255.04 140.344 254.658 140.819 254.658C141.294 254.658 141.677 255.04 141.677 255.515C141.677 255.991 141.294 256.373 140.819 256.373C140.344 256.373 139.961 255.991 139.961 255.515Z" fill="#302112"/>
<line y1="-1.1835" x2="21.0718" y2="-1.1835" transform="matrix(1.19249e-08 -1 -1 -1.19249e-08 195.078 151.032)" stroke="#E1D5C6" stroke-width="2.36701"/>
<line y1="-1.1835" x2="21.0718" y2="-1.1835" transform="matrix(1.19249e-08 -1 -1 -1.19249e-08 195.078 85.7172)" stroke="#E1D5C6" stroke-width="2.36701"/>
<line y1="-1.1835" x2="21.0718" y2="-1.1835" transform="matrix(1.19249e-08 -1 -1 -1.19249e-08 195.078 324.433)" stroke="#E1D5C6" stroke-width="2.36701"/>
<circle cx="95.271" cy="285.295" r="16.271" fill="#B6AC9E"/>
<path d="M99.0644 286.569V293.953H101.255V277.331H99.0644V284.147C99.0644 284.286 99.2151 284.436 99.3774 284.436H99.7599C100.281 284.436 100.687 284.865 100.687 285.387C100.687 285.885 100.281 286.279 99.7599 286.279H99.3774C99.2151 286.279 99.0644 286.43 99.0644 286.569ZM89.4782 293.953H91.6574V286.569C91.6574 286.43 91.5183 286.279 91.356 286.279H90.9735C90.4519 286.279 90.0462 285.885 90.0462 285.387C90.0462 284.865 90.4519 284.436 90.9735 284.436H91.356C91.5183 284.436 91.6574 284.286 91.6574 284.147V277.331H89.4782V293.953ZM91.7386 285.387C91.7386 285.909 92.1906 286.337 92.7354 286.337H97.998C98.5428 286.337 98.9948 285.909 98.9948 285.387C98.9948 284.842 98.5428 284.39 97.998 284.39H92.7354C92.1906 284.39 91.7386 284.842 91.7386 285.387Z" fill="#302112"/>
<line y1="-1.1835" x2="21.0718" y2="-1.1835" transform="matrix(0.866025 -0.5 -0.5 -0.866025 111.982 275.65)" stroke="#E1D5C6" stroke-width="2.36701"/>
<line y1="-1.1835" x2="14.6439" y2="-1.1835" transform="matrix(1.72541e-08 -1 -1 -8.24166e-09 240.404 237.034)" stroke="#E1D5C6" stroke-width="2.36701"/>
<line y1="-1.1835" x2="14.6439" y2="-1.1835" transform="matrix(1.72541e-08 -1 -1 -8.24166e-09 247.376 237.034)" stroke="#E1D5C6" stroke-width="2.36701"/>
<line y1="-1.1835" x2="14.6439" y2="-1.1835" transform="matrix(0.866025 -0.5 -0.5 -0.866025 162.46 184.072)" stroke="#E1D5C6" stroke-width="2.36701"/>
<line y1="-1.1835" x2="14.6439" y2="-1.1835" transform="matrix(0.866025 -0.5 -0.5 -0.866025 165.947 190.109)" stroke="#E1D5C6" stroke-width="2.36701"/>
<line x1="178.108" y1="272.351" x2="165.426" y2="265.029" stroke="#E1D5C6" stroke-width="2.36701"/>
<line x1="174.622" y1="278.388" x2="161.94" y2="271.066" stroke="#E1D5C6" stroke-width="2.36701"/>
<line y1="-1.1835" x2="14.6439" y2="-1.1835" transform="matrix(1.72541e-08 -1 -1 -8.24166e-09 146.263 237.037)" stroke="#302112" stroke-width="2.36701"/>
<line y1="-1.1835" x2="14.6439" y2="-1.1835" transform="matrix(-0.866025 -0.5 -0.5 0.866025 225.89 189.036)" stroke="#E1D5C6" stroke-width="2.36701"/>
<line x1="226.481" y1="267.581" x2="213.799" y2="274.903" stroke="#302112" stroke-width="2.36701"/>
<line y1="-1.1835" x2="21.0718" y2="-1.1835" transform="matrix(0.797942 0.602735 0.602735 -0.797942 113.823 178.99)" stroke="#E1D5C6" stroke-width="2.36701"/>
<line y1="-1.1835" x2="21.0718" y2="-1.1835" transform="matrix(0.797942 0.602735 0.602735 -0.797942 158.361 85.7172)" stroke="#E1D5C6" stroke-width="2.36701"/>
</svg>
