<svg width="390" height="390" viewBox="0 0 390 390" fill="none" xmlns="http://www.w3.org/2000/svg">
<circle cx="195" cy="195" r="194.5" stroke="#E1D5C6"/>
<line x1="250.504" y1="243.383" x2="232.63" y2="233.063" stroke="#E1D5C6" stroke-width="2.3184"/>
<line x1="249.934" y1="148.633" x2="233.465" y2="161.073" stroke="#E1D5C6" stroke-width="2.3184"/>
<circle cx="169.692" cy="139.22" r="15.9369" fill="#B6AC9E"/>
<path d="M170.393 147.522C173.834 147.522 176.343 145.547 176.672 141.777H174.458C174.186 144.218 172.619 145.524 170.598 145.524C167.532 145.524 165.625 143.197 165.625 139.053C165.625 134.92 167.487 132.547 170.439 132.547C172.619 132.547 174.276 133.773 174.549 136.339H176.695C176.479 132.615 173.834 130.594 170.507 130.594C166.136 130.594 163.388 133.921 163.388 139.143C163.388 144.423 166.227 147.522 170.393 147.522ZM163.684 139.053C163.684 138.587 164.058 138.212 164.524 138.212C164.989 138.212 165.364 138.587 165.364 139.053C165.364 139.518 164.989 139.893 164.524 139.893C164.058 139.893 163.684 139.518 163.684 139.053Z" fill="#302112"/>
<circle cx="217.419" cy="171.093" r="15.9369" fill="#B6AC9E"/>
<path d="M218.12 179.396C221.56 179.396 224.069 177.42 224.398 173.651H222.185C221.912 176.092 220.345 177.398 218.324 177.398C215.259 177.398 213.352 175.07 213.352 170.926C213.352 166.793 215.214 164.421 218.165 164.421C220.345 164.421 222.003 165.647 222.275 168.213H224.421C224.205 164.489 221.56 162.468 218.234 162.468C213.862 162.468 211.115 165.794 211.115 171.017C211.115 176.296 213.953 179.396 218.12 179.396ZM211.41 170.926C211.41 170.461 211.785 170.086 212.25 170.086C212.716 170.086 213.09 170.461 213.09 170.926C213.09 171.392 212.716 171.766 212.25 171.766C211.785 171.766 211.41 171.392 211.41 170.926Z" fill="#302112"/>
<circle cx="74.9769" cy="136.489" r="15.9369" fill="#B6AC9E"/>
<path d="M78.8571 137.23V144.462H81.0029V128.181H78.8571V134.857C78.8571 134.993 79.0047 135.141 79.1636 135.141H79.5383C80.0492 135.141 80.4466 135.561 80.4466 136.072C80.4466 136.56 80.0492 136.946 79.5383 136.946H79.1636C79.0047 136.946 78.8571 137.094 78.8571 137.23ZM69.4678 144.462H71.6022V137.23C71.6022 137.094 71.466 136.946 71.3071 136.946H70.9324C70.4215 136.946 70.0241 136.56 70.0241 136.072C70.0241 135.561 70.4215 135.141 70.9324 135.141H71.3071C71.466 135.141 71.6022 134.993 71.6022 134.857V128.181H69.4678V144.462ZM71.6817 136.072C71.6817 136.583 72.1245 137.003 72.6581 137.003H77.8126C78.3462 137.003 78.789 136.583 78.789 136.072C78.789 135.538 78.3462 135.096 77.8126 135.096H72.6581C72.1245 135.096 71.6817 135.538 71.6817 136.072Z" fill="#302112"/>
<circle cx="267.935" cy="136.489" r="15.9369" fill="#B6AC9E"/>
<path d="M268.441 144.792C271.881 144.792 274.391 142.816 274.72 139.047H272.506C272.233 141.488 270.667 142.793 268.646 142.793C265.58 142.793 263.673 140.466 263.673 136.322C263.673 132.189 265.535 129.816 268.487 129.816C270.667 129.816 272.324 131.042 272.597 133.608H274.742C274.527 129.884 271.881 127.864 268.555 127.864C264.184 127.864 261.436 131.19 261.436 136.413C261.436 141.692 264.275 144.792 268.441 144.792ZM261.731 136.322C261.731 135.856 262.106 135.482 262.572 135.482C263.037 135.482 263.412 135.856 263.412 136.322C263.412 136.787 263.037 137.162 262.572 137.162C262.106 137.162 261.731 136.787 261.731 136.322Z" fill="#302112"/>
<circle cx="267.878" cy="251.918" r="15.9369" fill="#B6AC9E"/>
<path d="M268.439 260.22C271.879 260.22 274.388 258.245 274.717 254.476H272.503C272.231 256.917 270.664 258.222 268.643 258.222C265.578 258.222 263.67 255.895 263.67 251.751C263.67 247.618 265.532 245.245 268.484 245.245C270.664 245.245 272.322 246.471 272.594 249.037H274.74C274.524 245.313 271.879 243.292 268.552 243.292C264.181 243.292 261.434 246.619 261.434 251.842C261.434 257.121 264.272 260.22 268.439 260.22ZM261.729 251.751C261.729 251.285 262.104 250.911 262.569 250.911C263.035 250.911 263.409 251.285 263.409 251.751C263.409 252.216 263.035 252.591 262.569 252.591C262.104 252.591 261.729 252.216 261.729 251.751Z" fill="#302112"/>
<circle cx="169.692" cy="309.064" r="15.9369" fill="#B6AC9E"/>
<path d="M173.572 309.805V317.037H175.718V300.756H173.572V307.432C173.572 307.568 173.72 307.716 173.879 307.716H174.254C174.765 307.716 175.162 308.136 175.162 308.647C175.162 309.135 174.765 309.521 174.254 309.521H173.879C173.72 309.521 173.572 309.669 173.572 309.805ZM164.183 317.037H166.318V309.805C166.318 309.669 166.181 309.521 166.022 309.521H165.648C165.137 309.521 164.739 309.135 164.739 308.647C164.739 308.136 165.137 307.716 165.648 307.716H166.022C166.181 307.716 166.318 307.568 166.318 307.432V300.756H164.183V317.037ZM166.397 308.647C166.397 309.158 166.84 309.578 167.373 309.578H172.528C173.062 309.578 173.504 309.158 173.504 308.647C173.504 308.113 173.062 307.671 172.528 307.671H167.373C166.84 307.671 166.397 308.113 166.397 308.647Z" fill="#302112"/>
<circle cx="169.692" cy="80.9369" r="15.9369" fill="#B6AC9E"/>
<path d="M173.572 81.6781V88.9102H175.718V72.6294H173.572V79.3052C173.572 79.4414 173.72 79.589 173.879 79.589H174.254C174.765 79.589 175.162 80.0091 175.162 80.52C175.162 81.0082 174.765 81.3942 174.254 81.3942H173.879C173.72 81.3942 173.572 81.5418 173.572 81.6781ZM164.183 88.9102H166.318V81.6781C166.318 81.5418 166.181 81.3942 166.022 81.3942H165.648C165.137 81.3942 164.739 81.0082 164.739 80.52C164.739 80.0091 165.137 79.589 165.648 79.589H166.022C166.181 79.589 166.318 79.4414 166.318 79.3052V72.6294H164.183V88.9102ZM166.397 80.52C166.397 81.0309 166.84 81.451 167.373 81.451H172.528C173.062 81.451 173.504 81.0309 173.504 80.52C173.504 79.9864 173.062 79.5436 172.528 79.5436H167.373C166.84 79.5436 166.397 79.9864 166.397 80.52Z" fill="#302112"/>
<circle cx="121.887" cy="171.093" r="15.9369" fill="#B6AC9E"/>
<path d="M122.588 179.396C126.028 179.396 128.538 177.42 128.867 173.651H126.653C126.38 176.092 124.814 177.398 122.793 177.398C119.727 177.398 117.82 175.07 117.82 170.926C117.82 166.793 119.682 164.421 122.634 164.421C124.814 164.421 126.471 165.647 126.744 168.213H128.889C128.674 164.489 126.028 162.468 122.702 162.468C118.331 162.468 115.583 165.794 115.583 171.017C115.583 176.296 118.422 179.396 122.588 179.396ZM115.878 170.926C115.878 170.461 116.253 170.086 116.719 170.086C117.184 170.086 117.559 170.461 117.559 170.926C117.559 171.392 117.184 171.766 116.719 171.766C116.253 171.766 115.878 171.392 115.878 170.926Z" fill="#302112"/>
<circle cx="217.495" cy="222.315" r="15.9369" fill="#B6AC9E"/>
<path d="M218.197 230.618C221.637 230.618 224.146 228.642 224.475 224.873H222.261C221.989 227.314 220.422 228.619 218.401 228.619C215.336 228.619 213.428 226.292 213.428 222.148C213.428 218.015 215.29 215.642 218.242 215.642C220.422 215.642 222.08 216.869 222.352 219.434H224.498C224.282 215.71 221.637 213.69 218.31 213.69C213.939 213.69 211.192 217.016 211.192 222.239C211.192 227.518 214.03 230.618 218.197 230.618ZM211.487 222.148C211.487 221.682 211.861 221.308 212.327 221.308C212.792 221.308 213.167 221.682 213.167 222.148C213.167 222.613 212.792 222.988 212.327 222.988C211.861 222.988 211.487 222.613 211.487 222.148Z" fill="#302112"/>
<circle cx="169.692" cy="250.778" r="15.9369" fill="#B6AC9E"/>
<path d="M170.393 259.081C173.834 259.081 176.343 257.105 176.672 253.336H174.458C174.186 255.777 172.619 257.082 170.598 257.082C167.532 257.082 165.625 254.755 165.625 250.611C165.625 246.478 167.487 244.105 170.439 244.105C172.619 244.105 174.276 245.332 174.549 247.897H176.695C176.479 244.174 173.834 242.153 170.507 242.153C166.136 242.153 163.388 245.479 163.388 250.702C163.388 255.981 166.227 259.081 170.393 259.081ZM163.684 250.611C163.684 250.145 164.058 249.771 164.524 249.771C164.989 249.771 165.364 250.145 165.364 250.611C165.364 251.076 164.989 251.451 164.524 251.451C164.058 251.451 163.684 251.076 163.684 250.611Z" fill="#302112"/>
<circle cx="121.887" cy="222.315" r="15.9369" fill="#B6AC9E"/>
<path d="M122.588 230.618C126.028 230.618 128.538 228.642 128.867 224.873H126.653C126.38 227.314 124.814 228.619 122.793 228.619C119.727 228.619 117.82 226.292 117.82 222.148C117.82 218.015 119.682 215.642 122.634 215.642C124.814 215.642 126.471 216.869 126.744 219.434H128.889C128.674 215.71 126.028 213.69 122.702 213.69C118.331 213.69 115.583 217.016 115.583 222.239C115.583 227.518 118.422 230.618 122.588 230.618ZM115.878 222.148C115.878 221.682 116.253 221.308 116.719 221.308C117.184 221.308 117.559 221.682 117.559 222.148C117.559 222.613 117.184 222.988 116.719 222.988C116.253 222.988 115.878 222.613 115.878 222.148Z" fill="#302112"/>
<line y1="-1.1592" x2="20.6391" y2="-1.1592" transform="matrix(1.19249e-08 -1 -1 -1.19249e-08 169.693 120.325)" stroke="#E1D5C6" stroke-width="2.3184"/>
<line y1="-1.1592" x2="20.6391" y2="-1.1592" transform="matrix(1.19249e-08 -1 -1 -1.19249e-08 169.693 290.166)" stroke="#E1D5C6" stroke-width="2.3184"/>
<circle cx="71.9369" cy="251.829" r="15.9369" fill="#B6AC9E"/>
<path d="M75.8171 252.57V259.802H77.9629V243.521H75.8171V250.197C75.8171 250.333 75.9647 250.481 76.1236 250.481H76.4983C77.0092 250.481 77.4065 250.901 77.4065 251.412C77.4065 251.9 77.0092 252.286 76.4983 252.286H76.1236C75.9647 252.286 75.8171 252.434 75.8171 252.57ZM66.4278 259.802H68.5622V252.57C68.5622 252.434 68.426 252.286 68.267 252.286H67.8924C67.3814 252.286 66.9841 251.9 66.9841 251.412C66.9841 250.901 67.3814 250.481 67.8924 250.481H68.267C68.426 250.481 68.5622 250.333 68.5622 250.197V243.521H66.4278V259.802ZM68.6417 251.412C68.6417 251.923 69.0845 252.343 69.6181 252.343H74.7725C75.3062 252.343 75.7489 251.923 75.7489 251.412C75.7489 250.878 75.3062 250.436 74.7725 250.436H69.6181C69.0845 250.436 68.6417 250.878 68.6417 251.412Z" fill="#302112"/>
<line y1="-1.1592" x2="20.6391" y2="-1.1592" transform="matrix(0.866025 -0.5 -0.5 -0.866025 88.3032 242.379)" stroke="#E1D5C6" stroke-width="2.3184"/>
<line y1="-1.1592" x2="14.3432" y2="-1.1592" transform="matrix(1.72541e-08 -1 -1 -8.24166e-09 214.085 204.56)" stroke="#E1D5C6" stroke-width="2.3184"/>
<line y1="-1.1592" x2="14.3432" y2="-1.1592" transform="matrix(1.72541e-08 -1 -1 -8.24166e-09 220.917 204.56)" stroke="#E1D5C6" stroke-width="2.3184"/>
<line y1="-1.1592" x2="14.3432" y2="-1.1592" transform="matrix(0.866025 -0.5 -0.5 -0.866025 137.739 152.687)" stroke="#E1D5C6" stroke-width="2.3184"/>
<line y1="-1.1592" x2="14.3432" y2="-1.1592" transform="matrix(0.866025 -0.5 -0.5 -0.866025 141.147 158.598)" stroke="#E1D5C6" stroke-width="2.3184"/>
<line x1="153.075" y1="239.15" x2="140.653" y2="231.978" stroke="#E1D5C6" stroke-width="2.3184"/>
<line x1="149.666" y1="245.061" x2="137.244" y2="237.889" stroke="#E1D5C6" stroke-width="2.3184"/>
<line y1="-1.1592" x2="14.3432" y2="-1.1592" transform="matrix(1.72541e-08 -1 -1 -8.24166e-09 121.885 204.558)" stroke="#E1D5C6" stroke-width="2.3184"/>
<line y1="-1.1592" x2="14.3432" y2="-1.1592" transform="matrix(-0.866025 -0.5 -0.5 0.866025 199.874 157.544)" stroke="#E1D5C6" stroke-width="2.3184"/>
<line x1="200.453" y1="234.477" x2="188.032" y2="241.649" stroke="#E1D5C6" stroke-width="2.3184"/>
<line y1="-1.1592" x2="20.6391" y2="-1.1592" transform="matrix(0.797942 0.602735 0.602735 -0.797942 90.1094 147.708)" stroke="#E1D5C6" stroke-width="2.3184"/>
<circle cx="222.94" cy="96.4143" r="15.9369" fill="#B6AC9E"/>
<path d="M219.053 97.1555V104.388H216.907V88.1068H219.053V94.7827C219.053 94.9189 218.905 95.0665 218.747 95.0665H218.372C217.861 95.0665 217.464 95.4866 217.464 95.9975C217.464 96.4857 217.861 96.8717 218.372 96.8717H218.747C218.905 96.8717 219.053 97.0193 219.053 97.1555ZM228.442 104.388H226.308V97.1555C226.308 97.0193 226.444 96.8717 226.603 96.8717H226.978C227.489 96.8717 227.886 96.4857 227.886 95.9975C227.886 95.4866 227.489 95.0665 226.978 95.0665H226.603C226.444 95.0665 226.308 94.9189 226.308 94.7827V88.1068H228.442V104.388ZM226.228 95.9975C226.228 96.5084 225.786 96.9285 225.252 96.9285H220.098C219.564 96.9285 219.121 96.5084 219.121 95.9975C219.121 95.4639 219.564 95.0211 220.098 95.0211H225.252C225.786 95.0211 226.228 95.4639 226.228 95.9975Z" fill="#302112"/>
<path d="M237.362 108.557L253.831 120.997" stroke="#E1D5C6" stroke-width="2.3184"/>
<circle r="15.9369" transform="matrix(1 0 0 -1 221.94 294.697)" fill="#B6AC9E"/>
<path d="M225.82 293.956V286.724H227.966V303.005H225.82V296.329C225.82 296.193 225.968 296.045 226.127 296.045H226.501C227.012 296.045 227.409 295.625 227.409 295.114C227.409 294.626 227.012 294.24 226.501 294.24H226.127C225.968 294.24 225.82 294.092 225.82 293.956ZM216.431 286.724H218.565V293.956C218.565 294.092 218.429 294.24 218.27 294.24H217.895C217.384 294.24 216.987 294.626 216.987 295.114C216.987 295.625 217.384 296.045 217.895 296.045H218.27C218.429 296.045 218.565 296.193 218.565 296.329V303.005H216.431V286.724ZM218.645 295.114C218.645 294.603 219.087 294.183 219.621 294.183H224.775C225.309 294.183 225.752 294.603 225.752 295.114C225.752 295.648 225.309 296.09 224.775 296.09H219.621C219.087 296.09 218.645 295.648 218.645 295.114Z" fill="#302112"/>
<line x1="234.304" y1="280.553" x2="250.773" y2="268.113" stroke="#E1D5C6" stroke-width="2.3184"/>
<circle r="15.9369" transform="matrix(-1 0 0 1 317.063 96.4134)" fill="#B6AC9E"/>
<path d="M320.95 97.1546V104.387H323.096V88.1059H320.95V94.7818C320.95 94.918 321.097 95.0656 321.256 95.0656H321.631C322.142 95.0656 322.539 95.4857 322.539 95.9966C322.539 96.4848 322.142 96.8708 321.631 96.8708H321.256C321.097 96.8708 320.95 97.0184 320.95 97.1546ZM311.561 104.387H313.695V97.1546C313.695 97.0184 313.559 96.8708 313.4 96.8708H313.025C312.514 96.8708 312.117 96.4848 312.117 95.9966C312.117 95.4857 312.514 95.0656 313.025 95.0656H313.4C313.559 95.0656 313.695 94.918 313.695 94.7818V88.1059H311.561V104.387ZM313.774 95.9966C313.774 96.5075 314.217 96.9276 314.751 96.9276H319.905C320.439 96.9276 320.882 96.5075 320.882 95.9966C320.882 95.463 320.439 95.0202 319.905 95.0202H314.751C314.217 95.0202 313.774 95.463 313.774 95.9966Z" fill="#302112"/>
<line x1="301.699" y1="108.558" x2="285.23" y2="120.998" stroke="#E1D5C6" stroke-width="2.3184"/>
<circle cx="316.937" cy="222.316" r="15.9369" fill="#B6AC9E"/>
<path d="M320.817 223.057V230.289H322.963V214.008H320.817V220.684C320.817 220.82 320.965 220.968 321.124 220.968H321.498C322.009 220.968 322.407 221.388 322.407 221.899C322.407 222.387 322.009 222.773 321.498 222.773H321.124C320.965 222.773 320.817 222.921 320.817 223.057ZM311.428 230.289H313.562V223.057C313.562 222.921 313.426 222.773 313.267 222.773H312.892C312.381 222.773 311.984 222.387 311.984 221.899C311.984 221.388 312.381 220.968 312.892 220.968H313.267C313.426 220.968 313.562 220.82 313.562 220.684V214.008H311.428V230.289ZM313.642 221.899C313.642 222.41 314.084 222.83 314.618 222.83H319.773C320.306 222.83 320.749 222.41 320.749 221.899C320.749 221.365 320.306 220.922 319.773 220.922H314.618C314.084 220.922 313.642 221.365 313.642 221.899Z" fill="#302112"/>
<line x1="301.699" y1="230.925" x2="285.23" y2="243.365" stroke="#E1D5C6" stroke-width="2.3184"/>
<circle cx="317.309" cy="294.698" r="15.9369" transform="rotate(-180 317.309 294.698)" fill="#B6AC9E"/>
<path d="M313.429 293.957V286.724H311.283V303.005H313.429V296.33C313.429 296.193 313.281 296.046 313.122 296.046H312.747C312.236 296.046 311.839 295.626 311.839 295.115C311.839 294.626 312.236 294.24 312.747 294.24H313.122C313.281 294.24 313.429 294.093 313.429 293.957ZM322.818 286.724H320.683V293.957C320.683 294.093 320.82 294.24 320.979 294.24H321.353C321.864 294.24 322.262 294.626 322.262 295.115C322.262 295.626 321.864 296.046 321.353 296.046H320.979C320.82 296.046 320.683 296.193 320.683 296.33V303.005H322.818V286.724ZM320.604 295.115C320.604 294.604 320.161 294.184 319.628 294.184H314.473C313.939 294.184 313.497 294.604 313.497 295.115C313.497 295.648 313.939 296.091 314.473 296.091H319.628C320.161 296.091 320.604 295.648 320.604 295.115Z" fill="#302112"/>
<line y1="-1.1592" x2="20.6391" y2="-1.1592" transform="matrix(-0.797942 -0.602735 -0.602735 0.797942 300.948 281.478)" stroke="#E1D5C6" stroke-width="2.3184"/>
<circle cx="317.445" cy="171.093" r="15.9369" fill="#B6AC9E"/>
<path d="M321.325 171.834V179.066H323.471V162.786H321.325V169.461C321.325 169.598 321.472 169.745 321.631 169.745H322.006C322.517 169.745 322.914 170.165 322.914 170.676C322.914 171.164 322.517 171.55 322.006 171.55H321.631C321.472 171.55 321.325 171.698 321.325 171.834ZM311.936 179.066H314.07V171.834C314.07 171.698 313.934 171.55 313.775 171.55H313.4C312.889 171.55 312.492 171.164 312.492 170.676C312.492 170.165 312.889 169.745 313.4 169.745H313.775C313.934 169.745 314.07 169.598 314.07 169.461V162.786H311.936V179.066ZM314.149 170.676C314.149 171.187 314.592 171.607 315.126 171.607H320.28C320.814 171.607 321.257 171.187 321.257 170.676C321.257 170.143 320.814 169.7 320.28 169.7H315.126C314.592 169.7 314.149 170.143 314.149 170.676Z" fill="#302112"/>
<line y1="-1.1592" x2="20.6391" y2="-1.1592" transform="matrix(0.797942 0.602735 0.602735 -0.797942 286 147.707)" stroke="#E1D5C6" stroke-width="2.3184"/>
</svg>
